<?xml version="1.0" standalone="no"?>
  <!DOCTYPE svg PUBLIC "-//W3C//DTD SVG 1.1//EN" "http://www.w3.org/Graphics/SVG/1.1/DTD/svg11.dtd" >
  <svg>
  <metadata>
  Created by font-carrier
  </metadata>
  <defs>
  <font id="AktivGroteskCorp-Italic" horiz-adv-x="1321" vert-adv-y="1321" >
    <font-face
      
      font-family="AktivGroteskCorp-Italic"
      
      font-weight="400"
      
      font-stretch="normal"
      
      units-per-em="1000"
      
      ascent="921"
      
      descent="-223"
      
    />
      <missing-glyph />

      

      
      <glyph glyph-name="uni21" unicode="&#x21;" d="M82 205L184 714L276 714L163 205L82 205M33 0L57 116L154 116L130 0L33 0Z"  horiz-adv-x="230" vert-adv-y="1000"  />

      
      <glyph glyph-name="uni22" unicode="&#x22;" d="M166 458L91 458L138 710L226 710L166 458M333 458L258 458L305 710L393 710L333 458Z"  horiz-adv-x="334" vert-adv-y="1000"  />

      
      <glyph glyph-name="uni23" unicode="&#x23;" d="M351 176L195 176L132 0L54 0L117 176L23 176L35 241L140 241L213 439L109 439L122 504L237 504L299 678L377 678L313 504L469 504L532 678L610 678L548 504L637 504L625 439L524 439L451 241L550 241L537 176L428 176L366 0L287 0L351 176M218 241L374 241L445 439L290 439L218 241Z"  horiz-adv-x="592" vert-adv-y="1000"  />

      
      <glyph glyph-name="uni24" unicode="&#x24;" d="M544 204Q544 97 477 40Q410-17 288-17L277-17L257-113L193-113L214-11Q178-5 146 9.50Q114 24 90 48Q66 72 52 107Q38 142 37 190L122 190Q124 133 151.50 102.50Q179 72 230 61L285 321Q200 341 161 383.50Q122 426 122 495Q122 544 140.50 583Q159 622 191.50 649.50Q224 677 269 692Q314 707 367 709L385 792L450 792L431 705Q515 692 556 642Q597 592 606 525L524 513Q519 538 511.50 558.50Q504 579 491.50 594.50Q479 610 461 620.50Q443 631 416 636L363 385L377 382Q465 362 504.50 316.50Q544 271 544 204M346 307L293 55L295 55Q376 55 415 93.50Q454 132 454 195Q454 210 451 226.50Q448 243 438 258Q428 273 410.50 285Q393 297 363 303L346 307M207 502Q207 460 231 436Q255 412 302 400L352 638Q313 635 285 623Q257 611 240 592Q223 573 215 550Q207 527 207 502Z"  horiz-adv-x="592" vert-adv-y="1000"  />

      
      <glyph glyph-name="uni25" unicode="&#x25;" d="M306 707Q338 707 364.50 696Q391 685 410.50 664.50Q430 644 441 615.50Q452 587 452 551Q452 503 438.50 454.50Q425 406 398 366.50Q371 327 329.50 302Q288 277 232 277Q200 277 173.50 288Q147 299 127.50 319.50Q108 340 97 368.50Q86 397 86 433Q86 481 100 529.50Q114 578 141.50 617.50Q169 657 210 682Q251 707 306 707M299 636Q264 636 239 617Q214 598 198 568.50Q182 539 174.50 503.50Q167 468 167 436Q167 398 184.50 373Q202 348 240 348Q275 348 300 367Q325 386 340.50 415Q356 444 363.50 478.50Q371 513 371 545Q371 586 354 611Q337 636 299 636M292 0L202 0L698 691L788 691L292 0M757 411Q789 411 815.50 400Q842 389 861.50 368.50Q881 348 892 319.50Q903 291 903 255Q903 207 889.50 158.50Q876 110 849 70.50Q822 31 780.50 6Q739-19 683-19Q651-19 624.50-8Q598 3 578.50 23.50Q559 44 548 72.50Q537 101 537 137Q537 185 551 233.50Q565 282 592.50 321.50Q620 361 661 386Q702 411 757 411M750 340Q715 340 690 321Q665 302 649 272.50Q633 243 625.50 207.50Q618 172 618 140Q618 102 635.50 77Q653 52 691 52Q726 52 751 71Q776 90 791.50 119Q807 148 814.50 182.50Q822 217 822 249Q822 290 805 315Q788 340 750 340Z"  horiz-adv-x="918" vert-adv-y="1000"  />

      
      <glyph glyph-name="uni26" unicode="&#x26;" d="M273-16Q215-16 171.50-2.50Q128 11 98.50 35Q69 59 54.50 91.50Q40 124 40 162Q40 206 53.50 239.50Q67 273 93 300.50Q119 328 157 352Q195 376 245 400Q240 408 236 415.50Q232 423 228 432Q214 457 204.50 486.50Q195 516 195 548Q195 584 207.50 615.50Q220 647 243 669.50Q266 692 300 705Q334 718 377 718Q414 718 441.50 707Q469 696 487.50 678Q506 660 515 636.50Q524 613 524 588Q524 545 510.50 513.50Q497 482 473.50 458Q450 434 419 415Q388 396 353 379L487 171Q511 209 523.50 251.50Q536 294 539 336L620 336Q615 274 593 214.50Q571 155 530 106L599 0L505 0L471 51Q432 19 382.50 1.50Q333-16 273-16M279 55Q330 55 367.50 70Q405 85 434 109L281 345Q247 328 219 311.50Q191 295 171.50 274.50Q152 254 141 229Q130 204 130 171Q130 150 137 129.50Q144 109 161 92.50Q178 76 206.50 65.50Q235 55 279 55M276 552Q276 525 286 499.50Q296 474 306 454Q308 449 311 443.50Q314 438 317 433Q346 447 370 461Q394 475 411 491.50Q428 508 437.50 529.50Q447 551 447 580Q447 612 426.50 632.50Q406 653 372 653Q327 653 301.50 626.50Q276 600 276 552Z"  horiz-adv-x="637" vert-adv-y="1000"  />

      
      <glyph glyph-name="uni27" unicode="&#x27;" d="M166 458L91 458L138 710L226 710L166 458Z"  horiz-adv-x="167" vert-adv-y="1000"  />

      
      <glyph glyph-name="uni28" unicode="&#x28;" d="M371 734Q269 601 210 445Q151 289 151 116Q151 50 159-6Q167-62 188-124L107-124Q96-101 87.50-70.50Q79-40 73-6Q67 28 63.50 62.50Q60 97 60 129Q60 210 75.50 291.50Q91 373 120 451Q149 529 191.50 600.50Q234 672 287 734L371 734Z"  horiz-adv-x="263" vert-adv-y="1000"  />

      
      <glyph glyph-name="uni29" unicode="&#x29;" d="M-51-124Q51 9 110 165Q169 321 169 494Q169 560 161 616Q153 672 132 734L213 734Q223 711 232 680Q241 649 247 615.50Q253 582 256.50 547Q260 512 260 481Q260 400 244.50 318.50Q229 237 199.50 159Q170 81 128 9Q86-63 33-124L-51-124Z"  horiz-adv-x="263" vert-adv-y="1000"  />

      
      <glyph glyph-name="uni2a" unicode="&#x2a;" d="M350 714L310 585L421 638L445 566L316 531L389 424L322 385L267 495L174 386L117 434L231 533L118 572L152 642L255 585L267 714L350 714Z"  horiz-adv-x="390" vert-adv-y="1000"  />

      
      <glyph glyph-name="uni2b" unicode="&#x2b;" d="M363 302L320 96L240 96L283 302L92 302L108 379L300 379L343 585L423 585L380 379L572 379L555 302L363 302Z"  horiz-adv-x="592" vert-adv-y="1000"  />

      
      <glyph glyph-name="uni2c" unicode="&#x2c;" d="M-11-97L65 119L158 119L60-97L-11-97Z"  horiz-adv-x="223" vert-adv-y="1000"  />

      
      <glyph glyph-name="uni2d" unicode="&#x2d;" d="M64 249L83 336L377 336L358 249L64 249Z"  horiz-adv-x="390" vert-adv-y="1000"  />

      
      <glyph glyph-name="uni2e" unicode="&#x2e;" d="M26 0L50 117L150 117L125 0L26 0Z"  horiz-adv-x="224" vert-adv-y="1000"  />

      
      <glyph glyph-name="uni2f" unicode="&#x2f;" d="M61 0L-31 0L352 734L444 734L61 0Z"  horiz-adv-x="331" vert-adv-y="1000"  />

      
      <glyph glyph-name="uni30" unicode="&#x30;" d="M394 710Q440 710 478 693.50Q516 677 543.50 646.50Q571 616 586 571.50Q601 527 601 470Q601 421 594 366Q587 311 570.50 257Q554 203 528.50 153Q503 103 466.50 65Q430 27 381 4.50Q332-18 270-18Q223-18 185-1.50Q147 15 119.50 45.50Q92 76 77 120.50Q62 165 62 222Q62 270 69.50 325.50Q77 381 94 435Q111 489 137 539Q163 589 200 627Q237 665 285 687.50Q333 710 394 710M388 631Q348 631 315.50 613.50Q283 596 257 565.50Q231 535 212 494.50Q193 454 180.50 408.50Q168 363 161.50 315.50Q155 268 155 223Q155 150 184.50 105Q214 60 276 60Q335 60 379 98.50Q423 137 451.50 196.50Q480 256 494 328Q508 400 508 468Q508 541 479 586Q450 631 388 631Z"  horiz-adv-x="592" vert-adv-y="1000"  />

      
      <glyph glyph-name="uni31" unicode="&#x31;" d="M260 0L385 592L212 501L176 569L406 691L495 691L349 0L260 0Z"  horiz-adv-x="592" vert-adv-y="1000"  />

      
      <glyph glyph-name="uni32" unicode="&#x32;" d="M382 631Q312 631 272.50 602Q233 573 209 507L127 520Q139 559 158.50 593.50Q178 628 209 654Q240 680 284 695Q328 710 388 710Q438 710 476 695.50Q514 681 539.50 656.50Q565 632 577.50 598.50Q590 565 590 526Q590 473 569.50 429.50Q549 386 515 347.50Q481 309 436.50 273.50Q392 238 344 203Q301 172 257 141Q213 110 175 80L510 80L481 0L28 0L43 73Q88 107 145.50 149.50Q203 192 256 232Q304 268 347.50 300.50Q391 333 424.50 367.50Q458 402 478 439.50Q498 477 498 522Q498 575 467 603Q436 631 382 631Z"  horiz-adv-x="592" vert-adv-y="1000"  />

      
      <glyph glyph-name="uni33" unicode="&#x33;" d="M347 399Q380 399 408 406.50Q436 414 457 430Q478 446 489.50 471Q501 496 501 532Q501 576 470 604Q439 632 380 632Q308 632 269.50 606Q231 580 209 516L129 529Q139 568 158 601Q177 634 207 658Q237 682 280.50 696Q324 710 383 710Q432 710 470.50 697Q509 684 535 661.50Q561 639 574.50 608Q588 577 588 541Q588 468 551.50 423.50Q515 379 452 358Q477 346 494 329Q511 312 521.50 292.50Q532 273 536.50 252Q541 231 541 212Q541 107 476.50 44.50Q412-18 292-18Q241-18 198.50-4Q156 10 124.50 36.50Q93 63 75 102Q57 141 57 191L144 191Q148 122 189 90.50Q230 59 296 59Q365 59 407.50 95.50Q450 132 450 208Q450 262 421 291Q392 320 338 320L250 320L267 399L347 399Z"  horiz-adv-x="592" vert-adv-y="1000"  />

      
      <glyph glyph-name="uni34" unicode="&#x34;" d="M333 0L369 172L40 172L55 240L475 691L564 691L469 243L566 243L540 172L454 172L418 0L333 0M150 243L384 243L454 572L150 243Z"  horiz-adv-x="592" vert-adv-y="1000"  />

      
      <glyph glyph-name="uni35" unicode="&#x35;" d="M152 177Q156 115 187.50 87Q219 59 290 59Q366 59 411 109.50Q456 160 456 248Q456 274 449 297Q442 320 427.50 336.50Q413 353 391 362.50Q369 372 339 372Q291 372 255.50 357.50Q220 343 185 313L109 313L214 691L592 691L576 612L272 612L213 398Q248 422 282.50 433Q317 444 364 444Q407 444 441 429Q475 414 498 388.50Q521 363 533 329Q545 295 545 257Q545 200 528 150Q511 100 478.50 62.50Q446 25 397.50 3.50Q349-18 286-18Q239-18 199.50-7Q160 4 130.50 27.50Q101 51 84 88Q67 125 66 177L152 177Z"  horiz-adv-x="592" vert-adv-y="1000"  />

      
      <glyph glyph-name="uni36" unicode="&#x36;" d="M525 538Q514 594 485.50 614Q457 634 406 634Q369 634 335.50 618.50Q302 603 273.50 569.50Q245 536 222 483.50Q199 431 183 358Q220 406 264.50 426.50Q309 447 364 447Q410 447 445.50 431.50Q481 416 505 389.50Q529 363 541.50 327.50Q554 292 554 253Q554 190 536 140Q518 90 484.50 55Q451 20 403.50 1Q356-18 296-18Q242-18 201-0.50Q160 17 133 48.50Q106 80 92.50 124Q79 168 79 220Q79 264 86.50 317Q94 370 111 424.50Q128 479 154 530.50Q180 582 217.50 622Q255 662 303.50 686Q352 710 413 710Q585 710 605 553L525 538M344 375Q310 375 278 362.50Q246 350 221 326Q196 302 181 268Q166 234 166 191Q166 164 174 139.50Q182 115 198.50 96Q215 77 240 66Q265 55 298 55Q378 55 422 102.50Q466 150 466 248Q466 275 458.50 298Q451 321 435.50 338Q420 355 397 365Q374 375 344 375Z"  horiz-adv-x="592" vert-adv-y="1000"  />

      
      <glyph glyph-name="uni37" unicode="&#x37;" d="M609 617Q500 471 404.50 316.50Q309 162 231 0L132 0Q176 87 218.50 164Q261 241 306 314.50Q351 388 400 461Q449 534 508 612L138 612L154 691L624 691L609 617Z"  horiz-adv-x="592" vert-adv-y="1000"  />

      
      <glyph glyph-name="uni38" unicode="&#x38;" d="M558 210Q558 152 537 109.50Q516 67 478.50 38.50Q441 10 389-4Q337-18 276-18Q218-18 174.50-4Q131 10 102 34Q73 58 58.50 89.50Q44 121 44 156Q44 205 60.50 239.50Q77 274 101.50 297.50Q126 321 155.50 335Q185 349 211 357Q178 375 153.50 409Q129 443 129 491Q129 537 146 577.50Q163 618 196 647Q229 676 278.50 693Q328 710 393 710Q445 710 484.50 696.50Q524 683 550.50 659.50Q577 636 590.50 605Q604 574 604 540Q604 499 591.50 468Q579 437 558 414.50Q537 392 510 376.50Q483 361 455 352Q474 345 492.50 332.50Q511 320 525.50 302Q540 284 549 261Q558 238 558 210M341 389Q376 389 408.50 396.50Q441 404 465.50 421Q490 438 504.50 465.50Q519 493 519 533Q519 553 511.50 572Q504 591 488.50 606Q473 621 448 630Q423 639 388 639Q341 639 307.50 627.50Q274 616 253 596Q232 576 222.50 550Q213 524 213 494Q213 473 221 454Q229 435 244.50 420.50Q260 406 284 397.50Q308 389 341 389M281 54Q320 54 354.50 62Q389 70 414.50 88Q440 106 455 135Q470 164 470 206Q470 228 461.50 247.50Q453 267 435.50 282Q418 297 390 305.50Q362 314 323 314Q222 314 177 274.50Q132 235 132 168Q132 144 140.50 123.50Q149 103 167 87.50Q185 72 213.50 63Q242 54 281 54Z"  horiz-adv-x="592" vert-adv-y="1000"  />

      
      <glyph glyph-name="uni39" unicode="&#x39;" d="M141 152Q149 96 182.50 77Q216 58 269 58Q349 58 402.50 125Q456 192 477 331Q439 286 395 266.50Q351 247 296 247Q250 247 214 263Q178 279 153.50 306Q129 333 116.50 368Q104 403 104 440Q104 501 121.50 551Q139 601 172.50 636.50Q206 672 253.50 691Q301 710 361 710Q465 710 521 644.50Q577 579 577 464Q577 416 570.50 362Q564 308 550 254.50Q536 201 512.50 151.50Q489 102 454.50 64.50Q420 27 372.50 4.50Q325-18 263-18Q161-18 112.50 26.50Q64 71 57 152L141 152M314 319Q347 319 378.50 330Q410 341 435 363Q460 385 475.50 418Q491 451 491 494Q491 522 483 548Q475 574 458.50 594Q442 614 417.50 625.50Q393 637 360 637Q282 637 237 590.50Q192 544 192 448Q192 423 199 399.50Q206 376 221 358Q236 340 259 329.50Q282 319 314 319Z"  horiz-adv-x="592" vert-adv-y="1000"  />

      
      <glyph glyph-name="uni3a" unicode="&#x3a;" d="M26 0L50 117L150 117L125 0L26 0M111 400L135 517L235 517L210 400L111 400Z"  horiz-adv-x="224" vert-adv-y="1000"  />

      
      <glyph glyph-name="uni3b" unicode="&#x3b;" d="M-11-97L65 119L158 119L60-97L-11-97M111 400L135 517L235 517L210 400L111 400Z"  horiz-adv-x="223" vert-adv-y="1000"  />

      
      <glyph glyph-name="uni3c" unicode="&#x3c;" d="M105 305L119 373L613 581L594 493L212 337L528 177L510 97L105 305Z"  horiz-adv-x="592" vert-adv-y="1000"  />

      
      <glyph glyph-name="uni3d" unicode="&#x3d;" d="M84 190L100 268L533 268L517 190L84 190M130 413L147 491L579 491L563 413L130 413Z"  horiz-adv-x="592" vert-adv-y="1000"  />

      
      <glyph glyph-name="uni3e" unicode="&#x3e;" d="M557 373L543 305L49 97L68 187L450 341L134 502L152 581L557 373Z"  horiz-adv-x="592" vert-adv-y="1000"  />

      
      <glyph glyph-name="uni3f" unicode="&#x3f;" d="M539 567Q539 532 530 504Q521 476 505.50 452.50Q490 429 469 408Q448 387 423 367Q401 349 380 333.50Q359 318 342 301Q325 284 312.50 264Q300 244 294 218L292 205L205 205L208 220Q215 253 228.50 277.50Q242 302 260 322Q278 342 300.50 360Q323 378 348 399Q369 416 387.50 432.50Q406 449 419.50 467.50Q433 486 441 508Q449 530 449 558Q449 601 420.50 626Q392 651 339 651Q309 651 285 645.50Q261 640 241.50 626Q222 612 206.50 588.50Q191 565 179 529L101 542Q113 584 132.50 618Q152 652 181.50 676Q211 700 251.50 713Q292 726 347 726Q393 726 428.50 714Q464 702 488.50 680.50Q513 659 526 630Q539 601 539 567M161 0L185 116L282 116L258 0L161 0Z"  horiz-adv-x="501" vert-adv-y="1000"  />

      
      <glyph glyph-name="uni40" unicode="&#x40;" d="M697 57Q740 57 771.50 79.50Q803 102 824 140Q845 178 855 228.50Q865 279 865 335Q865 399 842.50 449.50Q820 500 779 534.50Q738 569 680 587Q622 605 552 605Q456 605 378 573Q300 541 245.50 484Q191 427 161 348Q131 269 131 174Q131 106 152 47.50Q173-11 214-54.50Q255-98 315.50-122.50Q376-147 455-147Q544-147 606-126Q668-105 712-55L798-55Q746-139 660.50-176.50Q575-214 451-214Q365-214 291.50-188Q218-162 165-112.50Q112-63 82 8.50Q52 80 52 170Q52 275 87 366.50Q122 458 187 526Q252 594 345.50 633.50Q439 673 556 673Q639 673 709.50 649Q780 625 831.50 581.50Q883 538 912 476Q941 414 941 339Q941 269 925.50 207Q910 145 878 98Q846 51 797.50 23.50Q749-4 684-4Q592-4 579 71Q514-10 423-10Q380-10 350 6Q320 22 301 48Q282 74 273.50 108Q265 142 265 177Q265 237 283.50 288.50Q302 340 334.50 377.50Q367 415 411 436.50Q455 458 505 458Q547 458 580 440Q613 422 633 383L647 447L726 447L654 111Q653 106 652.50 102.50Q652 99 652 95Q652 78 663 67.50Q674 57 697 57M439 59Q479 59 506 76Q533 93 553 120Q569 141 579 169Q589 197 594 223L600 257Q604 277 604 297Q604 340 579 365Q565 379 548 385.50Q531 392 507 392Q475 392 447 376Q419 360 398 332Q377 304 364.50 265.50Q352 227 352 182Q352 120 374.50 89.50Q397 59 439 59Z"  horiz-adv-x="954" vert-adv-y="1000"  />

      
      <glyph glyph-name="uni41" unicode="&#x41;" d="M500 714L626 0L531 0L497 199L192 199L75 0L-25 0L404 714L500 714M236 279L486 279L430 610L236 279Z"  horiz-adv-x="674" vert-adv-y="1000"  />

      
      <glyph glyph-name="uni42" unicode="&#x42;" d="M647 555Q647 483 610 439Q573 395 501 372Q551 350 576.50 311.50Q602 273 602 225Q602 174 584.50 132Q567 90 530.50 61Q494 32 436.50 16Q379 0 300 0L42 0L193 714L428 714Q492 714 534.50 699.50Q577 685 602 662.50Q627 640 637 611.50Q647 583 647 555M377 412Q411 412 443 418Q475 424 499.50 439Q524 454 539 480Q554 506 554 545Q554 566 547 583Q540 600 524 612Q508 624 481.50 631Q455 638 416 638L267 638L219 412L377 412M148 76L309 76Q418 76 463 113Q508 150 508 225Q508 272 474 303Q440 334 366 334L203 334L148 76Z"  horiz-adv-x="632" vert-adv-y="1000"  />

      
      <glyph glyph-name="uni43" unicode="&#x43;" d="M627 480Q616 566 577 609Q538 652 454 652Q391 652 340.50 623.50Q290 595 254 546Q218 497 199 431.50Q180 366 180 293Q180 245 191.50 203Q203 161 227 129.50Q251 98 287 80Q323 62 372 62Q465 62 515.50 108Q566 154 583 229L683 229Q671 175 646.50 129.50Q622 84 583.50 51.50Q545 19 491 0.50Q437-18 366-18Q300-18 247.50 4Q195 26 158.50 65.50Q122 105 102.50 161Q83 217 83 285Q83 374 108.50 455Q134 536 182.50 597.50Q231 659 301 695.50Q371 732 459 732Q581 732 645 668.50Q709 605 719 495L627 480Z"  horiz-adv-x="710" vert-adv-y="1000"  />

      
      <glyph glyph-name="uni44" unicode="&#x44;" d="M42 0L193 714L425 714Q490 714 542.50 692.50Q595 671 631.50 632.50Q668 594 688 541Q708 488 708 426Q708 333 681.50 255Q655 177 601 120.50Q547 64 465.50 32Q384 0 274 0L42 0M287 80Q368 80 429 104.50Q490 129 530.50 174.50Q571 220 591.50 284Q612 348 612 426Q612 469 600 507Q588 545 563.50 573.50Q539 602 502 618.50Q465 635 416 635L269 635L151 80L287 80Z"  horiz-adv-x="714" vert-adv-y="1000"  />

      
      <glyph glyph-name="uni45" unicode="&#x45;" d="M269 633L221 409L571 409L554 327L204 327L152 81L542 81L512 0L43 0L194 714L656 714L639 633L269 633Z"  horiz-adv-x="594" vert-adv-y="1000"  />

      
      <glyph glyph-name="uni46" unicode="&#x46;" d="M269 633L219 399L548 399L531 316L202 316L135 0L43 0L194 714L637 714L620 633L269 633Z"  horiz-adv-x="564" vert-adv-y="1000"  />

      
      <glyph glyph-name="uni47" unicode="&#x47;" d="M627 512Q614 584 571 618.50Q528 653 457 653Q389 653 337.50 623Q286 593 250.50 542.50Q215 492 197 427Q179 362 179 292Q179 245 191 203.50Q203 162 227 130.50Q251 99 287 80.50Q323 62 371 62Q443 62 487 78.50Q531 95 560 115L597 287L416 287L434 367L701 367L638 73Q619 56 592 39.50Q565 23 530.50 10.50Q496-2 455-10Q414-18 366-18Q299-18 246.50 4.50Q194 27 157.50 67.50Q121 108 101.50 163.50Q82 219 82 285Q82 371 107 451.50Q132 532 180.50 594.50Q229 657 300.50 694.50Q372 732 465 732Q571 732 636.50 679.50Q702 627 717 528L627 512Z"  horiz-adv-x="716" vert-adv-y="1000"  />

      
      <glyph glyph-name="uni48" unicode="&#x48;" d="M495 0L564 326L204 326L135 0L43 0L194 714L286 714L222 412L582 412L646 714L738 714L587 0L495 0Z"  horiz-adv-x="703" vert-adv-y="1000"  />

      
      <glyph glyph-name="uni49" unicode="&#x49;" d="M43 0L194 714L286 714L135 0L43 0Z"  horiz-adv-x="250" vert-adv-y="1000"  />

      
      <glyph glyph-name="uni4a" unicode="&#x4a;" d="M536 227Q510 99 442.50 40.50Q375-18 258-18Q209-18 168.50-5.50Q128 7 98.50 31.50Q69 56 52.50 93Q36 130 36 180Q36 188 36.50 196.50Q37 205 38 214L128 214L128 195Q128 167 134 142.50Q140 118 155.50 100Q171 82 197.50 72Q224 62 264 62Q306 62 336.50 74.50Q367 87 388.50 110.50Q410 134 424 168Q438 202 447 245L547 714L639 714L536 227Z"  horiz-adv-x="597" vert-adv-y="1000"  />

      
      <glyph glyph-name="uni4b" unicode="&#x4b;" d="M340 387L191 266L135 0L43 0L194 714L286 714L215 377L618 714L726 714L414 442L601 0L499 0L340 387Z"  horiz-adv-x="650" vert-adv-y="1000"  />

      
      <glyph glyph-name="uni4c" unicode="&#x4c;" d="M43 0L194 714L286 714L152 82L522 82L491 0L43 0Z"  horiz-adv-x="562" vert-adv-y="1000"  />

      
      <glyph glyph-name="uni4d" unicode="&#x4d;" d="M194 714L305 714L408 110L768 714L882 714L731 0L646 0L765 563L422 0L347 0L246 561L127 0L43 0L194 714Z"  horiz-adv-x="846" vert-adv-y="1000"  />

      
      <glyph glyph-name="uni4e" unicode="&#x4e;" d="M503 0L252 567L132 0L43 0L194 714L277 714L526 147L646 714L735 714L584 0L503 0Z"  horiz-adv-x="700" vert-adv-y="1000"  />

      
      <glyph glyph-name="uni4f" unicode="&#x4f;" d="M475 732Q538 732 589.50 711Q641 690 678.50 651.50Q716 613 736.50 558.50Q757 504 757 436Q757 352 731.50 270.50Q706 189 657 125Q608 61 535 21.50Q462-18 368-18Q305-18 253 2.50Q201 23 163.50 61.50Q126 100 105.50 155Q85 210 85 278Q85 362 111 443.50Q137 525 187 589Q237 653 309.50 692.50Q382 732 475 732M469 652Q399 652 345.50 619.50Q292 587 255.50 534.50Q219 482 200 416Q181 350 181 283Q181 234 193.50 193.50Q206 153 230 123.50Q254 94 290 78Q326 62 373 62Q443 62 496.50 94.50Q550 127 586.50 179.50Q623 232 642 298Q661 364 661 432Q661 481 648.50 521.50Q636 562 612 591Q588 620 552 636Q516 652 469 652Z"  horiz-adv-x="765" vert-adv-y="1000"  />

      
      <glyph glyph-name="uni50" unicode="&#x50;" d="M655 532Q655 465 633 416.50Q611 368 570.50 337Q530 306 472 291.50Q414 277 343 277L192 277L133 0L42 0L193 714L427 714Q491 714 535 697Q579 680 605.50 654Q632 628 643.50 595.50Q655 563 655 532M353 355Q400 355 438.50 363Q477 371 505 391Q533 411 548 444.50Q563 478 563 529Q563 575 529 605.50Q495 636 412 636L268 636L208 355L353 355Z"  horiz-adv-x="626" vert-adv-y="1000"  />

      
      <glyph glyph-name="uni51" unicode="&#x51;" d="M532 20Q496 2 455-8Q414-18 368-18Q305-18 253 2.50Q201 23 163.50 61.50Q126 100 105.50 155Q85 210 85 278Q85 362 111 443.50Q137 525 187 589Q237 653 309.50 692.50Q382 732 475 732Q538 732 589.50 711Q641 690 678.50 651.50Q716 613 736.50 558.50Q757 504 757 436Q757 382 747 329.50Q737 277 716.50 228Q696 179 666 137Q636 95 597 62L659-38L594-80L532 20M469 652Q399 652 345.50 619.50Q292 587 255.50 534.50Q219 482 200 416Q181 350 181 283Q181 234 193.50 193.50Q206 153 230 123.50Q254 94 290 78Q326 62 373 62Q435 62 488 90L417 206L482 247L551 136Q578 163 598.50 197Q619 231 633 269.50Q647 308 654 349Q661 390 661 432Q661 481 648.50 521.50Q636 562 612 591Q588 620 552 636Q516 652 469 652Z"  horiz-adv-x="765" vert-adv-y="1000"  />

      
      <glyph glyph-name="uni52" unicode="&#x52;" d="M133 0L42 0L193 714L422 714Q488 714 532.50 697.50Q577 681 603 655Q629 629 640 596Q651 563 651 529Q651 441 606 389.50Q561 338 483 316L568 0L468 0L395 298Q381 296 365.50 296Q350 296 336 296L196 296L133 0M366 375Q409 375 444.50 382.50Q480 390 505.50 408Q531 426 544.50 455Q558 484 558 528Q558 550 550.50 569.50Q543 589 525.50 604Q508 619 478.50 627.50Q449 636 405 636L268 636L213 375L366 375Z"  horiz-adv-x="635" vert-adv-y="1000"  />

      
      <glyph glyph-name="uni53" unicode="&#x53;" d="M592 214Q592 156 572 112.50Q552 69 515.50 40Q479 11 428.50-3.50Q378-18 317-18Q267-18 218-7.50Q169 3 130.50 28.50Q92 54 67.50 96.50Q43 139 41 203L133 203Q141 129 184.50 95Q228 61 323 61Q369 61 401.50 72Q434 83 454 102.50Q474 122 483.50 149Q493 176 493 207Q493 224 489 240Q485 256 474 270.50Q463 285 444 296Q425 307 395 313L301 333Q216 351 170.50 395.50Q125 440 125 513Q125 568 144.50 609.50Q164 651 199.50 678Q235 705 285 718.50Q335 732 397 732Q456 732 501 717.50Q546 703 577 677.50Q608 652 625.50 615.50Q643 579 648 536L560 521Q550 588 512 621Q474 654 391 654Q341 654 308 643.50Q275 633 255.50 615.50Q236 598 228 575.50Q220 553 220 529Q220 484 243 457.50Q266 431 327 417L419 397Q467 387 500.50 369Q534 351 554 327.50Q574 304 583 275Q592 246 592 214Z"  horiz-adv-x="643" vert-adv-y="1000"  />

      
      <glyph glyph-name="uni54" unicode="&#x54;" d="M444 632L311 0L218 0L352 632L115 632L133 714L697 714L680 632L444 632Z"  horiz-adv-x="601" vert-adv-y="1000"  />

      
      <glyph glyph-name="uni55" unicode="&#x55;" d="M323-18Q269-18 225-5Q181 8 149.50 34Q118 60 100.50 100.50Q83 141 83 196Q83 234 94 287L184 714L276 714L185 283Q176 238 176 202Q176 62 328 62Q376 62 411 76Q446 90 471 117.50Q496 145 512.50 186.50Q529 228 541 283L633 714L725 714L634 283Q617 203 590.50 146.50Q564 90 526.50 53Q489 16 438.50-1Q388-18 323-18Z"  horiz-adv-x="682" vert-adv-y="1000"  />

      
      <glyph glyph-name="uni56" unicode="&#x56;" d="M343 0L252 0L127 714L226 714L319 119L666 714L768 714L343 0Z"  horiz-adv-x="666" vert-adv-y="1000"  />

      
      <glyph glyph-name="uni57" unicode="&#x57;" d="M684 0L588 0L555 597L272 0L179 0L126 714L228 714L253 127L531 711L629 711L661 127L933 714L1034 714L684 0Z"  horiz-adv-x="931" vert-adv-y="1000"  />

      
      <glyph glyph-name="uni58" unicode="&#x58;" d="M412 371L592 0L489 0L345 305L80 0L-25 0L306 379L144 714L246 714L371 442L610 714L714 714L412 371Z"  horiz-adv-x="638" vert-adv-y="1000"  />

      
      <glyph glyph-name="uni59" unicode="&#x59;" d="M128 714L227 714L349 384L610 714L714 714L382 303L318 0L226 0L289 303L128 714Z"  horiz-adv-x="613" vert-adv-y="1000"  />

      
      <glyph glyph-name="uni5a" unicode="&#x5a;" d="M517 0L-4 0L11 71L530 633L134 633L151 714L663 714L648 642L130 82L547 82L517 0Z"  horiz-adv-x="586" vert-adv-y="1000"  />

      
      <glyph glyph-name="uni5b" unicode="&#x5b;" d="M12-124L195 734L391 734L375 659L267 659L117-49L225-49L208-124L12-124Z"  horiz-adv-x="283" vert-adv-y="1000"  />

      
      <glyph glyph-name="uni5c" unicode="&#x5c;" d="M285 0L199 0L129 734L214 734L285 0Z"  horiz-adv-x="331" vert-adv-y="1000"  />

      
      <glyph glyph-name="uni5d" unicode="&#x5d;" d="M327 734L144-124L-52-124L-36-49L72-49L222 659L114 659L131 734L327 734Z"  horiz-adv-x="283" vert-adv-y="1000"  />

      
      <glyph glyph-name="uni5e" unicode="&#x5e;" d="M475 302L391 609L177 302L83 302L373 709L447 709L563 302L475 302Z"  horiz-adv-x="592" vert-adv-y="1000"  />

      
      <glyph glyph-name="uni5f" unicode="&#x5f;" d="M-73-175L-62-123L437-123L426-175L-73-175Z"  horiz-adv-x="500" vert-adv-y="1000"  />

      
      <glyph glyph-name="uni60" unicode="&#x60;" d="M296 591L187 733L289 733L378 591L296 591Z"  horiz-adv-x="391" vert-adv-y="1000"  />

      
      <glyph glyph-name="uni61" unicode="&#x61;" d="M180-12Q112-12 70 24.50Q28 61 28 126Q28 181 51.50 217Q75 253 114.50 275Q154 297 207 306.50Q260 316 320 318L418 321L421 335Q426 358 426 376Q426 416 402.50 440.50Q379 465 322 465Q259 465 228 448Q197 431 180 386L101 396Q125 471 180.50 502Q236 533 330 533Q421 533 466 492Q511 451 511 379Q511 348 504 319L437 0L352 0L367 71Q331 34 288 11Q245-12 180-12M405 260L319 256Q261 253 222.50 244.50Q184 236 160.50 221Q137 206 127.50 183.50Q118 161 118 131Q118 101 138 80Q158 59 203 59Q239 59 271 70Q303 81 327.50 100Q352 119 369 145Q386 171 393 201L405 260Z"  horiz-adv-x="538" vert-adv-y="1000"  />

      
      <glyph glyph-name="uni62" unicode="&#x62;" d="M303-16Q248-16 204.50 6.50Q161 29 133 78L117 0L31 0L182 714L269 714L212 445Q247 487 290.50 510Q334 533 391 533Q440 533 474.50 514.50Q509 496 531 465.50Q553 435 563 395Q573 355 573 312Q573 249 554 190Q535 131 500 85.50Q465 40 415 12Q365-16 303-16M167 245Q163 228 161 212.50Q159 197 159 183Q159 124 196 90Q233 56 293 56Q336 56 371 77Q406 98 430.50 133.50Q455 169 468 215.50Q481 262 481 312Q481 385 451 423Q421 461 368 461Q334 461 302 446.50Q270 432 244.50 407.50Q219 383 201 351.50Q183 320 176 286L167 245Z"  horiz-adv-x="597" vert-adv-y="1000"  />

      
      <glyph glyph-name="uni63" unicode="&#x63;" d="M460 343Q457 366 451 387.50Q445 409 431.50 425.50Q418 442 397 451.50Q376 461 343 461Q301 461 266 443Q231 425 206 391.50Q181 358 167 310.50Q153 263 153 205Q153 173 160.50 146Q168 119 183.50 99Q199 79 223.50 67.50Q248 56 283 56Q348 56 383 88.50Q418 121 432 172L521 172Q510 129 490 94Q470 59 439.50 34.50Q409 10 368-3Q327-16 274-16Q223-16 183 0.50Q143 17 116 46.50Q89 76 75 115.50Q61 155 61 201Q61 281 84 343Q107 405 146.50 447Q186 489 238.50 511Q291 533 350 533Q399 533 435 519Q471 505 494.50 481Q518 457 530.50 424.50Q543 392 546 356L460 343Z"  horiz-adv-x="559" vert-adv-y="1000"  />

      
      <glyph glyph-name="uni64" unicode="&#x64;" d="M331 533Q384 533 427 510.50Q470 488 498 440L556 714L643 714L491 0L406 0L420 72Q385 27 343 5.50Q301-16 247-16Q197-16 161.50 2.50Q126 21 103 51.50Q80 82 69 121.50Q58 161 58 203Q58 266 77 325.50Q96 385 131.50 431Q167 477 217.50 505Q268 533 331 533M465 274Q472 306 472 336Q472 386 437 423Q420 441 395.50 451Q371 461 338 461Q295 461 260 440.50Q225 420 200.50 385Q176 350 163 303.50Q150 257 150 205Q150 136 181 96.50Q212 57 270 57Q305 57 336 71.50Q367 86 391 110.50Q415 135 432 166.50Q449 198 456 233L465 274Z"  horiz-adv-x="596" vert-adv-y="1000"  />

      
      <glyph glyph-name="uni65" unicode="&#x65;" d="M338 466Q272 466 225 426Q178 386 159 302L458 302Q459 310 459.50 318.50Q460 327 460 336Q460 362 452.50 385.50Q445 409 430 427Q415 445 392 455.50Q369 466 338 466M148 237Q147 228 147 218.50Q147 209 147 200Q147 171 156 144.50Q165 118 182.50 98Q200 78 226.50 66Q253 54 289 54Q351 54 382 77.50Q413 101 428 145L513 145Q502 108 483.50 78Q465 48 437.50 27Q410 6 371.50-5Q333-16 281-16Q228-16 187.50 1.50Q147 19 118.50 49Q90 79 75.50 119Q61 159 61 205Q61 284 83 345Q105 406 143 448Q181 490 233.50 511.50Q286 533 346 533Q395 533 432 518Q469 503 494 476.50Q519 450 532 414Q545 378 545 336Q545 319 544 297Q543 275 538 254L534 237L148 237Z"  horiz-adv-x="570" vert-adv-y="1000"  />

      
      <glyph glyph-name="uni66" unicode="&#x66;" d="M258 517L389 517L375 448L243 448L149 0L61 0L156 448L76 448L90 517L171 517L182 569Q201 652 243 687Q285 722 354 722Q384 722 407.50 716Q431 710 445 704L420 639Q408 644 394 647.50Q380 651 358 651Q320 651 299 630Q278 609 269 566L258 517Z"  horiz-adv-x="334" vert-adv-y="1000"  />

      
      <glyph glyph-name="uni67" unicode="&#x67;" d="M460 251Q467 283 469.50 300Q472 317 472 337Q472 396 435 428.50Q398 461 339 461Q295 461 261 440.50Q227 420 203.50 386Q180 352 167.50 308.50Q155 265 155 219Q155 153 185.50 117.50Q216 82 270 82Q338 82 390.50 127.50Q443 173 460 251M510 84Q496 18 478.50-35.50Q461-89 431-126.50Q401-164 353.50-184.50Q306-205 233-205Q133-205 79-167Q25-129 22-48L108-48Q115-95 143.50-115Q172-135 237-135Q318-135 357-89.50Q396-44 414 42L424 92Q358 10 248 10Q199 10 164 27.50Q129 45 106.50 74Q84 103 73.50 140.50Q63 178 63 219Q63 275 81.50 330.50Q100 386 134.50 430.50Q169 475 219 503Q269 531 332 531Q384 531 427.50 509.50Q471 488 500 440L517 517L602 517L510 84Z"  horiz-adv-x="595" vert-adv-y="1000"  />

      
      <glyph glyph-name="uni68" unicode="&#x68;" d="M383 0L450 317Q453 330 455 342.50Q457 355 457 367Q457 409 437 433.50Q417 458 372 458Q314 458 259 416Q232 394 211.50 369Q191 344 183 306L118 0L31 0L182 714L269 714L211 441Q256 492 304 512.50Q352 533 398 533Q470 533 508 494Q546 455 546 385Q546 358 540 328L470 0L383 0Z"  horiz-adv-x="570" vert-adv-y="1000"  />

      
      <glyph glyph-name="uni69" unicode="&#x69;" d="M33 0L143 517L230 517L120 0L33 0M156 613L177 714L271 714L250 613L156 613Z"  horiz-adv-x="226" vert-adv-y="1000"  />

      
      <glyph glyph-name="uni6a" unicode="&#x6a;" d="M156 613L177 714L271 714L250 613L156 613M143 517L230 517L116-20Q107-58 95-89Q83-120 64.50-141.50Q46-163 18.50-174.50Q-9-186-49-186Q-82-186-106-180Q-130-174-148-166L-120-99Q-108-104-92.50-108Q-77-112-55-112Q-19-112-0.50-91Q18-70 27-28L143 517Z"  horiz-adv-x="226" vert-adv-y="1000"  />

      
      <glyph glyph-name="uni6b" unicode="&#x6b;" d="M31 0L182 714L268 714L182 302L464 517L573 517L350 340L482 0L389 0L280 294L160 204L117 0L31 0Z"  horiz-adv-x="523" vert-adv-y="1000"  />

      
      <glyph glyph-name="uni6c" unicode="&#x6c;" d="M33 0L184 714L271 714L120 0L33 0Z"  horiz-adv-x="226" vert-adv-y="1000"  />

      
      <glyph glyph-name="uni6d" unicode="&#x6d;" d="M351 0L416 306Q421 327 423.50 347Q426 367 426 380Q426 418 407.50 438Q389 458 353 458Q325 458 302 448Q279 438 253 416Q227 394 209 368Q191 342 180 298L118 0L31 0L140 517L226 517L209 439Q252 490 294.50 511.50Q337 533 378 533Q430 533 463.50 509Q497 485 509 435Q559 492 605.50 512.50Q652 533 696 533Q763 533 799.50 496Q836 459 836 398Q836 383 834 362.50Q832 342 827 319L760 0L673 0L739 308Q743 326 745.50 346.50Q748 367 748 383Q748 418 729 438Q710 458 672 458Q646 458 620.50 449Q595 440 568 418Q543 398 528.50 375.50Q514 353 506 317L438 0L351 0Z"  horiz-adv-x="861" vert-adv-y="1000"  />

      
      <glyph glyph-name="uni6e" unicode="&#x6e;" d="M383 0L450 317Q453 330 455 342.50Q457 355 457 367Q457 409 437 433.50Q417 458 372 458Q314 458 259 416Q232 395 211.50 369.50Q191 344 183 306L118 0L31 0L140 517L226 517L209 439Q254 490 302.50 511.50Q351 533 398 533Q470 533 508 494Q546 455 546 385Q546 358 540 328L470 0L383 0Z"  horiz-adv-x="570" vert-adv-y="1000"  />

      
      <glyph glyph-name="uni6f" unicode="&#x6f;" d="M362 533Q410 533 449.50 517Q489 501 517 472.50Q545 444 560.50 404Q576 364 576 317Q576 239 553.50 177Q531 115 490.50 72.50Q450 30 395 7Q340-16 276-16Q228-16 188.50 0Q149 16 120.50 45Q92 74 76.50 113.50Q61 153 61 200Q61 278 84.50 339.50Q108 401 149 444Q190 487 244.50 510Q299 533 362 533M356 461Q311 461 274 442Q237 423 210 389Q183 355 168 308Q153 261 153 204Q153 137 186 96.50Q219 56 282 56Q327 56 364 75Q401 94 427.50 128Q454 162 469 209Q484 256 484 313Q484 380 451.50 420.50Q419 461 356 461Z"  horiz-adv-x="601" vert-adv-y="1000"  />

      
      <glyph glyph-name="uni70" unicode="&#x70;" d="M211 445Q246 487 290 510Q334 533 391 533Q440 533 474.50 515Q509 497 531 467Q553 437 563 397.50Q573 358 573 315Q573 252 554.50 192Q536 132 501 86Q466 40 416 12Q366-16 303-16Q248-16 205 6.50Q162 29 134 77L76-194L-11-194L140 517L226 517L211 445M167 245Q163 228 161 213Q159 198 159 184Q159 124 196 90Q233 56 293 56Q336 56 371 77Q406 98 430.50 133.50Q455 169 468 215.50Q481 262 481 312Q481 385 451 423Q421 461 368 461Q336 461 305 447.50Q274 434 248 411Q222 388 203 355.50Q184 323 176 286L167 245Z"  horiz-adv-x="597" vert-adv-y="1000"  />

      
      <glyph glyph-name="uni71" unicode="&#x71;" d="M517 517L602 517L450-194L363-194L419 70Q384 26 342.50 5Q301-16 247-16Q197-16 161.50 2Q126 20 103 51Q80 82 69 122Q58 162 58 206Q58 268 77.50 327Q97 386 132.50 431.50Q168 477 218 505Q268 533 331 533Q385 533 429 510Q473 487 500 438L517 517M465 274Q472 305 472 335Q472 388 437 423Q401 461 337 461Q294 461 259 440.50Q224 420 199.50 384.50Q175 349 162 302.50Q149 256 149 205Q149 136 180.50 96.50Q212 57 270 57Q305 57 336 71.50Q367 86 391 110.50Q415 135 432 166.50Q449 198 456 233L465 274Z"  horiz-adv-x="597" vert-adv-y="1000"  />

      
      <glyph glyph-name="uni72" unicode="&#x72;" d="M395 441Q385 443 375 444.50Q365 446 351 446Q332 446 307.50 439Q283 432 257 412Q229 389 209.50 364Q190 339 182 301L118 0L31 0L140 517L226 517L209 437Q253 487 291 506.50Q329 526 373 526Q387 526 398.50 524Q410 522 418 520L395 441Z"  horiz-adv-x="366" vert-adv-y="1000"  />

      
      <glyph glyph-name="uni73" unicode="&#x73;" d="M463 147Q463 103 444.50 72Q426 41 396 21.50Q366 2 326-7Q286-16 243-16Q204-16 166-8Q128 0 98.50 19.50Q69 39 50.50 70.50Q32 102 32 150L115 150Q116 122 127 103.50Q138 85 156 74Q174 63 198 58.50Q222 54 250 54Q315 54 344.50 79Q374 104 374 143Q374 176 357.50 193Q341 210 297 220L239 233Q161 250 128 283Q95 316 95 370Q95 412 112 442.50Q129 473 158 493Q187 513 225.50 523Q264 533 307 533Q399 533 447.50 494.50Q496 456 504 385L424 373Q416 418 390 441Q364 464 302 464Q267 464 243.50 457Q220 450 205.50 438Q191 426 185 411Q179 396 179 381Q179 351 197 333.50Q215 316 265 305L326 292Q397 278 430 243.50Q463 209 463 147Z"  horiz-adv-x="522" vert-adv-y="1000"  />

      
      <glyph glyph-name="uni74" unicode="&#x74;" d="M181 154Q179 144 177.50 135.50Q176 127 176 119Q176 61 234 61Q256 61 271 64Q286 67 300 72L314 5Q292-3 269-7Q246-11 217-11Q155-11 121.50 18.50Q88 48 88 106Q88 118 89 130.50Q90 143 94 157L156 448L75 448L89 517L170 517L200 658L287 658L257 517L394 517L379 448L243 448L181 154Z"  horiz-adv-x="347" vert-adv-y="1000"  />

      
      <glyph glyph-name="uni75" unicode="&#x75;" d="M223 517L155 196Q150 171 150 146Q150 109 167.50 84Q185 59 230 59Q286 59 338 102Q364 123 385 148.50Q406 174 414 213L479 517L566 517L456 0L371 0L388 79Q343 28 297 6Q251-16 204-16Q131-16 95 24.50Q59 65 59 130Q59 144 61 159Q63 174 66 190L136 517L223 517Z"  horiz-adv-x="561" vert-adv-y="1000"  />

      
      <glyph glyph-name="uni76" unicode="&#x76;" d="M173 0L76 517L173 517L238 97L484 517L584 517L267 0L173 0Z"  horiz-adv-x="521" vert-adv-y="1000"  />

      
      <glyph glyph-name="uni77" unicode="&#x77;" d="M118 0L77 517L171 517L186 105L392 514L479 514L509 105L701 517L794 517L534 0L442 0L413 412L209 0L118 0Z"  horiz-adv-x="733" vert-adv-y="1000"  />

      
      <glyph glyph-name="uni78" unicode="&#x78;" d="M324 269L456 0L361 0L261 211L77 0L-25 0L223 277L101 517L197 517L284 332L449 517L547 517L324 269Z"  horiz-adv-x="503" vert-adv-y="1000"  />

      
      <glyph glyph-name="uni79" unicode="&#x79;" d="M76 517L172 517L251 111L484 517L585 517L239-49Q217-84 199-111Q181-138 161.50-156.50Q142-175 118.50-184.50Q95-194 64-194Q40-194 20-190Q0-186-17-178L8-111Q19-115 31.50-118Q44-121 60-121Q76-121 88-117Q100-113 110.50-103.50Q121-94 131-79Q141-64 155-42L189 14L76 517Z"  horiz-adv-x="523" vert-adv-y="1000"  />

      
      <glyph glyph-name="uni7a" unicode="&#x7a;" d="M409 0L-7 0L7 65L382 447L91 447L105 517L508 517L494 452L120 70L433 70L409 0Z"  horiz-adv-x="467" vert-adv-y="1000"  />

      
      <glyph glyph-name="uni7b" unicode="&#x7b;" d="M63 342L68 342Q105 342 123.50 361.50Q142 381 150 416L191 610Q206 680 244.50 707Q283 734 342 734L403 734L387 661L339 661Q310 661 295.50 648Q281 635 276 609L230 396Q223 361 204.50 337Q186 313 152 305Q175 298 185 282.50Q195 267 195 244Q195 230 192 214L146 1Q144-4 144-9Q144-14 144-19Q144-34 153-42.50Q162-51 184-51L236-51L220-124L160-124Q111-124 84-104Q57-84 57-39Q57-23 62 0L103 194Q106 209 106 221Q106 244 93.50 256Q81 268 52 268L47 268L63 342Z"  horiz-adv-x="288" vert-adv-y="1000"  />

      
      <glyph glyph-name="uni7c" unicode="&#x7c;" d="M8-124L191 734L277 734L94-124L8-124Z"  horiz-adv-x="228" vert-adv-y="1000"  />

      
      <glyph glyph-name="uni7d" unicode="&#x7d;" d="M281 268L276 268Q239 268 220.50 248.50Q202 229 194 194L153 0Q145-35 131.50-59Q118-83 99-97.50Q80-112 55.50-118Q31-124 2-124L-59-124L-43-51L5-51Q34-51 48.50-38Q63-25 68 1L114 214Q121 249 139.50 273Q158 297 192 305Q169 312 159 327.50Q149 343 149 366Q149 379 152 396L198 609Q200 614 200 619Q200 624 200 629Q200 644 191 652.50Q182 661 160 661L108 661L124 734L184 734Q233 734 260 714Q287 694 287 649Q287 633 282 610L241 416Q238 401 238 389Q238 366 250.50 354Q263 342 292 342L297 342L281 268Z"  horiz-adv-x="288" vert-adv-y="1000"  />

      
      <glyph glyph-name="uni7e" unicode="&#x7e;" d="M594 415Q587 359 572 324.50Q557 290 535.50 271Q514 252 487.50 245.50Q461 239 433 239Q396 239 368.50 255.50Q341 272 317.50 292Q294 312 272 328.50Q250 345 224 345Q189 345 169.50 324.50Q150 304 141 250L64 250Q71 306 86 340.50Q101 375 122 393.50Q143 412 168.50 418.50Q194 425 223 425Q260 425 287.50 408.50Q315 392 338.50 372.50Q362 353 384 337Q406 321 432 321Q468 321 488 341.50Q508 362 518 415L594 415Z"  horiz-adv-x="592" vert-adv-y="1000"  />

      
      <glyph glyph-name="unia1" unicode="&#xa1;" d="M234 517L210 401L113 401L137 517L234 517M184 312L84-194L-9-194L104 312L184 312Z"  horiz-adv-x="230" vert-adv-y="1000"  />

      
      <glyph glyph-name="unia2" unicode="&#xa2;" d="M498 432Q496 451 491.50 468.50Q487 486 478 501Q469 516 455.50 527Q442 538 422 544L338 149Q395 154 425.50 185Q456 216 470 264L559 264Q537 180 480.50 129Q424 78 323 76L305-9L240-9L259 81Q181 97 140 154Q99 211 99 290Q99 366 120.50 426.50Q142 487 179 529.50Q216 572 266 595Q316 618 373 621L392 707L457 707L438 616Q510 602 544 555Q578 508 584 446L498 432M190 295Q190 244 209.50 206Q229 168 274 154L358 548Q320 543 289 523.50Q258 504 236 471Q214 438 202 393.50Q190 349 190 295Z"  horiz-adv-x="592" vert-adv-y="1000"  />

      
      <glyph glyph-name="unia3" unicode="&#xa3;" d="M274 310Q273 237 245 182Q217 127 162 78L532 78L504 0L50 0L65 71Q119 116 151.50 164Q184 212 188 275Q189 284 189 292.50Q189 301 190 310L102 310L117 382L184 382Q181 400 178.50 422Q176 444 176 467Q176 579 231 644.50Q286 710 405 710Q490 710 537 670Q584 630 598 545L520 530Q508 589 480.50 612.50Q453 636 401 636Q360 636 332.50 624Q305 612 289 590.50Q273 569 266.50 539.50Q260 510 260 474Q260 449 262.50 427Q265 405 268 382L491 382L476 310L274 310Z"  horiz-adv-x="592" vert-adv-y="1000"  />

      
      <glyph glyph-name="unia4" unicode="&#xa4;" d="M367 583Q402 583 432.50 572.50Q463 562 486 542L554 602L600 547L530 486Q551 447 551 397Q551 332 532.50 280.50Q514 229 482 192L531 128L471 81L424 143Q365 107 292 107Q257 107 227 117.50Q197 128 174 148L108 89L61 144L130 203Q109 243 109 293Q109 359 128.50 411.50Q148 464 182 501L135 564L195 611L241 549Q298 583 367 583M361 515Q323 515 291.50 499.50Q260 484 237 456Q214 428 201 388Q188 348 188 299Q188 243 216 209.50Q244 176 298 176Q336 176 368 191.50Q400 207 423 235Q446 263 458.50 303Q471 343 471 392Q471 448 443.50 481.50Q416 515 361 515Z"  horiz-adv-x="592" vert-adv-y="1000"  />

      
      <glyph glyph-name="unia5" unicode="&#xa5;" d="M331 157L298 0L211 0L244 157L65 157L79 224L258 224L274 298L267 320L96 320L110 387L240 387L127 691L219 691L330 368L579 691L673 691L432 387L561 387L547 320L377 320L361 298L345 224L530 224L515 157L331 157Z"  horiz-adv-x="592" vert-adv-y="1000"  />

      
      <glyph glyph-name="unia6" unicode="&#xa6;" d="M118 390L191 734L277 734L204 390L118 390M169 225L94-124L8-124L83 225L169 225Z"  horiz-adv-x="228" vert-adv-y="1000"  />

      
      <glyph glyph-name="unia7" unicode="&#xa7;" d="M239-118Q181-118 139.50-104Q98-90 71.50-66Q45-42 32-10Q19 22 18 58L102 58Q104 34 112 15Q120-4 136-17.50Q152-31 178-38.50Q204-46 242-46Q282-46 307-38.50Q332-31 346.50-17.50Q361-4 366 14Q371 32 371 52Q371 74 355.50 96.50Q340 119 296 131L215 154Q141 174 109 210.50Q77 247 77 299Q77 354 103.50 393Q130 432 193 449Q158 466 143 497Q128 528 128 563Q128 608 145 639.50Q162 671 192 691.50Q222 712 263 721.50Q304 731 352 731Q409 731 448 717Q487 703 511 681Q535 659 547 632.50Q559 606 564 581L483 564Q479 584 470 601.50Q461 619 445 631.50Q429 644 404.50 651.50Q380 659 346 659Q307 659 281.50 652Q256 645 241 632Q226 619 220.50 602Q215 585 215 565Q215 542 230.50 520.50Q246 499 288 488L374 463Q447 441 477 405.50Q507 370 507 319Q507 265 481 225.50Q455 186 391 169Q428 150 442 118.50Q456 87 456 54Q456 6 440.50-26.50Q425-59 396.50-79.50Q368-100 328-109Q288-118 239-118M309 408Q298 411 286 413Q274 415 263 415Q242 415 223 408.50Q204 402 189 388.50Q174 375 165 354Q156 333 156 303Q156 277 174.50 255.50Q193 234 238 220L270 211Q296 203 320 203Q340 203 359.50 209.50Q379 216 394 229.50Q409 243 418 264Q427 285 427 314Q427 340 409 361.50Q391 383 346 397L309 408Z"  horiz-adv-x="527" vert-adv-y="1000"  />

      
      <glyph glyph-name="unia8" unicode="&#xa8;" d="M141 615L161 714L250 714L229 615L141 615M316 615L336 714L425 714L404 615L316 615Z"  horiz-adv-x="391" vert-adv-y="1000"  />

      
      <glyph glyph-name="unia9" unicode="&#xa9;" d="M420 714Q496 714 558.50 688.50Q621 663 666 616.50Q711 570 735.50 504Q760 438 760 357Q760 276 733.50 210Q707 144 661 97.50Q615 51 553 25.50Q491 0 420 0Q345 0 282 25.50Q219 51 173.50 97.50Q128 144 103 210Q78 276 78 357Q78 438 105 504Q132 570 178.50 616.50Q225 663 287 688.50Q349 714 420 714M420 655Q359 655 308 633.50Q257 612 220.50 573Q184 534 164 479Q144 424 144 357Q144 289 164 234Q184 179 220.50 140Q257 101 308 79.50Q359 58 420 58Q480 58 530.50 79.50Q581 101 617.50 140Q654 179 674.50 234Q695 289 695 357Q695 424 674.50 479Q654 534 617.50 573Q581 612 530.50 633.50Q480 655 420 655M516 420Q508 458 487 480.50Q466 503 423 503Q392 503 371 491.50Q350 480 336.50 460.50Q323 441 317 414Q311 387 311 357Q311 327 317 300Q323 273 336 253Q349 233 370 221.50Q391 210 422 210Q465 210 488.50 233Q512 256 518 297L592 297Q582 229 540 190Q498 151 421 151Q330 151 282.50 206Q235 261 235 355Q235 401 248 439.50Q261 478 285.50 505Q310 532 345.50 547Q381 562 425 562Q496 562 535.50 527Q575 492 585 432L516 420Z"  horiz-adv-x="774" vert-adv-y="1000"  />

      
      <glyph glyph-name="uniaa" unicode="&#xaa;" d="M101 435Q101 476 118 503Q135 530 164 546.50Q193 563 233 570Q273 577 320 579L384 581Q385 591 386.50 599Q388 607 388 615Q388 643 371.50 659.50Q355 676 318 676Q271 676 249.50 663.50Q228 651 217 619L155 627Q174 686 214.50 709Q255 732 323 732Q389 732 422.50 701.50Q456 671 456 617Q456 598 451 573L402 342L335 342L344 388Q319 365 289.50 349Q260 333 215 333Q165 333 133 361.50Q101 390 101 435M374 529L315 527Q273 525 246 519Q219 513 202.50 502.50Q186 492 179.50 476.50Q173 461 173 440Q173 420 186.50 405Q200 390 232 390Q284 390 319.50 417.50Q355 445 365 490L374 529Z"  horiz-adv-x="425" vert-adv-y="1000"  />

      
      <glyph glyph-name="uniab" unicode="&#xab;" d="M245 479L335 479L158 253L235 33L149 33L62 257L245 479M445 479L535 479L358 253L435 33L349 33L262 257L445 479Z"  horiz-adv-x="497" vert-adv-y="1000"  />

      
      <glyph glyph-name="uniac" unicode="&#xac;" d="M508 165L430 165L470 355L104 355L120 432L565 432L508 165Z"  horiz-adv-x="592" vert-adv-y="1000"  />

      
      <glyph glyph-name="uniad" unicode="&#xad;" d="M64 249L83 336L377 336L358 249L64 249Z"  horiz-adv-x="390" vert-adv-y="1000"  />

      
      <glyph glyph-name="uniae" unicode="&#xae;" d="M277 493L277 417L231 417L231 623L309 623Q337 623 354 617.50Q371 612 380.50 603.50Q390 595 393.50 583.50Q397 572 397 560Q397 538 389.50 524.50Q382 511 363 503L407 417L357 417L319 493L277 493M351 561Q351 572 342.50 579Q334 586 307 586L277 586L277 531L313 531Q338 531 344.50 539.50Q351 548 351 561M312 732Q359 732 397.50 717Q436 702 463 674Q490 646 505 606Q520 566 520 516Q520 466 504 426Q488 386 459.50 358Q431 330 393 315Q355 300 312 300Q266 300 227.50 315Q189 330 161.50 358Q134 386 119 426Q104 466 104 516Q104 566 120 606Q136 646 164.50 674Q193 702 230.50 717Q268 732 312 732M311 689Q240 689 197 644Q154 599 154 516Q154 433 197 388Q240 343 311 343Q382 343 426 388Q470 433 470 516Q470 599 426 644Q382 689 311 689Z"  horiz-adv-x="483" vert-adv-y="1000"  />

      
      <glyph glyph-name="uniaf" unicode="&#xaf;" d="M158 693L419 693L404 622L143 622L158 693Z"  horiz-adv-x="391" vert-adv-y="1000"  />

      
      <glyph glyph-name="unib0" unicode="&#xb0;" d="M82 574Q82 604 92.50 629Q103 654 122 673Q141 692 167 702.50Q193 713 223 713Q253 713 279 702.50Q305 692 323.50 673Q342 654 352.50 629Q363 604 363 574Q363 544 352.50 518.50Q342 493 323.50 474Q305 455 279 444.50Q253 434 223 434Q193 434 167 444.50Q141 455 122 474Q103 493 92.50 518.50Q82 544 82 574M223 497Q255 497 275.50 517.50Q296 538 296 574Q296 608 275.50 629.50Q255 651 223 651Q190 651 169.50 629.50Q149 608 149 574Q149 538 169.50 517.50Q190 497 223 497Z"  horiz-adv-x="329" vert-adv-y="1000"  />

      
      <glyph glyph-name="unib1" unicode="&#xb1;" d="M363 302L320 96L240 96L283 302L92 302L108 379L300 379L343 585L423 585L380 379L572 379L555 302L363 302M59 0L76 79L516 79L499 0L59 0Z"  horiz-adv-x="592" vert-adv-y="1000"  />

      
      <glyph glyph-name="unib2" unicode="&#xb2;" d="M292 646Q256 646 234.50 631.50Q213 617 198 575L132 586Q148 641 186.50 674Q225 707 299 707Q356 707 390.50 675.50Q425 644 425 596Q425 565 415 540.50Q405 516 387.50 495Q370 474 346.50 455Q323 436 295 416Q275 402 252 388.50Q229 375 207 358L385 358L362 293L87 293L98 348Q126 369 159.50 392.50Q193 416 236 447Q261 466 282.50 481.50Q304 497 319 513.50Q334 530 342.50 549Q351 568 351 592Q351 613 335.50 629.50Q320 646 292 646Z"  horiz-adv-x="412" vert-adv-y="1000"  />

      
      <glyph glyph-name="unib3" unicode="&#xb3;" d="M277 530Q353 530 353 598Q353 620 338 633.50Q323 647 292 647Q253 647 232 634.50Q211 622 197 582L131 593Q146 646 183.50 676.50Q221 707 295 707Q358 707 390 676Q422 645 422 603Q422 563 404.50 538.50Q387 514 352 498Q377 483 388 460.50Q399 438 399 411Q399 348 360.50 312.50Q322 277 241 277Q209 277 182.50 286.50Q156 296 137 313.50Q118 331 107 356Q96 381 96 412L164 412Q166 376 187 357Q208 338 243 338Q281 338 304 356Q327 374 327 411Q327 441 308.50 454.50Q290 468 264 468L216 468L229 530L277 530Z"  horiz-adv-x="412" vert-adv-y="1000"  />

      
      <glyph glyph-name="unib4" unicode="&#xb4;" d="M159 591L299 733L410 733L250 591L159 591Z"  horiz-adv-x="391" vert-adv-y="1000"  />

      
      <glyph glyph-name="unib5" unicode="&#xb5;" d="M388 79Q309-15 216-15Q179-15 156-4.50Q133 6 119 29L72-194L-16-194L136 517L223 517L155 196Q150 171 150 150Q150 112 167.50 85.50Q185 59 230 59Q286 59 338 102Q363 122 384.50 149Q406 176 414 213L479 517L566 517L456 0L371 0L388 79Z"  horiz-adv-x="561" vert-adv-y="1000"  />

      
      <glyph glyph-name="unib6" unicode="&#xb6;" d="M384-139L550 640L431 640L266-139L179-139L271 296Q220 297 184.50 313Q149 329 127 353.50Q105 378 95.50 408.50Q86 439 86 470Q86 521 103 565.50Q120 610 158.50 643Q197 676 259 695Q321 714 411 714L652 714L471-139L384-139Z"  horiz-adv-x="609" vert-adv-y="1000"  />

      
      <glyph glyph-name="unib7" unicode="&#xb7;" d="M89 315L113 432L213 432L188 315L89 315Z"  horiz-adv-x="216" vert-adv-y="1000"  />

      
      <glyph glyph-name="unib8" unicode="&#xb8;" d="M157 5L214 5L184-51Q229-58 245.50-78Q262-98 262-119Q262-170 225-189Q188-208 130-208Q116-208 100-206Q84-204 67-201L77-148Q94-152 106.50-153Q119-154 133-154Q163-154 178-146.50Q193-139 193-119Q193-105 178-96.50Q163-88 127-88L107-88L157 5Z"  horiz-adv-x="391" vert-adv-y="1000"  />

      
      <glyph glyph-name="unib9" unicode="&#xb9;" d="M208 293L276 614L181 569L155 628L287 692L373 692L288 293L208 293Z"  horiz-adv-x="412" vert-adv-y="1000"  />

      
      <glyph glyph-name="uniba" unicode="&#xba;" d="M317 732Q351 732 380 720Q409 708 430 687Q451 666 462.50 636.50Q474 607 474 573Q474 516 457.50 470.50Q441 425 411.50 393.50Q382 362 342 345.50Q302 329 255 329Q220 329 191 341Q162 353 141 374.50Q120 396 108.50 425Q97 454 97 489Q97 546 114 591Q131 636 161 667.50Q191 699 231 715.50Q271 732 317 732M310 671Q248 671 209.50 622.50Q171 574 171 494Q171 448 194 419.50Q217 391 261 391Q324 391 362 439.50Q400 488 400 568Q400 614 377 642.50Q354 671 310 671Z"  horiz-adv-x="428" vert-adv-y="1000"  />

      
      <glyph glyph-name="unibb" unicode="&#xbb;" d="M289 33L198 33L376 259L299 479L383 479L471 255L289 33M89 33L-2 33L176 259L99 479L183 479L271 255L89 33Z"  horiz-adv-x="497" vert-adv-y="1000"  />

      
      <glyph glyph-name="unibc" unicode="&#xbc;" d="M266 0L176 0L672 691L762 691L266 0M165 293L233 614L138 569L112 628L244 692L330 692L245 293L165 293M713 1L732 94L531 94L541 141L795 400L863 400L810 153L861 153L839 94L797 94L778 1L713 1M619 153L745 153L779 314L619 153Z"  horiz-adv-x="911" vert-adv-y="1000"  />

      
      <glyph glyph-name="unibd" unicode="&#xbd;" d="M235 0L145 0L641 691L731 691L235 0M165 293L233 614L138 569L112 628L244 692L330 692L245 293L165 293M748 354Q712 354 690.50 339.50Q669 325 654 283L588 294Q604 349 642.50 382Q681 415 755 415Q812 415 846.50 383.50Q881 352 881 304Q881 273 871 248.50Q861 224 843.50 203Q826 182 802.50 163Q779 144 751 124Q731 110 708 96.50Q685 83 663 66L841 66L818 1L543 1L554 56Q582 77 615.50 100.50Q649 124 692 155Q717 174 738.50 189.50Q760 205 775 221.50Q790 238 798.50 257Q807 276 807 300Q807 321 791.50 337.50Q776 354 748 354Z"  horiz-adv-x="911" vert-adv-y="1000"  />

      
      <glyph glyph-name="unibe" unicode="&#xbe;" d="M313 0L223 0L719 691L809 691L313 0M713 1L732 94L531 94L541 141L795 400L863 400L810 153L861 153L839 94L797 94L778 1L713 1M619 153L745 153L779 314L619 153M275 530Q351 530 351 598Q351 620 336 633.50Q321 647 290 647Q251 647 230 634.50Q209 622 195 582L129 593Q144 646 181.50 676.50Q219 707 293 707Q356 707 388 676Q420 645 420 603Q420 563 402.50 538.50Q385 514 350 498Q375 483 386 460.50Q397 438 397 411Q397 348 358.50 312.50Q320 277 239 277Q207 277 180.50 286.50Q154 296 135 313.50Q116 331 105 356Q94 381 94 412L162 412Q164 376 185 357Q206 338 241 338Q279 338 302 356Q325 374 325 411Q325 441 306.50 454.50Q288 468 262 468L214 468L227 530L275 530Z"  horiz-adv-x="911" vert-adv-y="1000"  />

      
      <glyph glyph-name="unibf" unicode="&#xbf;" d="M4-47Q4-13 13 15Q22 43 37.50 66.50Q53 90 74 110.50Q95 131 120 151Q142 169 162.50 184.50Q183 200 200.50 217Q218 234 230.50 254Q243 274 248 300L251 313L337 313L335 298Q328 265 314.50 240.50Q301 216 283 196Q265 176 242.50 158Q220 140 195 119Q174 102 155.50 86Q137 70 123.50 51.50Q110 33 102 11Q94-11 94-39Q94-81 122-106Q150-131 204-131Q233-131 257.50-125.50Q282-120 301.50-106Q321-92 336.50-68.50Q352-45 364-9L442-22Q430-64 410.50-98Q391-132 361.50-156Q332-180 291.50-193Q251-206 196-206Q150-206 114-194Q78-182 53.50-160.50Q29-139 16.50-110Q4-81 4-47M382 517L358 401L261 401L285 517L382 517Z"  horiz-adv-x="495" vert-adv-y="1000"  />

      
      <glyph glyph-name="unic0" unicode="&#xc0;" d="M500 714L626 0L531 0L497 199L192 199L75 0L-25 0L404 714L500 714M236 279L486 279L430 610L236 279M445 773L333 908L437 908L528 773L445 773Z"  horiz-adv-x="674" vert-adv-y="1000"  />

      
      <glyph glyph-name="unic1" unicode="&#xc1;" d="M500 714L626 0L531 0L497 199L192 199L75 0L-25 0L404 714L500 714M236 279L486 279L430 610L236 279M387 773L528 908L641 908L477 773L387 773Z"  horiz-adv-x="674" vert-adv-y="1000"  />

      
      <glyph glyph-name="unic2" unicode="&#xc2;" d="M500 714L626 0L531 0L497 199L192 199L75 0L-25 0L404 714L500 714M236 279L486 279L430 610L236 279M305 773L447 908L534 908L622 773L541 773L484 852L387 773L305 773Z"  horiz-adv-x="674" vert-adv-y="1000"  />

      
      <glyph glyph-name="unic3" unicode="&#xc3;" d="M500 714L626 0L531 0L497 199L192 199L75 0L-25 0L404 714L500 714M236 279L486 279L430 610L236 279M528 845Q553 845 564 855.50Q575 866 580 895L648 895Q640 834 613 805.50Q586 777 536 777Q513 777 494.50 785.50Q476 794 460.50 803.50Q445 813 431 821.50Q417 830 402 830Q378 830 366 818.50Q354 807 349 779L282 779Q289 840 316 868.50Q343 897 394 897Q417 897 435 889Q453 881 469 871Q485 861 499 853Q513 845 528 845Z"  horiz-adv-x="674" vert-adv-y="1000"  />

      
      <glyph glyph-name="unic4" unicode="&#xc4;" d="M500 714L626 0L531 0L497 199L192 199L75 0L-25 0L404 714L500 714M236 279L486 279L430 610L236 279M323 790L345 892L436 892L414 790L323 790M503 790L525 892L617 892L595 790L503 790Z"  horiz-adv-x="674" vert-adv-y="1000"  />

      
      <glyph glyph-name="unic5" unicode="&#xc5;" d="M350 778Q350 830 381 856Q412 882 454 882Q475 882 494 875.50Q513 869 527.50 856Q542 843 550.50 823.50Q559 804 559 778Q559 743 543.50 720Q528 697 505 686L626 0L531 0L497 199L192 199L75 0L-25 0L391 693Q372 706 361 727Q350 748 350 778M236 279L486 279L430 610L236 279M405 778Q405 752 418 739.50Q431 727 454 727Q503 727 503 778Q503 807 490 819.50Q477 832 454 832Q431 832 418 819.50Q405 807 405 778Z"  horiz-adv-x="674" vert-adv-y="1000"  />

      
      <glyph glyph-name="unic6" unicode="&#xc6;" d="M551 237L257 237L70 0L-36 0L531 714L1088 714L1072 633L724 633L676 409L1004 409L987 327L659 327L607 81L975 81L945 0L501 0L551 237M318 316L568 316L636 633L567 633L318 316Z"  horiz-adv-x="1026" vert-adv-y="1000"  />

      
      <glyph glyph-name="unic7" unicode="&#xc7;" d="M335-16Q276-11 229 12.50Q182 36 149.50 75Q117 114 100 167.50Q83 221 83 285Q83 374 108.50 455Q134 536 182.50 597.50Q231 659 301 695.50Q371 732 459 732Q581 732 645 668.50Q709 605 719 495L627 480Q616 566 577 609Q538 652 454 652Q391 652 340.50 623.50Q290 595 254 546Q218 497 199 431.50Q180 366 180 293Q180 245 191.50 203Q203 161 227 129.50Q251 98 287 80Q323 62 372 62Q465 62 515.50 108Q566 154 583 229L683 229Q671 178 648.50 134.50Q626 91 590.50 58.50Q555 26 506 6.50Q457-13 393-17L374-55Q421-63 438.50-85Q456-107 456-128Q456-181 417-200.50Q378-220 317-220Q302-220 285-218Q268-216 251-213L262-160Q280-163 292.50-164.50Q305-166 320-166Q351-166 367-157Q383-148 383-127Q383-113 367.50-104Q352-95 314-95L293-95L335-16Z"  horiz-adv-x="710" vert-adv-y="1000"  />

      
      <glyph glyph-name="unic8" unicode="&#xc8;" d="M269 633L221 409L571 409L554 327L204 327L152 81L542 81L512 0L43 0L194 714L656 714L639 633L269 633M433 773L321 908L425 908L516 773L433 773Z"  horiz-adv-x="594" vert-adv-y="1000"  />

      
      <glyph glyph-name="unic9" unicode="&#xc9;" d="M269 633L221 409L571 409L554 327L204 327L152 81L542 81L512 0L43 0L194 714L656 714L639 633L269 633M350 773L491 908L604 908L440 773L350 773Z"  horiz-adv-x="594" vert-adv-y="1000"  />

      
      <glyph glyph-name="unica" unicode="&#xca;" d="M269 633L221 409L571 409L554 327L204 327L152 81L542 81L512 0L43 0L194 714L656 714L639 633L269 633M276 773L418 908L505 908L593 773L512 773L455 852L358 773L276 773Z"  horiz-adv-x="594" vert-adv-y="1000"  />

      
      <glyph glyph-name="unicb" unicode="&#xcb;" d="M269 633L221 409L571 409L554 327L204 327L152 81L542 81L512 0L43 0L194 714L656 714L639 633L269 633M299 790L321 892L412 892L390 790L299 790M479 790L501 892L593 892L571 790L479 790Z"  horiz-adv-x="594" vert-adv-y="1000"  />

      
      <glyph glyph-name="unicc" unicode="&#xcc;" d="M43 0L194 714L286 714L135 0L43 0M230 773L118 908L222 908L313 773L230 773Z"  horiz-adv-x="250" vert-adv-y="1000"  />

      
      <glyph glyph-name="unicd" unicode="&#xcd;" d="M43 0L194 714L286 714L135 0L43 0M180 773L321 908L434 908L270 773L180 773Z"  horiz-adv-x="250" vert-adv-y="1000"  />

      
      <glyph glyph-name="unice" unicode="&#xce;" d="M43 0L194 714L286 714L135 0L43 0M93 773L235 908L322 908L410 773L329 773L272 852L175 773L93 773Z"  horiz-adv-x="250" vert-adv-y="1000"  />

      
      <glyph glyph-name="unicf" unicode="&#xcf;" d="M43 0L194 714L286 714L135 0L43 0M111 790L133 892L224 892L202 790L111 790M291 790L313 892L405 892L383 790L291 790Z"  horiz-adv-x="250" vert-adv-y="1000"  />

      
      <glyph glyph-name="unid0" unicode="&#xd0;" d="M55 0L125 330L44 330L61 408L141 408L206 714L438 714Q503 714 555.50 692.50Q608 671 644.50 632.50Q681 594 701 541Q721 488 721 426Q721 333 694.50 255Q668 177 614 120.50Q560 64 478.50 32Q397 0 287 0L55 0M300 80Q381 80 442 104.50Q503 129 543.50 174.50Q584 220 604.50 284Q625 348 625 426Q625 469 613 507Q601 545 576.50 573.50Q552 602 515 618.50Q478 635 429 635L282 635L233 408L416 408L399 330L217 330L164 80L300 80Z"  horiz-adv-x="727" vert-adv-y="1000"  />

      
      <glyph glyph-name="unid1" unicode="&#xd1;" d="M503 0L252 567L132 0L43 0L194 714L277 714L526 147L646 714L735 714L584 0L503 0M548 845Q573 845 584 855.50Q595 866 600 895L668 895Q660 834 633 805.50Q606 777 556 777Q533 777 514.50 785.50Q496 794 480.50 803.50Q465 813 451 821.50Q437 830 422 830Q398 830 386 818.50Q374 807 369 779L302 779Q309 840 336 868.50Q363 897 414 897Q437 897 455 889Q473 881 489 871Q505 861 519 853Q533 845 548 845Z"  horiz-adv-x="700" vert-adv-y="1000"  />

      
      <glyph glyph-name="unid2" unicode="&#xd2;" d="M475 732Q538 732 589.50 711Q641 690 678.50 651.50Q716 613 736.50 558.50Q757 504 757 436Q757 352 731.50 270.50Q706 189 657 125Q608 61 535 21.50Q462-18 368-18Q305-18 253 2.50Q201 23 163.50 61.50Q126 100 105.50 155Q85 210 85 278Q85 362 111 443.50Q137 525 187 589Q237 653 309.50 692.50Q382 732 475 732M469 652Q399 652 345.50 619.50Q292 587 255.50 534.50Q219 482 200 416Q181 350 181 283Q181 234 193.50 193.50Q206 153 230 123.50Q254 94 290 78Q326 62 373 62Q443 62 496.50 94.50Q550 127 586.50 179.50Q623 232 642 298Q661 364 661 432Q661 481 648.50 521.50Q636 562 612 591Q588 620 552 636Q516 652 469 652M486 773L374 908L478 908L569 773L486 773Z"  horiz-adv-x="765" vert-adv-y="1000"  />

      
      <glyph glyph-name="unid3" unicode="&#xd3;" d="M475 732Q538 732 589.50 711Q641 690 678.50 651.50Q716 613 736.50 558.50Q757 504 757 436Q757 352 731.50 270.50Q706 189 657 125Q608 61 535 21.50Q462-18 368-18Q305-18 253 2.50Q201 23 163.50 61.50Q126 100 105.50 155Q85 210 85 278Q85 362 111 443.50Q137 525 187 589Q237 653 309.50 692.50Q382 732 475 732M469 652Q399 652 345.50 619.50Q292 587 255.50 534.50Q219 482 200 416Q181 350 181 283Q181 234 193.50 193.50Q206 153 230 123.50Q254 94 290 78Q326 62 373 62Q443 62 496.50 94.50Q550 127 586.50 179.50Q623 232 642 298Q661 364 661 432Q661 481 648.50 521.50Q636 562 612 591Q588 620 552 636Q516 652 469 652M406 773L547 908L660 908L496 773L406 773Z"  horiz-adv-x="765" vert-adv-y="1000"  />

      
      <glyph glyph-name="unid4" unicode="&#xd4;" d="M475 732Q538 732 589.50 711Q641 690 678.50 651.50Q716 613 736.50 558.50Q757 504 757 436Q757 352 731.50 270.50Q706 189 657 125Q608 61 535 21.50Q462-18 368-18Q305-18 253 2.50Q201 23 163.50 61.50Q126 100 105.50 155Q85 210 85 278Q85 362 111 443.50Q137 525 187 589Q237 653 309.50 692.50Q382 732 475 732M469 652Q399 652 345.50 619.50Q292 587 255.50 534.50Q219 482 200 416Q181 350 181 283Q181 234 193.50 193.50Q206 153 230 123.50Q254 94 290 78Q326 62 373 62Q443 62 496.50 94.50Q550 127 586.50 179.50Q623 232 642 298Q661 364 661 432Q661 481 648.50 521.50Q636 562 612 591Q588 620 552 636Q516 652 469 652M335 773L477 908L564 908L652 773L571 773L514 852L417 773L335 773Z"  horiz-adv-x="765" vert-adv-y="1000"  />

      
      <glyph glyph-name="unid5" unicode="&#xd5;" d="M475 732Q538 732 589.50 711Q641 690 678.50 651.50Q716 613 736.50 558.50Q757 504 757 436Q757 352 731.50 270.50Q706 189 657 125Q608 61 535 21.50Q462-18 368-18Q305-18 253 2.50Q201 23 163.50 61.50Q126 100 105.50 155Q85 210 85 278Q85 362 111 443.50Q137 525 187 589Q237 653 309.50 692.50Q382 732 475 732M469 652Q399 652 345.50 619.50Q292 587 255.50 534.50Q219 482 200 416Q181 350 181 283Q181 234 193.50 193.50Q206 153 230 123.50Q254 94 290 78Q326 62 373 62Q443 62 496.50 94.50Q550 127 586.50 179.50Q623 232 642 298Q661 364 661 432Q661 481 648.50 521.50Q636 562 612 591Q588 620 552 636Q516 652 469 652M560 845Q585 845 596 855.50Q607 866 612 895L680 895Q672 834 645 805.50Q618 777 568 777Q545 777 526.50 785.50Q508 794 492.50 803.50Q477 813 463 821.50Q449 830 434 830Q410 830 398 818.50Q386 807 381 779L314 779Q321 840 348 868.50Q375 897 426 897Q449 897 467 889Q485 881 501 871Q517 861 531 853Q545 845 560 845Z"  horiz-adv-x="765" vert-adv-y="1000"  />

      
      <glyph glyph-name="unid6" unicode="&#xd6;" d="M475 732Q538 732 589.50 711Q641 690 678.50 651.50Q716 613 736.50 558.50Q757 504 757 436Q757 352 731.50 270.50Q706 189 657 125Q608 61 535 21.50Q462-18 368-18Q305-18 253 2.50Q201 23 163.50 61.50Q126 100 105.50 155Q85 210 85 278Q85 362 111 443.50Q137 525 187 589Q237 653 309.50 692.50Q382 732 475 732M469 652Q399 652 345.50 619.50Q292 587 255.50 534.50Q219 482 200 416Q181 350 181 283Q181 234 193.50 193.50Q206 153 230 123.50Q254 94 290 78Q326 62 373 62Q443 62 496.50 94.50Q550 127 586.50 179.50Q623 232 642 298Q661 364 661 432Q661 481 648.50 521.50Q636 562 612 591Q588 620 552 636Q516 652 469 652M352 790L374 892L465 892L443 790L352 790M532 790L554 892L646 892L624 790L532 790Z"  horiz-adv-x="765" vert-adv-y="1000"  />

      
      <glyph glyph-name="unid7" unicode="&#xd7;" d="M512 179L450 129L327 286L140 129L92 184L281 341L152 502L213 552L342 392L532 553L580 499L387 337L512 179Z"  horiz-adv-x="592" vert-adv-y="1000"  />

      
      <glyph glyph-name="unid8" unicode="&#xd8;" d="M698 629Q726 592 741.50 543.50Q757 495 757 436Q757 352 731.50 270.50Q706 189 657 125Q608 61 535 21.50Q462-18 368-18Q314-18 267.50-3Q221 12 185 41L118-36L70 3L143 86Q115 124 100 171.50Q85 219 85 278Q85 362 111 443.50Q137 525 187 589Q237 653 309.50 692.50Q382 732 475 732Q529 732 574 717Q619 702 654 673L722 751L770 712L698 629M661 432Q661 505 634 556L244 108Q267 86 299.50 74Q332 62 373 62Q443 62 496.50 94.50Q550 127 586.50 179.50Q623 232 642 298Q661 364 661 432M469 652Q399 652 345.50 619.50Q292 587 255.50 534.50Q219 482 200 416Q181 350 181 283Q181 210 206 159L596 607Q573 628 541 640Q509 652 469 652Z"  horiz-adv-x="765" vert-adv-y="1000"  />

      
      <glyph glyph-name="unid9" unicode="&#xd9;" d="M323-18Q269-18 225-5Q181 8 149.50 34Q118 60 100.50 100.50Q83 141 83 196Q83 234 94 287L184 714L276 714L185 283Q176 238 176 202Q176 62 328 62Q376 62 411 76Q446 90 471 117.50Q496 145 512.50 186.50Q529 228 541 283L633 714L725 714L634 283Q617 203 590.50 146.50Q564 90 526.50 53Q489 16 438.50-1Q388-18 323-18M449 773L337 908L441 908L532 773L449 773Z"  horiz-adv-x="682" vert-adv-y="1000"  />

      
      <glyph glyph-name="unida" unicode="&#xda;" d="M323-18Q269-18 225-5Q181 8 149.50 34Q118 60 100.50 100.50Q83 141 83 196Q83 234 94 287L184 714L276 714L185 283Q176 238 176 202Q176 62 328 62Q376 62 411 76Q446 90 471 117.50Q496 145 512.50 186.50Q529 228 541 283L633 714L725 714L634 283Q617 203 590.50 146.50Q564 90 526.50 53Q489 16 438.50-1Q388-18 323-18M386 773L527 908L640 908L476 773L386 773Z"  horiz-adv-x="682" vert-adv-y="1000"  />

      
      <glyph glyph-name="unidb" unicode="&#xdb;" d="M323-18Q269-18 225-5Q181 8 149.50 34Q118 60 100.50 100.50Q83 141 83 196Q83 234 94 287L184 714L276 714L185 283Q176 238 176 202Q176 62 328 62Q376 62 411 76Q446 90 471 117.50Q496 145 512.50 186.50Q529 228 541 283L633 714L725 714L634 283Q617 203 590.50 146.50Q564 90 526.50 53Q489 16 438.50-1Q388-18 323-18M303 773L445 908L532 908L620 773L539 773L482 852L385 773L303 773Z"  horiz-adv-x="682" vert-adv-y="1000"  />

      
      <glyph glyph-name="unidc" unicode="&#xdc;" d="M323-18Q269-18 225-5Q181 8 149.50 34Q118 60 100.50 100.50Q83 141 83 196Q83 234 94 287L184 714L276 714L185 283Q176 238 176 202Q176 62 328 62Q376 62 411 76Q446 90 471 117.50Q496 145 512.50 186.50Q529 228 541 283L633 714L725 714L634 283Q617 203 590.50 146.50Q564 90 526.50 53Q489 16 438.50-1Q388-18 323-18M326 790L348 892L439 892L417 790L326 790M506 790L528 892L620 892L598 790L506 790Z"  horiz-adv-x="682" vert-adv-y="1000"  />

      
      <glyph glyph-name="unidd" unicode="&#xdd;" d="M128 714L227 714L349 384L610 714L714 714L382 303L318 0L226 0L289 303L128 714M351 773L492 908L605 908L441 773L351 773Z"  horiz-adv-x="613" vert-adv-y="1000"  />

      
      <glyph glyph-name="unide" unicode="&#xde;" d="M626 399Q626 332 604 283.50Q582 235 541.50 204Q501 173 443.50 158.50Q386 144 314 144L163 144L133 0L42 0L193 714L284 714L256 581L399 581Q463 581 506.50 564Q550 547 576.50 521Q603 495 614.50 462.50Q626 430 626 399M325 222Q371 222 409.50 230Q448 238 476 258Q504 278 519 311Q534 344 534 395Q534 418 526 438Q518 458 500.50 472.50Q483 487 454.50 495Q426 503 384 503L239 503L180 222L325 222Z"  horiz-adv-x="626" vert-adv-y="1000"  />

      
      <glyph glyph-name="unidf" unicode="&#xdf;" d="M310-11Q278-11 245.50-5Q213 1 187 14L212 80Q257 60 312 60Q392 60 426.50 103Q461 146 461 221Q461 278 424.50 311Q388 344 318 344L268 344L283 415L324 415Q354 415 381.50 423Q409 431 430 447.50Q451 464 463.50 490.50Q476 517 476 555Q476 597 451.50 625Q427 653 373 653Q310 653 275.50 620Q241 587 225 511L117 0L32 0L143 524Q163 621 219.50 671.50Q276 722 376 722Q423 722 458 709.50Q493 697 516 675.50Q539 654 550.50 625Q562 596 562 563Q562 495 527.50 451Q493 407 430 386Q483 369 515.50 326Q548 283 548 223Q548 173 535.50 130.50Q523 88 494.50 56.50Q466 25 420.50 7Q375-11 310-11Z"  horiz-adv-x="576" vert-adv-y="1000"  />

      
      <glyph glyph-name="unie0" unicode="&#xe0;" d="M180-12Q112-12 70 24.50Q28 61 28 126Q28 181 51.50 217Q75 253 114.50 275Q154 297 207 306.50Q260 316 320 318L418 321L421 335Q426 358 426 376Q426 416 402.50 440.50Q379 465 322 465Q259 465 228 448Q197 431 180 386L101 396Q125 471 180.50 502Q236 533 330 533Q421 533 466 492Q511 451 511 379Q511 348 504 319L437 0L352 0L367 71Q331 34 288 11Q245-12 180-12M405 260L319 256Q261 253 222.50 244.50Q184 236 160.50 221Q137 206 127.50 183.50Q118 161 118 131Q118 101 138 80Q158 59 203 59Q239 59 271 70Q303 81 327.50 100Q352 119 369 145Q386 171 393 201L405 260M345 591L236 733L338 733L427 591L345 591Z"  horiz-adv-x="538" vert-adv-y="1000"  />

      
      <glyph glyph-name="unie1" unicode="&#xe1;" d="M180-12Q112-12 70 24.50Q28 61 28 126Q28 181 51.50 217Q75 253 114.50 275Q154 297 207 306.50Q260 316 320 318L418 321L421 335Q426 358 426 376Q426 416 402.50 440.50Q379 465 322 465Q259 465 228 448Q197 431 180 386L101 396Q125 471 180.50 502Q236 533 330 533Q421 533 466 492Q511 451 511 379Q511 348 504 319L437 0L352 0L367 71Q331 34 288 11Q245-12 180-12M405 260L319 256Q261 253 222.50 244.50Q184 236 160.50 221Q137 206 127.50 183.50Q118 161 118 131Q118 101 138 80Q158 59 203 59Q239 59 271 70Q303 81 327.50 100Q352 119 369 145Q386 171 393 201L405 260M268 591L408 733L519 733L359 591L268 591Z"  horiz-adv-x="538" vert-adv-y="1000"  />

      
      <glyph glyph-name="unie2" unicode="&#xe2;" d="M180-12Q112-12 70 24.50Q28 61 28 126Q28 181 51.50 217Q75 253 114.50 275Q154 297 207 306.50Q260 316 320 318L418 321L421 335Q426 358 426 376Q426 416 402.50 440.50Q379 465 322 465Q259 465 228 448Q197 431 180 386L101 396Q125 471 180.50 502Q236 533 330 533Q421 533 466 492Q511 451 511 379Q511 348 504 319L437 0L352 0L367 71Q331 34 288 11Q245-12 180-12M405 260L319 256Q261 253 222.50 244.50Q184 236 160.50 221Q137 206 127.50 183.50Q118 161 118 131Q118 101 138 80Q158 59 203 59Q239 59 271 70Q303 81 327.50 100Q352 119 369 145Q386 171 393 201L405 260M181 591L324 733L411 733L498 591L418 591L361 679L263 591L181 591Z"  horiz-adv-x="538" vert-adv-y="1000"  />

      
      <glyph glyph-name="unie3" unicode="&#xe3;" d="M180-12Q112-12 70 24.50Q28 61 28 126Q28 181 51.50 217Q75 253 114.50 275Q154 297 207 306.50Q260 316 320 318L418 321L421 335Q426 358 426 376Q426 416 402.50 440.50Q379 465 322 465Q259 465 228 448Q197 431 180 386L101 396Q125 471 180.50 502Q236 533 330 533Q421 533 466 492Q511 451 511 379Q511 348 504 319L437 0L352 0L367 71Q331 34 288 11Q245-12 180-12M405 260L319 256Q261 253 222.50 244.50Q184 236 160.50 221Q137 206 127.50 183.50Q118 161 118 131Q118 101 138 80Q158 59 203 59Q239 59 271 70Q303 81 327.50 100Q352 119 369 145Q386 171 393 201L405 260M410 670Q434 670 445.50 681Q457 692 462 719L526 719Q513 602 416 602Q393 602 375.50 610.50Q358 619 343 628.50Q328 638 314.50 646.50Q301 655 286 655Q262 655 250.50 643.50Q239 632 234 605L169 605Q182 722 279 722Q301 722 318.50 714Q336 706 351.50 696Q367 686 381 678Q395 670 410 670Z"  horiz-adv-x="538" vert-adv-y="1000"  />

      
      <glyph glyph-name="unie4" unicode="&#xe4;" d="M180-12Q112-12 70 24.50Q28 61 28 126Q28 181 51.50 217Q75 253 114.50 275Q154 297 207 306.50Q260 316 320 318L418 321L421 335Q426 358 426 376Q426 416 402.50 440.50Q379 465 322 465Q259 465 228 448Q197 431 180 386L101 396Q125 471 180.50 502Q236 533 330 533Q421 533 466 492Q511 451 511 379Q511 348 504 319L437 0L352 0L367 71Q331 34 288 11Q245-12 180-12M405 260L319 256Q261 253 222.50 244.50Q184 236 160.50 221Q137 206 127.50 183.50Q118 161 118 131Q118 101 138 80Q158 59 203 59Q239 59 271 70Q303 81 327.50 100Q352 119 369 145Q386 171 393 201L405 260M212 615L232 714L321 714L300 615L212 615M387 615L407 714L496 714L475 615L387 615Z"  horiz-adv-x="538" vert-adv-y="1000"  />

      
      <glyph glyph-name="unie5" unicode="&#xe5;" d="M180-12Q112-12 70 24.50Q28 61 28 126Q28 181 51.50 217Q75 253 114.50 275Q154 297 207 306.50Q260 316 320 318L418 321L421 335Q426 358 426 376Q426 416 402.50 440.50Q379 465 322 465Q259 465 228 448Q197 431 180 386L101 396Q125 471 180.50 502Q236 533 330 533Q421 533 466 492Q511 451 511 379Q511 348 504 319L437 0L352 0L367 71Q331 34 288 11Q245-12 180-12M405 260L319 256Q261 253 222.50 244.50Q184 236 160.50 221Q137 206 127.50 183.50Q118 161 118 131Q118 101 138 80Q158 59 203 59Q239 59 271 70Q303 81 327.50 100Q352 119 369 145Q386 171 393 201L405 260M246 689Q246 714 254.50 733Q263 752 277 765Q291 778 309 784.50Q327 791 347 791Q367 791 385.50 784.50Q404 778 418.50 765Q433 752 441.50 733Q450 714 450 689Q450 664 441.50 645Q433 626 418.50 613.50Q404 601 385.50 595Q367 589 347 589Q327 589 309 595Q291 601 277 613.50Q263 626 254.50 645Q246 664 246 689M300 689Q300 663 313 650.50Q326 638 347 638Q370 638 382.50 650.50Q395 663 395 689Q395 716 382.50 728.50Q370 741 347 741Q326 741 313 728.50Q300 716 300 689Z"  horiz-adv-x="538" vert-adv-y="1000"  />

      
      <glyph glyph-name="unie6" unicode="&#xe6;" d="M835 145Q824 107 806 77.50Q788 48 760.50 27Q733 6 695.50-5Q658-16 607-16Q566-16 535-6.50Q504 3 481 19.50Q458 36 442 58Q426 80 416 104Q395 75 372 53Q349 31 322 16.50Q295 2 262-5Q229-12 189-12Q114-12 71 24.50Q28 61 28 126Q28 181 50.50 217Q73 253 112 275Q151 297 202.50 306.50Q254 316 311 318L411 321L414 335Q417 351 417 380Q417 414 393.50 439.50Q370 465 317 465Q288 465 266 461Q244 457 228 448Q212 439 200.50 424Q189 409 180 386L100 396Q125 471 179.50 502Q234 533 322 533Q445 533 478 442Q513 486 559.50 509.50Q606 533 672 533Q720 533 756.50 518Q793 503 817.50 476.50Q842 450 854.50 414Q867 378 867 336Q867 319 866 298Q865 277 861 257L857 237L479 237Q478 229 478 221.50Q478 214 478 205Q478 173 486.50 145.50Q495 118 511.50 98Q528 78 553.50 66Q579 54 614 54Q676 54 706 78Q736 102 750 145L835 145M398 260L311 256Q255 253 218 244.50Q181 236 158.50 221Q136 206 127 183.50Q118 161 118 131Q118 101 138 80Q158 59 206 59Q249 59 280 70Q311 81 332.50 100.50Q354 120 367 146Q380 172 386 201L398 260M664 466Q599 466 552.50 426Q506 386 488 302L780 302Q781 310 781.50 318.50Q782 327 782 336Q782 362 775 385.50Q768 409 753.50 427Q739 445 716.50 455.50Q694 466 664 466Z"  horiz-adv-x="892" vert-adv-y="1000"  />

      
      <glyph glyph-name="unie7" unicode="&#xe7;" d="M237-13Q194-7 161.50 11Q129 29 106.50 57.50Q84 86 72.50 122.50Q61 159 61 201Q61 281 84 343Q107 405 146.50 447Q186 489 238.50 511Q291 533 350 533Q399 533 435 519Q471 505 494.50 481Q518 457 530.50 424.50Q543 392 546 356L460 343Q457 366 451 387.50Q445 409 431.50 425.50Q418 442 397 451.50Q376 461 343 461Q301 461 266 443Q231 425 206 391.50Q181 358 167 310.50Q153 263 153 205Q153 173 160.50 146Q168 119 183.50 99Q199 79 223.50 67.50Q248 56 283 56Q348 56 383 88.50Q418 121 432 172L521 172Q499 89 445 39.50Q391-10 293-15L274-51Q319-58 335.50-78Q352-98 352-119Q352-170 315-189Q278-208 220-208Q206-208 190-206Q174-204 157-201L167-148Q184-152 196.50-153Q209-154 223-154Q253-154 268-146.50Q283-139 283-119Q283-105 268-96.50Q253-88 217-88L197-88L237-13Z"  horiz-adv-x="559" vert-adv-y="1000"  />

      
      <glyph glyph-name="unie8" unicode="&#xe8;" d="M338 466Q272 466 225 426Q178 386 159 302L458 302Q459 310 459.50 318.50Q460 327 460 336Q460 362 452.50 385.50Q445 409 430 427Q415 445 392 455.50Q369 466 338 466M148 237Q147 228 147 218.50Q147 209 147 200Q147 171 156 144.50Q165 118 182.50 98Q200 78 226.50 66Q253 54 289 54Q351 54 382 77.50Q413 101 428 145L513 145Q502 108 483.50 78Q465 48 437.50 27Q410 6 371.50-5Q333-16 281-16Q228-16 187.50 1.50Q147 19 118.50 49Q90 79 75.50 119Q61 159 61 205Q61 284 83 345Q105 406 143 448Q181 490 233.50 511.50Q286 533 346 533Q395 533 432 518Q469 503 494 476.50Q519 450 532 414Q545 378 545 336Q545 319 544 297Q543 275 538 254L534 237L148 237M358 591L249 733L351 733L440 591L358 591Z"  horiz-adv-x="570" vert-adv-y="1000"  />

      
      <glyph glyph-name="unie9" unicode="&#xe9;" d="M338 466Q272 466 225 426Q178 386 159 302L458 302Q459 310 459.50 318.50Q460 327 460 336Q460 362 452.50 385.50Q445 409 430 427Q415 445 392 455.50Q369 466 338 466M148 237Q147 228 147 218.50Q147 209 147 200Q147 171 156 144.50Q165 118 182.50 98Q200 78 226.50 66Q253 54 289 54Q351 54 382 77.50Q413 101 428 145L513 145Q502 108 483.50 78Q465 48 437.50 27Q410 6 371.50-5Q333-16 281-16Q228-16 187.50 1.50Q147 19 118.50 49Q90 79 75.50 119Q61 159 61 205Q61 284 83 345Q105 406 143 448Q181 490 233.50 511.50Q286 533 346 533Q395 533 432 518Q469 503 494 476.50Q519 450 532 414Q545 378 545 336Q545 319 544 297Q543 275 538 254L534 237L148 237M280 591L420 733L531 733L371 591L280 591Z"  horiz-adv-x="570" vert-adv-y="1000"  />

      
      <glyph glyph-name="uniea" unicode="&#xea;" d="M338 466Q272 466 225 426Q178 386 159 302L458 302Q459 310 459.50 318.50Q460 327 460 336Q460 362 452.50 385.50Q445 409 430 427Q415 445 392 455.50Q369 466 338 466M148 237Q147 228 147 218.50Q147 209 147 200Q147 171 156 144.50Q165 118 182.50 98Q200 78 226.50 66Q253 54 289 54Q351 54 382 77.50Q413 101 428 145L513 145Q502 108 483.50 78Q465 48 437.50 27Q410 6 371.50-5Q333-16 281-16Q228-16 187.50 1.50Q147 19 118.50 49Q90 79 75.50 119Q61 159 61 205Q61 284 83 345Q105 406 143 448Q181 490 233.50 511.50Q286 533 346 533Q395 533 432 518Q469 503 494 476.50Q519 450 532 414Q545 378 545 336Q545 319 544 297Q543 275 538 254L534 237L148 237M199 591L342 733L429 733L516 591L436 591L379 679L281 591L199 591Z"  horiz-adv-x="570" vert-adv-y="1000"  />

      
      <glyph glyph-name="unieb" unicode="&#xeb;" d="M338 466Q272 466 225 426Q178 386 159 302L458 302Q459 310 459.50 318.50Q460 327 460 336Q460 362 452.50 385.50Q445 409 430 427Q415 445 392 455.50Q369 466 338 466M148 237Q147 228 147 218.50Q147 209 147 200Q147 171 156 144.50Q165 118 182.50 98Q200 78 226.50 66Q253 54 289 54Q351 54 382 77.50Q413 101 428 145L513 145Q502 108 483.50 78Q465 48 437.50 27Q410 6 371.50-5Q333-16 281-16Q228-16 187.50 1.50Q147 19 118.50 49Q90 79 75.50 119Q61 159 61 205Q61 284 83 345Q105 406 143 448Q181 490 233.50 511.50Q286 533 346 533Q395 533 432 518Q469 503 494 476.50Q519 450 532 414Q545 378 545 336Q545 319 544 297Q543 275 538 254L534 237L148 237M226 615L246 714L335 714L314 615L226 615M401 615L421 714L510 714L489 615L401 615Z"  horiz-adv-x="570" vert-adv-y="1000"  />

      
      <glyph glyph-name="uniec" unicode="&#xec;" d="M33 0L143 517L230 517L120 0L33 0M164 591L55 733L157 733L246 591L164 591Z"  horiz-adv-x="226" vert-adv-y="1000"  />

      
      <glyph glyph-name="unied" unicode="&#xed;" d="M33 0L143 517L230 517L120 0L33 0M134 591L274 733L385 733L225 591L134 591Z"  horiz-adv-x="226" vert-adv-y="1000"  />

      
      <glyph glyph-name="uniee" unicode="&#xee;" d="M33 0L143 517L230 517L120 0L33 0M34 591L177 733L264 733L351 591L271 591L214 679L116 591L34 591Z"  horiz-adv-x="226" vert-adv-y="1000"  />

      
      <glyph glyph-name="unief" unicode="&#xef;" d="M33 0L143 517L230 517L120 0L33 0M62 615L82 714L171 714L150 615L62 615M237 615L257 714L346 714L325 615L237 615Z"  horiz-adv-x="226" vert-adv-y="1000"  />

      
      <glyph glyph-name="unif0" unicode="&#xf0;" d="M283 581L343 634Q294 655 233 661L253 728Q298 723 333.50 711.50Q369 700 401 684L482 755L521 712L451 652Q519 598 548 517Q577 436 577 339Q577 255 556 189Q535 123 496.50 77.50Q458 32 403 8Q348-16 280-16Q229-16 188.50 1Q148 18 119 46.50Q90 75 74.50 113Q59 151 59 193Q59 260 81 315Q103 370 140.50 409Q178 448 227.50 469.50Q277 491 332 491Q383 491 421.50 473.50Q460 456 486 424Q481 488 458 532Q435 576 397 605L321 539L283 581M287 56Q332 56 367.50 73.50Q403 91 428.50 121.50Q454 152 467.50 194Q481 236 481 285Q481 314 472 338.50Q463 363 440 383Q401 419 334 419Q289 419 255 401Q221 383 197.50 352.50Q174 322 162 282.50Q150 243 150 200Q150 170 158.50 144Q167 118 184.50 98.50Q202 79 227.50 67.50Q253 56 287 56Z"  horiz-adv-x="601" vert-adv-y="1000"  />

      
      <glyph glyph-name="unif1" unicode="&#xf1;" d="M383 0L450 317Q453 330 455 342.50Q457 355 457 367Q457 409 437 433.50Q417 458 372 458Q314 458 259 416Q232 395 211.50 369.50Q191 344 183 306L118 0L31 0L140 517L226 517L209 439Q254 490 302.50 511.50Q351 533 398 533Q470 533 508 494Q546 455 546 385Q546 358 540 328L470 0L383 0M448 670Q472 670 483.50 681Q495 692 500 719L564 719Q551 602 454 602Q431 602 413.50 610.50Q396 619 381 628.50Q366 638 352.50 646.50Q339 655 324 655Q300 655 288.50 643.50Q277 632 272 605L207 605Q220 722 317 722Q339 722 356.50 714Q374 706 389.50 696Q405 686 419 678Q433 670 448 670Z"  horiz-adv-x="570" vert-adv-y="1000"  />

      
      <glyph glyph-name="unif2" unicode="&#xf2;" d="M362 533Q410 533 449.50 517Q489 501 517 472.50Q545 444 560.50 404Q576 364 576 317Q576 239 553.50 177Q531 115 490.50 72.50Q450 30 395 7Q340-16 276-16Q228-16 188.50 0Q149 16 120.50 45Q92 74 76.50 113.50Q61 153 61 200Q61 278 84.50 339.50Q108 401 149 444Q190 487 244.50 510Q299 533 362 533M356 461Q311 461 274 442Q237 423 210 389Q183 355 168 308Q153 261 153 204Q153 137 186 96.50Q219 56 282 56Q327 56 364 75Q401 94 427.50 128Q454 162 469 209Q484 256 484 313Q484 380 451.50 420.50Q419 461 356 461M368 591L259 733L361 733L450 591L368 591Z"  horiz-adv-x="601" vert-adv-y="1000"  />

      
      <glyph glyph-name="unif3" unicode="&#xf3;" d="M362 533Q410 533 449.50 517Q489 501 517 472.50Q545 444 560.50 404Q576 364 576 317Q576 239 553.50 177Q531 115 490.50 72.50Q450 30 395 7Q340-16 276-16Q228-16 188.50 0Q149 16 120.50 45Q92 74 76.50 113.50Q61 153 61 200Q61 278 84.50 339.50Q108 401 149 444Q190 487 244.50 510Q299 533 362 533M356 461Q311 461 274 442Q237 423 210 389Q183 355 168 308Q153 261 153 204Q153 137 186 96.50Q219 56 282 56Q327 56 364 75Q401 94 427.50 128Q454 162 469 209Q484 256 484 313Q484 380 451.50 420.50Q419 461 356 461M298 591L438 733L549 733L389 591L298 591Z"  horiz-adv-x="601" vert-adv-y="1000"  />

      
      <glyph glyph-name="unif4" unicode="&#xf4;" d="M362 533Q410 533 449.50 517Q489 501 517 472.50Q545 444 560.50 404Q576 364 576 317Q576 239 553.50 177Q531 115 490.50 72.50Q450 30 395 7Q340-16 276-16Q228-16 188.50 0Q149 16 120.50 45Q92 74 76.50 113.50Q61 153 61 200Q61 278 84.50 339.50Q108 401 149 444Q190 487 244.50 510Q299 533 362 533M356 461Q311 461 274 442Q237 423 210 389Q183 355 168 308Q153 261 153 204Q153 137 186 96.50Q219 56 282 56Q327 56 364 75Q401 94 427.50 128Q454 162 469 209Q484 256 484 313Q484 380 451.50 420.50Q419 461 356 461M213 591L356 733L443 733L530 591L450 591L393 679L295 591L213 591Z"  horiz-adv-x="601" vert-adv-y="1000"  />

      
      <glyph glyph-name="unif5" unicode="&#xf5;" d="M362 533Q410 533 449.50 517Q489 501 517 472.50Q545 444 560.50 404Q576 364 576 317Q576 239 553.50 177Q531 115 490.50 72.50Q450 30 395 7Q340-16 276-16Q228-16 188.50 0Q149 16 120.50 45Q92 74 76.50 113.50Q61 153 61 200Q61 278 84.50 339.50Q108 401 149 444Q190 487 244.50 510Q299 533 362 533M356 461Q311 461 274 442Q237 423 210 389Q183 355 168 308Q153 261 153 204Q153 137 186 96.50Q219 56 282 56Q327 56 364 75Q401 94 427.50 128Q454 162 469 209Q484 256 484 313Q484 380 451.50 420.50Q419 461 356 461M443 670Q467 670 478.50 681Q490 692 495 719L559 719Q546 602 449 602Q426 602 408.50 610.50Q391 619 376 628.50Q361 638 347.50 646.50Q334 655 319 655Q295 655 283.50 643.50Q272 632 267 605L202 605Q215 722 312 722Q334 722 351.50 714Q369 706 384.50 696Q400 686 414 678Q428 670 443 670Z"  horiz-adv-x="601" vert-adv-y="1000"  />

      
      <glyph glyph-name="unif6" unicode="&#xf6;" d="M362 533Q410 533 449.50 517Q489 501 517 472.50Q545 444 560.50 404Q576 364 576 317Q576 239 553.50 177Q531 115 490.50 72.50Q450 30 395 7Q340-16 276-16Q228-16 188.50 0Q149 16 120.50 45Q92 74 76.50 113.50Q61 153 61 200Q61 278 84.50 339.50Q108 401 149 444Q190 487 244.50 510Q299 533 362 533M356 461Q311 461 274 442Q237 423 210 389Q183 355 168 308Q153 261 153 204Q153 137 186 96.50Q219 56 282 56Q327 56 364 75Q401 94 427.50 128Q454 162 469 209Q484 256 484 313Q484 380 451.50 420.50Q419 461 356 461M242 615L262 714L351 714L330 615L242 615M417 615L437 714L526 714L505 615L417 615Z"  horiz-adv-x="601" vert-adv-y="1000"  />

      
      <glyph glyph-name="unif7" unicode="&#xf7;" d="M261 214L354 214L331 107L238 107L261 214M337 574L430 574L407 467L314 467L337 574M107 301L124 380L556 380L539 301L107 301Z"  horiz-adv-x="592" vert-adv-y="1000"  />

      
      <glyph glyph-name="unif8" unicode="&#xf8;" d="M107 60Q61 117 61 200Q61 278 84.50 339.50Q108 401 149 444Q190 487 244.50 510Q299 533 362 533Q399 533 430.50 523Q462 513 488 496L544 559L588 522L531 457Q576 400 576 317Q576 239 553.50 177Q531 115 490.50 72.50Q450 30 395 7Q340-16 276-16Q239-16 207-6Q175 4 149 21L90-47L46-9L107 60M356 461Q311 461 274 442Q237 423 210 389Q183 355 168 308Q153 261 153 204Q153 162 167 129L435 435Q404 461 356 461M484 313Q484 354 470 388L202 81Q233 56 282 56Q327 56 364 75Q401 94 427.50 128Q454 162 469 209Q484 256 484 313Z"  horiz-adv-x="601" vert-adv-y="1000"  />

      
      <glyph glyph-name="unif9" unicode="&#xf9;" d="M223 517L155 196Q150 171 150 146Q150 109 167.50 84Q185 59 230 59Q286 59 338 102Q364 123 385 148.50Q406 174 414 213L479 517L566 517L456 0L371 0L388 79Q343 28 297 6Q251-16 204-16Q131-16 95 24.50Q59 65 59 130Q59 144 61 159Q63 174 66 190L136 517L223 517M341 591L232 733L334 733L423 591L341 591Z"  horiz-adv-x="561" vert-adv-y="1000"  />

      
      <glyph glyph-name="unifa" unicode="&#xfa;" d="M223 517L155 196Q150 171 150 146Q150 109 167.50 84Q185 59 230 59Q286 59 338 102Q364 123 385 148.50Q406 174 414 213L479 517L566 517L456 0L371 0L388 79Q343 28 297 6Q251-16 204-16Q131-16 95 24.50Q59 65 59 130Q59 144 61 159Q63 174 66 190L136 517L223 517M282 591L422 733L533 733L373 591L282 591Z"  horiz-adv-x="561" vert-adv-y="1000"  />

      
      <glyph glyph-name="unifb" unicode="&#xfb;" d="M223 517L155 196Q150 171 150 146Q150 109 167.50 84Q185 59 230 59Q286 59 338 102Q364 123 385 148.50Q406 174 414 213L479 517L566 517L456 0L371 0L388 79Q343 28 297 6Q251-16 204-16Q131-16 95 24.50Q59 65 59 130Q59 144 61 159Q63 174 66 190L136 517L223 517M200 591L343 733L430 733L517 591L437 591L380 679L282 591L200 591Z"  horiz-adv-x="561" vert-adv-y="1000"  />

      
      <glyph glyph-name="unifc" unicode="&#xfc;" d="M223 517L155 196Q150 171 150 146Q150 109 167.50 84Q185 59 230 59Q286 59 338 102Q364 123 385 148.50Q406 174 414 213L479 517L566 517L456 0L371 0L388 79Q343 28 297 6Q251-16 204-16Q131-16 95 24.50Q59 65 59 130Q59 144 61 159Q63 174 66 190L136 517L223 517M226 615L246 714L335 714L314 615L226 615M401 615L421 714L510 714L489 615L401 615Z"  horiz-adv-x="561" vert-adv-y="1000"  />

      
      <glyph glyph-name="unifd" unicode="&#xfd;" d="M76 517L172 517L251 111L484 517L585 517L239-49Q217-84 199-111Q181-138 161.50-156.50Q142-175 118.50-184.50Q95-194 64-194Q40-194 20-190Q0-186-17-178L8-111Q19-115 31.50-118Q44-121 60-121Q76-121 88-117Q100-113 110.50-103.50Q121-94 131-79Q141-64 155-42L189 14L76 517M255 591L395 733L506 733L346 591L255 591Z"  horiz-adv-x="523" vert-adv-y="1000"  />

      
      <glyph glyph-name="unife" unicode="&#xfe;" d="M212 445Q247 487 291.50 510Q336 533 391 533Q440 533 474.50 514.50Q509 496 531 465.50Q553 435 563 395.50Q573 356 573 314Q573 251 554.50 191.50Q536 132 501 86Q466 40 416 12Q366-16 303-16Q248-16 205 6.50Q162 29 134 77L76-194L-11-194L182 714L269 714L212 445M167 245Q159 208 159 183Q159 124 196 90Q233 56 293 56Q336 56 371 77Q406 98 430.50 133.50Q455 169 468 215.50Q481 262 481 312Q481 385 451 423Q421 461 368 461Q336 461 305 447.50Q274 434 248 411Q222 388 203 355.50Q184 323 176 286L167 245Z"  horiz-adv-x="597" vert-adv-y="1000"  />

      
      <glyph glyph-name="uniff" unicode="&#xff;" d="M76 517L172 517L251 111L484 517L585 517L239-49Q217-84 199-111Q181-138 161.50-156.50Q142-175 118.50-184.50Q95-194 64-194Q40-194 20-190Q0-186-17-178L8-111Q19-115 31.50-118Q44-121 60-121Q76-121 88-117Q100-113 110.50-103.50Q121-94 131-79Q141-64 155-42L189 14L76 517M202 615L222 714L311 714L290 615L202 615M377 615L397 714L486 714L465 615L377 615Z"  horiz-adv-x="523" vert-adv-y="1000"  />

      
      <glyph glyph-name="uni0100" unicode="&#x0100;" d="M500 714L626 0L531 0L497 199L192 199L75 0L-25 0L404 714L500 714M236 279L486 279L430 610L236 279M330 869L622 869L606 795L314 795L330 869Z"  horiz-adv-x="674" vert-adv-y="1000"  />

      
      <glyph glyph-name="uni0101" unicode="&#x0101;" d="M180-12Q112-12 70 24.50Q28 61 28 126Q28 181 51.50 217Q75 253 114.50 275Q154 297 207 306.50Q260 316 320 318L418 321L421 335Q426 358 426 376Q426 416 402.50 440.50Q379 465 322 465Q259 465 228 448Q197 431 180 386L101 396Q125 471 180.50 502Q236 533 330 533Q421 533 466 492Q511 451 511 379Q511 348 504 319L437 0L352 0L367 71Q331 34 288 11Q245-12 180-12M405 260L319 256Q261 253 222.50 244.50Q184 236 160.50 221Q137 206 127.50 183.50Q118 161 118 131Q118 101 138 80Q158 59 203 59Q239 59 271 70Q303 81 327.50 100Q352 119 369 145Q386 171 393 201L405 260M224 693L485 693L470 622L209 622L224 693Z"  horiz-adv-x="538" vert-adv-y="1000"  />

      
      <glyph glyph-name="uni0102" unicode="&#x0102;" d="M500 714L626 0L531 0L497 199L192 199L75 0L-25 0L404 714L500 714M236 279L486 279L430 610L236 279M459 773Q404 773 371.50 800Q339 827 339 878Q339 892 342 912L409 912Q406 900 406 888Q406 860 422 846Q438 832 464 832Q496 832 519 849.50Q542 867 549 912L617 912Q604 840 566 806.50Q528 773 459 773Z"  horiz-adv-x="674" vert-adv-y="1000"  />

      
      <glyph glyph-name="uni0103" unicode="&#x0103;" d="M180-12Q112-12 70 24.50Q28 61 28 126Q28 181 51.50 217Q75 253 114.50 275Q154 297 207 306.50Q260 316 320 318L418 321L421 335Q426 358 426 376Q426 416 402.50 440.50Q379 465 322 465Q259 465 228 448Q197 431 180 386L101 396Q125 471 180.50 502Q236 533 330 533Q421 533 466 492Q511 451 511 379Q511 348 504 319L437 0L352 0L367 71Q331 34 288 11Q245-12 180-12M405 260L319 256Q261 253 222.50 244.50Q184 236 160.50 221Q137 206 127.50 183.50Q118 161 118 131Q118 101 138 80Q158 59 203 59Q239 59 271 70Q303 81 327.50 100Q352 119 369 145Q386 171 393 201L405 260M347 590Q292 590 260 618Q228 646 228 695Q228 711 231 729L297 729Q294 715 294 706Q294 677 310 662.50Q326 648 352 648Q384 648 406.50 666Q429 684 437 729L504 729Q491 656 452 623Q413 590 347 590Z"  horiz-adv-x="538" vert-adv-y="1000"  />

      
      <glyph glyph-name="uni0104" unicode="&#x0104;" d="M595-183Q578-186 558-186Q519-186 490.50-167.50Q462-149 462-114Q462-80 481.50-53Q501-26 545 0L531 0L497 199L192 199L75 0L-25 0L404 714L500 714L626 0Q588-24 565-46.50Q542-69 542-92Q542-108 553-116Q564-124 581-124Q588-124 594.50-123.50Q601-123 608-122L595-183M236 279L486 279L430 610L236 279Z"  horiz-adv-x="674" vert-adv-y="1000"  />

      
      <glyph glyph-name="uni0105" unicode="&#x0105;" d="M407-178Q399-179 390.50-179.50Q382-180 371-180Q333-180 306-163Q279-146 279-111Q279-79 299-52.50Q319-26 361 0L352 0L367 71Q331 34 288 11Q245-12 180-12Q112-12 70 24.50Q28 61 28 126Q28 181 51.50 217Q75 253 114.50 275Q154 297 207 306.50Q260 316 320 318L418 321L421 335Q426 358 426 376Q426 416 402.50 440.50Q379 465 322 465Q259 465 228 448Q197 431 180 386L101 396Q125 471 180.50 502Q236 533 330 533Q421 533 466 492Q511 451 511 379Q511 348 504 319L437 0Q399-24 377-45Q355-66 355-89Q355-105 366-112.50Q377-120 394-120Q400-120 406.50-119.50Q413-119 420-118L407-178M405 260L319 256Q261 253 222.50 244.50Q184 236 160.50 221Q137 206 127.50 183.50Q118 161 118 131Q118 101 138 80Q158 59 203 59Q239 59 271 70Q303 81 327.50 100Q352 119 369 145Q386 171 393 201L405 260Z"  horiz-adv-x="538" vert-adv-y="1000"  />

      
      <glyph glyph-name="uni0106" unicode="&#x0106;" d="M627 480Q616 566 577 609Q538 652 454 652Q391 652 340.50 623.50Q290 595 254 546Q218 497 199 431.50Q180 366 180 293Q180 245 191.50 203Q203 161 227 129.50Q251 98 287 80Q323 62 372 62Q465 62 515.50 108Q566 154 583 229L683 229Q671 175 646.50 129.50Q622 84 583.50 51.50Q545 19 491 0.50Q437-18 366-18Q300-18 247.50 4Q195 26 158.50 65.50Q122 105 102.50 161Q83 217 83 285Q83 374 108.50 455Q134 536 182.50 597.50Q231 659 301 695.50Q371 732 459 732Q581 732 645 668.50Q709 605 719 495L627 480M403 773L544 908L657 908L493 773L403 773Z"  horiz-adv-x="710" vert-adv-y="1000"  />

      
      <glyph glyph-name="uni0107" unicode="&#x0107;" d="M460 343Q457 366 451 387.50Q445 409 431.50 425.50Q418 442 397 451.50Q376 461 343 461Q301 461 266 443Q231 425 206 391.50Q181 358 167 310.50Q153 263 153 205Q153 173 160.50 146Q168 119 183.50 99Q199 79 223.50 67.50Q248 56 283 56Q348 56 383 88.50Q418 121 432 172L521 172Q510 129 490 94Q470 59 439.50 34.50Q409 10 368-3Q327-16 274-16Q223-16 183 0.50Q143 17 116 46.50Q89 76 75 115.50Q61 155 61 201Q61 281 84 343Q107 405 146.50 447Q186 489 238.50 511Q291 533 350 533Q399 533 435 519Q471 505 494.50 481Q518 457 530.50 424.50Q543 392 546 356L460 343M285 591L425 733L536 733L376 591L285 591Z"  horiz-adv-x="559" vert-adv-y="1000"  />

      
      <glyph glyph-name="uni0108" unicode="&#x0108;" d="M627 480Q616 566 577 609Q538 652 454 652Q391 652 340.50 623.50Q290 595 254 546Q218 497 199 431.50Q180 366 180 293Q180 245 191.50 203Q203 161 227 129.50Q251 98 287 80Q323 62 372 62Q465 62 515.50 108Q566 154 583 229L683 229Q671 175 646.50 129.50Q622 84 583.50 51.50Q545 19 491 0.50Q437-18 366-18Q300-18 247.50 4Q195 26 158.50 65.50Q122 105 102.50 161Q83 217 83 285Q83 374 108.50 455Q134 536 182.50 597.50Q231 659 301 695.50Q371 732 459 732Q581 732 645 668.50Q709 605 719 495L627 480M314 773L456 908L543 908L631 773L550 773L493 852L396 773L314 773Z"  horiz-adv-x="710" vert-adv-y="1000"  />

      
      <glyph glyph-name="uni0109" unicode="&#x0109;" d="M460 343Q457 366 451 387.50Q445 409 431.50 425.50Q418 442 397 451.50Q376 461 343 461Q301 461 266 443Q231 425 206 391.50Q181 358 167 310.50Q153 263 153 205Q153 173 160.50 146Q168 119 183.50 99Q199 79 223.50 67.50Q248 56 283 56Q348 56 383 88.50Q418 121 432 172L521 172Q510 129 490 94Q470 59 439.50 34.50Q409 10 368-3Q327-16 274-16Q223-16 183 0.50Q143 17 116 46.50Q89 76 75 115.50Q61 155 61 201Q61 281 84 343Q107 405 146.50 447Q186 489 238.50 511Q291 533 350 533Q399 533 435 519Q471 505 494.50 481Q518 457 530.50 424.50Q543 392 546 356L460 343M205 591L348 733L435 733L522 591L442 591L385 679L287 591L205 591Z"  horiz-adv-x="559" vert-adv-y="1000"  />

      
      <glyph glyph-name="uni010A" unicode="&#x010A;" d="M627 480Q616 566 577 609Q538 652 454 652Q391 652 340.50 623.50Q290 595 254 546Q218 497 199 431.50Q180 366 180 293Q180 245 191.50 203Q203 161 227 129.50Q251 98 287 80Q323 62 372 62Q465 62 515.50 108Q566 154 583 229L683 229Q671 175 646.50 129.50Q622 84 583.50 51.50Q545 19 491 0.50Q437-18 366-18Q300-18 247.50 4Q195 26 158.50 65.50Q122 105 102.50 161Q83 217 83 285Q83 374 108.50 455Q134 536 182.50 597.50Q231 659 301 695.50Q371 732 459 732Q581 732 645 668.50Q709 605 719 495L627 480M427 789L450 894L543 894L521 789L427 789Z"  horiz-adv-x="710" vert-adv-y="1000"  />

      
      <glyph glyph-name="uni010B" unicode="&#x010B;" d="M460 343Q457 366 451 387.50Q445 409 431.50 425.50Q418 442 397 451.50Q376 461 343 461Q301 461 266 443Q231 425 206 391.50Q181 358 167 310.50Q153 263 153 205Q153 173 160.50 146Q168 119 183.50 99Q199 79 223.50 67.50Q248 56 283 56Q348 56 383 88.50Q418 121 432 172L521 172Q510 129 490 94Q470 59 439.50 34.50Q409 10 368-3Q327-16 274-16Q223-16 183 0.50Q143 17 116 46.50Q89 76 75 115.50Q61 155 61 201Q61 281 84 343Q107 405 146.50 447Q186 489 238.50 511Q291 533 350 533Q399 533 435 519Q471 505 494.50 481Q518 457 530.50 424.50Q543 392 546 356L460 343M315 614L337 715L426 715L405 614L315 614Z"  horiz-adv-x="559" vert-adv-y="1000"  />

      
      <glyph glyph-name="uni010C" unicode="&#x010C;" d="M627 480Q616 566 577 609Q538 652 454 652Q391 652 340.50 623.50Q290 595 254 546Q218 497 199 431.50Q180 366 180 293Q180 245 191.50 203Q203 161 227 129.50Q251 98 287 80Q323 62 372 62Q465 62 515.50 108Q566 154 583 229L683 229Q671 175 646.50 129.50Q622 84 583.50 51.50Q545 19 491 0.50Q437-18 366-18Q300-18 247.50 4Q195 26 158.50 65.50Q122 105 102.50 161Q83 217 83 285Q83 374 108.50 455Q134 536 182.50 597.50Q231 659 301 695.50Q371 732 459 732Q581 732 645 668.50Q709 605 719 495L627 480M661 911L519 777L432 777L344 911L425 911L483 832L579 911L661 911Z"  horiz-adv-x="710" vert-adv-y="1000"  />

      
      <glyph glyph-name="uni010D" unicode="&#x010D;" d="M460 343Q457 366 451 387.50Q445 409 431.50 425.50Q418 442 397 451.50Q376 461 343 461Q301 461 266 443Q231 425 206 391.50Q181 358 167 310.50Q153 263 153 205Q153 173 160.50 146Q168 119 183.50 99Q199 79 223.50 67.50Q248 56 283 56Q348 56 383 88.50Q418 121 432 172L521 172Q510 129 490 94Q470 59 439.50 34.50Q409 10 368-3Q327-16 274-16Q223-16 183 0.50Q143 17 116 46.50Q89 76 75 115.50Q61 155 61 201Q61 281 84 343Q107 405 146.50 447Q186 489 238.50 511Q291 533 350 533Q399 533 435 519Q471 505 494.50 481Q518 457 530.50 424.50Q543 392 546 356L460 343M549 734L405 593L318 593L231 734L311 734L369 647L467 734L549 734Z"  horiz-adv-x="559" vert-adv-y="1000"  />

      
      <glyph glyph-name="uni010E" unicode="&#x010E;" d="M42 0L193 714L425 714Q490 714 542.50 692.50Q595 671 631.50 632.50Q668 594 688 541Q708 488 708 426Q708 333 681.50 255Q655 177 601 120.50Q547 64 465.50 32Q384 0 274 0L42 0M287 80Q368 80 429 104.50Q490 129 530.50 174.50Q571 220 591.50 284Q612 348 612 426Q612 469 600 507Q588 545 563.50 573.50Q539 602 502 618.50Q465 635 416 635L269 635L151 80L287 80M598 911L456 777L369 777L281 911L362 911L420 832L516 911L598 911Z"  horiz-adv-x="714" vert-adv-y="1000"  />

      
      <glyph glyph-name="uni010F" unicode="&#x010F;" d="M331 533Q384 533 427 510.50Q470 488 498 440L556 714L643 714L491 0L406 0L420 72Q385 27 343 5.50Q301-16 247-16Q197-16 161.50 2.50Q126 21 103 51.50Q80 82 69 121.50Q58 161 58 203Q58 266 77 325.50Q96 385 131.50 431Q167 477 217.50 505Q268 533 331 533M465 274Q472 306 472 336Q472 386 437 423Q420 441 395.50 451Q371 461 338 461Q295 461 260 440.50Q225 420 200.50 385Q176 350 163 303.50Q150 257 150 205Q150 136 181 96.50Q212 57 270 57Q305 57 336 71.50Q367 86 391 110.50Q415 135 432 166.50Q449 198 456 233L465 274M666 510L736 714L823 714L735 510L666 510Z"  horiz-adv-x="596" vert-adv-y="1000"  />

      
      <glyph glyph-name="uni0110" unicode="&#x0110;" d="M55 0L125 330L44 330L61 408L141 408L206 714L438 714Q503 714 555.50 692.50Q608 671 644.50 632.50Q681 594 701 541Q721 488 721 426Q721 333 694.50 255Q668 177 614 120.50Q560 64 478.50 32Q397 0 287 0L55 0M300 80Q381 80 442 104.50Q503 129 543.50 174.50Q584 220 604.50 284Q625 348 625 426Q625 469 613 507Q601 545 576.50 573.50Q552 602 515 618.50Q478 635 429 635L282 635L233 408L416 408L399 330L217 330L164 80L300 80Z"  horiz-adv-x="727" vert-adv-y="1000"  />

      
      <glyph glyph-name="uni0111" unicode="&#x0111;" d="M331 510Q384 510 424.50 488Q465 466 493 418L527 577L358 577L372 640L540 640L556 714L643 714L627 640L697 640L683 577L614 577L491 0L406 0L420 72Q382 27 342 5.50Q302-16 247-16Q198-16 162.50 2Q127 20 103.50 50Q80 80 69 117.50Q58 155 58 194Q58 255 77.50 312Q97 369 132.50 413Q168 457 218.50 483.50Q269 510 331 510M462 258Q466 275 468 290Q470 305 470 319Q469 367 437 399Q420 417 395.50 427Q371 437 338 437Q295 437 260 417Q225 397 200.50 364Q176 331 163 287Q150 243 150 195Q150 135 181 96Q212 57 270 57Q304 57 334 71Q364 85 388.50 109Q413 133 430 163.50Q447 194 455 227L462 258Z"  horiz-adv-x="605" vert-adv-y="1000"  />

      
      <glyph glyph-name="uni0112" unicode="&#x0112;" d="M269 633L221 409L571 409L554 327L204 327L152 81L542 81L512 0L43 0L194 714L656 714L639 633L269 633M304 869L596 869L580 795L288 795L304 869Z"  horiz-adv-x="594" vert-adv-y="1000"  />

      
      <glyph glyph-name="uni0113" unicode="&#x0113;" d="M338 466Q272 466 225 426Q178 386 159 302L458 302Q459 310 459.50 318.50Q460 327 460 336Q460 362 452.50 385.50Q445 409 430 427Q415 445 392 455.50Q369 466 338 466M148 237Q147 228 147 218.50Q147 209 147 200Q147 171 156 144.50Q165 118 182.50 98Q200 78 226.50 66Q253 54 289 54Q351 54 382 77.50Q413 101 428 145L513 145Q502 108 483.50 78Q465 48 437.50 27Q410 6 371.50-5Q333-16 281-16Q228-16 187.50 1.50Q147 19 118.50 49Q90 79 75.50 119Q61 159 61 205Q61 284 83 345Q105 406 143 448Q181 490 233.50 511.50Q286 533 346 533Q395 533 432 518Q469 503 494 476.50Q519 450 532 414Q545 378 545 336Q545 319 544 297Q543 275 538 254L534 237L148 237M239 693L500 693L485 622L224 622L239 693Z"  horiz-adv-x="570" vert-adv-y="1000"  />

      
      <glyph glyph-name="uni0114" unicode="&#x0114;" d="M269 633L221 409L571 409L554 327L204 327L152 81L542 81L512 0L43 0L194 714L656 714L639 633L269 633M431 773Q376 773 343.50 800Q311 827 311 878Q311 892 314 912L381 912Q378 900 378 888Q378 860 394 846Q410 832 436 832Q468 832 491 849.50Q514 867 521 912L589 912Q576 840 538 806.50Q500 773 431 773Z"  horiz-adv-x="594" vert-adv-y="1000"  />

      
      <glyph glyph-name="uni0115" unicode="&#x0115;" d="M338 466Q272 466 225 426Q178 386 159 302L458 302Q459 310 459.50 318.50Q460 327 460 336Q460 362 452.50 385.50Q445 409 430 427Q415 445 392 455.50Q369 466 338 466M148 237Q147 228 147 218.50Q147 209 147 200Q147 171 156 144.50Q165 118 182.50 98Q200 78 226.50 66Q253 54 289 54Q351 54 382 77.50Q413 101 428 145L513 145Q502 108 483.50 78Q465 48 437.50 27Q410 6 371.50-5Q333-16 281-16Q228-16 187.50 1.50Q147 19 118.50 49Q90 79 75.50 119Q61 159 61 205Q61 284 83 345Q105 406 143 448Q181 490 233.50 511.50Q286 533 346 533Q395 533 432 518Q469 503 494 476.50Q519 450 532 414Q545 378 545 336Q545 319 544 297Q543 275 538 254L534 237L148 237M359 590Q304 590 272 618Q240 646 240 695Q240 711 243 729L309 729Q306 715 306 706Q306 677 322 662.50Q338 648 364 648Q396 648 418.50 666Q441 684 449 729L516 729Q503 656 464 623Q425 590 359 590Z"  horiz-adv-x="570" vert-adv-y="1000"  />

      
      <glyph glyph-name="uni0116" unicode="&#x0116;" d="M269 633L221 409L571 409L554 327L204 327L152 81L542 81L512 0L43 0L194 714L656 714L639 633L269 633M386 789L409 894L502 894L480 789L386 789Z"  horiz-adv-x="594" vert-adv-y="1000"  />

      
      <glyph glyph-name="uni0117" unicode="&#x0117;" d="M338 466Q272 466 225 426Q178 386 159 302L458 302Q459 310 459.50 318.50Q460 327 460 336Q460 362 452.50 385.50Q445 409 430 427Q415 445 392 455.50Q369 466 338 466M148 237Q147 228 147 218.50Q147 209 147 200Q147 171 156 144.50Q165 118 182.50 98Q200 78 226.50 66Q253 54 289 54Q351 54 382 77.50Q413 101 428 145L513 145Q502 108 483.50 78Q465 48 437.50 27Q410 6 371.50-5Q333-16 281-16Q228-16 187.50 1.50Q147 19 118.50 49Q90 79 75.50 119Q61 159 61 205Q61 284 83 345Q105 406 143 448Q181 490 233.50 511.50Q286 533 346 533Q395 533 432 518Q469 503 494 476.50Q519 450 532 414Q545 378 545 336Q545 319 544 297Q543 275 538 254L534 237L148 237M312 614L334 715L423 715L402 614L312 614Z"  horiz-adv-x="570" vert-adv-y="1000"  />

      
      </font>
</defs>
</svg>
