<?xml version="1.0" standalone="no"?>
  <!DOCTYPE svg PUBLIC "-//W3C//DTD SVG 1.1//EN" "http://www.w3.org/Graphics/SVG/1.1/DTD/svg11.dtd" >
  <svg>
  <metadata>
  Created by font-carrier
  </metadata>
  <defs>
  <font id="AktivGroteskCorp-LightItalic" horiz-adv-x="1286" vert-adv-y="1286" >
    <font-face
      
      font-family="AktivGroteskCorp-LightItalic"
      
      font-weight="400"
      
      font-stretch="normal"
      
      units-per-em="1000"
      
      ascent="921"
      
      descent="-223"
      
    />
      <missing-glyph />

      

      
      <glyph glyph-name="uni21" unicode="&#x21;" d="M245 714L131 193L78 193L184 714L245 714M31 0L50 92L122 92L103 0L31 0Z"  horiz-adv-x="206" vert-adv-y="1000"  />

      
      <glyph glyph-name="uni22" unicode="&#x22;" d="M137 468L89 468L134 710L194 710L137 468M293 468L245 468L290 710L350 710L293 468Z"  horiz-adv-x="302" vert-adv-y="1000"  />

      
      <glyph glyph-name="uni23" unicode="&#x23;" d="M364 185L179 185L112 0L57 0L123 185L19 185L27 229L138 229L220 451L108 451L117 497L237 497L302 678L358 678L291 497L476 497L541 678L597 678L532 497L636 497L627 451L515 451L433 229L546 229L538 185L418 185L352 0L296 0L364 185M194 229L379 229L459 451L274 451L194 229Z"  horiz-adv-x="592" vert-adv-y="1000"  />

      
      <glyph glyph-name="uni24" unicode="&#x24;" d="M222-13Q185-8 152.50 4.50Q120 17 95.50 39Q71 61 56.50 94Q42 127 41 173L95 173Q97 107 135 75.50Q173 44 233 36L295 330Q214 349 171 388.50Q128 428 128 500Q128 550 147.50 589Q167 628 201 654.50Q235 681 280 695Q325 709 376 710L393 788L442 788L424 707Q469 701 500.50 684.50Q532 668 552 645Q572 622 583 595Q594 568 599 541L545 530Q539 555 530.50 576.50Q522 598 507.50 614.50Q493 631 470.50 642Q448 653 414 657L354 374L369 371Q453 354 492 309.50Q531 265 531 198Q531 100 467 41.50Q403-17 280-17L270-17L251-109L202-109L222-13M342 321L281 33L285 33Q376 33 423.50 75.50Q471 118 471 193Q471 210 468 228.50Q465 247 454.50 264Q444 281 424 294.50Q404 308 370 315L342 321M184 498Q184 453 214.50 425Q245 397 303 385L307 384L365 659Q314 657 279.50 642.50Q245 628 223.50 605.50Q202 583 193 555Q184 527 184 498Z"  horiz-adv-x="592" vert-adv-y="1000"  />

      
      <glyph glyph-name="uni25" unicode="&#x25;" d="M261 0L196 0L694 691L757 691L261 0M227 281Q164 281 125.50 321.50Q87 362 87 431Q87 477 100.50 526Q114 575 141 615.50Q168 656 208 681.50Q248 707 302 707Q365 707 403 666.50Q441 626 441 557Q441 510 428 461.50Q415 413 388.50 372.50Q362 332 321.50 306.50Q281 281 227 281M299 660Q260 660 230.50 639Q201 618 181.50 585Q162 552 152.50 512.50Q143 473 143 436Q143 388 162.50 358Q182 328 229 328Q268 328 297.50 349Q327 370 346.50 403Q366 436 375.50 475.50Q385 515 385 552Q385 600 365.50 630Q346 660 299 660M651-21Q588-21 549.50 19.50Q511 60 511 129Q511 175 524.50 224Q538 273 565 313.50Q592 354 632 379.50Q672 405 726 405Q789 405 827 364.50Q865 324 865 255Q865 208 852 159.50Q839 111 812.50 70.50Q786 30 745.50 4.50Q705-21 651-21M723 358Q684 358 654.50 337Q625 316 605.50 283Q586 250 576.50 210.50Q567 171 567 134Q567 86 586.50 56Q606 26 653 26Q692 26 721.50 47Q751 68 770.50 101Q790 134 799.50 173.50Q809 213 809 250Q809 298 789.50 328Q770 358 723 358Z"  horiz-adv-x="888" vert-adv-y="1000"  />

      
      <glyph glyph-name="uni26" unicode="&#x26;" d="M37 158Q37 204 51.50 239Q66 274 93 302Q120 330 159.50 354Q199 378 249 403Q229 437 213.50 475.50Q198 514 198 558Q198 591 210 620Q222 649 244 670Q266 691 297 703.50Q328 716 366 716Q400 716 425.50 705.50Q451 695 468 677.50Q485 660 493.50 638Q502 616 502 593Q502 550 488 519Q474 488 450 464.50Q426 441 393.50 423Q361 405 325 387L481 144Q507 183 521 229Q535 275 540 323L597 323Q591 261 569.50 203Q548 145 510 99L574 0L509 0L471 58Q431 23 379 3.50Q327-16 263-16Q201-16 158-0.50Q115 15 88 40Q61 65 49 96Q37 127 37 158M264 34Q323 34 367.50 52Q412 70 444 100L275 362Q236 342 203.50 323Q171 304 147.50 281.50Q124 259 111.50 230Q99 201 99 162Q99 140 107 117.50Q115 95 134 76.50Q153 58 185 46Q217 34 264 34M256 560Q256 524 268.50 491.50Q281 459 299 427Q333 443 360.50 458.50Q388 474 407.50 492Q427 510 437.50 533Q448 556 448 588Q448 625 425 647.50Q402 670 362 670Q311 670 283.50 640Q256 610 256 560Z"  horiz-adv-x="618" vert-adv-y="1000"  />

      
      <glyph glyph-name="uni27" unicode="&#x27;" d="M137 468L89 468L134 710L194 710L137 468Z"  horiz-adv-x="146" vert-adv-y="1000"  />

      
      <glyph glyph-name="uni28" unicode="&#x28;" d="M345 734Q242 600 183.50 443Q125 286 125 112Q125 48 133-7.50Q141-63 162-124L108-124Q98-101 89.50-71Q81-41 75-8Q69 25 66 59Q63 93 63 124Q63 205 78 287Q93 369 122 447.50Q151 526 193 599Q235 672 289 734L345 734Z"  horiz-adv-x="244" vert-adv-y="1000"  />

      
      <glyph glyph-name="uni29" unicode="&#x29;" d="M-52-124Q51 10 109.50 167Q168 324 168 498Q168 562 160 617.50Q152 673 131 734L185 734Q195 711 203.50 681Q212 651 218 618Q224 585 227 551Q230 517 230 486Q230 405 215 323Q200 241 171 162.50Q142 84 100 11Q58-62 4-124L-52-124Z"  horiz-adv-x="244" vert-adv-y="1000"  />

      
      <glyph glyph-name="uni2a" unicode="&#x2a;" d="M167 408L124 443L235 544L122 587L145 636L251 582L269 714L327 714L293 581L404 632L423 580L297 541L365 434L312 408L261 516L167 408Z"  horiz-adv-x="376" vert-adv-y="1000"  />

      
      <glyph glyph-name="uni2b" unicode="&#x2b;" d="M349 314L304 99L250 99L295 314L94 314L106 367L307 367L352 581L406 581L361 367L562 367L550 314L349 314Z"  horiz-adv-x="592" vert-adv-y="1000"  />

      
      <glyph glyph-name="uni2c" unicode="&#x2c;" d="M-15-98L54 96L124 96L36-98L-15-98Z"  horiz-adv-x="198" vert-adv-y="1000"  />

      
      <glyph glyph-name="uni2d" unicode="&#x2d;" d="M65 259L77 319L368 319L356 259L65 259Z"  horiz-adv-x="391" vert-adv-y="1000"  />

      
      <glyph glyph-name="uni2e" unicode="&#x2e;" d="M22 0L41 93L116 93L97 0L22 0Z"  horiz-adv-x="199" vert-adv-y="1000"  />

      
      <glyph glyph-name="uni2f" unicode="&#x2f;" d="M30 0L-33 0L347 734L410 734L30 0Z"  horiz-adv-x="302" vert-adv-y="1000"  />

      
      <glyph glyph-name="uni30" unicode="&#x30;" d="M395 710Q440 710 477.50 694Q515 678 541 648Q567 618 581.50 574.50Q596 531 596 476Q596 427 588.50 371.50Q581 316 565 261Q549 206 523 155.50Q497 105 460 66.50Q423 28 374 5Q325-18 263-18Q218-18 180.50-2Q143 14 117 44Q91 74 76.50 117Q62 160 62 215Q62 264 70 319.50Q78 375 94.50 430Q111 485 137.50 535.50Q164 586 201 625Q238 664 286 687Q334 710 395 710M390 655Q345 655 308.50 637Q272 619 242.50 587Q213 555 191 513Q169 471 154.50 422Q140 373 133 321Q126 269 126 218Q126 179 134.50 145.50Q143 112 160.50 88Q178 64 204.50 50Q231 36 268 36Q335 36 384.50 75.50Q434 115 467 178Q500 241 516 318.50Q532 396 532 473Q532 512 523.50 545.50Q515 579 497.50 603Q480 627 453.50 641Q427 655 390 655Z"  horiz-adv-x="592" vert-adv-y="1000"  />

      
      <glyph glyph-name="uni31" unicode="&#x31;" d="M268 0L401 626L210 525L185 571L409 691L474 691L328 0L268 0Z"  horiz-adv-x="592" vert-adv-y="1000"  />

      
      <glyph glyph-name="uni32" unicode="&#x32;" d="M387 655Q346 655 315.50 646.50Q285 638 261.50 621.50Q238 605 221.50 580Q205 555 192 522L139 533Q150 567 169 599Q188 631 218 655.50Q248 680 290.50 695Q333 710 391 710Q435 710 470.50 696.50Q506 683 530.50 659.50Q555 636 568 603Q581 570 581 531Q581 477 558.50 430.50Q536 384 499.50 343.50Q463 303 415.50 266Q368 229 317 193Q269 158 220.50 124Q172 90 129 56L495 56L472 0L34 0L45 54Q92 91 148.50 132.50Q205 174 264 218Q313 254 359 288.50Q405 323 440.50 360Q476 397 497.50 438.50Q519 480 519 530Q519 590 484.50 622.50Q450 655 387 655Z"  horiz-adv-x="592" vert-adv-y="1000"  />

      
      <glyph glyph-name="uni33" unicode="&#x33;" d="M339 389Q379 389 412 397.50Q445 406 468.50 424.50Q492 443 505 472Q518 501 518 541Q518 592 482.50 623.50Q447 655 380 655Q339 655 308.50 648.50Q278 642 255.50 627Q233 612 217 588Q201 564 188 530L135 540Q145 575 163.50 606Q182 637 211 660Q240 683 282 696.50Q324 710 382 710Q431 710 467.50 696.50Q504 683 528 660.50Q552 638 564 607.50Q576 577 576 544Q576 504 565 474Q554 444 534.50 421.50Q515 399 489.50 384Q464 369 434 359Q462 347 479.50 329Q497 311 507 290.50Q517 270 521 249Q525 228 525 210Q525 160 508.50 118Q492 76 461.50 46Q431 16 386-1Q341-18 284-18Q239-18 198.50-6Q158 6 127 30.50Q96 55 78 91Q60 127 59 175L115 175Q118 137 132 110Q146 83 169 66.50Q192 50 222 42.50Q252 35 287 35Q367 35 415.50 78Q464 121 464 207Q464 269 432.50 301.50Q401 334 344 334L247 334L259 389L339 389Z"  horiz-adv-x="592" vert-adv-y="1000"  />

      
      <glyph glyph-name="uni34" unicode="&#x34;" d="M346 0L384 181L44 181L54 230L486 691L550 691L452 230L554 230L536 181L442 181L404 0L346 0M121 230L394 230L474 608L121 230Z"  horiz-adv-x="592" vert-adv-y="1000"  />

      
      <glyph glyph-name="uni35" unicode="&#x35;" d="M533 255Q533 201 516 151.50Q499 102 466.50 64.50Q434 27 387 4.50Q340-18 279-18Q236-18 198-8.50Q160 1 131 22.50Q102 44 85 78.50Q68 113 67 163L123 163Q127 97 162.50 66Q198 35 281 35Q327 35 362.50 51Q398 67 422.50 95.50Q447 124 459.50 164Q472 204 472 251Q472 281 464 306Q456 331 440 349.50Q424 368 400 378.50Q376 389 343 389Q291 389 249 373.50Q207 358 167 324L114 324L216 691L581 691L570 636L253 636L183 384Q203 398 221.50 408.50Q240 419 260 425.50Q280 432 303 435.50Q326 439 354 439Q397 439 430.50 424Q464 409 486.50 383.50Q509 358 521 325Q533 292 533 255Z"  horiz-adv-x="592" vert-adv-y="1000"  />

      
      <glyph glyph-name="uni36" unicode="&#x36;" d="M150 332Q189 389 238 414.50Q287 440 352 440Q400 440 436 423.50Q472 407 495.50 380.50Q519 354 531 320Q543 286 543 252Q543 190 525.50 140Q508 90 476 55Q444 20 398 1Q352-18 294-18Q241-18 201.50-1Q162 16 135 47Q108 78 94.50 120Q81 162 81 213Q81 255 88.50 308.50Q96 362 112.50 417Q129 472 154.50 525Q180 578 216.50 619Q253 660 301 685Q349 710 409 710Q496 710 540.50 672.50Q585 635 595 563L543 551Q530 613 497 634.50Q464 656 405 656Q364 656 326 638.50Q288 621 255 582.50Q222 544 195.50 482.50Q169 421 150 332M345 390Q307 390 271 376Q235 362 206 336Q177 310 159.50 271.50Q142 233 142 184Q142 155 151.50 128Q161 101 180 80Q199 59 227 46.50Q255 34 293 34Q385 34 433.50 88Q482 142 482 251Q482 279 473.50 304.50Q465 330 447.50 349Q430 368 404.50 379Q379 390 345 390Z"  horiz-adv-x="592" vert-adv-y="1000"  />

      
      <glyph glyph-name="uni37" unicode="&#x37;" d="M601 636Q486 483 387.50 325Q289 167 209 0L141 0Q184 86 228.50 166Q273 246 320.50 324Q368 402 421 479Q474 556 535 636L140 636L151 691L612 691L601 636Z"  horiz-adv-x="592" vert-adv-y="1000"  />

      
      <glyph glyph-name="uni38" unicode="&#x38;" d="M551 207Q551 150 530.50 108Q510 66 473.50 38Q437 10 385.50-4Q334-18 271-18Q215-18 173-4Q131 10 102.50 33.50Q74 57 59.50 88Q45 119 45 154Q45 208 64.50 244Q84 280 112 303.50Q140 327 170.50 339Q201 351 223 356Q206 364 189.50 377.50Q173 391 160 408Q147 425 139 446.50Q131 468 131 493Q131 539 147.50 578.50Q164 618 196.50 647Q229 676 278 693Q327 710 392 710Q443 710 481 696.50Q519 683 544.50 660Q570 637 583 606Q596 575 596 541Q596 497 580.50 464Q565 431 541.50 408Q518 385 489.50 371Q461 357 435 351Q455 345 476 333.50Q497 322 513.50 304Q530 286 540.50 262Q551 238 551 207M334 377Q374 377 410.50 386Q447 395 475 414.50Q503 434 520 465Q537 496 537 541Q537 564 529 585.50Q521 607 503 623.50Q485 640 457 650Q429 660 389 660Q336 660 298 647Q260 634 236 611Q212 588 200.50 557.50Q189 527 189 493Q189 471 197.50 450.50Q206 430 224 413.50Q242 397 269.50 387Q297 377 334 377M275 32Q320 32 359 41Q398 50 426.50 70.50Q455 91 471.50 124Q488 157 488 205Q488 229 478.50 250.50Q469 272 449 288.50Q429 305 397.50 314.50Q366 324 322 324Q209 324 158 280Q107 236 107 162Q107 135 116.50 111.50Q126 88 146 70Q166 52 198 42Q230 32 275 32Z"  horiz-adv-x="592" vert-adv-y="1000"  />

      
      <glyph glyph-name="uni39" unicode="&#x39;" d="M304 302Q341 302 377.50 314.50Q414 327 443 352Q472 377 489.50 414Q507 451 507 499Q507 530 498 559Q489 588 470.50 610Q452 632 424 645Q396 658 359 658Q267 658 217 604Q167 550 167 441Q167 413 175.50 387.50Q184 362 201.50 343Q219 324 244.50 313Q270 302 304 302M568 472Q568 421 561.50 365Q555 309 540 254.50Q525 200 501.50 150.50Q478 101 444 63.50Q410 26 364 4Q318-18 259-18Q206-18 170-5.50Q134 7 111.50 28.50Q89 50 78 78.50Q67 107 63 139L121 139Q125 108 137 88Q149 68 167.50 56.50Q186 45 210 40.50Q234 36 264 36Q307 36 344.50 54Q382 72 412 110Q442 148 463 207.50Q484 267 496 350Q457 297 409.50 274.50Q362 252 297 252Q249 252 213 269Q177 286 153.50 313Q130 340 118 373.50Q106 407 106 440Q106 502 123.50 552Q141 602 174 637Q207 672 253.50 691Q300 710 358 710Q410 710 449.50 692.50Q489 675 515.50 643.50Q542 612 555 568Q568 524 568 472Z"  horiz-adv-x="592" vert-adv-y="1000"  />

      
      <glyph glyph-name="uni3a" unicode="&#x3a;" d="M111 422L130 515L205 515L186 422L111 422M22 0L41 93L116 93L97 0L22 0Z"  horiz-adv-x="199" vert-adv-y="1000"  />

      
      <glyph glyph-name="uni3b" unicode="&#x3b;" d="M-15-98L54 96L124 96L36-98L-15-98M110 422L129 515L204 515L185 422L110 422Z"  horiz-adv-x="199" vert-adv-y="1000"  />

      
      <glyph glyph-name="uni3c" unicode="&#x3c;" d="M106 317L115 361L605 574L592 510L179 338L518 161L505 104L106 317Z"  horiz-adv-x="592" vert-adv-y="1000"  />

      
      <glyph glyph-name="uni3d" unicode="&#x3d;" d="M131 425L143 480L573 480L561 425L131 425M83 201L95 256L525 256L513 201L83 201Z"  horiz-adv-x="592" vert-adv-y="1000"  />

      
      <glyph glyph-name="uni3e" unicode="&#x3e;" d="M549 361L540 317L50 104L63 169L476 340L137 518L150 574L549 361Z"  horiz-adv-x="592" vert-adv-y="1000"  />

      
      <glyph glyph-name="uni3f" unicode="&#x3f;" d="M522 572Q522 506 489.50 458Q457 410 403 367Q379 348 356.50 331Q334 314 315.50 295.50Q297 277 283.50 255Q270 233 264 204L262 193L204 193L206 204Q214 241 229.50 268Q245 295 265.50 317Q286 339 310.50 358Q335 377 361 398Q382 415 401 433Q420 451 433.50 471.50Q447 492 455 515.50Q463 539 463 568Q462 617 429.50 645.50Q397 674 334 674Q300 674 273 668Q246 662 224 647Q202 632 185 606.50Q168 581 154 543L103 553Q115 592 134.50 624Q154 656 182.50 678.50Q211 701 250 713.50Q289 726 340 726Q386 726 420.50 713.50Q455 701 477.50 680Q500 659 511 631Q522 603 522 572M159 0L178 92L252 92L233 0L159 0Z"  horiz-adv-x="495" vert-adv-y="1000"  />

      
      <glyph glyph-name="uni40" unicode="&#x40;" d="M622 97Q621 92 620.50 88Q620 84 620 80Q620 40 674 40Q723 40 757.50 65.50Q792 91 814 132.50Q836 174 846.50 227Q857 280 857 336Q857 401 834 452Q811 503 769 538Q727 573 668.50 591Q610 609 538 609Q438 609 357.50 576Q277 543 220.50 484.50Q164 426 134 345Q104 264 104 167Q104 96 126.50 36.50Q149-23 191.50-66.50Q234-110 295.50-134Q357-158 435-159Q481-159 520-154.50Q559-150 591.50-138.50Q624-127 651.50-108Q679-89 702-60L766-60Q715-139 633-174Q551-209 433-210Q351-210 279.50-186Q208-162 155.50-114.50Q103-67 73 3Q43 73 43 164Q43 268 77.50 358.50Q112 449 176.50 516.50Q241 584 333.50 622.50Q426 661 542 661Q622 661 690.50 638.50Q759 616 809.50 574.50Q860 533 888.50 473.50Q917 414 917 341Q917 275 902 212.50Q887 150 855.50 102Q824 54 776 25Q728-4 663-4Q623-4 597.50 14.50Q572 33 567 68Q533 30 494.50 10Q456-10 408-10Q364-10 334 7Q304 24 285.50 51Q267 78 259.50 112Q252 146 253 180Q255 237 274.50 286.50Q294 336 326 372.50Q358 409 400.50 430Q443 451 493 451Q588 451 627 370L643 439L696 439L622 97M490 403Q451 403 418.50 384.50Q386 366 362.50 334.50Q339 303 326 261.50Q313 220 313 175Q313 106 339.50 72Q366 38 415 38Q441 38 461.50 43.50Q482 49 505 65Q537 87 556.50 118.50Q576 150 587 200L595 236Q607 286 601.50 318Q596 350 573 372Q556 389 537 396Q518 403 490 403Z"  horiz-adv-x="927" vert-adv-y="1000"  />

      
      <glyph glyph-name="uni41" unicode="&#x41;" d="M406 714L478 714L609 0L546 0L506 218L170 218L39 0L-28 0L406 714M204 274L496 274L428 647L204 274Z"  horiz-adv-x="661" vert-adv-y="1000"  />

      
      <glyph glyph-name="uni42" unicode="&#x42;" d="M631 559Q631 419 477 373Q529 353 557.50 311.50Q586 270 586 220Q586 170 569 129Q552 88 515.50 59.50Q479 31 422.50 15.50Q366 0 287 0L42 0L193 714L424 714Q487 714 527.50 699Q568 684 591 661Q614 638 622.50 610.50Q631 583 631 559M362 401Q401 401 438.50 408Q476 415 505 432.50Q534 450 551.50 480Q569 510 569 556Q569 579 561.50 598Q554 617 536 631Q518 645 488.50 653Q459 661 415 661L242 661L187 401L362 401M113 54L296 54Q358 54 401 64Q444 74 470.50 95Q497 116 509 147.50Q521 179 521 221Q521 247 511.50 270Q502 293 482.50 310Q463 327 433 336.50Q403 346 361 346L175 346L113 54Z"  horiz-adv-x="624" vert-adv-y="1000"  />

      
      <glyph glyph-name="uni43" unicode="&#x43;" d="M667 219Q655 169 630 125.50Q605 82 566.50 50Q528 18 476 0Q424-18 357-18Q298-18 247 2Q196 22 158.50 59.50Q121 97 100 151.50Q79 206 79 275Q79 366 104.50 449Q130 532 179 595Q228 658 298 695Q368 732 458 732Q570 732 633.50 671.50Q697 611 708 501L647 489Q634 586 589 632.50Q544 679 453 679Q382 679 325 647.50Q268 616 228 562Q188 508 166.50 435.50Q145 363 145 281Q145 230 159 185.50Q173 141 200 107.50Q227 74 267.50 55Q308 36 361 36Q413 36 453 49.50Q493 63 522.50 87.50Q552 112 571.50 145.50Q591 179 600 219L667 219Z"  horiz-adv-x="709" vert-adv-y="1000"  />

      
      <glyph glyph-name="uni44" unicode="&#x44;" d="M42 0L193 714L419 714Q481 714 531.50 693Q582 672 618 634.50Q654 597 673.50 545Q693 493 693 430Q693 340 667.50 261.50Q642 183 589 125Q536 67 455 33.50Q374 0 264 0L42 0M273 54Q361 54 427.50 80.50Q494 107 539 156.50Q584 206 606.50 275.50Q629 345 629 432Q629 479 615 520.50Q601 562 574 593.50Q547 625 506.50 643Q466 661 413 661L243 661L114 54L273 54Z"  horiz-adv-x="702" vert-adv-y="1000"  />

      
      <glyph glyph-name="uni45" unicode="&#x45;" d="M243 659L187 397L555 397L543 340L175 340L114 56L523 56L499 0L42 0L193 714L642 714L631 659L243 659Z"  horiz-adv-x="588" vert-adv-y="1000"  />

      
      <glyph glyph-name="uni46" unicode="&#x46;" d="M243 659L185 388L530 388L518 331L173 331L103 0L42 0L193 714L622 714L611 659L243 659Z"  horiz-adv-x="553" vert-adv-y="1000"  />

      
      <glyph glyph-name="uni47" unicode="&#x47;" d="M647 524Q632 602 582 640.50Q532 679 455 679Q379 679 321 645.50Q263 612 223.50 556.50Q184 501 164 429Q144 357 144 281Q144 231 158 186.50Q172 142 199 108.50Q226 75 266 55.50Q306 36 357 36Q400 36 434 42Q468 48 494.50 57.50Q521 67 539.50 78Q558 89 572 99L615 298L410 298L422 353L685 353L625 71Q608 56 582.50 40.50Q557 25 522.50 12Q488-1 446-9.50Q404-18 354-18Q294-18 243.50 3Q193 24 156 62.50Q119 101 98.50 155Q78 209 78 275Q78 362 102.50 444Q127 526 175 590Q223 654 294.50 693Q366 732 461 732Q557 732 622 683Q687 634 706 537L647 524Z"  horiz-adv-x="711" vert-adv-y="1000"  />

      
      <glyph glyph-name="uni48" unicode="&#x48;" d="M506 0L578 341L175 341L103 0L42 0L193 714L254 714L187 398L590 398L657 714L718 714L567 0L506 0Z"  horiz-adv-x="689" vert-adv-y="1000"  />

      
      <glyph glyph-name="uni49" unicode="&#x49;" d="M42 0L193 714L254 714L103 0L42 0Z"  horiz-adv-x="225" vert-adv-y="1000"  />

      
      <glyph glyph-name="uni4a" unicode="&#x4a;" d="M506 224Q480 99 415 40.50Q350-18 238-18Q191-18 152.50-6.50Q114 5 86.50 29Q59 53 43.50 88.50Q28 124 28 172Q28 178 28 184Q28 190 29 197L87 197L87 184Q87 153 93.50 126Q100 99 117.50 79Q135 59 164.50 47.50Q194 36 240 36Q335 36 381.50 88Q428 140 448 236L549 714L610 714L506 224Z"  horiz-adv-x="576" vert-adv-y="1000"  />

      
      <glyph glyph-name="uni4b" unicode="&#x4b;" d="M330 405L160 268L103 0L42 0L193 714L254 714L176 343L629 714L702 714L380 442L576 0L506 0L330 405Z"  horiz-adv-x="636" vert-adv-y="1000"  />

      
      <glyph glyph-name="uni4c" unicode="&#x4c;" d="M478 0L42 0L193 714L254 714L115 57L503 57L478 0Z"  horiz-adv-x="550" vert-adv-y="1000"  />

      
      <glyph glyph-name="uni4d" unicode="&#x4d;" d="M349 0L228 608L99 0L42 0L193 714L269 714L392 71L789 714L867 714L716 0L659 0L789 611L407 0L349 0Z"  horiz-adv-x="838" vert-adv-y="1000"  />

      
      <glyph glyph-name="uni4e" unicode="&#x4e;" d="M505 0L233 622L101 0L42 0L193 714L257 714L528 94L660 714L719 714L568 0L505 0Z"  horiz-adv-x="690" vert-adv-y="1000"  />

      
      <glyph glyph-name="uni4f" unicode="&#x4f;" d="M466 732Q525 732 576.50 712Q628 692 666 654Q704 616 725.50 561.50Q747 507 747 437Q747 354 721.50 273Q696 192 646.50 127Q597 62 525.50 22Q454-18 361-18Q302-18 250.50 2Q199 22 161 59.50Q123 97 101.50 151.50Q80 206 80 276Q80 358 106.50 440Q133 522 182.50 586.50Q232 651 303.50 691.50Q375 732 466 732M363 36Q438 36 497.50 70.50Q557 105 598 161.50Q639 218 660.50 289.50Q682 361 682 435Q682 488 668 532.50Q654 577 626 609.50Q598 642 557.50 660Q517 678 464 678Q389 678 329.50 643Q270 608 229 552Q188 496 166.50 424Q145 352 145 279Q145 226 159 181Q173 136 201 104Q229 72 269.50 54Q310 36 363 36Z"  horiz-adv-x="756" vert-adv-y="1000"  />

      
      <glyph glyph-name="uni50" unicode="&#x50;" d="M643 540Q643 474 620.50 426.50Q598 379 557.50 348.50Q517 318 460 303.50Q403 289 334 289L163 289L102 0L42 0L193 714L420 714Q484 714 526.50 698Q569 682 595 657Q621 632 632 601Q643 570 643 540M343 342Q396 342 440 351.50Q484 361 515 384Q546 407 563 445Q580 483 580 541Q580 567 571 589Q562 611 542 627Q522 643 489.50 652Q457 661 410 661L242 661L174 342L343 342Z"  horiz-adv-x="619" vert-adv-y="1000"  />

      
      <glyph glyph-name="uni51" unicode="&#x51;" d="M532 26Q494 6 451.50-6Q409-18 361-18Q302-18 250.50 2Q199 22 161 59.50Q123 97 101.50 151.50Q80 206 80 276Q80 358 106.50 440Q133 522 182.50 586.50Q232 651 303.50 691.50Q375 732 466 732Q525 732 576.50 712Q628 692 666 654Q704 616 725.50 561.50Q747 507 747 437Q747 383 736 329Q725 275 703.50 225.50Q682 176 650.50 133Q619 90 578 57L642-41L595-72L532 26M363 36Q439 36 502 73L429 187L475 217L547 106Q580 134 605 171.50Q630 209 647 251.50Q664 294 673 341Q682 388 682 435Q682 488 668 532.50Q654 577 626 609.50Q598 642 557.50 660Q517 678 464 678Q389 678 329.50 643Q270 608 229 552Q188 496 166.50 424Q145 352 145 279Q145 226 159 181Q173 136 201 104Q229 72 269.50 54Q310 36 363 36Z"  horiz-adv-x="756" vert-adv-y="1000"  />

      
      <glyph glyph-name="uni52" unicode="&#x52;" d="M168 312L102 0L42 0L193 714L413 714Q477 714 520 698.50Q563 683 588.50 658Q614 633 624.50 601.50Q635 570 635 539Q635 450 589.50 399Q544 348 463 327L545 0L476 0L402 315Q385 313 364 312.50Q343 312 323 312L168 312M351 366Q402 366 443.50 374.50Q485 383 513.50 403Q542 423 557.50 456Q573 489 573 539Q573 564 565 586.50Q557 609 537 625.50Q517 642 483.50 651.50Q450 661 399 661L242 661L179 366L351 366Z"  horiz-adv-x="625" vert-adv-y="1000"  />

      
      <glyph glyph-name="uni53" unicode="&#x53;" d="M574 206Q574 151 553.50 109.50Q533 68 497.50 39.50Q462 11 414-3.50Q366-18 310-18Q263-18 216.50-10Q170-2 132.50 20.50Q95 43 70.50 83Q46 123 44 187L104 187Q108 147 122 118.50Q136 90 161 71.50Q186 53 223.50 44.50Q261 36 314 36Q366 36 403 49Q440 62 463 85Q486 108 497 139Q508 170 508 207Q508 225 504 243.50Q500 262 488.50 278Q477 294 456 306.50Q435 319 402 326L299 348Q222 365 177 406Q132 447 132 522Q132 574 150 613.50Q168 653 202 679.50Q236 706 284 719Q332 732 391 732Q452 732 496 716.50Q540 701 569 675.50Q598 650 613.50 616.50Q629 583 634 547L577 535Q566 605 523 642Q480 679 386 679Q330 679 292.50 667Q255 655 233 634.50Q211 614 202 587.50Q193 561 193 532Q193 508 198.50 488.50Q204 469 217.50 453Q231 437 254.50 425.50Q278 414 314 406L413 385Q458 376 489 359Q520 342 538.50 318.50Q557 295 565.50 266.50Q574 238 574 206Z"  horiz-adv-x="642" vert-adv-y="1000"  />

      
      <glyph glyph-name="uni54" unicode="&#x54;" d="M425 658L286 0L225 0L364 658L116 658L128 714L684 714L672 658L425 658Z"  horiz-adv-x="590" vert-adv-y="1000"  />

      
      <glyph glyph-name="uni55" unicode="&#x55;" d="M316-18Q264-18 221.50-6Q179 6 149 31.50Q119 57 102.50 96.50Q86 136 86 190Q86 211 89 234.50Q92 258 97 284L188 714L249 714L157 279Q147 233 147 192Q147 114 188.50 75Q230 36 318 36Q373 36 412.50 51.50Q452 67 479.50 97.50Q507 128 525.50 173.50Q544 219 557 279L649 714L710 714L618 280Q601 201 575 144.50Q549 88 512.50 52Q476 16 427-1Q378-18 316-18Z"  horiz-adv-x="676" vert-adv-y="1000"  />

      
      <glyph glyph-name="uni56" unicode="&#x56;" d="M318 0L252 0L125 714L190 714L298 69L678 714L746 714L318 0Z"  horiz-adv-x="649" vert-adv-y="1000"  />

      
      <glyph glyph-name="uni57" unicode="&#x57;" d="M548 635L242 0L175 0L124 714L188 714L223 76L533 711L598 711L638 77L941 714L1009 714L657 0L587 0L548 635Z"  horiz-adv-x="911" vert-adv-y="1000"  />

      
      <glyph glyph-name="uni58" unicode="&#x58;" d="M379 371L560 0L490 0L333 329L44 0L-26 0L307 380L145 714L213 714L351 418L614 714L683 714L379 371Z"  horiz-adv-x="613" vert-adv-y="1000"  />

      
      <glyph glyph-name="uni59" unicode="&#x59;" d="M126 714L192 714L328 361L614 714L684 714L351 309L286 0L225 0L290 309L126 714Z"  horiz-adv-x="588" vert-adv-y="1000"  />

      
      <glyph glyph-name="uni5a" unicode="&#x5a;" d="M510 0L-2 0L8 50L564 659L140 659L151 714L654 714L643 663L89 56L534 56L510 0Z"  horiz-adv-x="585" vert-adv-y="1000"  />

      
      <glyph glyph-name="uni5b" unicode="&#x5b;" d="M10-124L193 734L359 734L348 684L242 684L81-74L187-74L176-124L10-124Z"  horiz-adv-x="254" vert-adv-y="1000"  />

      
      <glyph glyph-name="uni5c" unicode="&#x5c;" d="M125 734L184 734L252 0L193 0L125 734Z"  horiz-adv-x="302" vert-adv-y="1000"  />

      
      <glyph glyph-name="uni5d" unicode="&#x5d;" d="M293 734L110-124L-56-124L-45-74L61-74L222 684L116 684L127 734L293 734Z"  horiz-adv-x="254" vert-adv-y="1000"  />

      
      <glyph glyph-name="uni5e" unicode="&#x5e;" d="M491 306L394 644L155 306L92 306L380 707L432 707L550 306L491 306Z"  horiz-adv-x="592" vert-adv-y="1000"  />

      
      <glyph glyph-name="uni5f" unicode="&#x5f;" d="M-77-175L-66-123L433-123L422-175L-77-175Z"  horiz-adv-x="500" vert-adv-y="1000"  />

      
      <glyph glyph-name="uni60" unicode="&#x60;" d="M290 590L185 724L259 724L348 590L290 590Z"  horiz-adv-x="379" vert-adv-y="1000"  />

      
      <glyph glyph-name="uni61" unicode="&#x61;" d="M25 123Q25 177 47 212.50Q69 248 108.50 270.50Q148 293 202 303Q256 313 320 316L424 320L426 330Q428 343 430 355.50Q432 368 432 379Q432 424 406 453Q380 482 313 482Q276 482 250 477.50Q224 473 206 463Q188 453 175.50 436Q163 419 153 394L99 403Q123 473 175.50 502Q228 531 318 531Q407 531 449 489.50Q491 448 491 379Q491 365 489 350.50Q487 336 484 321L416 0L358 0L373 73Q338 38 292 13Q246-12 178-12Q111-12 68 24.50Q25 61 25 123M186 40Q219 40 251.50 47.50Q284 55 309 72Q329 85 343.50 97.50Q358 110 368.50 124Q379 138 386.50 156Q394 174 399 198L415 274L319 270Q253 267 208.50 257.50Q164 248 137 230.50Q110 213 98.50 186.50Q87 160 87 124Q87 90 109 65Q131 40 186 40Z"  horiz-adv-x="525" vert-adv-y="1000"  />

      
      <glyph glyph-name="uni62" unicode="&#x62;" d="M88 0L30 0L181 714L239 714L181 438Q221 483 267 507Q313 531 370 531Q421 531 456 512Q491 493 512.50 462.50Q534 432 543.50 392.50Q553 353 553 312Q553 253 534.50 194.50Q516 136 480 89.50Q444 43 392 13.50Q340-16 273-16Q221-16 176 7.50Q131 31 104 79L88 0M276 34Q324 34 363.50 56.50Q403 79 431.50 117.50Q460 156 475.50 206Q491 256 491 312Q491 397 457.50 439Q424 481 363 481Q331 481 306 473Q281 465 253 446Q214 420 186 380.50Q158 341 145 280L136 237Q127 196 127 168Q127 135 138 112Q149 89 171 69Q191 52 216.50 43Q242 34 276 34Z"  horiz-adv-x="583" vert-adv-y="1000"  />

      
      <glyph glyph-name="uni63" unicode="&#x63;" d="M477 349Q474 373 467 396.50Q460 420 445 438.50Q430 457 405 469Q380 481 341 481Q291 481 250.50 460.50Q210 440 181 403.50Q152 367 136.50 316Q121 265 121 205Q121 169 129 137.50Q137 106 155 83Q173 60 201.50 47Q230 34 271 34Q309 34 337.50 44Q366 54 386.50 71.50Q407 89 420.50 112.50Q434 136 443 162L502 162Q490 123 470 90.50Q450 58 421 34.50Q392 11 353-2.50Q314-16 265-16Q214-16 175.50 1Q137 18 110.50 47Q84 76 71 115Q58 154 58 199Q58 278 81 339.50Q104 401 143 443.50Q182 486 233.50 508.50Q285 531 342 531Q391 531 426 517Q461 503 483.50 479Q506 455 517.50 424Q529 393 532 360L477 349Z"  horiz-adv-x="554" vert-adv-y="1000"  />

      
      <glyph glyph-name="uni64" unicode="&#x64;" d="M429 77Q391 29 346.50 6.50Q302-16 245-16Q194-16 158 3.50Q122 23 99.50 53.50Q77 84 67 123Q57 162 57 201Q57 260 75.50 319Q94 378 129.50 425Q165 472 217 501.50Q269 531 337 531Q389 531 434 507Q479 483 506 435L565 714L623 714L471 0L413 0L429 77M474 278Q483 318 483 348Q483 380 472 403.50Q461 427 439 446Q419 463 393.50 472Q368 481 334 481Q286 481 246.50 459Q207 437 178.50 399Q150 361 134.50 310.50Q119 260 119 203Q119 121 155 77.50Q191 34 254 34Q286 34 310 41Q334 48 360 66Q398 93 425 133.50Q452 174 465 235L474 278Z"  horiz-adv-x="581" vert-adv-y="1000"  />

      
      <glyph glyph-name="uni65" unicode="&#x65;" d="M118 203Q118 168 127.50 137Q137 106 156.50 83Q176 60 206 46Q236 32 278 32Q315 32 341.50 40Q368 48 386.50 61.50Q405 75 417 94Q429 113 437 135L494 135Q482 102 465 74Q448 46 422 26Q396 6 360-5Q324-16 274-16Q220-16 179.50 2Q139 20 112 50.50Q85 81 71.50 120.50Q58 160 58 204Q58 283 80 344Q102 405 140 446.50Q178 488 228.50 509.50Q279 531 337 531Q385 531 421.50 515.50Q458 500 482 473.50Q506 447 518 411Q530 375 530 334Q530 319 529 297.50Q528 276 525 259L522 243L119 243Q118 233 118 223.50Q118 214 118 203M332 484Q253 484 199.50 434Q146 384 127 293L471 293Q473 302 473.50 315Q474 328 474 339Q474 370 465.50 396.50Q457 423 439 442.50Q421 462 394.50 473Q368 484 332 484Z"  horiz-adv-x="560" vert-adv-y="1000"  />

      
      <glyph glyph-name="uni66" unicode="&#x66;" d="M398 660Q385 665 372 668Q359 671 337 671Q295 671 272.50 648Q250 625 240 580L226 515L363 515L353 467L216 467L117 0L59 0L158 467L78 467L88 515L168 515L182 578Q199 656 239.50 689Q280 722 338 722Q361 722 380 718Q399 714 416 707L398 660Z"  horiz-adv-x="309" vert-adv-y="1000"  />

      
      <glyph glyph-name="uni67" unicode="&#x67;" d="M475 19Q464-33 445-74.50Q426-116 396-145Q366-174 322.50-189.50Q279-205 219-205Q177-205 141-197Q105-189 79-171.50Q53-154 37-125.50Q21-97 20-56L75-56Q79-83 88.50-102Q98-121 114.50-133Q131-145 156.50-150.50Q182-156 219-156Q304-156 350.50-114.50Q397-73 418 25L433 95Q399 51 351 29.50Q303 8 246 8Q195 8 160 26.50Q125 45 103 74.50Q81 104 71.50 141Q62 178 62 214Q62 270 80 326.50Q98 383 133 428.50Q168 474 219.50 502.50Q271 531 337 531Q389 531 434 507Q479 483 506 435L523 515L581 515L475 19M334 481Q286 481 247 459Q208 437 181 400Q154 363 139 315Q124 267 124 215Q124 140 158 99Q192 58 253 58Q285 58 314.50 66Q344 74 372 93Q411 119 433.50 156Q456 193 469 254L474 278Q483 318 483 349Q483 381 472 404Q461 427 439 446Q419 463 393.50 472Q368 481 334 481Z"  horiz-adv-x="580" vert-adv-y="1000"  />

      
      <glyph glyph-name="uni68" unicode="&#x68;" d="M179 431Q229 485 281 508Q333 531 380 531Q452 531 489.50 492Q527 453 527 384Q527 358 521 330L451 0L393 0L461 319Q464 333 466 347Q468 361 468 375Q468 422 446.50 450.50Q425 479 371 479Q342 479 307.50 467Q273 455 241 430Q209 404 185.50 376.50Q162 349 152 302L88 0L30 0L181 714L239 714L179 431Z"  horiz-adv-x="558" vert-adv-y="1000"  />

      
      <glyph glyph-name="uni69" unicode="&#x69;" d="M33 0L142 515L200 515L91 0L33 0M157 627L175 714L241 714L223 627L157 627Z"  horiz-adv-x="204" vert-adv-y="1000"  />

      
      <glyph glyph-name="uni6a" unicode="&#x6a;" d="M87-18Q79-53 69-83.50Q59-114 42-136.50Q25-159-1-172.50Q-27-186-66-186Q-100-186-120.50-180Q-141-174-155-168L-135-120Q-123-125-107-129.50Q-91-134-66-134Q-25-134-5-109.50Q15-85 24-43L142 515L200 515L87-18M157 627L175 714L241 714L223 627L157 627Z"  horiz-adv-x="204" vert-adv-y="1000"  />

      
      <glyph glyph-name="uni6b" unicode="&#x6b;" d="M30 0L181 714L239 714L148 279L459 515L534 515L315 342L447 0L382 0L266 310L132 210L88 0L30 0Z"  horiz-adv-x="493" vert-adv-y="1000"  />

      
      <glyph glyph-name="uni6c" unicode="&#x6c;" d="M33 0L184 714L242 714L91 0L33 0Z"  horiz-adv-x="204" vert-adv-y="1000"  />

      
      <glyph glyph-name="uni6d" unicode="&#x6d;" d="M357 0L421 300Q426 326 430 351Q434 376 434 390Q434 428 417 453.50Q400 479 356 479Q325 479 295.50 467.50Q266 456 234 430Q202 405 181.50 376Q161 347 150 295L88 0L30 0L139 515L197 515L179 431Q224 485 273.50 508Q323 531 364 531Q414 531 446 504.50Q478 478 487 428Q513 458 540.50 478Q568 498 594 509.50Q620 521 644 526Q668 531 688 531Q756 531 788.50 494Q821 457 821 400Q821 385 818.50 362.50Q816 340 811 315L744 0L686 0L751 304Q756 325 759.50 351Q763 377 763 397Q763 430 744.50 454.50Q726 479 680 479Q651 479 618.50 469Q586 459 554 433Q524 409 508 384.50Q492 360 482 316L415 0L357 0Z"  horiz-adv-x="853" vert-adv-y="1000"  />

      
      <glyph glyph-name="uni6e" unicode="&#x6e;" d="M393 0L461 319Q464 333 466 347Q468 361 468 375Q468 422 446.50 450.50Q425 479 371 479Q342 479 307.50 467Q273 455 241 430Q209 404 185.50 376.50Q162 349 152 302L88 0L30 0L139 515L197 515L179 431Q229 485 281 508Q333 531 380 531Q452 531 489.50 492Q527 453 527 384Q527 358 521 330L451 0L393 0Z"  horiz-adv-x="558" vert-adv-y="1000"  />

      
      <glyph glyph-name="uni6f" unicode="&#x6f;" d="M269 34Q321 34 363.50 55.50Q406 77 436 114.50Q466 152 482.50 203Q499 254 499 312Q499 387 461.50 434Q424 481 351 481Q299 481 256.50 459.50Q214 438 184 400.50Q154 363 137.50 312Q121 261 121 203Q121 128 158.50 81Q196 34 269 34M264-16Q219-16 181.50-0.50Q144 15 117 43Q90 71 74.50 110.50Q59 150 59 198Q59 275 82.50 336.50Q106 398 146.50 441.50Q187 485 241 508Q295 531 356 531Q401 531 438.50 515.50Q476 500 503 472Q530 444 545.50 404.50Q561 365 561 317Q561 240 538 178.50Q515 117 475.50 73.50Q436 30 381.50 7Q327-16 264-16Z"  horiz-adv-x="593" vert-adv-y="1000"  />

      
      <glyph glyph-name="uni70" unicode="&#x70;" d="M46-194L-12-194L139 515L197 515L181 438Q221 483 267 507Q313 531 370 531Q421 531 455.50 512.50Q490 494 512 464Q534 434 543.50 395.50Q553 357 553 317Q553 258 535 198.50Q517 139 481.50 91.50Q446 44 394 14Q342-16 273-16Q221-16 176 7.50Q131 31 104 79L46-194M276 34Q324 34 363.50 56.50Q403 79 431.50 117.50Q460 156 475.50 206Q491 256 491 312Q491 397 457.50 439Q424 481 363 481Q331 481 306 473Q281 465 253 446Q214 420 186 380.50Q158 341 145 280Q139 254 135.50 236Q132 218 130 205.50Q128 193 127.50 184.50Q127 176 127 169Q127 135 138 112Q149 89 171 69Q191 52 216.50 43Q242 34 276 34Z"  horiz-adv-x="583" vert-adv-y="1000"  />

      
      <glyph glyph-name="uni71" unicode="&#x71;" d="M429 77Q391 29 346.50 6.50Q302-16 245-16Q194-16 158 3Q122 22 99.50 52.50Q77 83 67 122Q57 161 57 202Q57 259 75.50 318Q94 377 129.50 424Q165 471 217 501Q269 531 337 531Q389 531 434 507Q479 483 506 435L523 515L581 515L429-194L371-194L429 77M474 278Q483 317 483 346Q483 379 472 402.50Q461 426 439 446Q398 481 332 481Q284 481 244.50 458.50Q205 436 177.50 397.50Q150 359 134.50 308.50Q119 258 119 203Q119 121 155 77.50Q191 34 254 34Q286 34 310 41Q334 48 360 66Q398 93 425 133.50Q452 174 465 235L474 278Z"  horiz-adv-x="582" vert-adv-y="1000"  />

      
      <glyph glyph-name="uni72" unicode="&#x72;" d="M375 465Q358 468 338 468Q322 468 296 461Q270 454 241 430Q209 404 185.50 376Q162 348 152 301L88 0L30 0L139 515L197 515L179 431Q227 484 267 503.50Q307 523 349 523Q360 523 372 521.50Q384 520 391 518L375 465Z"  horiz-adv-x="337" vert-adv-y="1000"  />

      
      <glyph glyph-name="uni73" unicode="&#x73;" d="M441 140Q440 100 422.50 70.50Q405 41 376.50 22Q348 3 311-6.50Q274-16 234-16Q198-16 161.50-8.50Q125-1 96 17.50Q67 36 49 66.50Q31 97 31 143L87 143Q87 111 99.50 89.50Q112 68 133 55.50Q154 43 181.50 38Q209 33 240 33Q314 33 347 64.50Q380 96 380 139Q380 179 361.50 198.50Q343 218 294 229L235 242Q161 259 128 289Q95 319 95 373Q95 413 112 443Q129 473 157 492.50Q185 512 221.50 521.50Q258 531 296 531Q346 531 380.50 520Q415 509 436.50 490Q458 471 469.50 445Q481 419 485 390L432 380Q427 406 417.50 425Q408 444 391.50 456.50Q375 469 351 475Q327 481 292 481Q255 481 228.50 473Q202 465 185.50 451Q169 437 161 419Q153 401 153 382Q153 365 157 351.50Q161 338 171.50 327.50Q182 317 200.50 309Q219 301 248 295L313 281Q373 268 407 236.50Q441 205 441 140Z"  horiz-adv-x="514" vert-adv-y="1000"  />

      
      <glyph glyph-name="uni74" unicode="&#x74;" d="M285 5Q268-1 247.50-6Q227-11 199-11Q144-11 114 15.50Q84 42 84 95Q84 106 85 117.50Q86 129 89 142L158 467L78 467L88 515L168 515L198 657L256 657L226 515L372 515L362 467L216 467L147 142Q145 131 143.50 121.50Q142 112 142 103Q142 39 205 39Q231 39 246 43Q261 47 275 52L285 5Z"  horiz-adv-x="330" vert-adv-y="1000"  />

      
      <glyph glyph-name="uni75" unicode="&#x75;" d="M193 515L124 191Q122 179 120.50 164Q119 149 119 135Q119 115 123 97.50Q127 80 137.50 66Q148 52 166 44Q184 36 211 36Q240 36 272 47.50Q304 59 335 85Q366 111 389 138.50Q412 166 422 213L486 515L544 515L435 0L377 0L395 84Q347 30 298 7Q249-16 202-16Q165-16 138-5Q111 6 93.50 25.50Q76 45 67.50 71.50Q59 98 59 129Q59 142 60.50 156.50Q62 171 65 185L135 515L193 515Z"  horiz-adv-x="547" vert-adv-y="1000"  />

      
      <glyph glyph-name="uni76" unicode="&#x76;" d="M236 0L168 0L69 515L133 515L213 63L487 515L553 515L236 0Z"  horiz-adv-x="496" vert-adv-y="1000"  />

      
      <glyph glyph-name="uni77" unicode="&#x77;" d="M505 0L438 0L404 450L179 0L112 0L72 515L134 515L158 65L384 512L452 512L485 65L701 515L765 515L505 0Z"  horiz-adv-x="711" vert-adv-y="1000"  />

      
      <glyph glyph-name="uni78" unicode="&#x78;" d="M263 312L448 515L515 515L292 268L427 0L365 0L250 232L42 0L-27 0L223 278L100 515L162 515L263 312Z"  horiz-adv-x="478" vert-adv-y="1000"  />

      
      <glyph glyph-name="uni79" unicode="&#x79;" d="M182 7L69 515L132 515L226 73L486 515L555 515L197-68Q178-97 162.50-120.50Q147-144 130.50-160.50Q114-177 95-185.50Q76-194 50-194Q27-194 8.50-190Q-10-186-24-179L-5-132Q4-136 16-139.50Q28-143 43-143Q61-143 73-138.50Q85-134 96-124Q107-114 118-97Q129-80 145-54L182 7Z"  horiz-adv-x="498" vert-adv-y="1000"  />

      
      <glyph glyph-name="uni7a" unicode="&#x7a;" d="M-4 49L403 466L86 466L96 515L485 515L475 466L68 49L411 49L393 0L-14 0L-4 49Z"  horiz-adv-x="449" vert-adv-y="1000"  />

      
      <glyph glyph-name="uni7b" unicode="&#x7b;" d="M104 203Q107 219 107 233Q107 256 95 267.50Q83 279 51 279L49 279L60 331L62 331Q103 331 121 350Q139 369 147 407L193 623Q206 687 241.50 710.50Q277 734 332 734L374 734L363 685L317 685Q288 685 273.50 671Q259 657 254 631L203 392Q186 315 128 305Q169 296 169 249Q169 234 166 218L115-21Q113-26 113-31Q113-36 113-41Q113-58 122-66.50Q131-75 154-75L202-75L191-124L149-124Q104-124 78.50-109Q53-94 53-53Q53-44 54.50-34Q56-24 58-13L104 203Z"  horiz-adv-x="263" vert-adv-y="1000"  />

      
      <glyph glyph-name="uni7c" unicode="&#x7c;" d="M4-124L187 734L247 734L64-124L4-124Z"  horiz-adv-x="202" vert-adv-y="1000"  />

      
      <glyph glyph-name="uni7d" unicode="&#x7d;" d="M208 407Q206 399 205 391.50Q204 384 204 377Q204 354 216.50 342.50Q229 331 261 331L263 331L252 279L250 279Q208 279 190.50 260Q173 241 165 203L119-13Q112-45 99.50-66.50Q87-88 69.50-101Q52-114 29.50-119Q7-124-20-124L-61-124L-50-75L-5-75Q24-75 38.50-61Q53-47 58-21L109 218Q126 295 183 305Q142 313 142 360Q142 376 146 392L197 631Q198 636 198.50 641Q199 646 199 650Q199 667 190 676Q181 685 158 685L110 685L121 734L163 734Q208 734 233 719Q258 704 258 662Q258 643 254 623L208 407Z"  horiz-adv-x="263" vert-adv-y="1000"  />

      
      <glyph glyph-name="uni7e" unicode="&#x7e;" d="M209 371Q169 371 148 347.50Q127 324 116 264L66 264Q74 316 89 347Q104 378 123.50 394Q143 410 166.50 414.50Q190 419 214 419Q254 419 283 400Q312 381 336.50 358Q361 335 385 316Q409 297 439 297Q479 297 502 320.50Q525 344 535 404L585 404Q577 352 561.50 321Q546 290 526 273.50Q506 257 482 252Q458 247 434 247Q394 247 365 266.50Q336 286 311 309Q286 332 262 351.50Q238 371 209 371Z"  horiz-adv-x="592" vert-adv-y="1000"  />

      
      <glyph glyph-name="unia1" unicode="&#xa1;" d="M157 322L52-194L-9-194L104 322L157 322M204 515L185 423L113 423L132 515L204 515Z"  horiz-adv-x="206" vert-adv-y="1000"  />

      
      <glyph glyph-name="unia2" unicode="&#xa2;" d="M525 436Q522 457 516.50 477.50Q511 498 499.50 516Q488 534 469 547Q450 560 422 565L328 121Q364 122 390.50 133Q417 144 436.50 161.50Q456 179 469 202Q482 225 491 251L550 251Q538 212 518.50 179.50Q499 147 470.50 123Q442 99 404 85.50Q366 72 318 71L301-9L252-9L269 74Q229 81 198.50 100Q168 119 147.50 147Q127 175 116.50 210.50Q106 246 106 286Q106 364 128.50 425Q151 486 189 528.50Q227 571 277.50 594Q328 617 384 618L402 700L451 700L433 615Q470 609 496.50 593Q523 577 541 554.50Q559 532 568 504Q577 476 580 447L525 436M169 292Q169 230 195 183.50Q221 137 280 125L374 567Q327 564 289 542.50Q251 521 224.50 484.50Q198 448 183.50 399Q169 350 169 292Z"  horiz-adv-x="592" vert-adv-y="1000"  />

      
      <glyph glyph-name="unia3" unicode="&#xa3;" d="M539 540Q524 606 494.50 632.50Q465 659 405 659Q360 659 329 646Q298 633 279.50 609Q261 585 253 551.50Q245 518 245 477Q245 448 248 422Q251 396 254 370L480 370L469 319L259 319L259 302Q259 223 223.50 163Q188 103 132 55L518 55L497 0L53 0L64 55Q94 80 119 106Q144 132 162 161Q180 190 190.50 222.50Q201 255 201 293Q201 300 200.50 306Q200 312 200 319L111 319L122 370L194 370Q191 393 188 416Q185 439 185 464Q185 518 197 563Q209 608 235.50 641Q262 674 304.50 692Q347 710 409 710Q490 710 533.50 670.50Q577 631 594 554L539 540Z"  horiz-adv-x="592" vert-adv-y="1000"  />

      
      <glyph glyph-name="unia4" unicode="&#xa4;" d="M287 110Q214 110 166 155L99 97L66 137L134 196Q111 239 111 294Q111 363 132.50 416.50Q154 470 191 508L147 570L191 602L233 542Q262 561 296 571Q330 581 366 581Q442 581 490 533L560 594L593 554L521 491Q543 449 543 397Q543 329 522.50 275.50Q502 222 466 185L512 121L467 89L424 150Q362 110 287 110M292 163Q335 163 370.50 180.50Q406 198 430.50 228.50Q455 259 468.50 301Q482 343 482 391Q482 454 451.50 491Q421 528 361 528Q317 528 282 510.50Q247 493 222 462.50Q197 432 183.50 390.50Q170 349 170 301Q170 238 201 200.50Q232 163 292 163Z"  horiz-adv-x="592" vert-adv-y="1000"  />

      
      <glyph glyph-name="unia5" unicode="&#xa5;" d="M315 169L280 0L221 0L256 169L70 169L81 219L267 219L284 299L273 330L101 330L111 381L252 381L129 691L194 691L320 347L597 691L662 691L409 381L549 381L539 330L368 330L343 299L326 219L519 219L508 169L315 169Z"  horiz-adv-x="592" vert-adv-y="1000"  />

      
      <glyph glyph-name="unia6" unicode="&#xa6;" d="M115 398L187 734L247 734L175 398L115 398M139 229L64-124L4-124L79 229L139 229Z"  horiz-adv-x="202" vert-adv-y="1000"  />

      
      <glyph glyph-name="unia7" unicode="&#xa7;" d="M199 456Q158 475 142 506Q126 537 126 573Q126 617 142.50 647Q159 677 187.50 696Q216 715 254 723Q292 731 334 731Q390 731 428 717Q466 703 490 682Q514 661 525.50 635.50Q537 610 541 587L487 577Q482 599 472.50 618Q463 637 445 650.50Q427 664 399 672Q371 680 330 680Q285 680 256.50 671.50Q228 663 211.50 648.50Q195 634 189 614Q183 594 183 571Q183 543 202 520Q221 497 266 483L347 458Q419 435 451 400.50Q483 366 483 313Q483 258 453.50 217.50Q424 177 361 162Q403 142 418.50 109Q434 76 434 43Q434-2 418-33Q402-64 374.50-82.50Q347-101 309-109Q271-117 227-117Q167-117 126.50-101.50Q86-86 61.50-62.50Q37-39 26.50-11Q16 17 16 43L71 43Q74 17 83.50-3Q93-23 112-37Q131-51 160.50-58.50Q190-66 232-66Q278-66 306.50-56.50Q335-47 350.50-31Q366-15 371.50 5.50Q377 26 377 47Q377 71 360.50 96.50Q344 122 295 136L213 160Q139 182 107 217Q75 252 75 305Q75 360 105.50 400.50Q136 441 199 456M253 426Q230 426 208.50 419Q187 412 170.50 397.50Q154 383 144 359.50Q134 336 134 303Q134 272 155.50 249Q177 226 227 210L257 200Q271 195 284 193.50Q297 192 308 192Q330 192 351 199.50Q372 207 388 222Q404 237 414 260Q424 283 424 315Q424 347 403 369Q382 391 331 408L301 418Q275 426 253 426Z"  horiz-adv-x="510" vert-adv-y="1000"  />

      
      <glyph glyph-name="unia8" unicode="&#xa8;" d="M147 619L165 704L230 704L212 619L147 619M307 619L325 704L391 704L373 619L307 619Z"  horiz-adv-x="379" vert-adv-y="1000"  />

      
      <glyph glyph-name="unia9" unicode="&#xa9;" d="M526 427Q516 469 492 493.50Q468 518 418 518Q384 518 359.50 506Q335 494 319.50 472Q304 450 297 420.50Q290 391 290 356Q290 322 297 292.50Q304 263 319.50 241.50Q335 220 359 207.50Q383 195 417 195Q468 195 494.50 220.50Q521 246 529 291L584 291Q572 225 530 187Q488 149 416 149Q329 149 280.50 203.50Q232 258 232 355Q232 402 245 440.50Q258 479 282.50 506Q307 533 341.50 548Q376 563 419 563Q486 563 525 530Q564 497 576 437L526 427M416 714Q491 714 553.50 688.50Q616 663 661 616.50Q706 570 730.50 504Q755 438 755 357Q755 276 728.50 210Q702 144 656.50 97.50Q611 51 549 25.50Q487 0 416 0Q341 0 278 25.50Q215 51 170 97.50Q125 144 100 210Q75 276 75 357Q75 438 101.50 504Q128 570 174.50 616.50Q221 663 283 688.50Q345 714 416 714M415 663Q352 663 300.50 641Q249 619 211.50 579Q174 539 153.50 482.50Q133 426 133 357Q133 288 153.50 231.50Q174 175 211.50 134.50Q249 94 300.50 72Q352 50 415 50Q477 50 528.50 72Q580 94 617.50 134.50Q655 175 676 231.50Q697 288 697 357Q697 426 676 482.50Q655 539 617.50 579Q580 619 528.50 641Q477 663 415 663Z"  horiz-adv-x="772" vert-adv-y="1000"  />

      
      <glyph glyph-name="uniaa" unicode="&#xaa;" d="M103 435Q103 474 118 500.50Q133 527 161 543.50Q189 560 229 568Q269 576 319 578L391 581L392 586Q394 596 394.50 604Q395 612 395 619Q395 650 376.50 669Q358 688 314 688Q288 688 269.50 685Q251 682 238 675Q225 668 216.50 655.50Q208 643 201 625L156 633Q174 687 213 709.50Q252 732 317 732Q381 732 412.50 701.50Q444 671 444 620Q444 610 443 599Q442 588 440 577L391 344L342 344L351 390Q325 368 294 351.50Q263 335 217 335Q167 335 135 362.50Q103 390 103 435M223 380Q246 380 269 386Q292 392 309 403Q337 420 351 439.50Q365 459 372 490L383 540L318 537Q272 535 241 528Q210 521 191 509Q172 497 164 479Q156 461 156 436Q156 414 172 397Q188 380 223 380Z"  horiz-adv-x="424" vert-adv-y="1000"  />

      
      <glyph glyph-name="uniab" unicode="&#xab;" d="M250 478L309 478L128 254L210 34L155 34L64 257L250 478M439 478L498 478L317 254L399 34L344 34L253 257L439 478Z"  horiz-adv-x="469" vert-adv-y="1000"  />

      
      <glyph glyph-name="uniac" unicode="&#xac;" d="M504 161L451 161L496 375L101 375L112 427L560 427L504 161Z"  horiz-adv-x="592" vert-adv-y="1000"  />

      
      <glyph glyph-name="uniad" unicode="&#xad;" d="M65 259L77 319L368 319L356 259L65 259Z"  horiz-adv-x="391" vert-adv-y="1000"  />

      
      <glyph glyph-name="uniae" unicode="&#xae;" d="M270 497L270 421L229 421L229 623L304 623Q331 623 347.50 617.50Q364 612 373.50 603.50Q383 595 386 584Q389 573 389 561Q389 539 381.50 526.50Q374 514 354 506L398 421L353 421L315 497L270 497M348 564Q348 575 339.50 582.50Q331 590 302 590L270 590L270 532L308 532Q335 532 341.50 541.50Q348 551 348 564M306 732Q352 732 389.50 717Q427 702 454 674.50Q481 647 495.50 607Q510 567 510 518Q510 468 494 428.50Q478 389 450.50 361.50Q423 334 385.50 319Q348 304 306 304Q261 304 223.50 319Q186 334 159 361.50Q132 389 117 428.50Q102 468 102 518Q102 567 118 607Q134 647 161.50 674.50Q189 702 226.50 717Q264 732 306 732M305 692Q234 692 191 646.50Q148 601 148 518Q148 435 191 389.50Q234 344 305 344Q376 344 420 389.50Q464 435 464 518Q464 601 420 646.50Q376 692 305 692Z"  horiz-adv-x="480" vert-adv-y="1000"  />

      
      <glyph glyph-name="uniaf" unicode="&#xaf;" d="M78 678L322 678L311 627L67 627L78 678Z"  horiz-adv-x="379" vert-adv-y="1000"  />

      
      <glyph glyph-name="unib0" unicode="&#xb0;" d="M80 579Q80 607 90 631Q100 655 118 672.50Q136 690 160.50 700Q185 710 214 710Q242 710 266 700Q290 690 308 672.50Q326 655 336 631Q346 607 346 579Q346 550 336 526Q326 502 308 484Q290 466 266 456Q242 446 214 446Q185 446 160.50 456Q136 466 118 484Q100 502 90 526Q80 550 80 579M131 578Q131 538 153.50 514.50Q176 491 214 491Q250 491 272.50 514.50Q295 538 295 578Q295 616 272.50 640.50Q250 665 214 665Q176 665 153.50 640.50Q131 616 131 578Z"  horiz-adv-x="316" vert-adv-y="1000"  />

      
      <glyph glyph-name="unib1" unicode="&#xb1;" d="M32 0L43 55L501 55L490 0L32 0M349 314L304 99L250 99L295 314L94 314L106 367L307 367L352 581L406 581L361 367L562 367L550 314L349 314Z"  horiz-adv-x="592" vert-adv-y="1000"  />

      
      <glyph glyph-name="unib2" unicode="&#xb2;" d="M292 660Q249 660 226 643.50Q203 627 187 586L139 597Q153 643 190 675Q227 707 295 707Q348 707 381 676.50Q414 646 414 598Q414 564 402.50 537.50Q391 511 371 489Q351 467 325 447Q299 427 271 407Q250 392 226.50 376.50Q203 361 179 343L370 343L351 295L89 295L97 339Q132 365 170 392Q208 419 246 447Q270 464 290.50 479.50Q311 495 326.50 512.50Q342 530 351 550.50Q360 571 360 598Q360 622 342 641Q324 660 292 660Z"  horiz-adv-x="412" vert-adv-y="1000"  />

      
      <glyph glyph-name="unib3" unicode="&#xb3;" d="M281 523Q323 523 346 544.50Q369 566 369 604Q369 628 351 646Q333 664 298 664Q252 664 228.50 648Q205 632 188 590L143 600Q150 623 162 642.50Q174 662 193 676.50Q212 691 238 699Q264 707 299 707Q329 707 351.50 698.50Q374 690 389 676Q404 662 411 643.50Q418 625 418 606Q418 563 397.50 538.50Q377 514 346 500Q370 484 380.50 463Q391 442 391 416Q391 356 353.50 318.50Q316 281 240 281Q212 281 187 289Q162 297 143 313Q124 329 113 352.50Q102 376 102 406L148 406Q152 364 178 344Q204 324 242 324Q290 324 316 347Q342 370 342 414Q342 446 325 463Q308 480 278 480L216 480L226 523L281 523Z"  horiz-adv-x="412" vert-adv-y="1000"  />

      
      <glyph glyph-name="unib4" unicode="&#xb4;" d="M161 590L294 724L376 724L227 590L161 590Z"  horiz-adv-x="379" vert-adv-y="1000"  />

      
      <glyph glyph-name="unib5" unicode="&#xb5;" d="M193 515L124 191Q122 179 120.50 166Q119 153 119 139Q119 119 123 100.50Q127 82 137.50 68Q148 54 166 45Q184 36 211 36Q240 36 272 47.50Q304 59 335 85Q366 111 389 138.50Q412 166 422 213L486 515L544 515L435 0L377 0L395 84Q347 30 298 7Q249-16 202-16Q159-16 132.50-3Q106 10 91 36L42-194L-16-194L135 515L193 515Z"  horiz-adv-x="547" vert-adv-y="1000"  />

      
      <glyph glyph-name="unib6" unicode="&#xb6;" d="M377-139L547 662L410 662L240-139L178-139L274 315Q222 315 186.50 329.50Q151 344 129 367.50Q107 391 97.50 421Q88 451 88 481Q88 530 104.50 572.50Q121 615 158.50 646.50Q196 678 255.50 696Q315 714 401 714L620 714L439-139L377-139Z"  horiz-adv-x="583" vert-adv-y="1000"  />

      
      <glyph glyph-name="unib7" unicode="&#xb7;" d="M91 327L110 420L185 420L166 327L91 327Z"  horiz-adv-x="199" vert-adv-y="1000"  />

      
      <glyph glyph-name="unib8" unicode="&#xb8;" d="M103 3L149 3L118-52Q161-59 177.50-78Q194-97 194-117Q194-166 159-184.50Q124-203 71-203Q57-203 41-201Q25-199 11-196L21-152Q35-155 46-156.50Q57-158 71-158Q103-158 120.50-150Q138-142 138-120Q138-105 121.50-95.50Q105-86 65-86L53-86L103 3Z"  horiz-adv-x="379" vert-adv-y="1000"  />

      
      <glyph glyph-name="unib9" unicode="&#xb9;" d="M213 295L285 633L187 587L168 632L293 693L356 693L271 295L213 295Z"  horiz-adv-x="412" vert-adv-y="1000"  />

      
      <glyph glyph-name="uniba" unicode="&#xba;" d="M255 380Q291 380 320 395Q349 410 369.50 435.50Q390 461 401 496Q412 531 412 571Q412 623 386.50 655Q361 687 310 687Q274 687 245 672Q216 657 195.50 631Q175 605 164 570.50Q153 536 153 496Q153 444 178.50 412Q204 380 255 380M249 334Q216 334 189 345.50Q162 357 142 377.50Q122 398 111 426.50Q100 455 100 490Q100 546 117 590.50Q134 635 163.50 666.50Q193 698 232.50 715Q272 732 316 732Q348 732 375.50 721Q403 710 423 689.50Q443 669 454 640.50Q465 612 465 577Q465 521 448.50 476Q432 431 403 399.50Q374 368 334.50 351Q295 334 249 334Z"  horiz-adv-x="432" vert-adv-y="1000"  />

      
      <glyph glyph-name="unibb" unicode="&#xbb;" d="M257 34L197 34L378 258L296 478L350 478L442 255L257 34M58 34L-2 34L179 258L97 478L151 478L243 255L58 34Z"  horiz-adv-x="479" vert-adv-y="1000"  />

      
      <glyph glyph-name="unibc" unicode="&#xbc;" d="M174 295L246 633L148 587L129 632L254 693L317 693L232 295L174 295M246 0L181 0L679 691L742 691L246 0M703 1L724 101L518 101L526 138L786 399L837 399L783 145L833 145L815 101L773 101L752 1L703 1M589 145L734 145L772 329L589 145Z"  horiz-adv-x="897" vert-adv-y="1000"  />

      
      <glyph glyph-name="unibd" unicode="&#xbd;" d="M174 295L246 633L148 587L129 632L254 693L317 693L232 295L174 295M215 0L150 0L648 691L711 691L215 0M737 366Q694 366 671 349.50Q648 333 632 292L584 303Q598 349 635 381Q672 413 740 413Q793 413 826 382.50Q859 352 859 304Q859 270 847.50 243.50Q836 217 816 195Q796 173 770 153Q744 133 716 113Q695 98 671.50 82.50Q648 67 624 49L815 49L796 1L534 1L542 45Q577 71 615 98Q653 125 691 153Q715 170 735.50 185.50Q756 201 771.50 218.50Q787 236 796 256.50Q805 277 805 304Q805 328 787 347Q769 366 737 366Z"  horiz-adv-x="897" vert-adv-y="1000"  />

      
      <glyph glyph-name="unibe" unicode="&#xbe;" d="M272 523Q314 523 337 544.50Q360 566 360 604Q360 628 342 646Q324 664 289 664Q243 664 219.50 648Q196 632 179 590L134 600Q141 623 153 642.50Q165 662 184 676.50Q203 691 229 699Q255 707 290 707Q320 707 342.50 698.50Q365 690 380 676Q395 662 402 643.50Q409 625 409 606Q409 563 388.50 538.50Q368 514 337 500Q361 484 371.50 463Q382 442 382 416Q382 356 344.50 318.50Q307 281 231 281Q203 281 178 289Q153 297 134 313Q115 329 104 352.50Q93 376 93 406L139 406Q143 364 169 344Q195 324 233 324Q281 324 307 347Q333 370 333 414Q333 446 316 463Q299 480 269 480L207 480L217 523L272 523M283 0L218 0L716 691L779 691L283 0M703 1L724 101L518 101L526 138L786 399L837 399L783 145L833 145L815 101L773 101L752 1L703 1M589 145L734 145L772 329L589 145Z"  horiz-adv-x="897" vert-adv-y="1000"  />

      
      <glyph glyph-name="unibf" unicode="&#xbf;" d="M9-54Q9 12 41.50 59Q74 106 128 149Q152 168 174.50 185Q197 202 215.50 220.50Q234 239 247.50 260.50Q261 282 267 311L269 322L327 322L325 311Q317 273 301.50 246.50Q286 220 265.50 198.50Q245 177 220.50 158Q196 139 170 118Q149 101 130 83.50Q111 66 97.50 46Q84 26 76 2.50Q68-21 68-50Q69-99 101.50-127Q134-155 197-155Q231-155 258-149Q285-143 307-128Q329-113 346-87.50Q363-62 377-24L428-34Q416-73 396.50-105Q377-137 348.50-159.50Q320-182 281-194.50Q242-207 191-207Q145-207 110.50-195Q76-183 53.50-162Q31-141 20-113.50Q9-86 9-54M372 515L353 423L279 423L298 515L372 515Z"  horiz-adv-x="493" vert-adv-y="1000"  />

      
      <glyph glyph-name="unic0" unicode="&#xc0;" d="M406 714L478 714L609 0L546 0L506 218L170 218L39 0L-28 0L406 714M204 274L496 274L428 647L204 274M450 774L346 903L421 903L509 774L450 774Z"  horiz-adv-x="661" vert-adv-y="1000"  />

      
      <glyph glyph-name="unic1" unicode="&#xc1;" d="M406 714L478 714L609 0L546 0L506 218L170 218L39 0L-28 0L406 714M204 274L496 274L428 647L204 274M382 774L515 903L596 903L446 774L382 774Z"  horiz-adv-x="661" vert-adv-y="1000"  />

      
      <glyph glyph-name="unic2" unicode="&#xc2;" d="M406 714L478 714L609 0L546 0L506 218L170 218L39 0L-28 0L406 714M204 274L496 274L428 647L204 274M313 774L452 903L509 903L594 774L534 774L475 857L375 774L313 774Z"  horiz-adv-x="661" vert-adv-y="1000"  />

      
      <glyph glyph-name="unic3" unicode="&#xc3;" d="M406 714L478 714L609 0L546 0L506 218L170 218L39 0L-28 0L406 714M204 274L496 274L428 647L204 274M526 781Q501 781 482.50 790Q464 799 448 810Q432 821 417 830Q402 839 386 839Q360 839 348 825.50Q336 812 330 782L281 782Q289 834 313 860.50Q337 887 385 887Q410 887 428.50 878Q447 869 463 858.50Q479 848 493.50 839Q508 830 525 830Q551 830 563 843Q575 856 580 886L630 886Q622 834 598 807.50Q574 781 526 781Z"  horiz-adv-x="661" vert-adv-y="1000"  />

      
      <glyph glyph-name="unic4" unicode="&#xc4;" d="M406 714L478 714L609 0L546 0L506 218L170 218L39 0L-28 0L406 714M204 274L496 274L428 647L204 274M332 795L351 882L418 882L399 795L332 795M496 795L515 882L583 882L564 795L496 795Z"  horiz-adv-x="661" vert-adv-y="1000"  />

      
      <glyph glyph-name="unic5" unicode="&#xc5;" d="M349 769Q349 817 377.50 841Q406 865 444 865Q463 865 480 859Q497 853 510.50 841Q524 829 532 811Q540 793 540 769Q540 735 524 713Q508 691 484 681L609 0L546 0L506 218L170 218L39 0L-28 0L390 688Q372 700 360.50 720Q349 740 349 769M204 274L496 274L428 647L204 274M393 769Q393 741 407 728Q421 715 444 715Q468 715 481.50 728Q495 741 495 769Q495 798 481.50 811.50Q468 825 444 825Q421 825 407 811.50Q393 798 393 769Z"  horiz-adv-x="661" vert-adv-y="1000"  />

      
      <glyph glyph-name="unic6" unicode="&#xc6;" d="M-35 0L538 714L1066 714L1055 659L692 659L636 397L979 397L967 340L624 340L563 56L947 56L923 0L494 0L546 249L234 249L35 0L-35 0M279 305L558 305L634 659L563 659L279 305Z"  horiz-adv-x="1012" vert-adv-y="1000"  />

      
      <glyph glyph-name="unic7" unicode="&#xc7;" d="M334-17Q279-13 232 8.50Q185 30 151 67.50Q117 105 98 157Q79 209 79 275Q79 366 104.50 449Q130 532 179 595Q228 658 298 695Q368 732 458 732Q570 732 633.50 671.50Q697 611 708 501L647 489Q634 586 589 632.50Q544 679 453 679Q382 679 325 647.50Q268 616 228 562Q188 508 166.50 435.50Q145 363 145 281Q145 230 159 185.50Q173 141 200 107.50Q227 74 267.50 55Q308 36 361 36Q413 36 453 49.50Q493 63 522.50 87.50Q552 112 571.50 145.50Q591 179 600 219L667 219Q655 171 631.50 129.50Q608 88 573 56.50Q538 25 490.50 5.50Q443-14 382-17L360-58Q383-62 398.50-70Q414-78 423-88Q432-98 436-109Q440-120 440-129Q440-155 430-172Q420-189 403-199.50Q386-210 362-214Q338-218 310-218Q294-218 278-216Q262-214 247-211L258-166Q273-169 283.50-170.50Q294-172 310-172Q344-172 362.50-163Q381-154 381-131Q381-115 363.50-104.50Q346-94 303-94L291-94L334-17Z"  horiz-adv-x="709" vert-adv-y="1000"  />

      
      <glyph glyph-name="unic8" unicode="&#xc8;" d="M243 659L187 397L555 397L543 340L175 340L114 56L523 56L499 0L42 0L193 714L642 714L631 659L243 659M439 774L335 903L410 903L498 774L439 774Z"  horiz-adv-x="588" vert-adv-y="1000"  />

      
      <glyph glyph-name="unic9" unicode="&#xc9;" d="M243 659L187 397L555 397L543 340L175 340L114 56L523 56L499 0L42 0L193 714L642 714L631 659L243 659M355 774L488 903L569 903L419 774L355 774Z"  horiz-adv-x="588" vert-adv-y="1000"  />

      
      <glyph glyph-name="unica" unicode="&#xca;" d="M243 659L187 397L555 397L543 340L175 340L114 56L523 56L499 0L42 0L193 714L642 714L631 659L243 659M285 774L424 903L481 903L566 774L506 774L447 857L347 774L285 774Z"  horiz-adv-x="588" vert-adv-y="1000"  />

      
      <glyph glyph-name="unicb" unicode="&#xcb;" d="M243 659L187 397L555 397L543 340L175 340L114 56L523 56L499 0L42 0L193 714L642 714L631 659L243 659M311 795L330 882L397 882L378 795L311 795M475 795L494 882L562 882L543 795L475 795Z"  horiz-adv-x="588" vert-adv-y="1000"  />

      
      <glyph glyph-name="unicc" unicode="&#xcc;" d="M42 0L193 714L254 714L103 0L42 0M223 774L119 903L194 903L282 774L223 774Z"  horiz-adv-x="225" vert-adv-y="1000"  />

      
      <glyph glyph-name="unicd" unicode="&#xcd;" d="M42 0L193 714L254 714L103 0L42 0M175 774L308 903L389 903L239 774L175 774Z"  horiz-adv-x="225" vert-adv-y="1000"  />

      
      <glyph glyph-name="unice" unicode="&#xce;" d="M42 0L193 714L254 714L103 0L42 0M96 774L235 903L292 903L377 774L317 774L258 857L158 774L96 774Z"  horiz-adv-x="225" vert-adv-y="1000"  />

      
      <glyph glyph-name="unicf" unicode="&#xcf;" d="M42 0L193 714L254 714L103 0L42 0M115 795L134 882L201 882L182 795L115 795M279 795L298 882L366 882L347 795L279 795Z"  horiz-adv-x="225" vert-adv-y="1000"  />

      
      <glyph glyph-name="unid0" unicode="&#xd0;" d="M52 0L124 342L42 342L54 396L136 396L203 714L429 714Q491 714 541.50 693Q592 672 628 634.50Q664 597 683.50 545Q703 493 703 430Q703 340 677.50 261.50Q652 183 599 125Q546 67 465 33.50Q384 0 274 0L52 0M283 54Q371 54 437.50 80.50Q504 107 549 156.50Q594 206 616.50 275.50Q639 345 639 432Q639 479 625 520.50Q611 562 584 593.50Q557 625 516.50 643Q476 661 423 661L253 661L196 396L396 396L384 342L185 342L124 54L283 54Z"  horiz-adv-x="712" vert-adv-y="1000"  />

      
      <glyph glyph-name="unid1" unicode="&#xd1;" d="M505 0L233 622L101 0L42 0L193 714L257 714L528 94L660 714L719 714L568 0L505 0M548 781Q523 781 504.50 790Q486 799 470 810Q454 821 439 830Q424 839 408 839Q382 839 370 825.50Q358 812 352 782L303 782Q311 834 335 860.50Q359 887 407 887Q432 887 450.50 878Q469 869 485 858.50Q501 848 515.50 839Q530 830 547 830Q573 830 585 843Q597 856 602 886L652 886Q644 834 620 807.50Q596 781 548 781Z"  horiz-adv-x="690" vert-adv-y="1000"  />

      
      <glyph glyph-name="unid2" unicode="&#xd2;" d="M466 732Q525 732 576.50 712Q628 692 666 654Q704 616 725.50 561.50Q747 507 747 437Q747 354 721.50 273Q696 192 646.50 127Q597 62 525.50 22Q454-18 361-18Q302-18 250.50 2Q199 22 161 59.50Q123 97 101.50 151.50Q80 206 80 276Q80 358 106.50 440Q133 522 182.50 586.50Q232 651 303.50 691.50Q375 732 466 732M363 36Q438 36 497.50 70.50Q557 105 598 161.50Q639 218 660.50 289.50Q682 361 682 435Q682 488 668 532.50Q654 577 626 609.50Q598 642 557.50 660Q517 678 464 678Q389 678 329.50 643Q270 608 229 552Q188 496 166.50 424Q145 352 145 279Q145 226 159 181Q173 136 201 104Q229 72 269.50 54Q310 36 363 36M485 774L381 903L456 903L544 774L485 774Z"  horiz-adv-x="756" vert-adv-y="1000"  />

      
      <glyph glyph-name="unid3" unicode="&#xd3;" d="M466 732Q525 732 576.50 712Q628 692 666 654Q704 616 725.50 561.50Q747 507 747 437Q747 354 721.50 273Q696 192 646.50 127Q597 62 525.50 22Q454-18 361-18Q302-18 250.50 2Q199 22 161 59.50Q123 97 101.50 151.50Q80 206 80 276Q80 358 106.50 440Q133 522 182.50 586.50Q232 651 303.50 691.50Q375 732 466 732M363 36Q438 36 497.50 70.50Q557 105 598 161.50Q639 218 660.50 289.50Q682 361 682 435Q682 488 668 532.50Q654 577 626 609.50Q598 642 557.50 660Q517 678 464 678Q389 678 329.50 643Q270 608 229 552Q188 496 166.50 424Q145 352 145 279Q145 226 159 181Q173 136 201 104Q229 72 269.50 54Q310 36 363 36M410 774L543 903L624 903L474 774L410 774Z"  horiz-adv-x="756" vert-adv-y="1000"  />

      
      <glyph glyph-name="unid4" unicode="&#xd4;" d="M466 732Q525 732 576.50 712Q628 692 666 654Q704 616 725.50 561.50Q747 507 747 437Q747 354 721.50 273Q696 192 646.50 127Q597 62 525.50 22Q454-18 361-18Q302-18 250.50 2Q199 22 161 59.50Q123 97 101.50 151.50Q80 206 80 276Q80 358 106.50 440Q133 522 182.50 586.50Q232 651 303.50 691.50Q375 732 466 732M363 36Q438 36 497.50 70.50Q557 105 598 161.50Q639 218 660.50 289.50Q682 361 682 435Q682 488 668 532.50Q654 577 626 609.50Q598 642 557.50 660Q517 678 464 678Q389 678 329.50 643Q270 608 229 552Q188 496 166.50 424Q145 352 145 279Q145 226 159 181Q173 136 201 104Q229 72 269.50 54Q310 36 363 36M345 774L484 903L541 903L626 774L566 774L507 857L407 774L345 774Z"  horiz-adv-x="756" vert-adv-y="1000"  />

      
      <glyph glyph-name="unid5" unicode="&#xd5;" d="M466 732Q525 732 576.50 712Q628 692 666 654Q704 616 725.50 561.50Q747 507 747 437Q747 354 721.50 273Q696 192 646.50 127Q597 62 525.50 22Q454-18 361-18Q302-18 250.50 2Q199 22 161 59.50Q123 97 101.50 151.50Q80 206 80 276Q80 358 106.50 440Q133 522 182.50 586.50Q232 651 303.50 691.50Q375 732 466 732M363 36Q438 36 497.50 70.50Q557 105 598 161.50Q639 218 660.50 289.50Q682 361 682 435Q682 488 668 532.50Q654 577 626 609.50Q598 642 557.50 660Q517 678 464 678Q389 678 329.50 643Q270 608 229 552Q188 496 166.50 424Q145 352 145 279Q145 226 159 181Q173 136 201 104Q229 72 269.50 54Q310 36 363 36M558 781Q533 781 514.50 790Q496 799 480 810Q464 821 449 830Q434 839 418 839Q392 839 380 825.50Q368 812 362 782L313 782Q321 834 345 860.50Q369 887 417 887Q442 887 460.50 878Q479 869 495 858.50Q511 848 525.50 839Q540 830 557 830Q583 830 595 843Q607 856 612 886L662 886Q654 834 630 807.50Q606 781 558 781Z"  horiz-adv-x="756" vert-adv-y="1000"  />

      
      <glyph glyph-name="unid6" unicode="&#xd6;" d="M466 732Q525 732 576.50 712Q628 692 666 654Q704 616 725.50 561.50Q747 507 747 437Q747 354 721.50 273Q696 192 646.50 127Q597 62 525.50 22Q454-18 361-18Q302-18 250.50 2Q199 22 161 59.50Q123 97 101.50 151.50Q80 206 80 276Q80 358 106.50 440Q133 522 182.50 586.50Q232 651 303.50 691.50Q375 732 466 732M363 36Q438 36 497.50 70.50Q557 105 598 161.50Q639 218 660.50 289.50Q682 361 682 435Q682 488 668 532.50Q654 577 626 609.50Q598 642 557.50 660Q517 678 464 678Q389 678 329.50 643Q270 608 229 552Q188 496 166.50 424Q145 352 145 279Q145 226 159 181Q173 136 201 104Q229 72 269.50 54Q310 36 363 36M364 795L383 882L450 882L431 795L364 795M528 795L547 882L615 882L596 795L528 795Z"  horiz-adv-x="756" vert-adv-y="1000"  />

      
      <glyph glyph-name="unid7" unicode="&#xd7;" d="M127 135L93 173L295 340L158 510L199 543L336 374L540 547L574 510L367 336L496 172L454 138L326 303L127 135Z"  horiz-adv-x="592" vert-adv-y="1000"  />

      
      <glyph glyph-name="unid8" unicode="&#xd8;" d="M466 732Q520 732 567 715.50Q614 699 651 668L720 747L761 714L687 629Q716 593 731.50 545Q747 497 747 437Q747 354 721.50 273Q696 192 646.50 127Q597 62 525.50 22Q454-18 361-18Q252-18 177 45L110-32L69 1L140 83Q111 119 95.50 167.50Q80 216 80 276Q80 358 106.50 440Q133 522 182.50 586.50Q232 651 303.50 691.50Q375 732 466 732M145 279Q145 235 154 197.50Q163 160 182 130L612 624Q585 650 548 664Q511 678 464 678Q389 678 329.50 643Q270 608 229 552Q188 496 166.50 424Q145 352 145 279M363 36Q438 36 497.50 70.50Q557 105 598 161.50Q639 218 660.50 289.50Q682 361 682 435Q682 522 646 582L215 89Q271 36 363 36Z"  horiz-adv-x="756" vert-adv-y="1000"  />

      
      <glyph glyph-name="unid9" unicode="&#xd9;" d="M316-18Q264-18 221.50-6Q179 6 149 31.50Q119 57 102.50 96.50Q86 136 86 190Q86 211 89 234.50Q92 258 97 284L188 714L249 714L157 279Q147 233 147 192Q147 114 188.50 75Q230 36 318 36Q373 36 412.50 51.50Q452 67 479.50 97.50Q507 128 525.50 173.50Q544 219 557 279L649 714L710 714L618 280Q601 201 575 144.50Q549 88 512.50 52Q476 16 427-1Q378-18 316-18M458 774L354 903L429 903L517 774L458 774Z"  horiz-adv-x="676" vert-adv-y="1000"  />

      
      <glyph glyph-name="unida" unicode="&#xda;" d="M316-18Q264-18 221.50-6Q179 6 149 31.50Q119 57 102.50 96.50Q86 136 86 190Q86 211 89 234.50Q92 258 97 284L188 714L249 714L157 279Q147 233 147 192Q147 114 188.50 75Q230 36 318 36Q373 36 412.50 51.50Q452 67 479.50 97.50Q507 128 525.50 173.50Q544 219 557 279L649 714L710 714L618 280Q601 201 575 144.50Q549 88 512.50 52Q476 16 427-1Q378-18 316-18M390 774L523 903L604 903L454 774L390 774Z"  horiz-adv-x="676" vert-adv-y="1000"  />

      
      <glyph glyph-name="unidb" unicode="&#xdb;" d="M316-18Q264-18 221.50-6Q179 6 149 31.50Q119 57 102.50 96.50Q86 136 86 190Q86 211 89 234.50Q92 258 97 284L188 714L249 714L157 279Q147 233 147 192Q147 114 188.50 75Q230 36 318 36Q373 36 412.50 51.50Q452 67 479.50 97.50Q507 128 525.50 173.50Q544 219 557 279L649 714L710 714L618 280Q601 201 575 144.50Q549 88 512.50 52Q476 16 427-1Q378-18 316-18M312 774L451 903L508 903L593 774L533 774L474 857L374 774L312 774Z"  horiz-adv-x="676" vert-adv-y="1000"  />

      
      <glyph glyph-name="unidc" unicode="&#xdc;" d="M316-18Q264-18 221.50-6Q179 6 149 31.50Q119 57 102.50 96.50Q86 136 86 190Q86 211 89 234.50Q92 258 97 284L188 714L249 714L157 279Q147 233 147 192Q147 114 188.50 75Q230 36 318 36Q373 36 412.50 51.50Q452 67 479.50 97.50Q507 128 525.50 173.50Q544 219 557 279L649 714L710 714L618 280Q601 201 575 144.50Q549 88 512.50 52Q476 16 427-1Q378-18 316-18M340 795L359 882L426 882L407 795L340 795M504 795L523 882L591 882L572 795L504 795Z"  horiz-adv-x="676" vert-adv-y="1000"  />

      
      <glyph glyph-name="unidd" unicode="&#xdd;" d="M126 714L192 714L328 361L614 714L684 714L351 309L286 0L225 0L290 309L126 714M345 774L478 903L559 903L409 774L345 774Z"  horiz-adv-x="588" vert-adv-y="1000"  />

      
      <glyph glyph-name="unide" unicode="&#xde;" d="M613 401Q613 335 590.50 287.50Q568 240 527.50 209.50Q487 179 430 164.50Q373 150 304 150L133 150L102 0L42 0L193 714L253 714L224 575L390 575Q454 575 496.50 559Q539 543 565 518Q591 493 602 462Q613 431 613 401M313 203Q366 203 410 212.50Q454 222 485 245Q516 268 533 306Q550 344 550 402Q550 428 541 450Q532 472 512 488Q492 504 459.50 513Q427 522 380 522L212 522L145 203L313 203Z"  horiz-adv-x="619" vert-adv-y="1000"  />

      
      <glyph glyph-name="unidf" unicode="&#xdf;" d="M185 62Q211 49 240 43.50Q269 38 295 38Q343 38 375.50 51Q408 64 428.50 87.50Q449 111 458 144Q467 177 467 218Q467 284 426 320.50Q385 357 309 357L250 357L261 408L305 408Q340 408 372 417Q404 426 428.50 445.50Q453 465 467.50 494Q482 523 482 564Q482 609 455 641.50Q428 674 366 674Q296 674 256.50 637.50Q217 601 200 519L90 0L32 0L144 531Q164 625 217.50 673.50Q271 722 368 722Q412 722 444.50 709.50Q477 697 498.50 676Q520 655 530.50 627Q541 599 541 568Q541 498 505.50 453.50Q470 409 402 386Q427 379 450 365Q473 351 490.50 330Q508 309 518 281.50Q528 254 528 221Q528 171 515 128Q502 85 474 54Q446 23 400.50 5.50Q355-12 291-12Q259-12 225-5.50Q191 1 165 15L185 62Z"  horiz-adv-x="561" vert-adv-y="1000"  />

      
      <glyph glyph-name="unie0" unicode="&#xe0;" d="M25 123Q25 177 47 212.50Q69 248 108.50 270.50Q148 293 202 303Q256 313 320 316L424 320L426 330Q428 343 430 355.50Q432 368 432 379Q432 424 406 453Q380 482 313 482Q276 482 250 477.50Q224 473 206 463Q188 453 175.50 436Q163 419 153 394L99 403Q123 473 175.50 502Q228 531 318 531Q407 531 449 489.50Q491 448 491 379Q491 365 489 350.50Q487 336 484 321L416 0L358 0L373 73Q338 38 292 13Q246-12 178-12Q111-12 68 24.50Q25 61 25 123M186 40Q219 40 251.50 47.50Q284 55 309 72Q329 85 343.50 97.50Q358 110 368.50 124Q379 138 386.50 156Q394 174 399 198L415 274L319 270Q253 267 208.50 257.50Q164 248 137 230.50Q110 213 98.50 186.50Q87 160 87 124Q87 90 109 65Q131 40 186 40M344 590L239 724L313 724L402 590L344 590Z"  horiz-adv-x="525" vert-adv-y="1000"  />

      
      <glyph glyph-name="unie1" unicode="&#xe1;" d="M25 123Q25 177 47 212.50Q69 248 108.50 270.50Q148 293 202 303Q256 313 320 316L424 320L426 330Q428 343 430 355.50Q432 368 432 379Q432 424 406 453Q380 482 313 482Q276 482 250 477.50Q224 473 206 463Q188 453 175.50 436Q163 419 153 394L99 403Q123 473 175.50 502Q228 531 318 531Q407 531 449 489.50Q491 448 491 379Q491 365 489 350.50Q487 336 484 321L416 0L358 0L373 73Q338 38 292 13Q246-12 178-12Q111-12 68 24.50Q25 61 25 123M186 40Q219 40 251.50 47.50Q284 55 309 72Q329 85 343.50 97.50Q358 110 368.50 124Q379 138 386.50 156Q394 174 399 198L415 274L319 270Q253 267 208.50 257.50Q164 248 137 230.50Q110 213 98.50 186.50Q87 160 87 124Q87 90 109 65Q131 40 186 40M265 590L398 724L480 724L331 590L265 590Z"  horiz-adv-x="525" vert-adv-y="1000"  />

      
      <glyph glyph-name="unie2" unicode="&#xe2;" d="M25 123Q25 177 47 212.50Q69 248 108.50 270.50Q148 293 202 303Q256 313 320 316L424 320L426 330Q428 343 430 355.50Q432 368 432 379Q432 424 406 453Q380 482 313 482Q276 482 250 477.50Q224 473 206 463Q188 453 175.50 436Q163 419 153 394L99 403Q123 473 175.50 502Q228 531 318 531Q407 531 449 489.50Q491 448 491 379Q491 365 489 350.50Q487 336 484 321L416 0L358 0L373 73Q338 38 292 13Q246-12 178-12Q111-12 68 24.50Q25 61 25 123M186 40Q219 40 251.50 47.50Q284 55 309 72Q329 85 343.50 97.50Q358 110 368.50 124Q379 138 386.50 156Q394 174 399 198L415 274L319 270Q253 267 208.50 257.50Q164 248 137 230.50Q110 213 98.50 186.50Q87 160 87 124Q87 90 109 65Q131 40 186 40M182 590L323 724L380 724L464 590L407 590L346 680L243 590L182 590Z"  horiz-adv-x="525" vert-adv-y="1000"  />

      
      <glyph glyph-name="unie3" unicode="&#xe3;" d="M25 123Q25 177 47 212.50Q69 248 108.50 270.50Q148 293 202 303Q256 313 320 316L424 320L426 330Q428 343 430 355.50Q432 368 432 379Q432 424 406 453Q380 482 313 482Q276 482 250 477.50Q224 473 206 463Q188 453 175.50 436Q163 419 153 394L99 403Q123 473 175.50 502Q228 531 318 531Q407 531 449 489.50Q491 448 491 379Q491 365 489 350.50Q487 336 484 321L416 0L358 0L373 73Q338 38 292 13Q246-12 178-12Q111-12 68 24.50Q25 61 25 123M186 40Q219 40 251.50 47.50Q284 55 309 72Q329 85 343.50 97.50Q358 110 368.50 124Q379 138 386.50 156Q394 174 399 198L415 274L319 270Q253 267 208.50 257.50Q164 248 137 230.50Q110 213 98.50 186.50Q87 160 87 124Q87 90 109 65Q131 40 186 40M404 604Q380 604 362 613Q344 622 328.50 632.50Q313 643 298.50 652Q284 661 268 661Q242 661 230.50 648Q219 635 214 606L166 606Q174 657 197 683.50Q220 710 267 710Q291 710 309 701Q327 692 342.50 681.50Q358 671 372.50 662Q387 653 403 653Q429 653 440.50 666Q452 679 457 708L505 708Q497 657 474 630.50Q451 604 404 604Z"  horiz-adv-x="525" vert-adv-y="1000"  />

      
      <glyph glyph-name="unie4" unicode="&#xe4;" d="M25 123Q25 177 47 212.50Q69 248 108.50 270.50Q148 293 202 303Q256 313 320 316L424 320L426 330Q428 343 430 355.50Q432 368 432 379Q432 424 406 453Q380 482 313 482Q276 482 250 477.50Q224 473 206 463Q188 453 175.50 436Q163 419 153 394L99 403Q123 473 175.50 502Q228 531 318 531Q407 531 449 489.50Q491 448 491 379Q491 365 489 350.50Q487 336 484 321L416 0L358 0L373 73Q338 38 292 13Q246-12 178-12Q111-12 68 24.50Q25 61 25 123M186 40Q219 40 251.50 47.50Q284 55 309 72Q329 85 343.50 97.50Q358 110 368.50 124Q379 138 386.50 156Q394 174 399 198L415 274L319 270Q253 267 208.50 257.50Q164 248 137 230.50Q110 213 98.50 186.50Q87 160 87 124Q87 90 109 65Q131 40 186 40M217 619L235 704L300 704L282 619L217 619M377 619L395 704L461 704L443 619L377 619Z"  horiz-adv-x="525" vert-adv-y="1000"  />

      
      <glyph glyph-name="unie5" unicode="&#xe5;" d="M25 123Q25 177 47 212.50Q69 248 108.50 270.50Q148 293 202 303Q256 313 320 316L424 320L426 330Q428 343 430 355.50Q432 368 432 379Q432 424 406 453Q380 482 313 482Q276 482 250 477.50Q224 473 206 463Q188 453 175.50 436Q163 419 153 394L99 403Q123 473 175.50 502Q228 531 318 531Q407 531 449 489.50Q491 448 491 379Q491 365 489 350.50Q487 336 484 321L416 0L358 0L373 73Q338 38 292 13Q246-12 178-12Q111-12 68 24.50Q25 61 25 123M186 40Q219 40 251.50 47.50Q284 55 309 72Q329 85 343.50 97.50Q358 110 368.50 124Q379 138 386.50 156Q394 174 399 198L415 274L319 270Q253 267 208.50 257.50Q164 248 137 230.50Q110 213 98.50 186.50Q87 160 87 124Q87 90 109 65Q131 40 186 40M240 683Q240 730 268 754Q296 778 334 778Q352 778 369.50 772Q387 766 400 754Q413 742 421 724Q429 706 429 683Q429 659 421 641.50Q413 624 400 612.50Q387 601 369.50 595Q352 589 334 589Q296 589 268 612.50Q240 636 240 683M284 683Q284 655 297.50 641.50Q311 628 334 628Q357 628 370.50 641.50Q384 655 384 683Q384 711 370.50 724.50Q357 738 334 738Q311 738 297.50 724.50Q284 711 284 683Z"  horiz-adv-x="525" vert-adv-y="1000"  />

      
      <glyph glyph-name="unie6" unicode="&#xe6;" d="M456 203Q456 168 465 137Q474 106 493 83Q512 60 541.50 46Q571 32 613 32Q650 32 676 40Q702 48 719.50 61.50Q737 75 748 94Q759 113 767 135L824 135Q812 102 796 74Q780 46 755 26Q730 6 694.50-5Q659-16 609-16Q564-16 530.50-5Q497 6 474 24Q451 42 435.50 65Q420 88 411 112Q364 44 310 16Q256-12 181-12Q146-12 117.50-2.50Q89 7 68.50 24.50Q48 42 36.50 67Q25 92 25 123Q25 177 46.50 212.50Q68 248 106 270.50Q144 293 196 303Q248 313 308 316L416 320L418 330Q424 360 422 387.50Q420 415 407.50 436Q395 457 370.50 469.50Q346 482 307 482Q272 482 247.50 477.50Q223 473 205 463Q187 453 175 436Q163 419 153 394L99 403Q123 473 175 502Q227 531 312 531Q372 531 413 506Q454 481 468 433Q503 479 551.50 505Q600 531 672 531Q720 531 755.50 515.50Q791 500 814.50 473.50Q838 447 849 411Q860 375 860 334Q860 319 859 297.50Q858 276 855 259L852 243L457 243Q456 233 456 223.50Q456 214 456 203M189 40Q229 40 258.50 47.50Q288 55 307 69Q342 94 361.50 122Q381 150 391 198L407 274L307 270Q244 267 202 257.50Q160 248 134.50 230.50Q109 213 98 186.50Q87 160 87 124Q87 90 109.50 65Q132 40 189 40M667 484Q588 484 536 434Q484 384 465 293L801 293Q803 302 803.50 315Q804 328 804 339Q804 370 796 396.50Q788 423 771.50 442.50Q755 462 729 473Q703 484 667 484Z"  horiz-adv-x="890" vert-adv-y="1000"  />

      
      <glyph glyph-name="unie7" unicode="&#xe7;" d="M233-14Q190-9 157 9.50Q124 28 102 56.50Q80 85 69 121.50Q58 158 58 199Q58 278 81 339.50Q104 401 143 443.50Q182 486 233.50 508.50Q285 531 342 531Q391 531 426 517Q461 503 483.50 479Q506 455 517.50 424Q529 393 532 360L477 349Q474 373 467 396.50Q460 420 445 438.50Q430 457 405 469Q380 481 341 481Q291 481 250.50 460.50Q210 440 181 403.50Q152 367 136.50 316Q121 265 121 205Q121 169 129 137.50Q137 106 155 83Q173 60 201.50 47Q230 34 271 34Q309 34 337.50 44Q366 54 386.50 71.50Q407 89 420.50 112.50Q434 136 443 162L502 162Q479 87 425 37.50Q371-12 278-16L258-52Q301-59 317.50-78Q334-97 334-117Q334-166 299-184.50Q264-203 211-203Q197-203 181-201Q165-199 151-196L161-152Q175-155 186-156.50Q197-158 211-158Q243-158 260.50-150Q278-142 278-120Q278-105 261.50-95.50Q245-86 205-86L193-86L233-14Z"  horiz-adv-x="554" vert-adv-y="1000"  />

      
      <glyph glyph-name="unie8" unicode="&#xe8;" d="M118 203Q118 168 127.50 137Q137 106 156.50 83Q176 60 206 46Q236 32 278 32Q315 32 341.50 40Q368 48 386.50 61.50Q405 75 417 94Q429 113 437 135L494 135Q482 102 465 74Q448 46 422 26Q396 6 360-5Q324-16 274-16Q220-16 179.50 2Q139 20 112 50.50Q85 81 71.50 120.50Q58 160 58 204Q58 283 80 344Q102 405 140 446.50Q178 488 228.50 509.50Q279 531 337 531Q385 531 421.50 515.50Q458 500 482 473.50Q506 447 518 411Q530 375 530 334Q530 319 529 297.50Q528 276 525 259L522 243L119 243Q118 233 118 223.50Q118 214 118 203M332 484Q253 484 199.50 434Q146 384 127 293L471 293Q473 302 473.50 315Q474 328 474 339Q474 370 465.50 396.50Q457 423 439 442.50Q421 462 394.50 473Q368 484 332 484M361 590L256 724L330 724L419 590L361 590Z"  horiz-adv-x="560" vert-adv-y="1000"  />

      
      <glyph glyph-name="unie9" unicode="&#xe9;" d="M118 203Q118 168 127.50 137Q137 106 156.50 83Q176 60 206 46Q236 32 278 32Q315 32 341.50 40Q368 48 386.50 61.50Q405 75 417 94Q429 113 437 135L494 135Q482 102 465 74Q448 46 422 26Q396 6 360-5Q324-16 274-16Q220-16 179.50 2Q139 20 112 50.50Q85 81 71.50 120.50Q58 160 58 204Q58 283 80 344Q102 405 140 446.50Q178 488 228.50 509.50Q279 531 337 531Q385 531 421.50 515.50Q458 500 482 473.50Q506 447 518 411Q530 375 530 334Q530 319 529 297.50Q528 276 525 259L522 243L119 243Q118 233 118 223.50Q118 214 118 203M332 484Q253 484 199.50 434Q146 384 127 293L471 293Q473 302 473.50 315Q474 328 474 339Q474 370 465.50 396.50Q457 423 439 442.50Q421 462 394.50 473Q368 484 332 484M282 590L415 724L497 724L348 590L282 590Z"  horiz-adv-x="560" vert-adv-y="1000"  />

      
      <glyph glyph-name="uniea" unicode="&#xea;" d="M118 203Q118 168 127.50 137Q137 106 156.50 83Q176 60 206 46Q236 32 278 32Q315 32 341.50 40Q368 48 386.50 61.50Q405 75 417 94Q429 113 437 135L494 135Q482 102 465 74Q448 46 422 26Q396 6 360-5Q324-16 274-16Q220-16 179.50 2Q139 20 112 50.50Q85 81 71.50 120.50Q58 160 58 204Q58 283 80 344Q102 405 140 446.50Q178 488 228.50 509.50Q279 531 337 531Q385 531 421.50 515.50Q458 500 482 473.50Q506 447 518 411Q530 375 530 334Q530 319 529 297.50Q528 276 525 259L522 243L119 243Q118 233 118 223.50Q118 214 118 203M332 484Q253 484 199.50 434Q146 384 127 293L471 293Q473 302 473.50 315Q474 328 474 339Q474 370 465.50 396.50Q457 423 439 442.50Q421 462 394.50 473Q368 484 332 484M206 590L347 724L404 724L488 590L431 590L370 680L267 590L206 590Z"  horiz-adv-x="560" vert-adv-y="1000"  />

      
      <glyph glyph-name="unieb" unicode="&#xeb;" d="M118 203Q118 168 127.50 137Q137 106 156.50 83Q176 60 206 46Q236 32 278 32Q315 32 341.50 40Q368 48 386.50 61.50Q405 75 417 94Q429 113 437 135L494 135Q482 102 465 74Q448 46 422 26Q396 6 360-5Q324-16 274-16Q220-16 179.50 2Q139 20 112 50.50Q85 81 71.50 120.50Q58 160 58 204Q58 283 80 344Q102 405 140 446.50Q178 488 228.50 509.50Q279 531 337 531Q385 531 421.50 515.50Q458 500 482 473.50Q506 447 518 411Q530 375 530 334Q530 319 529 297.50Q528 276 525 259L522 243L119 243Q118 233 118 223.50Q118 214 118 203M332 484Q253 484 199.50 434Q146 384 127 293L471 293Q473 302 473.50 315Q474 328 474 339Q474 370 465.50 396.50Q457 423 439 442.50Q421 462 394.50 473Q368 484 332 484M235 619L253 704L318 704L300 619L235 619M395 619L413 704L479 704L461 619L395 619Z"  horiz-adv-x="560" vert-adv-y="1000"  />

      
      <glyph glyph-name="uniec" unicode="&#xec;" d="M33 0L142 515L200 515L91 0L33 0M153 590L48 724L122 724L211 590L153 590Z"  horiz-adv-x="204" vert-adv-y="1000"  />

      
      <glyph glyph-name="unied" unicode="&#xed;" d="M33 0L142 515L200 515L91 0L33 0M132 590L265 724L347 724L198 590L132 590Z"  horiz-adv-x="204" vert-adv-y="1000"  />

      
      <glyph glyph-name="uniee" unicode="&#xee;" d="M33 0L142 515L200 515L91 0L33 0M32 590L173 724L230 724L314 590L257 590L196 680L93 590L32 590Z"  horiz-adv-x="204" vert-adv-y="1000"  />

      
      <glyph glyph-name="unief" unicode="&#xef;" d="M33 0L142 515L200 515L91 0L33 0M66 619L84 704L149 704L131 619L66 619M226 619L244 704L310 704L292 619L226 619Z"  horiz-adv-x="204" vert-adv-y="1000"  />

      
      <glyph glyph-name="unif0" unicode="&#xf0;" d="M285 583L353 642Q299 668 229 675L240 724Q287 719 325 707.50Q363 696 395 679L478 751L510 716L436 652Q473 623 497 585.50Q521 548 535 505Q549 462 555 414Q561 366 561 317Q561 242 539 180.50Q517 119 478 75.50Q439 32 386 8Q333-16 271-16Q224-16 185-0.50Q146 15 118 42.50Q90 70 74.50 107.50Q59 145 59 188Q59 252 81 307.50Q103 363 140.50 404Q178 445 229 468Q280 491 338 491Q388 491 426.50 473.50Q465 456 492 426Q485 493 460.50 540Q436 587 395 617L317 549L285 583M276 34Q326 34 367 54Q408 74 437.50 108.50Q467 143 483 190.50Q499 238 499 292Q499 324 489 350Q479 376 454 399Q408 441 333 441Q283 441 244 420Q205 399 177.50 364Q150 329 135.50 284.50Q121 240 121 193Q121 160 131 131.50Q141 103 161 81Q181 59 209.50 46.50Q238 34 276 34Z"  horiz-adv-x="593" vert-adv-y="1000"  />

      
      <glyph glyph-name="unif1" unicode="&#xf1;" d="M391 0L459 319Q462 333 464 347Q466 361 466 375Q466 422 444.50 450.50Q423 479 369 479Q340 479 305.50 467Q271 455 239 430Q207 404 183.50 376.50Q160 349 150 302L86 0L28 0L137 515L195 515L177 431Q227 485 279 508Q331 531 378 531Q450 531 487.50 492Q525 453 525 384Q525 358 519 330L449 0L391 0M451 604Q427 604 409 613Q391 622 375.50 632.50Q360 643 345.50 652Q331 661 315 661Q289 661 277.50 648Q266 635 261 606L213 606Q221 657 244 683.50Q267 710 314 710Q338 710 356 701Q374 692 389.50 681.50Q405 671 419.50 662Q434 653 450 653Q476 653 487.50 666Q499 679 504 708L552 708Q544 657 521 630.50Q498 604 451 604Z"  horiz-adv-x="558" vert-adv-y="1000"  />

      
      <glyph glyph-name="unif2" unicode="&#xf2;" d="M266 34Q318 34 360.50 55.50Q403 77 433 114.50Q463 152 479.50 203Q496 254 496 312Q496 387 458.50 434Q421 481 348 481Q296 481 253.50 459.50Q211 438 181 400.50Q151 363 134.50 312Q118 261 118 203Q118 128 155.50 81Q193 34 266 34M261-16Q216-16 178.50-0.50Q141 15 114 43Q87 71 71.50 110.50Q56 150 56 198Q56 275 79.50 336.50Q103 398 143.50 441.50Q184 485 238 508Q292 531 353 531Q398 531 435.50 515.50Q473 500 500 472Q527 444 542.50 404.50Q558 365 558 317Q558 240 535 178.50Q512 117 472.50 73.50Q433 30 378.50 7Q324-16 261-16M367 590L262 724L336 724L425 590L367 590Z"  horiz-adv-x="593" vert-adv-y="1000"  />

      
      <glyph glyph-name="unif3" unicode="&#xf3;" d="M266 34Q318 34 360.50 55.50Q403 77 433 114.50Q463 152 479.50 203Q496 254 496 312Q496 387 458.50 434Q421 481 348 481Q296 481 253.50 459.50Q211 438 181 400.50Q151 363 134.50 312Q118 261 118 203Q118 128 155.50 81Q193 34 266 34M261-16Q216-16 178.50-0.50Q141 15 114 43Q87 71 71.50 110.50Q56 150 56 198Q56 275 79.50 336.50Q103 398 143.50 441.50Q184 485 238 508Q292 531 353 531Q398 531 435.50 515.50Q473 500 500 472Q527 444 542.50 404.50Q558 365 558 317Q558 240 535 178.50Q512 117 472.50 73.50Q433 30 378.50 7Q324-16 261-16M308 590L441 724L523 724L374 590L308 590Z"  horiz-adv-x="593" vert-adv-y="1000"  />

      
      <glyph glyph-name="unif4" unicode="&#xf4;" d="M266 34Q318 34 360.50 55.50Q403 77 433 114.50Q463 152 479.50 203Q496 254 496 312Q496 387 458.50 434Q421 481 348 481Q296 481 253.50 459.50Q211 438 181 400.50Q151 363 134.50 312Q118 261 118 203Q118 128 155.50 81Q193 34 266 34M261-16Q216-16 178.50-0.50Q141 15 114 43Q87 71 71.50 110.50Q56 150 56 198Q56 275 79.50 336.50Q103 398 143.50 441.50Q184 485 238 508Q292 531 353 531Q398 531 435.50 515.50Q473 500 500 472Q527 444 542.50 404.50Q558 365 558 317Q558 240 535 178.50Q512 117 472.50 73.50Q433 30 378.50 7Q324-16 261-16M220 590L361 724L418 724L502 590L445 590L384 680L281 590L220 590Z"  horiz-adv-x="593" vert-adv-y="1000"  />

      
      <glyph glyph-name="unif5" unicode="&#xf5;" d="M266 34Q318 34 360.50 55.50Q403 77 433 114.50Q463 152 479.50 203Q496 254 496 312Q496 387 458.50 434Q421 481 348 481Q296 481 253.50 459.50Q211 438 181 400.50Q151 363 134.50 312Q118 261 118 203Q118 128 155.50 81Q193 34 266 34M261-16Q216-16 178.50-0.50Q141 15 114 43Q87 71 71.50 110.50Q56 150 56 198Q56 275 79.50 336.50Q103 398 143.50 441.50Q184 485 238 508Q292 531 353 531Q398 531 435.50 515.50Q473 500 500 472Q527 444 542.50 404.50Q558 365 558 317Q558 240 535 178.50Q512 117 472.50 73.50Q433 30 378.50 7Q324-16 261-16M444 604Q420 604 402 613Q384 622 368.50 632.50Q353 643 338.50 652Q324 661 308 661Q282 661 270.50 648Q259 635 254 606L206 606Q214 657 237 683.50Q260 710 307 710Q331 710 349 701Q367 692 382.50 681.50Q398 671 412.50 662Q427 653 443 653Q469 653 480.50 666Q492 679 497 708L545 708Q537 657 514 630.50Q491 604 444 604Z"  horiz-adv-x="593" vert-adv-y="1000"  />

      
      <glyph glyph-name="unif6" unicode="&#xf6;" d="M266 34Q318 34 360.50 55.50Q403 77 433 114.50Q463 152 479.50 203Q496 254 496 312Q496 387 458.50 434Q421 481 348 481Q296 481 253.50 459.50Q211 438 181 400.50Q151 363 134.50 312Q118 261 118 203Q118 128 155.50 81Q193 34 266 34M261-16Q216-16 178.50-0.50Q141 15 114 43Q87 71 71.50 110.50Q56 150 56 198Q56 275 79.50 336.50Q103 398 143.50 441.50Q184 485 238 508Q292 531 353 531Q398 531 435.50 515.50Q473 500 500 472Q527 444 542.50 404.50Q558 365 558 317Q558 240 535 178.50Q512 117 472.50 73.50Q433 30 378.50 7Q324-16 261-16M254 619L272 704L337 704L319 619L254 619M414 619L432 704L498 704L480 619L414 619Z"  horiz-adv-x="593" vert-adv-y="1000"  />

      
      <glyph glyph-name="unif7" unicode="&#xf7;" d="M321 479L340 565L411 565L392 479L321 479M244 115L262 201L333 201L315 115L244 115M107 313L119 368L549 368L537 313L107 313Z"  horiz-adv-x="592" vert-adv-y="1000"  />

      
      <glyph glyph-name="unif8" unicode="&#xf8;" d="M517 455Q538 428 549.50 393.50Q561 359 561 317Q561 240 538 178.50Q515 117 475.50 73.50Q436 30 381.50 7Q327-16 264-16Q228-16 197-6Q166 4 141 22L84-43L46-12L105 56Q83 83 71 119Q59 155 59 198Q59 275 82.50 336.50Q106 398 146.50 441.50Q187 485 241 508Q295 531 356 531Q393 531 424.50 520.50Q456 510 482 490L539 555L577 524L517 455M121 203Q121 144 144 101L446 449Q428 464 404 472.50Q380 481 351 481Q299 481 256.50 459.50Q214 438 184 400.50Q154 363 137.50 312Q121 261 121 203M269 34Q321 34 363.50 55.50Q406 77 436 114.50Q466 152 482.50 203Q499 254 499 312Q499 367 477 409L176 63Q213 34 269 34Z"  horiz-adv-x="593" vert-adv-y="1000"  />

      
      <glyph glyph-name="unif9" unicode="&#xf9;" d="M193 515L124 191Q122 179 120.50 164Q119 149 119 135Q119 115 123 97.50Q127 80 137.50 66Q148 52 166 44Q184 36 211 36Q240 36 272 47.50Q304 59 335 85Q366 111 389 138.50Q412 166 422 213L486 515L544 515L435 0L377 0L395 84Q347 30 298 7Q249-16 202-16Q165-16 138-5Q111 6 93.50 25.50Q76 45 67.50 71.50Q59 98 59 129Q59 142 60.50 156.50Q62 171 65 185L135 515L193 515M334 590L229 724L303 724L392 590L334 590Z"  horiz-adv-x="547" vert-adv-y="1000"  />

      
      <glyph glyph-name="unifa" unicode="&#xfa;" d="M193 515L124 191Q122 179 120.50 164Q119 149 119 135Q119 115 123 97.50Q127 80 137.50 66Q148 52 166 44Q184 36 211 36Q240 36 272 47.50Q304 59 335 85Q366 111 389 138.50Q412 166 422 213L486 515L544 515L435 0L377 0L395 84Q347 30 298 7Q249-16 202-16Q165-16 138-5Q111 6 93.50 25.50Q76 45 67.50 71.50Q59 98 59 129Q59 142 60.50 156.50Q62 171 65 185L135 515L193 515M284 590L417 724L499 724L350 590L284 590Z"  horiz-adv-x="547" vert-adv-y="1000"  />

      
      <glyph glyph-name="unifb" unicode="&#xfb;" d="M193 515L124 191Q122 179 120.50 164Q119 149 119 135Q119 115 123 97.50Q127 80 137.50 66Q148 52 166 44Q184 36 211 36Q240 36 272 47.50Q304 59 335 85Q366 111 389 138.50Q412 166 422 213L486 515L544 515L435 0L377 0L395 84Q347 30 298 7Q249-16 202-16Q165-16 138-5Q111 6 93.50 25.50Q76 45 67.50 71.50Q59 98 59 129Q59 142 60.50 156.50Q62 171 65 185L135 515L193 515M200 590L341 724L398 724L482 590L425 590L364 680L261 590L200 590Z"  horiz-adv-x="547" vert-adv-y="1000"  />

      
      <glyph glyph-name="unifc" unicode="&#xfc;" d="M193 515L124 191Q122 179 120.50 164Q119 149 119 135Q119 115 123 97.50Q127 80 137.50 66Q148 52 166 44Q184 36 211 36Q240 36 272 47.50Q304 59 335 85Q366 111 389 138.50Q412 166 422 213L486 515L544 515L435 0L377 0L395 84Q347 30 298 7Q249-16 202-16Q165-16 138-5Q111 6 93.50 25.50Q76 45 67.50 71.50Q59 98 59 129Q59 142 60.50 156.50Q62 171 65 185L135 515L193 515M232 619L250 704L315 704L297 619L232 619M392 619L410 704L476 704L458 619L392 619Z"  horiz-adv-x="547" vert-adv-y="1000"  />

      
      <glyph glyph-name="unifd" unicode="&#xfd;" d="M182 7L69 515L132 515L226 73L486 515L555 515L197-68Q178-97 162.50-120.50Q147-144 130.50-160.50Q114-177 95-185.50Q76-194 50-194Q27-194 8.50-190Q-10-186-24-179L-5-132Q4-136 16-139.50Q28-143 43-143Q61-143 73-138.50Q85-134 96-124Q107-114 118-97Q129-80 145-54L182 7M245 590L378 724L460 724L311 590L245 590Z"  horiz-adv-x="498" vert-adv-y="1000"  />

      
      <glyph glyph-name="unife" unicode="&#xfe;" d="M46-194L-12-194L181 714L239 714L181 438Q221 483 267 507Q313 531 370 531Q421 531 456 512.50Q491 494 512.50 463.50Q534 433 543.50 394Q553 355 553 315Q553 256 535 197Q517 138 481.50 91Q446 44 393.50 14Q341-16 273-16Q221-16 176 7.50Q131 31 104 79L46-194M276 34Q324 34 363.50 56.50Q403 79 431.50 117.50Q460 156 475.50 206Q491 256 491 312Q491 397 457.50 439Q424 481 363 481Q331 481 306 473Q281 465 253 446Q214 420 186 380.50Q158 341 145 280L136 237Q127 198 127 169Q127 135 138 112Q149 89 171 69Q191 52 216.50 43Q242 34 276 34Z"  horiz-adv-x="583" vert-adv-y="1000"  />

      
      <glyph glyph-name="uniff" unicode="&#xff;" d="M182 7L69 515L132 515L226 73L486 515L555 515L197-68Q178-97 162.50-120.50Q147-144 130.50-160.50Q114-177 95-185.50Q76-194 50-194Q27-194 8.50-190Q-10-186-24-179L-5-132Q4-136 16-139.50Q28-143 43-143Q61-143 73-138.50Q85-134 96-124Q107-114 118-97Q129-80 145-54L182 7M201 619L219 704L284 704L266 619L201 619M361 619L379 704L445 704L427 619L361 619Z"  horiz-adv-x="498" vert-adv-y="1000"  />

      
      <glyph glyph-name="uni0100" unicode="&#x0100;" d="M406 714L478 714L609 0L546 0L506 218L170 218L39 0L-28 0L406 714M204 274L496 274L428 647L204 274M308 798L319 851L601 851L590 798L308 798Z"  horiz-adv-x="661" vert-adv-y="1000"  />

      
      <glyph glyph-name="uni0101" unicode="&#x0101;" d="M25 123Q25 177 47 212.50Q69 248 108.50 270.50Q148 293 202 303Q256 313 320 316L424 320L426 330Q428 343 430 355.50Q432 368 432 379Q432 424 406 453Q380 482 313 482Q276 482 250 477.50Q224 473 206 463Q188 453 175.50 436Q163 419 153 394L99 403Q123 473 175.50 502Q228 531 318 531Q407 531 449 489.50Q491 448 491 379Q491 365 489 350.50Q487 336 484 321L416 0L358 0L373 73Q338 38 292 13Q246-12 178-12Q111-12 68 24.50Q25 61 25 123M186 40Q219 40 251.50 47.50Q284 55 309 72Q329 85 343.50 97.50Q358 110 368.50 124Q379 138 386.50 156Q394 174 399 198L415 274L319 270Q253 267 208.50 257.50Q164 248 137 230.50Q110 213 98.50 186.50Q87 160 87 124Q87 90 109 65Q131 40 186 40M218 678L462 678L451 627L207 627L218 678Z"  horiz-adv-x="525" vert-adv-y="1000"  />

      
      <glyph glyph-name="uni0102" unicode="&#x0102;" d="M406 714L478 714L609 0L546 0L506 218L170 218L39 0L-28 0L406 714M204 274L496 274L428 647L204 274M476 774Q425 774 395.50 799.50Q366 825 366 873Q366 886 369 903L417 903Q414 889 414 879Q414 847 431.50 832.50Q449 818 478 818Q513 818 539 836.50Q565 855 573 903L621 903Q608 834 572 804Q536 774 476 774Z"  horiz-adv-x="661" vert-adv-y="1000"  />

      
      <glyph glyph-name="uni0103" unicode="&#x0103;" d="M25 123Q25 177 47 212.50Q69 248 108.50 270.50Q148 293 202 303Q256 313 320 316L424 320L426 330Q428 343 430 355.50Q432 368 432 379Q432 424 406 453Q380 482 313 482Q276 482 250 477.50Q224 473 206 463Q188 453 175.50 436Q163 419 153 394L99 403Q123 473 175.50 502Q228 531 318 531Q407 531 449 489.50Q491 448 491 379Q491 365 489 350.50Q487 336 484 321L416 0L358 0L373 73Q338 38 292 13Q246-12 178-12Q111-12 68 24.50Q25 61 25 123M186 40Q219 40 251.50 47.50Q284 55 309 72Q329 85 343.50 97.50Q358 110 368.50 124Q379 138 386.50 156Q394 174 399 198L415 274L319 270Q253 267 208.50 257.50Q164 248 137 230.50Q110 213 98.50 186.50Q87 160 87 124Q87 90 109 65Q131 40 186 40M336 589Q285 589 255.50 615.50Q226 642 226 690Q226 703 229 720L277 720Q274 706 274 696Q274 664 291.50 648Q309 632 338 632Q373 632 399 652Q425 672 433 720L481 720Q468 651 432 620Q396 589 336 589Z"  horiz-adv-x="525" vert-adv-y="1000"  />

      
      <glyph glyph-name="uni0104" unicode="&#x0104;" d="M586-175Q580-176 573-176.50Q566-177 556-177Q518-177 495.50-158Q473-139 473-109Q473-79 490-52.50Q507-26 548 0L546 0L506 218L170 218L39 0L-28 0L406 714L478 714L609 0Q532-53 532-94Q532-110 542-119.50Q552-129 572-129Q577-129 584-128.50Q591-128 597-127L586-175M204 274L496 274L428 647L204 274Z"  horiz-adv-x="661" vert-adv-y="1000"  />

      
      <glyph glyph-name="uni0105" unicode="&#x0105;" d="M393-170Q387-171 380-171.50Q373-172 364-172Q326-172 304.50-153.50Q283-135 283-106Q283-77 300.50-51.50Q318-26 358 0L373 73Q338 38 292 13Q246-12 178-12Q111-12 68 24.50Q25 61 25 123Q25 177 47 212.50Q69 248 108.50 270.50Q148 293 202 303Q256 313 320 316L424 320L426 330Q428 343 430 355.50Q432 368 432 379Q432 424 406 453Q380 482 313 482Q276 482 250 477.50Q224 473 206 463Q188 453 175.50 436Q163 419 153 394L99 403Q123 473 175.50 502Q228 531 318 531Q407 531 449 489.50Q491 448 491 379Q491 365 489 350.50Q487 336 484 321L416 0L415 0Q377-26 358.50-48Q340-70 340-91Q340-125 379-125Q384-125 391-124.50Q398-124 403-123L393-170M186 40Q219 40 251.50 47.50Q284 55 309 72Q329 85 343.50 97.50Q358 110 368.50 124Q379 138 386.50 156Q394 174 399 198L415 274L319 270Q253 267 208.50 257.50Q164 248 137 230.50Q110 213 98.50 186.50Q87 160 87 124Q87 90 109 65Q131 40 186 40Z"  horiz-adv-x="525" vert-adv-y="1000"  />

      
      <glyph glyph-name="uni0106" unicode="&#x0106;" d="M667 219Q655 169 630 125.50Q605 82 566.50 50Q528 18 476 0Q424-18 357-18Q298-18 247 2Q196 22 158.50 59.50Q121 97 100 151.50Q79 206 79 275Q79 366 104.50 449Q130 532 179 595Q228 658 298 695Q368 732 458 732Q570 732 633.50 671.50Q697 611 708 501L647 489Q634 586 589 632.50Q544 679 453 679Q382 679 325 647.50Q268 616 228 562Q188 508 166.50 435.50Q145 363 145 281Q145 230 159 185.50Q173 141 200 107.50Q227 74 267.50 55Q308 36 361 36Q413 36 453 49.50Q493 63 522.50 87.50Q552 112 571.50 145.50Q591 179 600 219L667 219M415 774L548 903L629 903L479 774L415 774Z"  horiz-adv-x="709" vert-adv-y="1000"  />

      
      <glyph glyph-name="uni0107" unicode="&#x0107;" d="M477 349Q474 373 467 396.50Q460 420 445 438.50Q430 457 405 469Q380 481 341 481Q291 481 250.50 460.50Q210 440 181 403.50Q152 367 136.50 316Q121 265 121 205Q121 169 129 137.50Q137 106 155 83Q173 60 201.50 47Q230 34 271 34Q309 34 337.50 44Q366 54 386.50 71.50Q407 89 420.50 112.50Q434 136 443 162L502 162Q490 123 470 90.50Q450 58 421 34.50Q392 11 353-2.50Q314-16 265-16Q214-16 175.50 1Q137 18 110.50 47Q84 76 71 115Q58 154 58 199Q58 278 81 339.50Q104 401 143 443.50Q182 486 233.50 508.50Q285 531 342 531Q391 531 426 517Q461 503 483.50 479Q506 455 517.50 424Q529 393 532 360L477 349M294 590L427 724L509 724L360 590L294 590Z"  horiz-adv-x="554" vert-adv-y="1000"  />

      
      <glyph glyph-name="uni0108" unicode="&#x0108;" d="M667 219Q655 169 630 125.50Q605 82 566.50 50Q528 18 476 0Q424-18 357-18Q298-18 247 2Q196 22 158.50 59.50Q121 97 100 151.50Q79 206 79 275Q79 366 104.50 449Q130 532 179 595Q228 658 298 695Q368 732 458 732Q570 732 633.50 671.50Q697 611 708 501L647 489Q634 586 589 632.50Q544 679 453 679Q382 679 325 647.50Q268 616 228 562Q188 508 166.50 435.50Q145 363 145 281Q145 230 159 185.50Q173 141 200 107.50Q227 74 267.50 55Q308 36 361 36Q413 36 453 49.50Q493 63 522.50 87.50Q552 112 571.50 145.50Q591 179 600 219L667 219M325 774L464 903L521 903L606 774L546 774L487 857L387 774L325 774Z"  horiz-adv-x="709" vert-adv-y="1000"  />

      
      <glyph glyph-name="uni0109" unicode="&#x0109;" d="M477 349Q474 373 467 396.50Q460 420 445 438.50Q430 457 405 469Q380 481 341 481Q291 481 250.50 460.50Q210 440 181 403.50Q152 367 136.50 316Q121 265 121 205Q121 169 129 137.50Q137 106 155 83Q173 60 201.50 47Q230 34 271 34Q309 34 337.50 44Q366 54 386.50 71.50Q407 89 420.50 112.50Q434 136 443 162L502 162Q490 123 470 90.50Q450 58 421 34.50Q392 11 353-2.50Q314-16 265-16Q214-16 175.50 1Q137 18 110.50 47Q84 76 71 115Q58 154 58 199Q58 278 81 339.50Q104 401 143 443.50Q182 486 233.50 508.50Q285 531 342 531Q391 531 426 517Q461 503 483.50 479Q506 455 517.50 424Q529 393 532 360L477 349M216 590L357 724L414 724L498 590L441 590L380 680L277 590L216 590Z"  horiz-adv-x="554" vert-adv-y="1000"  />

      
      <glyph glyph-name="uni010A" unicode="&#x010A;" d="M667 219Q655 169 630 125.50Q605 82 566.50 50Q528 18 476 0Q424-18 357-18Q298-18 247 2Q196 22 158.50 59.50Q121 97 100 151.50Q79 206 79 275Q79 366 104.50 449Q130 532 179 595Q228 658 298 695Q368 732 458 732Q570 732 633.50 671.50Q697 611 708 501L647 489Q634 586 589 632.50Q544 679 453 679Q382 679 325 647.50Q268 616 228 562Q188 508 166.50 435.50Q145 363 145 281Q145 230 159 185.50Q173 141 200 107.50Q227 74 267.50 55Q308 36 361 36Q413 36 453 49.50Q493 63 522.50 87.50Q552 112 571.50 145.50Q591 179 600 219L667 219M439 794L458 883L526 883L507 794L439 794Z"  horiz-adv-x="709" vert-adv-y="1000"  />

      
      <glyph glyph-name="uni010B" unicode="&#x010B;" d="M477 349Q474 373 467 396.50Q460 420 445 438.50Q430 457 405 469Q380 481 341 481Q291 481 250.50 460.50Q210 440 181 403.50Q152 367 136.50 316Q121 265 121 205Q121 169 129 137.50Q137 106 155 83Q173 60 201.50 47Q230 34 271 34Q309 34 337.50 44Q366 54 386.50 71.50Q407 89 420.50 112.50Q434 136 443 162L502 162Q490 123 470 90.50Q450 58 421 34.50Q392 11 353-2.50Q314-16 265-16Q214-16 175.50 1Q137 18 110.50 47Q84 76 71 115Q58 154 58 199Q58 278 81 339.50Q104 401 143 443.50Q182 486 233.50 508.50Q285 531 342 531Q391 531 426 517Q461 503 483.50 479Q506 455 517.50 424Q529 393 532 360L477 349M322 618L340 705L406 705L388 618L322 618Z"  horiz-adv-x="554" vert-adv-y="1000"  />

      
      <glyph glyph-name="uni010C" unicode="&#x010C;" d="M667 219Q655 169 630 125.50Q605 82 566.50 50Q528 18 476 0Q424-18 357-18Q298-18 247 2Q196 22 158.50 59.50Q121 97 100 151.50Q79 206 79 275Q79 366 104.50 449Q130 532 179 595Q228 658 298 695Q368 732 458 732Q570 732 633.50 671.50Q697 611 708 501L647 489Q634 586 589 632.50Q544 679 453 679Q382 679 325 647.50Q268 616 228 562Q188 508 166.50 435.50Q145 363 145 281Q145 230 159 185.50Q173 141 200 107.50Q227 74 267.50 55Q308 36 361 36Q413 36 453 49.50Q493 63 522.50 87.50Q552 112 571.50 145.50Q591 179 600 219L667 219M637 906L498 777L441 777L356 906L416 906L475 823L575 906L637 906Z"  horiz-adv-x="709" vert-adv-y="1000"  />

      
      <glyph glyph-name="uni010D" unicode="&#x010D;" d="M477 349Q474 373 467 396.50Q460 420 445 438.50Q430 457 405 469Q380 481 341 481Q291 481 250.50 460.50Q210 440 181 403.50Q152 367 136.50 316Q121 265 121 205Q121 169 129 137.50Q137 106 155 83Q173 60 201.50 47Q230 34 271 34Q309 34 337.50 44Q366 54 386.50 71.50Q407 89 420.50 112.50Q434 136 443 162L502 162Q490 123 470 90.50Q450 58 421 34.50Q392 11 353-2.50Q314-16 265-16Q214-16 175.50 1Q137 18 110.50 47Q84 76 71 115Q58 154 58 199Q58 278 81 339.50Q104 401 143 443.50Q182 486 233.50 508.50Q285 531 342 531Q391 531 426 517Q461 503 483.50 479Q506 455 517.50 424Q529 393 532 360L477 349M527 726L386 592L329 592L245 726L302 726L363 636L466 726L527 726Z"  horiz-adv-x="554" vert-adv-y="1000"  />

      
      <glyph glyph-name="uni010E" unicode="&#x010E;" d="M42 0L193 714L419 714Q481 714 531.50 693Q582 672 618 634.50Q654 597 673.50 545Q693 493 693 430Q693 340 667.50 261.50Q642 183 589 125Q536 67 455 33.50Q374 0 264 0L42 0M273 54Q361 54 427.50 80.50Q494 107 539 156.50Q584 206 606.50 275.50Q629 345 629 432Q629 479 615 520.50Q601 562 574 593.50Q547 625 506.50 643Q466 661 413 661L243 661L114 54L273 54M573 906L434 777L377 777L292 906L352 906L411 823L511 906L573 906Z"  horiz-adv-x="702" vert-adv-y="1000"  />

      
      <glyph glyph-name="uni010F" unicode="&#x010F;" d="M429 77Q391 29 346.50 6.50Q302-16 245-16Q194-16 158 3.50Q122 23 99.50 53.50Q77 84 67 123Q57 162 57 201Q57 260 75.50 319Q94 378 129.50 425Q165 472 217 501.50Q269 531 337 531Q389 531 434 507Q479 483 506 435L565 714L623 714L471 0L413 0L429 77M474 278Q483 318 483 348Q483 380 472 403.50Q461 427 439 446Q419 463 393.50 472Q368 481 334 481Q286 481 246.50 459Q207 437 178.50 399Q150 361 134.50 310.50Q119 260 119 203Q119 121 155 77.50Q191 34 254 34Q286 34 310 41Q334 48 360 66Q398 93 425 133.50Q452 174 465 235L474 278M648 532L711 714L774 714L698 532L648 532Z"  horiz-adv-x="581" vert-adv-y="1000"  />

      
      </font>
</defs>
</svg>
