<?xml version="1.0" standalone="no"?>
  <!DOCTYPE svg PUBLIC "-//W3C//DTD SVG 1.1//EN" "http://www.w3.org/Graphics/SVG/1.1/DTD/svg11.dtd" >
  <svg>
  <metadata>
  Created by font-carrier
  </metadata>
  <defs>
  <font id="icomoon" horiz-adv-x="5120" vert-adv-y="5120" >
    <font-face
      
      font-family="icomoon"
      
      font-weight="400"
      
      font-stretch="normal"
      
      units-per-em="1024"
      
      ascent="960"
      
      descent="-64"
      
    />
      <missing-glyph />

      
      <glyph glyph-name="x" unicode="&#x78;" horiz-adv-x="100"
        d="M20 20 L50 20 L50 -20 Z" />
      

      
      <glyph glyph-name="uni0" unicode="&#x0;" d="M0 0L0 0L0 0L0 0Z"   vert-adv-y="1024"  />

      
      <glyph glyph-name="uni1" unicode="&#x1;" d="M0 0L0 0L0 0L0 0Z"   vert-adv-y="1024"  />

      
      <glyph glyph-name="uni20" unicode="&#x20;" d="M0 0L0 0L0 0L0 0Z"  horiz-adv-x="512" vert-adv-y="1024"  />

      
      <glyph glyph-name="uniE900" unicode="&#xE900;" d="M875 567L498 944Q491 951 481 955.50Q471 960 460 960Q448 960 438.50 955.50Q429 951 421 944L44 567Q37 560 32.50 550Q28 540 28 529Q28 506 44 490.50Q60 475 83 475Q94 475 103.50 479Q113 483 121 490L121 490L406 776L406-10Q406-32 421.50-48Q437-64 460-64Q482-64 498-48Q514-32 514-10L514-10L514 776L799 491Q806 485 815 481.50Q824 478 834 478Q856 478 872 494Q888 510 888 532Q888 542 884.50 551Q881 560 875 567L875 567L875 567Z"  horiz-adv-x="916" vert-adv-y="1024"  />

      
      <glyph glyph-name="uniE901" unicode="&#xE901;" d="M41 329L418-48Q425-55 435-59.50Q445-64 456-64Q468-64 477.50-59.50Q487-55 495-48L872 329Q879 336 883.50 346Q888 356 888 367Q888 390 872 405.50Q856 421 833 421Q822 421 812.50 417Q803 413 795 406L795 406L510 120L510 906Q510 928 494.50 944Q479 960 456 960Q434 960 418 944Q402 928 402 906L402 906L402 120L117 405Q110 411 101 414.50Q92 418 82 418Q60 418 44 402Q28 386 28 364Q28 354 31.50 345Q35 336 41 329L41 329L41 329Z"  horiz-adv-x="916" vert-adv-y="1024"  />

      
      <glyph glyph-name="uniE902" unicode="&#xE902;" d="M0 933L1293 933L1293 825L0 825L0 933L0 933M0 502L1293 502L1293 394L0 394L0 502L0 502M0 71L1293 71L1293-37L0-37L0 71L0 71Z"  horiz-adv-x="1293" vert-adv-y="1024"  />

      
      <glyph glyph-name="uniE903" unicode="&#xE903;" d="M1312 960L131 960Q82 960 47.50 925.50Q13 891 13 842L13 842L13 763L1430 763L1430 842Q1430 891 1395.50 925.50Q1361 960 1312 960L1312 960L1312 960M13 54Q13 5 47.50-29.50Q82-64 131-64L131-64L1312-64Q1361-64 1395.50-29.50Q1430 5 1430 54L1430 54L1430 664L13 664L13 54Z"  horiz-adv-x="1443" vert-adv-y="1024"  />

      
      <glyph glyph-name="uniE904" unicode="&#xE904;" d="M134 960L159 960Q214 960 253.50 921Q293 882 293 826L293 801Q293 746 253.50 706.50Q214 667 159 667L134 667Q78 667 39 706.50Q0 746 0 801L0 826Q0 882 39 921Q78 960 134 960M499 960L524 960Q580 960 619 921Q658 882 658 826L658 801Q658 746 619 706.50Q580 667 524 667L499 667Q444 667 405 706.50Q366 746 366 801L366 826Q366 882 405 921Q444 960 499 960L499 960M865 960L890 960Q946 960 985 921Q1024 882 1024 826L1024 801Q1024 746 985 706.50Q946 667 890 667L865 667Q810 667 770.50 706.50Q731 746 731 801L731 826Q731 882 770.50 921Q810 960 865 960M134 594L159 594Q214 594 253.50 555Q293 516 293 461L293 436Q293 380 253.50 341Q214 302 159 302L134 302Q78 302 39 341Q0 380 0 436L0 461Q0 516 39 555Q78 594 134 594L134 594M499 594L524 594Q580 594 619 555Q658 516 658 461L658 436Q658 380 619 341Q580 302 524 302L499 302Q444 302 405 341Q366 380 366 436L366 461Q366 516 405 555Q444 594 499 594L499 594M865 594L890 594Q946 594 985 555Q1024 516 1024 461L1024 436Q1024 380 985 341Q946 302 890 302L865 302Q810 302 770.50 341Q731 380 731 436L731 461Q731 516 770.50 555Q810 594 865 594L865 594M134 229L159 229Q214 229 253.50 189.50Q293 150 293 95L293 70Q293 14 253.50-25Q214-64 159-64L134-64Q78-64 39-25Q0 14 0 70L0 95Q0 150 39 189.50Q78 229 134 229L134 229M499 229L524 229Q580 229 619 189.50Q658 150 658 95L658 70Q658 14 619-25Q580-64 524-64L499-64Q444-64 405-25Q366 14 366 70L366 95Q366 150 405 189.50Q444 229 499 229L499 229M865 229L890 229Q946 229 985 189.50Q1024 150 1024 95L1024 70Q1024 14 985-25Q946-64 890-64L865-64Q810-64 770.50-25Q731 14 731 70L731 95Q731 150 770.50 189.50Q810 229 865 229L865 229Z"  horiz-adv-x="1024" vert-adv-y="1024"  />

      
      <glyph glyph-name="uniE905" unicode="&#xE905;" d="M333 943L186 943Q110 943 56.50 889Q3 835 3 759L3 759L3 613Q3 592 18 577.50Q33 563 53 563Q74 563 89 577.50Q104 592 104 613L104 613L104 764Q105 781 111.50 795Q118 809 129 819L129 819Q139 831 153.50 837.50Q168 844 184 845L184 845L336 845Q357 845 371.50 859.50Q386 874 386 895Q386 916 371.50 931Q357 946 336 946L336 946L333 943M333 54L181 54Q165 54 150.50 61Q136 68 126 79L126 79Q115 89 108.50 103Q102 117 101 133L101 134L101 285Q101 306 86 320.50Q71 335 50 335Q30 335 15 320.50Q0 306 0 285L0 285L0 134Q0 59 53 6Q106-47 181-47Q181-47 182-47Q183-47 184-47L184-47L335-47Q356-47 371-32Q386-17 386 4Q386 25 371 39.50Q356 54 335 54L335 54L333 54M892 943L740 943Q719 943 704.50 928Q690 913 690 892Q690 871 704.50 856.50Q719 842 740 842L740 842L892 842Q908 841 922.50 834.50Q937 828 947 816L947 816Q958 806 964.50 792Q971 778 972 762L972 761L972 610Q972 589 987 574.50Q1002 560 1023 560Q1043 560 1058 574.50Q1073 589 1073 610L1073 610L1073 761Q1073 762 1073 762Q1073 762 1073 762Q1073 837 1020 890Q967 943 892 943Q892 943 892 943Q892 943 892 943L892 943L892 943M1022 333Q1001 333 986.50 318.50Q972 304 972 283L972 283L972 132Q969 99 946.50 76.50Q924 54 892 51L891 51L740 51Q719 51 704 36.50Q689 22 689 1Q689-20 704-35Q719-50 740-50L740-50L887-50Q962-49 1015.50 4Q1069 57 1069 133L1069 283Q1069 283 1069 283Q1069 283 1069 283Q1069 303 1055.50 317.50Q1042 332 1022 333L1022 333L1022 333Z"  horiz-adv-x="1073" vert-adv-y="1024"  />

      
      <glyph glyph-name="uniE906" unicode="&#xE906;" d="M601 960L141 960Q83 960 41.50 918.50Q0 877 0 819L0 819L0 77Q0 19 41.50-22.50Q83-64 141-64L141-64L601-64Q659-64 700.50-22.50Q742 19 742 77L742 77L742 819Q742 877 700.50 918.50Q659 960 601 960L601 960M671 77Q671 48 650.50 27.50Q630 7 601 7L601 7L141 7Q112 7 91.50 27.50Q71 48 71 77L71 77L71 819Q71 848 91.50 868.50Q112 889 141 889L141 889L601 889Q630 889 650.50 868.50Q671 848 671 819L671 819L671 77M424 166Q424 144 408.50 128.50Q393 113 371 113Q349 113 333.50 128.50Q318 144 318 166Q318 187 333.50 202.50Q349 218 371 218Q393 218 408.50 202.50Q424 187 424 166Z"  horiz-adv-x="742" vert-adv-y="1024"  />

      
      <glyph glyph-name="uniE907" unicode="&#xE907;" d="M395 736Q329 736 282 689Q235 642 235 576Q235 510 282 463Q329 416 395 416Q462 416 509 463Q556 510 556 576L556 576Q556 642 509 689Q462 736 396 736L395 736M396 480Q356 480 328 508Q300 536 300 576Q300 616 328 644Q356 672 395 672Q435 672 463 644Q491 616 491 576L491 576Q491 536 463 508Q435 480 396 480L396 480M396 960Q316 960 246 930Q176 900 124 847.50Q72 795 42 725Q12 656 12 576L12 576Q12 516 63 408Q114 301 180 196Q246 91 309 13Q372-64 395-64Q419-64 482 14Q545 91 611 196.50Q677 302 728 409Q779 517 779 576Q779 656 749 725Q719 795 667 847.50Q615 900 545 930Q475 960 396 960L396 960M396 32Q376 32 323 98Q271 164 216 253.50Q161 343 118 434Q76 526 76 576Q78 640 104 696Q130 753 173.50 794.50Q217 836 274 860Q331 884 396 884Q460 884 518 860Q575 836 618 794.50Q661 753 687 697Q713 641 716 577L716 576Q716 526 673 435Q630 344 575 254.50Q520 165 468 98Q415 32 395 32L396 32Z"  horiz-adv-x="791" vert-adv-y="1024"  />

      
      <glyph glyph-name="uniE908" unicode="&#xE908;" d="M768 960L0-64L1536-64L768 960Z"  horiz-adv-x="1536" vert-adv-y="1024"  />

      
      <glyph glyph-name="uniE909" unicode="&#xE909;" d="M768-64L1536 960L0 960L768-64Z"  horiz-adv-x="1536" vert-adv-y="1024"  />

      
      <glyph glyph-name="uniE90A" unicode="&#xE90A;" d="M675 337L260 337Q208 337 162 317Q116 297 81.50 262.50Q47 228 27 182Q8 136 8 84L8 84L8-19Q8-38 21-51Q34-64 52-64Q71-64 84-51Q97-38 97-19L97-19L97 84Q97 152 144.50 200Q192 248 260 248L260 248L675 248Q743 248 790.50 200Q838 152 838 84L838 84L838-19Q838-38 851-51Q864-64 883-64Q901-64 914-51Q927-38 927-19L927-19L927 84Q927 136 908 182Q888 228 853.50 262.50Q819 297 773 317Q727 337 675 337L675 337L675 337M467 455Q467 455 467.50 455Q468 455 468 455Q520 455 566 475Q612 495 646 529Q680 563 700 609Q720 655 720 708Q720 760 700 806Q680 852 646 886Q612 920 566 940Q520 960 468 960Q415 960 370 940Q324 920 289.50 886Q255 852 235 806Q215 760 215 708Q215 708 215 707.50Q215 707 215 707L215 707Q215 655 235 609Q255 563 289 529Q323 495 369 475Q415 455 467 455L467 455L467 455M467 871Q467 871 467.50 871Q468 871 468 871Q535 871 583 823Q631 775 631 707Q631 640 583 592Q535 544 468 544Q400 544 352 592Q304 640 304 707L304 707Q304 707 304 707Q304 707 304 707Q304 775 352 822.50Q400 870 467 871L467 871L467 871Z"  horiz-adv-x="935" vert-adv-y="1024"  />

      
      <glyph glyph-name="uniE90B" unicode="&#xE90B;" d="M512-64Q484-64 464-44Q444-24 444 4L444 4L444 892Q444 920 464 940Q484 960 512 960Q540 960 560 940Q580 920 580 892L580 892L580 4Q580-24 560-44Q540-64 512-64L512-64M956 380L68 380Q40 380 20 400Q0 420 0 448Q0 476 20 496Q40 516 68 516L68 516L956 516Q984 516 1004 496Q1024 476 1024 448Q1024 420 1004 400Q984 380 956 380L956 380Z"  horiz-adv-x="1024" vert-adv-y="1024"  />

      
      <glyph glyph-name="uniE90C" unicode="&#xE90C;" d="M0-64L320-64L320 256L0 256L0-64M64 192L256 192L256 0L64 0L64 192M512 896L512 960L384 960L384 896L448 896L448 832L512 832L512 896M960 512L1024 512L1024 448L960 448L960 512M128 128L192 128L192 64L128 64L128 128M960 0L1024 0L1024-64L960-64L960 0M576 704L640 704L640 640L576 640L576 704M64 576L0 576L0 512L128 512L128 576L64 576M576 960L640 960L640 768L576 768L576 960M64 384L128 384L128 320L192 320L192 512L128 512L128 448L0 448L0 320L64 320L64 384M448 640L512 640L512 704L576 704L576 768L448 768L448 832L384 832L384 704L448 704L448 640M896 192L896 128L960 128L960 64L1024 64L1024 256L960 256L960 192L896 192M832 576L832 512L768 512L768 576L640 576L640 512L576 512L576 576L384 576L384 640L320 640L320 576L256 576L256 512L320 512L320 384L384 384L384 448L448 448L448 320L512 320L512 448L704 448L704 384L576 384L576 320L704 320L704 256L768 256L768 448L832 448L832 384L896 384L896 256L960 256L960 320L1024 320L1024 384L960 384L960 448L896 448L896 512L960 512L960 576L832 576M832 832L896 832L896 768L832 768L832 832M1024 960L704 960L704 640L960 640L960 576L1024 576L1024 960M960 704L768 704L768 896L960 896L960 704M512 0L576 0L576-64L512-64L512 0M832 128L768 128L768 64L704 64L704 128L640 128L640 192L704 192L704 256L576 256L576 320L512 320L512 192L448 192L448 128L384 128L384-64L448-64L448 0L512 0L512 64L640 64L640-64L704-64L704 0L768 0L768-64L896-64L896 0L960 0L960 64L832 64L832 128M384 320L448 320L448 192L384 192L384 320M256 384L320 384L320 320L256 320L256 384M768 256L832 256L832 192L768 192L768 256M0 960L0 640L320 640L320 960L0 960M256 704L64 704L64 896L256 896L256 704M128 832L192 832L192 768L128 768L128 832Z"  horiz-adv-x="1024" vert-adv-y="1024"  />

      
      <glyph glyph-name="uniE90D" unicode="&#xE90D;" d="M533-62Q532-62 532-62Q532-62 532-62Q522-62 512.50-58Q503-54 496-47L496-47L0 449L497 946Q503 952 511.50 955Q520 958 530 958Q551 958 566 943Q581 928 581 907Q581 898 578 889.50Q575 881 569 874L569 874L145 449L569 25Q576 18 580 9Q584 0 584-11Q584-32 569-47Q554-62 533-62Q533-62 533-62Q533-62 533-62L533-62L533-62Z"  horiz-adv-x="584" vert-adv-y="1024"  />

      
      <glyph glyph-name="uniE90E" unicode="&#xE90E;" d="M512 960Q406 960 313 920Q219 880 149.50 810.50Q80 741 40 647Q0 554 0 448Q0 342 40 249Q80 155 149.50 85.50Q219 16 313-24Q406-64 512-64Q618-64 711-24Q805 16 874.50 85.50Q944 155 984 249Q1024 342 1024 448L1024 448Q1024 554 984 647Q944 741 874.50 810.50Q805 880 711 920Q618 960 512 960L512 960M512 29Q425 29 349 62Q273 95 216 152Q159 209 126 285Q93 361 93 448Q93 535 126 611Q159 687 216 744Q273 801 349 834Q425 867 512 867Q599 867 675 834Q751 801 808 744Q865 687 898 611Q931 535 931 448L931 448Q931 361 898 285Q865 209 808 152Q751 95 675 62Q599 29 512 29L512 29M512 738Q493 738 479 724.50Q465 711 465 692L465 692L465 424Q465 405 479 391Q493 377 512 377Q531 377 545 391Q559 405 559 424L559 424L559 692Q559 711 545 724.50Q531 738 512 738L512 738L512 738M512 324Q493 324 479 310Q465 296 465 277L465 277L465 231Q465 211 479 197.50Q493 184 512 184Q531 184 545 197.50Q559 211 559 231L559 231L559 277Q559 296 545 310Q531 324 512 324L512 324L512 324Z"  horiz-adv-x="1024" vert-adv-y="1024"  />

      
      <glyph glyph-name="uniE90F" unicode="&#xE90F;" d="M512-64Q406-64 313-24Q219 16 149.50 85.50Q80 155 40 249Q0 342 0 448Q0 554 40 647Q80 741 149.50 810.50Q219 880 313 920Q406 960 512 960L512 960Q536 960 552.50 943.50Q569 927 569 903Q569 880 552.50 863Q536 846 512 846L512 846Q430 846 357 815Q284 784 230 730Q176 676 145 603Q114 530 114 448Q114 366 145 293Q176 220 230 166Q284 112 357 81Q430 50 512 50Q594 50 667 81Q740 112 794 166Q848 220 879 293Q910 366 910 448L910 448Q910 472 927 488.50Q944 505 967 505Q991 505 1007.50 488.50Q1024 472 1024 448L1024 448Q1024 342 984 249Q944 155 874.50 85.50Q805 16 711-24Q618-64 512-64L512-64Z"  horiz-adv-x="1024" vert-adv-y="1024"  />

      
      <glyph glyph-name="uniE910" unicode="&#xE910;" d="M474-64Q474-64 474-64Q474-64 474-64Q458-64 443.50-57.50Q429-51 418-41L23 354Q12 365 6 379.50Q0 394 0 410Q0 443 23 466.50Q46 490 79 490Q96 490 110.50 483.50Q125 477 135 467L135 467L474 127L1288 941Q1298 950 1311 955Q1324 960 1339 960Q1372 960 1395 936.50Q1418 913 1418 881Q1418 866 1413 853Q1408 840 1399 829L1399 829L530-40Q519-51 505-57Q491-63 475-64L474-64L474-64Z"  horiz-adv-x="1418" vert-adv-y="1024"  />

      
      <glyph glyph-name="uniE911" unicode="&#xE911;" d="M636 450L999 813Q1010 825 1017 840.50Q1024 856 1024 874Q1024 909 999 934.50Q974 960 938 960Q921 960 905.50 953Q890 946 878 935L878 935L515 571L152 935Q140 946 124.50 953Q109 960 91 960Q55 960 30 935Q5 910 5 874Q5 856 11.50 840.50Q18 825 30 813L30 813L394 450L30 87Q16 75 8 58Q0 41 0 22Q0-14 25-39Q50-64 86-64Q105-64 122-56Q139-48 151-34L151-34L515 329L878-34Q889-44 903.50-49.50Q918-55 934-55Q969-55 994-29.50Q1019-4 1019 31Q1019 47 1013.50 61.50Q1008 76 999 87L999 87L636 450Z"  horiz-adv-x="1024" vert-adv-y="1024"  />

      
      <glyph glyph-name="uniE912" unicode="&#xE912;" d="M4779 789L341 789Q271 789 208 763Q146 736 100 689.50Q54 643 27 581Q0 519 0 448Q0 377 27 315Q54 253 100 206.50Q146 160 208 133Q271 107 341 107L341 107L4779 107Q4849 107 4912 133Q4974 160 5020 206.50Q5066 253 5093 315Q5120 377 5120 448Q5120 519 5093 581Q5066 643 5020 689.50Q4974 736 4912 763Q4849 789 4779 789L4779 789Z"  horiz-adv-x="5120" vert-adv-y="1024"  />

      
      <glyph glyph-name="uniE913" unicode="&#xE913;" d="M1011 25L826 210Q872 269 898.50 342.50Q925 416 925 497Q925 593 889 677Q853 762 790 824.50Q727 887 643 924Q558 960 463 960Q367 960 283 924Q198 887 135.50 824.50Q73 762 36 677Q0 593 0 497Q0 402 36 317Q73 233 135.50 170Q198 107 283 71Q367 35 463 35Q544 35 617.50 61.50Q691 88 750 135L750 134L935-51Q942-57 951-60.50Q960-64 970-64Q992-64 1008-48Q1024-32 1024-10Q1024 0 1020.50 9Q1017 18 1011 25L1011 25L1011 25M110 496Q110 496 110 496Q110 496 110 497Q110 570 138 634Q166 699 214 747Q262 795 326 823Q390 850 464 850Q537 850 601 823Q666 795 714 747Q762 699 790 634Q817 570 817 497Q817 424 789.50 359.50Q762 295 714 247L714 247Q666 199 601.50 170.50Q537 142 463 142Q390 142 326 170Q261 198 213.50 246Q166 294 138 358Q110 422 110 495Q110 495 110 495.50Q110 496 110 496L110 496L110 496Z"  horiz-adv-x="1024" vert-adv-y="1024"  />

      
      <glyph glyph-name="uniE914" unicode="&#xE914;" d="M761 611L428 944Q424 948 419.50 951Q415 954 410 956L410 956Q405 958 400 959Q395 960 389 960Q389 960 389 960Q389 960 389 960L389 960Q384 960 379 959Q374 958 369 956L370 956Q365 954 360.50 951Q356 948 352 944L19 612Q11 604 6.50 593.50Q2 583 2 571Q2 548 18 532Q34 516 57 516Q69 516 79.50 520.50Q90 525 98 533L98 533L335 772L345-9Q345-32 361-48Q377-64 400-64L400-64L400-64Q423-64 439.50-48Q456-32 456-9L456-9L446 768L682 532Q690 525 699.50 521Q709 517 720 517Q743 517 759 533Q775 549 775 572Q775 583 771 593Q767 603 760 610L760 610L761 611Z"  horiz-adv-x="777" vert-adv-y="1024"  />

      
      <glyph glyph-name="uniE915" unicode="&#xE915;" d="M761 285L428-48Q424-52 419.50-55Q415-58 410-60L410-60Q405-62 400-63Q395-64 389-64Q389-64 389-64Q389-64 389-64L389-64Q384-64 379-63Q374-62 369-60L370-60Q365-58 360.50-55Q356-52 352-48L19 284Q11 292 6.50 302.50Q2 313 2 325Q2 348 18 364Q34 380 57 380Q69 380 79.50 375.50Q90 371 98 363L98 363L335 124L345 905Q345 928 361 944Q377 960 400 960L400 960L400 960Q423 960 439.50 944Q456 928 456 905L456 905L446 128L682 364Q690 371 699.50 375Q709 379 720 379Q743 379 759 363Q775 347 775 324Q775 313 771 303Q767 293 760 286L760 286L761 285Z"  horiz-adv-x="777" vert-adv-y="1024"  />

      
      <glyph glyph-name="uniE916" unicode="&#xE916;" d="M834 652Q832 656 829.50 660Q827 664 824 667L545 946Q538 952 530 956Q522 960 512 960L140 960Q82 960 41 919Q0 878 0 820L0 820L0 76Q0 18 41-23Q82-64 140-64L140-64L698-64Q756-64 797-23Q838 18 838 76L838 76L838 634Q838 639 837 643.50Q836 648 834 652L834 652L834 652M559 801L679 681L559 681L559 801M698 29L140 29Q120 29 106.50 42.50Q93 56 93 76L93 76L93 820Q93 840 106.50 853.50Q120 867 140 867L140 867L466 867L466 634Q466 615 479.50 601.50Q493 588 512 588L512 588L745 588L745 76Q745 56 731.50 42.50Q718 29 698 29L698 29L698 29M605 448L233 448Q214 448 200 434.50Q186 421 186 401Q186 382 200 368.50Q214 355 233 355L233 355L605 355Q624 355 638 368.50Q652 382 652 401Q652 421 638 434.50Q624 448 605 448L605 448L605 448M605 262L233 262Q214 262 200 248.50Q186 235 186 215Q186 196 200 182.50Q214 169 233 169L233 169L605 169Q624 169 638 182.50Q652 196 652 215Q652 235 638 248.50Q624 262 605 262L605 262M233 541L326 541Q345 541 358.50 554.50Q372 568 372 588Q372 607 358.50 620.50Q345 634 326 634L326 634L233 634Q214 634 200 620.50Q186 607 186 588Q186 568 200 554.50Q214 541 233 541L233 541L233 541Z"  horiz-adv-x="838" vert-adv-y="1024"  />

      
      <glyph glyph-name="uniE917" unicode="&#xE917;" d="M584 586Q584 586 584 586Q584 586 584 585Q584 579 581.50 574Q579 569 576 565L576 565L291 281L7 565Q4 569 2 574Q0 579 0 584Q0 596 8.50 604.50Q17 613 29 613Q35 613 40 611.50Q45 610 48 606L48 606L291 364L534 606Q538 610 543.50 612.50Q549 615 555 615Q567 615 575.50 606.50Q584 598 584 586Q584 586 584 586Q584 586 584 586L584 586L584 586Z"  horiz-adv-x="584" vert-adv-y="1024"  />

      
      <glyph glyph-name="uniE918" unicode="&#xE918;" d="M1142-64L28-64Q17-64 10-56.50Q3-49 3-39Q3-28 10-20.50Q17-13 28-13L1142-13Q1153-13 1160-20.50Q1167-28 1167-39Q1167-49 1160-56.50Q1153-64 1142-64M382 189Q393 189 400.50 181.50Q408 174 408 164Q408 153 400.50 146Q393 139 382 139L180 139Q169 139 162 146Q155 153 155 164Q155 174 162 181.50Q169 189 180 189L205 189L205 518L180 518Q169 518 162 525.50Q155 533 155 544Q155 554 162 561.50Q169 569 180 569L382 569Q393 569 400.50 561.50Q408 554 408 544Q408 533 400.50 525.50Q393 518 382 518L357 518L357 189L382 189M306 518L256 518L256 189L306 189L306 518M686 189Q697 189 704.50 181.50Q712 174 712 164Q712 153 704.50 146Q697 139 686 139L484 139Q473 139 465.50 146Q458 153 458 164Q458 174 465.50 181.50Q473 189 484 189L509 189L509 518L484 518Q473 518 465.50 525.50Q458 533 458 544Q458 554 465.50 561.50Q473 569 484 569L686 569Q697 569 704.50 561.50Q712 554 712 544Q712 533 704.50 525.50Q697 518 686 518L661 518L661 189L686 189M610 518L560 518L560 189L610 189L610 518M1091 63Q1091 52 1084 44.50Q1077 37 1066 37L104 37Q93 37 86 44.50Q79 52 79 63Q79 73 86 80.50Q93 88 104 88L1066 88Q1077 88 1084 80.50Q1091 73 1091 63M990 189Q1001 189 1008 181.50Q1015 174 1015 164Q1015 153 1008 146Q1001 139 990 139L788 139Q777 139 769.50 146Q762 153 762 164Q762 174 769.50 181.50Q777 189 788 189L813 189L813 518L788 518Q777 518 769.50 525.50Q762 533 762 544Q762 554 769.50 561.50Q777 569 788 569L990 569Q1001 569 1008 561.50Q1015 554 1015 544Q1015 533 1008 525.50Q1001 518 990 518L965 518L965 189L990 189M914 518L864 518L864 189L914 189L914 518M53 670L585 960L1117 670L1117 620L53 620L53 670L53 670M1004 670L585 887L165 670L1004 670L1004 670Z"  horiz-adv-x="1170" vert-adv-y="1024"  />

      
      <glyph glyph-name="uniE919" unicode="&#xE919;" d="M1211 424Q1213 429 1214 435Q1215 441 1215 448Q1215 455 1214 461Q1213 467 1210 473L1211 472Q1208 478 1204.50 483.50Q1201 489 1197 493L1197 493L749 941Q741 950 729 955Q717 960 704 960Q677 960 658.50 941Q640 922 640 896Q640 882 645 870.50Q650 859 659 850L659 850L998 512L64 512Q38 512 19 493Q0 474 0 448Q0 422 19 403Q38 384 64 384L64 384L998 384L659 46Q650 37 645 25.50Q640 14 640 0Q640-13 645-24.50Q650-36 659-45L659-45Q667-54 679-59Q691-64 704-64Q717-64 729-59Q741-54 749-45L1197 403Q1201 407 1204.50 412Q1208 417 1210 423L1211 424L1211 424Z"  horiz-adv-x="1216" vert-adv-y="1024"  />

      
      <glyph glyph-name="uniE91A" unicode="&#xE91A;" d="M1413 949Q1408 954 1401 957Q1394 960 1386 960Q1379 960 1372 957Q1365 954 1360 949L452 41L64 430Q59 435 52 438Q45 441 37 441Q22 441 11 430Q0 419 0 404Q0 396 3 389Q6 382 11 377L452-64L1413 896Q1418 901 1421 908Q1424 915 1424 923Q1424 930 1421 937Q1418 944 1413 949L1413 949L1413 949Z"  horiz-adv-x="1424" vert-adv-y="1024"  />

      

  </font>
</defs>
</svg>
