<?xml version="1.0" standalone="no"?>
  <!DOCTYPE svg PUBLIC "-//W3C//DTD SVG 1.1//EN" "http://www.w3.org/Graphics/SVG/1.1/DTD/svg11.dtd" >
  <svg>
  <metadata>
  Created by font-carrier
  </metadata>
  <defs>
  <font id="Rajdhani-Bold" horiz-adv-x="1786" vert-adv-y="1786" >
    <font-face
      
      font-family="Rajdhani-Bold"
      
      font-weight="400"
      
      font-stretch="normal"
      
      units-per-em="1000"
      
      ascent="930"
      
      descent="-346"
      
    />
      <missing-glyph />

      

      
      <glyph glyph-name="uni21" unicode="&#x21;" d="M50 467L50 622Q50 643 71 643L166 643Q187 643 187 622L187 467Q187 427 182.50 377.50Q178 328 176 304Q174 280 172 265Q170 250 170 249Q166 228 147 228L90 228Q71 228 67 249Q67 250 65 265Q63 280 60.50 304Q58 328 56 356Q50 438 50 467M184 144L184 21Q184 0 164 0L76 0Q56 0 56 22L56 143Q56 163 76 163L164 163Q184 163 184 144Z"  horiz-adv-x="238" vert-adv-y="1000"  />

      
      <glyph glyph-name="uni22" unicode="&#x22;" d="M100 414L85 414Q66 414 64 437L37 624Q34 643 55 643L132 643Q152 643 149 624L123 435Q118 414 100 414M267 414L252 414Q233 414 231 437L204 624Q201 643 222 643L299 643Q319 643 316 624L290 435Q285 414 267 414Z"  horiz-adv-x="353" vert-adv-y="1000"  />

      
      <glyph glyph-name="uni23" unicode="&#x23;" d="M614 503Q634 503 634 482L634 423Q634 401 614 401L516 401L478 242L565 242Q585 242 585 220L585 161Q585 140 565 140L453 140L424 21Q420 0 402 0L339 0Q316 0 322 22L351 140L238 140L209 21Q203 0 183 0L124 0Q102 0 107 22L136 140L56 140Q35 140 35 161L35 220Q35 242 56 242L161 242L199 401L105 401Q84 401 84 423L84 482Q84 503 105 503L224 503L253 622Q258 643 275 643L337 643Q360 643 355 621L326 503L439 503L468 622Q474 643 494 643L552 643Q576 643 570 621L541 503L614 503M376 242L414 401L301 401L263 242L376 242Z"  horiz-adv-x="669" vert-adv-y="1000"  />

      
      <glyph glyph-name="uni24" unicode="&#x24;" d="M296-98L236-98Q215-98 215-77L215 0L208 0Q132 0 89.50 43.50Q47 87 47 164L47 183Q47 204 68 204L153 204Q174 204 174 183L174 176Q174 138 189 124Q204 110 244 110L284 110Q323 110 338.50 125Q354 140 354 181L354 196Q354 221 339 235Q324 249 304 254Q286 258 233.50 263Q181 268 155 275.50Q129 283 102 301Q46 337 46 442L46 479Q46 558 88.50 600.50Q131 643 208 643L215 643L215 722Q215 743 236 743L296 743Q317 743 317 722L317 643L319 643Q390 643 431 599Q472 555 472 479L472 460Q472 439 451 439L366 439Q345 439 345 460L345 467Q345 505 330.50 519Q316 533 275 533L243 533Q202 533 187.50 517.50Q173 502 173 457L173 437Q173 415 188 402.50Q203 390 222 386Q244 382 296.50 377.50Q349 373 375.50 364.50Q402 356 428 338Q481 300 481 202L481 164Q481 86 437.50 43Q394 0 319 0L317 0L317-77Q317-98 296-98Z"  horiz-adv-x="527" vert-adv-y="1000"  />

      
      <glyph glyph-name="uni25" unicode="&#x25;" d="M567 235L544 235Q522 235 514 226.50Q506 218 506 197L506 110Q506 88 514 79.50Q522 71 544 71L567 71Q588 71 596.50 80Q605 89 605 110L605 197Q605 218 597 226.50Q589 235 567 235M525 306L584 306Q636 306 663 279Q690 252 690 201L690 105Q690 54 663 27Q636 0 584 0L525 0Q474 0 446.50 27Q419 54 419 105L419 201Q419 252 446.50 279Q474 306 525 306M197 573L174 573Q152 573 144 564.50Q136 556 136 534L136 447Q136 426 144 417.50Q152 409 174 409L197 409Q219 409 227 417.50Q235 426 235 447L235 534Q235 555 226.50 564Q218 573 197 573M156 644L215 644Q267 644 294 617Q321 590 321 539L321 443Q321 392 294 365Q267 338 215 338L156 338Q105 338 77.50 365Q50 392 50 443L50 539Q50 590 77.50 617Q105 644 156 644M271 0L219 0Q196 0 204 21Q236 103 323 321.50Q410 540 442 622Q451 643 468 643L521 643Q544 643 536 622L298 21Q290 0 271 0Z"  horiz-adv-x="741" vert-adv-y="1000"  />

      
      <glyph glyph-name="uni26" unicode="&#x26;" d="M222 111L264 111Q306 111 312 151L203 279Q179 278 169.50 263Q160 248 160 212L160 169Q160 138 174.50 124.50Q189 111 222 111M264 0L203 0Q124 0 81 42Q38 84 38 162L38 220Q38 270 64.50 308.50Q91 347 139 353Q100 404 100 470L100 481Q100 558 146.50 600.50Q193 643 273 643L306 643Q385 643 428 601Q471 559 471 481L471 447Q471 425 450 425L365 425Q344 425 344 447L344 479Q344 510 332 523.50Q320 537 294 537L286 537Q257 537 244 523.50Q231 510 231 479L231 466Q231 427 275 377L322 323L544 323Q565 323 565 301L565 233Q565 212 544 212L414 212L577 18Q582 12 580 6Q578 0 571 0L464 0Q440 0 429 14L385 66Q374 31 345.50 15.50Q317 0 264 0Z"  horiz-adv-x="618" vert-adv-y="1000"  />

      
      <glyph glyph-name="uni27" unicode="&#x27;" d="M102 449L85 449Q66 449 63 468L39 593Q36 609 57 609L131 609Q152 609 148 593L125 466Q120 449 102 449Z"  horiz-adv-x="188" vert-adv-y="1000"  />

      
      <glyph glyph-name="uni28" unicode="&#x28;" d="M233 554L230 554Q145 554 145 438L145 103Q145-13 232-13L233-13Q244-13 248-17Q252-21 252-31L252-87Q252-96 248.50-99Q245-102 233-102L230-102Q142-102 92.50-48.50Q43 5 43 119L43 422Q43 536 93 589.50Q143 643 231 643L234 643Q245 643 248.50 640Q252 637 252 628L252 572Q252 562 248 558Q244 554 233 554Z"  horiz-adv-x="306" vert-adv-y="1000"  />

      
      <glyph glyph-name="uni29" unicode="&#x29;" d="M43-87L43-31Q43-13 62-13L63-13Q150-13 150 103L150 438Q150 554 63 554L62 554Q43 554 43 572L43 628Q43 637 47 640Q51 643 62 643L63 643Q151 643 201.50 589.50Q252 536 252 422L252 119Q252 5 201.50-48.50Q151-102 63-102L62-102Q51-102 47-99Q43-96 43-87Z"  horiz-adv-x="306" vert-adv-y="1000"  />

      
      <glyph glyph-name="uni2a" unicode="&#x2a;" d="M152 615L152 624Q152 643 172 643L222 643Q242 643 242 624L242 615Q242 575 224 532Q221 524 218 516.50Q215 509 211.50 503.50Q208 498 205.50 493.50Q203 489 202 486Q229 519 242 531Q270 557 319 573Q336 578 344 560L359 512Q365 493 346 487Q311 474 275 474Q233 475 208 481Q286 454 321 398Q332 382 317 371L276 342Q260 332 248 346Q200 404 200 484Q197 420 184 393Q175 371 156 341Q146 327 128 338L88 368Q69 378 83 395Q106 427 122 438.50Q138 450 148.50 457Q159 464 168 468.50Q177 473 183.50 476.50Q190 480 200 484Q114 460 60 478L51 481Q34 487 40 506L55 554Q61 573 80 566Q140 549 194 490L198 486Q196 489 193.50 493.50Q191 498 187 503.50Q183 509 179.50 516.50Q176 524 172 532.50Q168 541 164.50 551Q161 561 158 571Q152 591 152 615Z"  horiz-adv-x="398" vert-adv-y="1000"  />

      
      <glyph glyph-name="uni2b" unicode="&#x2b;" d="M336 373L472 373Q485 373 490 367.50Q495 362 495 349L495 293Q495 270 472 270L336 270L336 132Q336 108 312 108L253 108Q229 108 229 132L229 270L93 270Q70 270 70 293L70 349Q70 362 75 367.50Q80 373 93 373L229 373L229 510Q229 534 253 534L312 534Q336 534 336 510L336 373Z"  horiz-adv-x="565" vert-adv-y="1000"  />

      
      <glyph glyph-name="uni2c" unicode="&#x2c;" d="M166 144L166 66Q166 39 143 4L74-97Q67-107 55-107Q38-107 38-87L38 143Q38 163 58 163L147 163Q166 163 166 144Z"  horiz-adv-x="204" vert-adv-y="1000"  />

      
      <glyph glyph-name="uni2d" unicode="&#x2d;" d="M251 268L61 268Q40 268 40 289L40 348Q40 370 61 370L251 370Q272 370 272 348L272 289Q272 268 251 268Z"  horiz-adv-x="312" vert-adv-y="1000"  />

      
      <glyph glyph-name="uni2e" unicode="&#x2e;" d="M166 144L166 21Q166 0 147 0L58 0Q38 0 38 21L38 143Q38 163 58 163L147 163Q166 163 166 144Z"  horiz-adv-x="204" vert-adv-y="1000"  />

      
      <glyph glyph-name="uni2f" unicode="&#x2f;" d="M124 0L47 0Q23 0 31 21Q63 103 145 321Q227 539 259 622Q268 643 286 643L363 643Q387 643 379 622L151 21Q143 0 124 0Z"  horiz-adv-x="409" vert-adv-y="1000"  />

      
      <glyph glyph-name="uni30" unicode="&#x30;" d="M239 110L298 110Q330 110 343 123.50Q356 137 356 169L356 474Q356 506 343 519.50Q330 533 298 533L239 533Q207 533 194 519.50Q181 506 181 474L181 169Q181 137 194 123.50Q207 110 239 110M318 0L218 0Q139 0 96 42Q53 84 53 163L53 480Q53 559 96 601Q139 643 218 643L318 643Q396 643 439 600.50Q482 558 482 480L482 163Q482 85 439 42.50Q396 0 318 0Z"  horiz-adv-x="536" vert-adv-y="1000"  />

      
      <glyph glyph-name="uni31" unicode="&#x31;" d="M23 464L23 546Q23 563 38 572L129 629Q152 643 168 643L248 643Q269 643 269 622L269 21Q269 9 264.50 4.50Q260 0 249 0L163 0Q142 0 142 21L142 508L44 452Q23 443 23 464Z"  horiz-adv-x="334" vert-adv-y="1000"  />

      
      <glyph glyph-name="uni32" unicode="&#x32;" d="M47 21L47 116Q47 173 96 213L280 369Q325 406 325 449L325 479Q325 510 310.50 523.50Q296 537 263 537L228 537Q196 537 183 523.50Q170 510 170 479L170 447Q170 425 149 425L64 425Q43 425 43 447L43 481Q43 559 86 601Q129 643 208 643L284 643Q363 643 406 601Q449 559 449 481L449 441Q449 363 389 312L201 152Q189 141 189 128L189 112L428 112Q449 112 449 91L449 21Q449 0 428 0L68 0Q47 0 47 21Z"  horiz-adv-x="493" vert-adv-y="1000"  />

      
      <glyph glyph-name="uni33" unicode="&#x33;" d="M219 374L270 374Q303 374 317.50 387.50Q332 401 332 432L332 479Q332 510 317.50 523.50Q303 537 270 537L222 537Q190 537 177 523.50Q164 510 164 479L164 454Q164 433 143 433L58 433Q37 433 37 454L37 481Q37 559 80 601Q123 643 202 643L291 643Q370 643 413 601Q456 559 456 481L456 431Q456 347 377 322Q456 305 456 213L456 162Q456 84 413 42Q370 0 291 0L202 0Q123 0 80 42Q37 84 37 162L37 190Q37 212 58 212L143 212Q164 212 164 190L164 164Q164 132 177 119Q190 106 222 106L270 106Q303 106 317.50 119.50Q332 133 332 164L332 213Q332 244 317.50 257.50Q303 271 270 271L219 271Q198 271 198 292L198 352Q198 374 219 374Z"  horiz-adv-x="509" vert-adv-y="1000"  />

      
      <glyph glyph-name="uni34" unicode="&#x34;" d="M318 227L318 536L156 227L318 227M417 0L339 0Q318 0 318 21L318 117L70 117Q53 117 43 127Q33 137 33 154L33 193Q33 223 43 242L242 612Q252 630 260.50 636.50Q269 643 286 643L399 643Q416 643 426.50 633Q437 623 437 606L437 227L509 227Q529 227 529 207L529 140Q529 117 509 117L437 117L437 21Q437 9 432.50 4.50Q428 0 417 0Z"  horiz-adv-x="541" vert-adv-y="1000"  />

      
      <glyph glyph-name="uni35" unicode="&#x35;" d="M273 327L226 327Q200 327 186.50 306Q173 285 158 285L75 285Q54 285 54 305L54 622Q54 643 75 643L423 643Q444 643 444 622L444 546Q444 525 423 525L181 525L181 378Q198 428 265 428L307 428Q462 428 462 273L462 163Q462 85 419 42.50Q376 0 298 0L210 0Q131 0 88 42Q45 84 45 163L45 183Q45 205 66 205L151 205Q172 205 172 183L172 164Q172 133 185.50 119.50Q199 106 230 106L277 106Q309 106 324 119.50Q339 133 339 164L339 254Q339 296 325 311.50Q311 327 273 327Z"  horiz-adv-x="506" vert-adv-y="1000"  />

      
      <glyph glyph-name="uni36" unicode="&#x36;" d="M237 110L294 110Q326 110 339.50 123.50Q353 137 353 169L353 238Q353 270 339.50 283.50Q326 297 294 297L179 297L179 169Q179 137 192 123.50Q205 110 237 110M315 0L217 0Q138 0 95 42Q52 84 52 163L52 480Q52 559 95 601Q138 643 217 643L421 643Q442 643 442 622L442 553Q442 533 421 533L237 533Q206 533 192.50 519.50Q179 506 179 474L179 407L315 407Q394 407 437 365Q480 323 480 244L480 163Q480 84 437 42Q394 0 315 0Z"  horiz-adv-x="525" vert-adv-y="1000"  />

      
      <glyph glyph-name="uni37" unicode="&#x37;" d="M169 0L75 0Q66 0 62.50 5.50Q59 11 64 21L275 527L40 527Q19 527 19 548L19 622Q19 643 40 643L390 643Q411 643 411 622L411 538Q411 518 397 484L203 19Q195 0 169 0Z"  horiz-adv-x="431" vert-adv-y="1000"  />

      
      <glyph glyph-name="uni38" unicode="&#x38;" d="M237 109L305 109Q337 109 350 122Q363 135 363 166L363 212Q363 244 350 259Q337 274 305 274L237 274Q205 274 192 259Q179 244 179 212L179 166Q179 135 192 122Q205 109 237 109M237 373L305 373Q337 373 350 388Q363 403 363 435L363 477Q363 508 350 521Q337 534 305 534L237 534Q205 534 192 521Q179 508 179 477L179 435Q179 403 192 388Q205 373 237 373M324 0L218 0Q138 0 95.50 39.50Q53 79 53 156L53 202Q53 294 119 323Q53 350 53 445L53 488Q53 565 95.50 604Q138 643 218 643L324 643Q403 643 445.50 604Q488 565 488 488L488 445Q488 398 470 365Q452 332 423 323Q488 297 488 201L488 156Q488 79 445.50 39.50Q403 0 324 0Z"  horiz-adv-x="542" vert-adv-y="1000"  />

      
      <glyph glyph-name="uni39" unicode="&#x39;" d="M229 339L345 339L345 474Q345 506 331.50 519.50Q318 533 286 533L229 533Q197 533 184 519.50Q171 506 171 474L171 397Q171 366 184 352.50Q197 339 229 339M306 0L95 0Q73 0 73 21L73 90Q73 110 95 110L286 110Q318 110 331 123.50Q344 137 344 169L344 229L208 229Q129 229 86 271Q43 313 43 391L43 480Q43 559 86 601Q129 643 208 643L306 643Q385 643 428 601Q471 559 471 480L471 163Q471 84 428 42Q385 0 306 0Z"  horiz-adv-x="525" vert-adv-y="1000"  />

      
      <glyph glyph-name="uni3a" unicode="&#x3a;" d="M166 491L166 368Q166 347 147 347L58 347Q38 347 38 370L38 490Q38 510 58 510L147 510Q166 510 166 491M166 144L166 21Q166 0 147 0L58 0Q38 0 38 22L38 143Q38 163 58 163L147 163Q166 163 166 144Z"  horiz-adv-x="204" vert-adv-y="1000"  />

      
      <glyph glyph-name="uni3b" unicode="&#x3b;" d="M166 144L166 66Q166 39 143 4L74-97Q67-107 55-107Q38-107 38-87L38 143Q38 163 58 163L147 163Q166 163 166 144M166 491L166 368Q166 347 147 347L58 347Q38 347 38 370L38 490Q38 510 58 510L147 510Q166 510 166 491Z"  horiz-adv-x="204" vert-adv-y="1000"  />

      
      <glyph glyph-name="uni3c" unicode="&#x3c;" d="M494 501L494 435Q494 411 475 406L174 327L475 248Q494 244 494 219L494 154Q494 132 470 139L96 260Q69 269 69 300L69 354Q69 385 96 394L470 515Q494 524 494 501Z"  horiz-adv-x="563" vert-adv-y="1000"  />

      
      <glyph glyph-name="uni3d" unicode="&#x3d;" d="M94 471L473 471Q486 471 491 465.50Q496 460 496 447L496 393Q496 380 491 374.50Q486 369 473 369L94 369Q81 369 76 374.50Q71 380 71 393L71 447Q71 460 76 465.50Q81 471 94 471M94 274L473 274Q486 274 491 268.50Q496 263 496 250L496 196Q496 183 491 177.50Q486 172 473 172L94 172Q81 172 76 177.50Q71 183 71 196L71 250Q71 263 76 268.50Q81 274 94 274Z"  horiz-adv-x="567" vert-adv-y="1000"  />

      
      <glyph glyph-name="uni3e" unicode="&#x3e;" d="M71 435L71 501Q71 524 95 515L469 394Q496 385 496 354L496 300Q496 269 469 260L95 139Q71 132 71 154L71 219Q71 244 90 248L391 327L90 406Q71 411 71 435Z"  horiz-adv-x="567" vert-adv-y="1000"  />

      
      <glyph glyph-name="uni3f" unicode="&#x3f;" d="M289 144L289 21Q289 0 270 0L181 0Q161 0 161 22L161 143Q161 163 181 163L270 163Q289 163 289 144M288 275L288 249Q288 228 267 228L188 228Q167 228 167 249L167 276Q167 309 178 329.50Q189 350 215 371L271 417Q303 442 303 472L303 478Q303 509 288.50 522.50Q274 536 241 536L223 536Q192 536 178.50 523Q165 510 165 478L165 457Q165 435 144 435L59 435Q38 435 38 457L38 480Q38 558 81 600Q124 642 203 642L262 642Q341 642 384 600Q427 558 427 480L427 466Q427 417 382 378L314 323Q288 299 288 275Z"  horiz-adv-x="466" vert-adv-y="1000"  />

      
      <glyph glyph-name="uni40" unicode="&#x40;" d="M561 157Q625 159 625 224L625 414Q625 471 587 501Q549 531 491 531L302 531Q220 531 174.50 484.50Q129 438 129 353L129 192Q129 108 178.50 61Q228 14 311 14L491 14Q512 14 512-7L512-37Q512-58 491-58L312-58Q200-58 128.50 7Q57 72 57 178L57 361Q57 463 124 533Q191 603 294 603L499 603Q586 603 642 551.50Q698 500 698 421L698 215Q698 157 660 120Q622 83 564 83L506 83Q479 83 459.50 96Q440 109 440 134L440 138L436 138Q412 83 337 83Q276 83 237.50 122.50Q199 162 199 238L199 297Q199 374 239.50 417Q280 460 347 460L520 460Q542 460 542 439L542 169Q542 157 561 157M440 253L440 353Q440 365 428 365L368 365Q336 365 323 351.50Q310 338 310 306L310 235Q310 204 323 190.50Q336 177 368 177L371 177Q440 177 440 253Z"  horiz-adv-x="746" vert-adv-y="1000"  />

      
      <glyph glyph-name="uni41" unicode="&#x41;" d="M132 0L36 0Q18 0 24 21L182 622Q189 643 212 643L345 643Q370 643 375 622L533 21Q539 0 521 0L425 0Q414 0 410 4.50Q406 9 404 21L376 131L181 131L153 21Q151 9 146.50 4.50Q142 0 132 0M277 522L205 233L353 233L281 522L277 522Z"  horiz-adv-x="557" vert-adv-y="1000"  />

      
      <glyph glyph-name="uni42" unicode="&#x42;" d="M203 106L315 106Q348 106 362.50 119.50Q377 133 377 164L377 222Q377 253 362 266Q347 279 313 279L203 279Q192 279 192 268L192 117Q192 106 203 106M203 382L305 382Q337 382 352 395.50Q367 409 367 440L367 479Q367 510 352.50 523.50Q338 537 306 537L203 537Q192 537 192 526L192 393Q192 382 203 382M65 21L65 622Q65 643 86 643L326 643Q405 643 448 601Q491 559 491 481L491 440Q491 355 412 330Q452 324 476 297.50Q500 271 500 222L500 162Q500 84 457 42Q414 0 336 0L86 0Q65 0 65 21Z"  horiz-adv-x="555" vert-adv-y="1000"  />

      
      <glyph glyph-name="uni43" unicode="&#x43;" d="M329 0L220 0Q141 0 98 42Q55 84 55 163L55 480Q55 559 98 601Q141 643 220 643L329 643Q407 643 450.50 600.50Q494 558 494 480L494 433Q494 411 472 411L388 411Q367 411 367 433L367 474Q367 506 353.50 519.50Q340 533 308 533L240 533Q209 533 195.50 519.50Q182 506 182 474L182 169Q182 137 195.50 123.50Q209 110 240 110L308 110Q340 110 353.50 123.50Q367 137 367 169L367 210Q367 232 388 232L472 232Q494 232 494 210L494 163Q494 85 450.50 42.50Q407 0 329 0Z"  horiz-adv-x="538" vert-adv-y="1000"  />

      
      <glyph glyph-name="uni44" unicode="&#x44;" d="M203 110L312 110Q344 110 357.50 123.50Q371 137 371 169L371 474Q371 506 357.50 519.50Q344 533 312 533L203 533Q192 533 192 522L192 121Q192 110 203 110M65 21L65 622Q65 643 86 643L333 643Q411 643 454.50 600.50Q498 558 498 480L498 163Q498 85 454.50 42.50Q411 0 333 0L86 0Q65 0 65 21Z"  horiz-adv-x="553" vert-adv-y="1000"  />

      
      <glyph glyph-name="uni45" unicode="&#x45;" d="M413 0L86 0Q65 0 65 21L65 622Q65 643 86 643L413 643Q433 643 433 622L433 554Q433 533 413 533L204 533Q192 533 192 522L192 392Q192 381 204 381L375 381Q396 381 396 360L396 292Q396 271 375 271L204 271Q192 271 192 260L192 121Q192 110 204 110L413 110Q433 110 433 89L433 21Q433 0 413 0Z"  horiz-adv-x="479" vert-adv-y="1000"  />

      
      <glyph glyph-name="uni46" unicode="&#x46;" d="M171 0L86 0Q65 0 65 21L65 622Q65 643 86 643L405 643Q425 643 425 622L425 554Q425 533 405 533L204 533Q192 533 192 522L192 367Q192 355 204 355L375 355Q396 355 396 334L396 267Q396 245 375 245L204 245Q192 245 192 234L192 21Q192 0 171 0Z"  horiz-adv-x="450" vert-adv-y="1000"  />

      
      <glyph glyph-name="uni47" unicode="&#x47;" d="M326 0L220 0Q141 0 98 42Q55 84 55 163L55 480Q55 559 98 601Q141 643 220 643L326 643Q404 643 447 600.50Q490 558 490 480L490 450Q490 428 469 428L384 428Q363 428 363 450L363 474Q363 506 350 519.50Q337 533 305 533L240 533Q209 533 195.50 519.50Q182 506 182 474L182 169Q182 137 195.50 123.50Q209 110 240 110L305 110Q337 110 350 123.50Q363 137 363 169L363 232Q363 243 352 243L292 243Q271 243 271 264L271 332Q271 353 292 353L467 353Q490 353 490 330L490 163Q490 85 447 42.50Q404 0 326 0Z"  horiz-adv-x="545" vert-adv-y="1000"  />

      
      <glyph glyph-name="uni48" unicode="&#x48;" d="M171 0L86 0Q65 0 65 21L65 622Q65 643 86 643L171 643Q192 643 192 622L192 387Q192 376 204 376L373 376Q384 376 384 387L384 622Q384 643 405 643L490 643Q511 643 511 622L511 21Q511 0 490 0L405 0Q384 0 384 21L384 255Q384 266 373 266L204 266Q192 266 192 255L192 21Q192 0 171 0Z"  horiz-adv-x="576" vert-adv-y="1000"  />

      
      <glyph glyph-name="uni49" unicode="&#x49;" d="M197 622L197 21Q197 0 176 0L91 0Q70 0 70 21L70 622Q70 643 91 643L176 643Q197 643 197 622Z"  horiz-adv-x="267" vert-adv-y="1000"  />

      
      <glyph glyph-name="uni4a" unicode="&#x4a;" d="M356 643L440 643Q461 643 461 623L461 163Q461 85 418 42.50Q375 0 297 0L197 0Q118 0 75 42Q32 84 32 163L32 257Q32 278 53 278L138 278Q159 278 159 257L159 169Q159 137 172.50 123.50Q186 110 217 110L276 110Q308 110 321 123.50Q334 137 334 169L334 622Q334 643 356 643Z"  horiz-adv-x="521" vert-adv-y="1000"  />

      
      <glyph glyph-name="uni4b" unicode="&#x4b;" d="M171 0L86 0Q65 0 65 21L65 622Q65 643 86 643L171 643Q192 643 192 622L192 337L194 337Q202 361 225 399L377 622Q390 643 416 643L514 643Q525 643 527.50 636.50Q530 630 522 620L332 357L544 25Q551 13 546.50 6.50Q542 0 528 0L455 0Q420 0 408 21L255 266L192 192L192 21Q192 0 171 0Z"  horiz-adv-x="558" vert-adv-y="1000"  />

      
      <glyph glyph-name="uni4c" unicode="&#x4c;" d="M415 0L86 0Q65 0 65 21L65 622Q65 643 86 643L171 643Q192 643 192 622L192 122Q192 111 204 111L415 111Q435 111 435 89L435 21Q435 0 415 0Z"  horiz-adv-x="449" vert-adv-y="1000"  />

      
      <glyph glyph-name="uni4d" unicode="&#x4d;" d="M492 643L640 643Q661 643 661 622L661 21Q661 0 640 0L558 0Q537 0 537 21L537 495L533 495L431 160Q425 140 406 140L322 140Q303 140 297 160L193 496L189 496L189 21Q189 9 185 4.50Q181 0 168 0L86 0Q65 0 65 21L65 622Q65 643 86 643L235 643Q249 643 254 629L360 276L366 276L473 629Q476 643 492 643Z"  horiz-adv-x="726" vert-adv-y="1000"  />

      
      <glyph glyph-name="uni4e" unicode="&#x4e;" d="M169 0L86 0Q65 0 65 21L65 622Q65 643 86 643L161 643Q182 643 189 629L391 250L395 250L395 622Q395 643 416 643L499 643Q520 643 520 622L520 21Q520 0 499 0L426 0Q404 0 394 20L194 392L190 392L190 21Q190 0 169 0Z"  horiz-adv-x="585" vert-adv-y="1000"  />

      
      <glyph glyph-name="uni4f" unicode="&#x4f;" d="M240 110L311 110Q343 110 356.50 123.50Q370 137 370 169L370 474Q370 506 356.50 519.50Q343 533 311 533L240 533Q208 533 195 519.50Q182 506 182 474L182 169Q182 137 195 123.50Q208 110 240 110M332 0L220 0Q141 0 98 42Q55 84 55 163L55 480Q55 559 98 601Q141 643 220 643L332 643Q411 643 454 601Q497 559 497 480L497 163Q497 84 454 42Q411 0 332 0Z"  horiz-adv-x="552" vert-adv-y="1000"  />

      
      <glyph glyph-name="uni50" unicode="&#x50;" d="M171 0L86 0Q65 0 65 21L65 622Q65 643 86 643L330 643Q408 643 451 600.50Q494 558 494 480L494 384Q494 306 451 263.50Q408 221 330 221L204 221Q192 221 192 210L192 21Q192 0 171 0M203 332L309 332Q341 332 354 345.50Q367 359 367 390L367 474Q367 506 354 519.50Q341 533 309 533L203 533Q192 533 192 522L192 343Q192 332 203 332Z"  horiz-adv-x="530" vert-adv-y="1000"  />

      
      <glyph glyph-name="uni51" unicode="&#x51;" d="M249 110L320 110Q352 110 365.50 123.50Q379 137 379 169L379 474Q379 506 365.50 519.50Q352 533 320 533L249 533Q217 533 204 519.50Q191 506 191 474L191 169Q191 137 204 123.50Q217 110 249 110M432-133L359-133Q332-133 320-112L255 0L228 0Q149 0 106 42Q63 84 63 163L63 480Q63 559 106 601Q149 643 228 643L340 643Q419 643 462 601Q505 559 505 480L505 163Q505 97 473.50 56Q442 15 384 4L448-107Q453-119 448-126Q443-133 432-133Z"  horiz-adv-x="569" vert-adv-y="1000"  />

      
      <glyph glyph-name="uni52" unicode="&#x52;" d="M171 0L86 0Q65 0 65 21L65 622Q65 643 86 643L324 643Q402 643 446 600Q490 557 490 479L490 401Q490 288 401 251L401 247L508 24Q517 0 491 0L410 0Q392 0 384 4Q376 8 371 21L271 237L204 237Q192 237 192 226L192 21Q192 0 171 0M203 339L301 339Q333 339 348 352.50Q363 366 363 396L363 474Q363 505 348 519Q333 533 301 533L203 533Q192 533 192 522L192 350Q192 339 203 339Z"  horiz-adv-x="547" vert-adv-y="1000"  />

      
      <glyph glyph-name="uni53" unicode="&#x53;" d="M49 164L49 184Q49 205 70 205L155 205Q176 205 176 184L176 176Q176 138 191 124Q206 110 246 110L293 110Q332 110 347.50 125Q363 140 363 181L363 193Q363 222 339.50 237.50Q316 253 281 256Q246 259 205.50 267.50Q165 276 130 289.50Q95 303 71.50 342.50Q48 382 48 444L48 479Q48 557 92 600Q136 643 214 643L314 643Q393 643 437 600Q481 557 481 479L481 460Q481 439 460 439L375 439Q354 439 354 460L354 466Q354 505 339 519Q324 533 284 533L245 533Q204 533 189.50 517.50Q175 502 175 457L175 438Q175 391 257 384Q342 377 408 350Q443 335 466.50 296.50Q490 258 490 198L490 164Q490 86 446 43Q402 0 324 0L215 0Q137 0 93 43Q49 86 49 164Z"  horiz-adv-x="539" vert-adv-y="1000"  />

      
      <glyph glyph-name="uni54" unicode="&#x54;" d="M264 0L180 0Q158 0 158 21L158 522Q158 533 147 533L33 533Q12 533 12 554L12 622Q12 643 33 643L411 643Q432 643 432 622L432 554Q432 533 411 533L297 533Q285 533 285 522L285 21Q285 0 264 0Z"  horiz-adv-x="443" vert-adv-y="1000"  />

      
      <glyph glyph-name="uni55" unicode="&#x55;" d="M394 643L478 643Q500 643 500 623L500 163Q500 85 456.50 42.50Q413 0 335 0L225 0Q146 0 103 42Q60 84 60 163L60 622Q60 643 81 643L166 643Q187 643 187 622L187 169Q187 137 200.50 123.50Q214 110 245 110L314 110Q346 110 359.50 123.50Q373 137 373 169L373 622Q373 643 394 643Z"  horiz-adv-x="560" vert-adv-y="1000"  />

      
      <glyph glyph-name="uni56" unicode="&#x56;" d="M327 0L196 0Q175 0 171 21L16 620Q9 643 36 643L130 643Q150 643 154 622L259 130L263 130L368 622Q372 643 392 643L486 643Q511 643 506 620L351 21Q346 0 327 0Z"  horiz-adv-x="521" vert-adv-y="1000"  />

      
      <glyph glyph-name="uni57" unicode="&#x57;" d="M287 0L147 0Q125 0 122 21L15 622Q12 643 36 643L140 643Q163 643 164 622L222 129L229 129L325 625Q328 643 346 643L458 643Q477 643 480 626L578 129L586 129L643 621Q644 643 667 643L771 643Q795 643 792 621L684 21Q681 0 661 0L520 0Q499 0 496 21L406 490L402 490L311 21Q307 0 287 0Z"  horiz-adv-x="807" vert-adv-y="1000"  />

      
      <glyph glyph-name="uni58" unicode="&#x58;" d="M138 0L39 0Q29 0 25 6.50Q21 13 25 22L180 329L30 621Q26 629 30 636Q34 643 44 643L140 643Q165 643 173 622L268 407L272 407L366 622Q376 643 398 643L496 643Q506 643 510.50 635.50Q515 628 511 620L359 329L514 23Q519 13 515 6.50Q511 0 500 0L400 0Q379 0 371 20L272 236L268 236L168 20Q159 0 138 0Z"  horiz-adv-x="540" vert-adv-y="1000"  />

      
      <glyph glyph-name="uni59" unicode="&#x59;" d="M301 0L216 0Q195 0 195 21L195 235L12 621Q8 630 12.50 636.50Q17 643 26 643L132 643Q148 643 156 622L256 379L263 379L361 622Q368 643 385 643L491 643Q501 643 505.50 637Q510 631 505 621L322 235L322 21Q322 0 301 0Z"  horiz-adv-x="517" vert-adv-y="1000"  />

      
      <glyph glyph-name="uni5a" unicode="&#x5a;" d="M48 21L48 81Q48 114 61 130L326 521L326 525L87 525Q66 525 66 546L66 622Q66 643 87 643L442 643Q462 643 462 622L462 536Q462 506 447 484L198 122L198 118L452 118Q472 118 472 99L472 23Q472 0 452 0L69 0Q48 0 48 21Z"  horiz-adv-x="521" vert-adv-y="1000"  />

      
      <glyph glyph-name="uni5b" unicode="&#x5b;" d="M241-98L97-98Q77-98 77-76L77 622Q77 643 97 643L241 643Q261 643 261 622L261 579Q261 558 241 558L191 558Q179 558 179 546L179-1Q179-13 191-13L241-13Q261-13 261-34L261-77Q261-98 241-98Z"  horiz-adv-x="323" vert-adv-y="1000"  />

      
      <glyph glyph-name="uni5c" unicode="&#x5c;" d="M46 643L124 643Q142 643 151 622Q183 539 265 321Q347 103 379 21Q387 0 363 0L286 0Q267 0 259 21L31 622Q23 643 46 643Z"  horiz-adv-x="409" vert-adv-y="1000"  />

      
      <glyph glyph-name="uni5d" unicode="&#x5d;" d="M60-77L60-34Q60-13 81-13L131-13Q142-13 142-1L142 546Q142 558 131 558L81 558Q60 558 60 579L60 622Q60 643 81 643L224 643Q244 643 244 622L244-76Q244-98 224-98L81-98Q60-98 60-77Z"  horiz-adv-x="323" vert-adv-y="1000"  />

      
      <glyph glyph-name="uni5e" unicode="&#x5e;" d="M138 362L61 362Q35 362 46 383L166 612Q175 630 184 636.50Q193 643 210 643L300 643Q317 643 326 636.50Q335 630 344 612L464 383Q475 362 449 362L372 362Q355 362 345 382L255 561L165 382Q155 362 138 362Z"  horiz-adv-x="511" vert-adv-y="1000"  />

      
      <glyph glyph-name="uni5f" unicode="&#x5f;" d="M351-112L21-112Q0-112 0-90L0-64Q0-43 21-43L351-43Q372-43 372-64L372-90Q372-112 351-112Z"  horiz-adv-x="372" vert-adv-y="1000"  />

      
      <glyph glyph-name="uni60" unicode="&#x60;" d="M231 574L166 574Q150 574 139 587L58 683Q51 691 54 697Q57 703 68 703L167 703Q186 703 197 684L241 595Q252 574 231 574Z"  horiz-adv-x="298" vert-adv-y="1000"  />

      
      <glyph glyph-name="uni61" unicode="&#x61;" d="M234 0L210 0Q131 0 88 42Q45 84 45 163L45 347Q45 426 88 468Q131 510 210 510L441 510Q463 510 463 489L463 21Q463 0 441 0L357 0Q336 0 336 21L336 54L332 54Q321 27 293 13.50Q265 0 234 0M336 186L336 389Q336 400 324 400L230 400Q198 400 185 386.50Q172 373 172 341L172 169Q172 137 185 123.50Q198 110 230 110L267 110Q336 110 336 186Z"  horiz-adv-x="518" vert-adv-y="1000"  />

      
      <glyph glyph-name="uni62" unicode="&#x62;" d="M193 110L295 110Q327 110 340.50 123.50Q354 137 354 169L354 343Q354 375 340.50 388.50Q327 402 295 402L251 402Q182 402 182 326L182 121Q182 110 193 110M55 21L55 682Q55 703 76 703L161 703Q182 703 182 682L182 457L186 457Q197 484 225 498Q253 512 284 512L316 512Q395 512 438 470Q481 428 481 349L481 163Q481 84 438 42Q395 0 316 0L76 0Q55 0 55 21Z"  horiz-adv-x="526" vert-adv-y="1000"  />

      
      <glyph glyph-name="uni63" unicode="&#x63;" d="M380 89L380 20Q380 9 375.50 4.50Q371 0 359 0L210 0Q131 0 88 42Q45 84 45 163L45 347Q45 426 88 468Q131 510 210 510L359 510Q380 510 380 489L380 420Q380 409 375.50 404.50Q371 400 359 400L230 400Q199 400 185.50 386.50Q172 373 172 341L172 169Q172 137 185.50 123.50Q199 110 230 110L359 110Q380 110 380 89Z"  horiz-adv-x="411" vert-adv-y="1000"  />

      
      <glyph glyph-name="uni64" unicode="&#x64;" d="M242 0L201 0Q124 0 84.50 42Q45 84 45 163L45 347Q45 426 84.50 468Q124 510 201 510L242 510Q273 510 301 496.50Q329 483 340 456L344 456L344 682Q344 703 365 703L450 703Q471 703 471 682L471 21Q471 0 450 0L365 0Q344 0 344 21L344 54L340 54Q329 27 301 13.50Q273 0 242 0M344 186L344 324Q344 400 275 400L230 400Q198 400 185 386.50Q172 373 172 341L172 169Q172 137 185 123.50Q198 110 230 110L275 110Q344 110 344 186Z"  horiz-adv-x="526" vert-adv-y="1000"  />

      
      <glyph glyph-name="uni65" unicode="&#x65;" d="M431 0L210 0Q131 0 88 42Q45 84 45 163L45 347Q45 426 88 468Q131 510 210 510L289 510Q368 510 411 468Q454 426 454 347L454 220Q454 199 433 199L182 199Q170 199 170 188L170 166Q170 135 183.50 121.50Q197 108 229 108L431 108Q452 108 452 86L452 20Q452 9 447.50 4.50Q443 0 431 0M182 284L318 284Q329 284 329 295L329 343Q329 375 316 388Q303 401 271 401L229 401Q197 401 184 388Q171 375 171 343L171 295Q171 284 182 284Z"  horiz-adv-x="494" vert-adv-y="1000"  />

      
      <glyph glyph-name="uni66" unicode="&#x66;" d="M240 510L320 510Q332 510 336.50 505.50Q341 501 341 490L341 421Q341 400 320 400L240 400Q229 400 229 389L229 21Q229 0 207 0L123 0Q102 0 102 21L102 389Q102 400 90 400L44 400Q23 400 23 421L23 490Q23 502 27.50 506Q32 510 44 510L90 510Q102 510 102 521L102 540Q102 619 143.50 661Q185 703 264 703L321 703Q333 703 337 698.50Q341 694 341 683L341 614Q341 593 321 593L284 593Q252 593 240.50 579.50Q229 566 229 534L229 521Q229 510 240 510Z"  horiz-adv-x="354" vert-adv-y="1000"  />

      
      <glyph glyph-name="uni67" unicode="&#x67;" d="M235 23L202 23Q125 23 85.50 65Q46 107 46 186L46 347Q46 426 89 468Q132 510 211 510L442 510Q464 510 464 489L464-4Q464-82 420.50-124Q377-166 299-166L107-166Q95-166 90.50-161.50Q86-157 86-146L86-77Q86-56 107-56L278-56Q310-56 323.50-42.50Q337-29 337 2L337 78L333 78Q322 51 294 37Q266 23 235 23M337 209L337 389Q337 400 325 400L231 400Q199 400 186 386.50Q173 373 173 341L173 192Q173 160 186 147Q199 134 231 134L268 134Q337 134 337 209Z"  horiz-adv-x="519" vert-adv-y="1000"  />

      
      <glyph glyph-name="uni68" unicode="&#x68;" d="M161 0L76 0Q55 0 55 21L55 682Q55 703 76 703L161 703Q182 703 182 682L182 456L186 456Q208 510 284 510L316 510Q473 510 473 347L473 21Q473 0 451 0L367 0Q346 0 346 21L346 341Q346 373 332.50 386.50Q319 400 287 400L251 400Q182 400 182 324L182 21Q182 0 161 0Z"  horiz-adv-x="523" vert-adv-y="1000"  />

      
      <glyph glyph-name="uni69" unicode="&#x69;" d="M60 596L60 683Q60 703 80 703L167 703Q187 703 187 684L187 596Q187 576 167 576L80 576Q60 576 60 596M60 21L60 489Q60 510 80 510L166 510Q187 510 187 489L187 21Q187 8 182.50 4Q178 0 167 0L81 0Q60 0 60 21Z"  horiz-adv-x="247" vert-adv-y="1000"  />

      
      <glyph glyph-name="uni6a" unicode="&#x6a;" d="M60 596L60 683Q60 703 80 703L167 703Q187 703 187 684L187 596Q187 576 167 576L80 576Q60 576 60 596M21-166L-46-166Q-67-166-67-145L-67-77Q-67-56-46-56L-18-56Q27-56 43.50-40Q60-24 60 21L60 489Q60 510 81 510L166 510Q187 510 187 489L187-2Q187-80 143-123Q99-166 21-166Z"  horiz-adv-x="247" vert-adv-y="1000"  />

      
      <glyph glyph-name="uni6b" unicode="&#x6b;" d="M347 510L444 510Q456 510 460 503Q464 496 457 485L324 266L324 262L463 25Q469 15 464 7.50Q459 0 446 0L360 0Q343 0 335.50 4Q328 8 320 21L193 244Q184 260 193 277L313 490Q324 510 347 510M161 0L76 0Q55 0 55 21L55 682Q55 703 76 703L161 703Q182 703 182 682L182 21Q182 0 161 0Z"  horiz-adv-x="472" vert-adv-y="1000"  />

      
      <glyph glyph-name="uni6c" unicode="&#x6c;" d="M166 0L81 0Q60 0 60 21L60 682Q60 703 81 703L166 703Q187 703 187 682L187 21Q187 0 166 0Z"  horiz-adv-x="247" vert-adv-y="1000"  />

      
      <glyph glyph-name="uni6d" unicode="&#x6d;" d="M161 0L76 0Q55 0 55 21L55 489Q55 510 76 510L161 510Q182 510 182 489L182 456L186 456Q198 480 226.50 495Q255 510 292 510L320 510Q407 510 445 446Q479 510 562 510L591 510Q668 510 707.50 468Q747 426 747 347L747 21Q747 0 726 0L641 0Q620 0 620 21L620 341Q620 373 607 386.50Q594 400 562 400L537 400Q468 400 468 323L468 21Q468 0 446 0L362 0Q341 0 341 21L341 341Q341 373 327.50 386.50Q314 400 282 400L251 400Q182 400 182 324L182 21Q182 0 161 0Z"  horiz-adv-x="798" vert-adv-y="1000"  />

      
      <glyph glyph-name="uni6e" unicode="&#x6e;" d="M161 0L76 0Q55 0 55 21L55 489Q55 510 76 510L161 510Q182 510 182 489L182 456L186 456Q208 510 284 510L316 510Q473 510 473 347L473 21Q473 0 451 0L367 0Q346 0 346 21L346 341Q346 373 332.50 386.50Q319 400 287 400L251 400Q182 400 182 324L182 21Q182 0 161 0Z"  horiz-adv-x="523" vert-adv-y="1000"  />

      
      <glyph glyph-name="uni6f" unicode="&#x6f;" d="M299 0L210 0Q131 0 88 42Q45 84 45 163L45 347Q45 426 88 468Q131 510 210 510L299 510Q377 510 420.50 467.50Q464 425 464 347L464 163Q464 85 420.50 42.50Q377 0 299 0M229 109L280 109Q312 109 325.50 122Q339 135 339 167L339 343Q339 375 325.50 388Q312 401 280 401L229 401Q197 401 184 388Q171 375 171 343L171 167Q171 135 184 122Q197 109 229 109Z"  horiz-adv-x="509" vert-adv-y="1000"  />

      
      <glyph glyph-name="uni70" unicode="&#x70;" d="M161-136L76-136Q55-136 55-116L55 489Q55 510 76 510L161 510Q182 510 182 489L182 456L186 456Q197 483 225 496.50Q253 510 284 510L325 510Q402 510 441.50 468Q481 426 481 347L481 163Q481 84 441.50 42Q402 0 325 0L284 0Q253 0 225 13.50Q197 27 186 54L182 54L182-116Q182-136 161-136M251 110L295 110Q327 110 340.50 123.50Q354 137 354 169L354 341Q354 373 340.50 386.50Q327 400 295 400L251 400Q182 400 182 324L182 186Q182 110 251 110Z"  horiz-adv-x="526" vert-adv-y="1000"  />

      
      <glyph glyph-name="uni71" unicode="&#x71;" d="M336 187L336 389Q336 400 324 400L230 400Q198 400 185 386.50Q172 373 172 341L172 169Q172 137 185 123.50Q198 110 230 110L266 110Q336 110 336 187M233 0L210 0Q131 0 88 42Q45 84 45 163L45 347Q45 426 88 468Q131 510 210 510L441 510Q463 510 463 489L463-116Q463-136 441-136L357-136Q336-136 336-116L336 55L332 55Q308 0 233 0Z"  horiz-adv-x="518" vert-adv-y="1000"  />

      
      <glyph glyph-name="uni72" unicode="&#x72;" d="M161 0L76 0Q55 0 55 21L55 489Q55 510 76 510L161 510Q182 510 182 489L182 455L186 455Q197 482 225 496Q253 510 284 510L320 510Q340 510 340 489L340 420Q340 408 335.50 403.50Q331 399 320 400L251 400Q182 400 182 322L182 21Q182 0 161 0Z"  horiz-adv-x="349" vert-adv-y="1000"  />

      
      <glyph glyph-name="uni73" unicode="&#x73;" d="M248 0L58 0Q38 0 38 21L38 85Q38 96 42 100.50Q46 105 58 105L225 105Q274 105 274 135L274 140Q274 164 233 186L134 241Q83 267 59 297Q35 327 35 374Q35 444 72 477Q109 510 188 510L355 510Q375 510 375 489L375 424Q375 413 371 408.50Q367 404 355 404L216 404Q167 404 167 379L167 374Q167 352 210 329L311 269Q363 241 384 211.50Q405 182 405 134Q405 0 248 0Z"  horiz-adv-x="438" vert-adv-y="1000"  />

      
      <glyph glyph-name="uni74" unicode="&#x74;" d="M66 400L26 400Q14 400 9.50 404Q5 408 5 420L5 489Q5 510 26 510L66 510Q77 510 77 521L77 616Q77 637 99 637L183 637Q204 637 204 616L204 521Q204 510 216 510L294 510Q315 510 315 489L315 420Q315 409 310.50 404.50Q306 400 294 400L216 400Q204 400 204 389L204 168Q204 137 218 123.50Q232 110 264 110L304 110Q325 110 325 89L325 20Q325 9 320.50 4.50Q316 0 304 0L243 0Q164 0 120.50 42Q77 84 77 162L77 389Q77 400 66 400Z"  horiz-adv-x="353" vert-adv-y="1000"  />

      
      <glyph glyph-name="uni75" unicode="&#x75;" d="M239 0L206 0Q129 0 89.50 42Q50 84 50 163L50 489Q50 510 71 510L156 510Q177 510 177 489L177 169Q177 137 190.50 123.50Q204 110 235 110L272 110Q341 110 341 186L341 489Q341 510 362 510L446 510Q468 510 468 489L468 21Q468 0 446 0L362 0Q341 0 341 21L341 54L337 54Q326 27 298 13.50Q270 0 239 0Z"  horiz-adv-x="523" vert-adv-y="1000"  />

      
      <glyph glyph-name="uni76" unicode="&#x76;" d="M33 510L121 510Q141 510 145 489L231 113L238 113L322 489Q326 510 347 510L435 510Q456 510 450 489L324 22Q320 0 297 0L170 0Q149 0 143 22L18 489Q12 510 33 510Z"  horiz-adv-x="468" vert-adv-y="1000"  />

      
      <glyph glyph-name="uni77" unicode="&#x77;" d="M259 0L145 0Q126 0 121 21L21 489Q17 510 36 510L132 510Q154 510 156 489L201 147L209 147L280 489Q283 510 303 510L391 510Q412 510 416 489L485 147L493 147L539 489Q542 510 563 510L659 510Q679 510 674 489L574 21Q570 0 550 0L436 0Q416 0 412 21L351 359L343 359L283 21Q280 0 259 0Z"  horiz-adv-x="696" vert-adv-y="1000"  />

      
      <glyph glyph-name="uni78" unicode="&#x78;" d="M137 0L36 0Q10 0 22 21L148 260L22 489Q12 510 34 510L136 510Q160 510 167 489L230 337L234 337L289 489Q296 510 320 510L420 510Q446 510 433 489L313 260L442 21Q447 12 443.50 6Q440 0 430 0L327 0Q306 0 297 21L234 174L230 174L167 21Q160 0 137 0Z"  horiz-adv-x="462" vert-adv-y="1000"  />

      
      <glyph glyph-name="uni79" unicode="&#x79;" d="M138-169L74-169Q54-169 54-147L54-80Q54-58 74-58L95-58Q158-58 180.50-40.50Q203-23 215 27L162 27Q143 27 137 48L20 489Q14 510 35 510L124 510Q144 510 149 489L235 120L239 120L324 489Q328 510 349 510L433 510Q458 510 453 488L331 0Q309-83 263-126Q217-169 138-169Z"  horiz-adv-x="471" vert-adv-y="1000"  />

      
      <glyph glyph-name="uni7a" unicode="&#x7a;" d="M31 21L31 54Q31 88 50 112L262 397L262 401L61 401Q40 401 40 423L40 489Q40 510 61 510L387 510Q408 510 408 489L408 429Q408 397 392 377L196 113L196 109L398 109Q419 109 419 87L419 21Q419 0 398 0L52 0Q31 0 31 21Z"  horiz-adv-x="449" vert-adv-y="1000"  />

      
      <glyph glyph-name="uni7b" unicode="&#x7b;" d="M235 643L243 643Q263 643 263 622L263 575Q263 554 243 554L240 554Q209 554 197.50 540.50Q186 527 186 495L186 369Q186 328 172 304.50Q158 281 124 270Q186 253 186 172L186 46Q186 14 197.50 0.50Q209-13 240-13L243-13Q263-13 263-34L263-81Q263-102 243-102L235-102Q86-102 86 61L86 162Q86 215 44 215Q23 215 23 237L23 304Q23 326 44 326Q86 326 86 379L86 480Q86 643 235 643Z"  horiz-adv-x="315" vert-adv-y="1000"  />

      
      <glyph glyph-name="uni7c" unicode="&#x7c;" d="M159 622L159 21Q159 0 137 0L94 0Q73 0 73 21L73 622Q73 643 94 643L137 643Q159 643 159 622Z"  horiz-adv-x="231" vert-adv-y="1000"  />

      
      <glyph glyph-name="uni7d" unicode="&#x7d;" d="M201 480L201 379Q201 350 211 338Q221 326 243 326Q263 326 263 304L263 237Q263 215 243 215Q221 215 211 203Q201 191 201 162L201 61Q201-102 51-102L44-102Q23-102 23-81L23-34Q23-13 44-13L47-13Q77-13 88.50 0.50Q100 14 100 46L100 172Q100 253 162 270Q100 290 100 369L100 495Q100 527 88.50 540.50Q77 554 47 554L44 554Q23 554 23 575L23 622Q23 643 44 643L51 643Q201 643 201 480Z"  horiz-adv-x="315" vert-adv-y="1000"  />

      
      <glyph glyph-name="uni7e" unicode="&#x7e;" d="M390 258Q390 258 368 258Q346 258 278 273.50Q210 289 180 289Q150 289 119.50 274Q89 259 84 259Q70 259 70 273L70 331Q70 346 76 354Q82 362 108.50 373Q135 384 174 384Q213 384 279.50 368Q346 352 380.50 352Q415 352 445.50 367Q476 382 481 382Q495 382 495 369L495 310Q495 284 467 273Q434 258 390 258Z"  horiz-adv-x="565" vert-adv-y="1000"  />

      
      <glyph glyph-name="unia1" unicode="&#xa1;" d="M164 480L76 480Q56 480 56 500L56 621Q56 643 76 643L164 643Q184 643 184 622L184 499Q184 480 164 480M90 415L147 415Q166 415 170 394Q170 393 172 378Q174 363 176 339Q178 315 180 288Q187 216 187 176L187 21Q187 0 166 0L71 0Q50 0 50 21L50 176Q50 266 58.50 329.50Q67 393 67 394Q71 415 90 415Z"  horiz-adv-x="238" vert-adv-y="1000"  />

      
      <glyph glyph-name="unia2" unicode="&#xa2;" d="M287-94L224-94Q204-94 204-74L204 0L197 0Q125 0 85 43.50Q45 87 45 163L45 347Q45 423 85 466.50Q125 510 197 510L204 510L204 587Q204 607 224 607L287 607Q306 607 306 588L306 510L353 510Q366 510 378.50 504.50Q391 499 391 489L391 420Q391 400 369 400L230 400Q199 400 185.50 386.50Q172 373 172 341L172 169Q172 137 185.50 123.50Q199 110 230 110L369 110Q391 110 391 90L391 21Q391 0 369 0L306 0L306-75Q306-94 287-94Z"  horiz-adv-x="430" vert-adv-y="1000"  />

      
      <glyph glyph-name="unia3" unicode="&#xa3;" d="M170 103L474 103Q494 103 494 81L494 21Q494 0 474 0L44 0Q23 0 23 21L23 81Q23 103 44 103L51 103Q91 103 91 167L91 249L44 249Q23 249 23 271L23 331Q23 352 44 352L91 352L91 481Q91 559 134 601Q177 643 256 643L321 643Q400 643 443 601Q486 559 486 481L486 456Q486 435 464 435L380 435Q359 435 359 456L359 479Q359 511 345.50 524Q332 537 300 537L277 537Q244 537 229.50 523.50Q215 510 215 479L215 352L325 352Q346 352 346 331L346 271Q346 249 325 249L215 249L215 184Q215 151 202 129Q189 107 170 107L170 103Z"  horiz-adv-x="557" vert-adv-y="1000"  />

      
      <glyph glyph-name="unia5" unicode="&#xa5;" d="M314 0L229 0Q208 0 208 21L208 153L69 153Q46 153 46 176L46 214Q46 238 69 238L203 238L203 245L176 303L69 303Q46 303 46 326L46 364Q46 388 69 388L136 388L24 622Q15 643 37 643L145 643Q154 643 158 639Q161 635 269 366L273 366Q383 636 386 639.50Q389 643 399 643L506 643Q528 643 519 622L408 388L473 388Q486 388 491 382.50Q496 377 496 364L496 326Q496 303 473 303L367 303L340 245L340 238L473 238Q486 238 491 232.50Q496 227 496 214L496 176Q496 153 473 153L335 153L335 21Q335 0 314 0Z"  horiz-adv-x="543" vert-adv-y="1000"  />

      
      <glyph glyph-name="unia6" unicode="&#xa6;" d="M158 622L158 392Q158 371 137 371L93 371Q72 371 72 392L72 622Q72 643 93 643L137 643Q158 643 158 622M158 251L158 21Q158 0 137 0L93 0Q72 0 72 21L72 251Q72 272 93 272L137 272Q158 272 158 251Z"  horiz-adv-x="230" vert-adv-y="1000"  />

      
      <glyph glyph-name="unia7" unicode="&#xa7;" d="M312 301Q312 336 268 349Q213 363 177 376L177 344Q177 306 223 293Q293 276 312 268L312 301M265 0L98 0Q77 0 77 21L77 90Q77 110 98 110L255 110Q302 110 302 143Q302 159 289 168Q276 177 241 185L155 204Q60 225 60 335L60 508Q60 572 101.50 607.50Q143 643 223 643L387 643Q407 643 407 622L407 553Q407 542 402.50 537.50Q398 533 387 533L227 533Q187 533 187 502Q187 487 200 477Q213 467 249 459L335 440Q430 417 430 310L430 137Q430 72 388 36Q346 0 265 0Z"  horiz-adv-x="490" vert-adv-y="1000"  />

      
      <glyph glyph-name="unia8" unicode="&#xa8;" d="M53 595L53 683Q53 703 73 703L152 703Q172 703 172 684L172 595Q172 574 152 574L73 574Q53 574 53 595M243 595L243 683Q243 703 263 703L342 703Q362 703 362 684L362 595Q362 574 342 574L263 574Q243 574 243 595Z"  horiz-adv-x="416" vert-adv-y="1000"  />

      
      <glyph glyph-name="unia9" unicode="&#xa9;" d="M490 403L490 375Q490 362 477 362L424 362Q410 362 410 375L410 389Q410 423 401.50 431Q393 439 357 439L352 439Q317 439 308.50 431Q300 423 300 389L300 256Q300 221 308.50 213Q317 205 352 205L357 205Q393 205 401.50 213Q410 221 410 256L410 270Q410 284 424 284L477 284Q490 284 490 270L490 241Q490 190 461.50 162.50Q433 135 381 135L329 135Q277 135 248 162.50Q219 190 219 241L219 403Q219 455 248 482Q277 509 329 509L381 509Q433 509 461.50 482Q490 455 490 403M214 74L489 74Q526 74 543 89Q560 104 560 140L560 503Q560 539 543 554Q526 569 489 569L214 569Q177 569 160 554Q143 539 143 503L143 140Q143 104 160 89Q177 74 214 74M189 643L515 643Q574 643 607.50 610Q641 577 641 519L641 124Q641 66 607.50 33Q574 0 515 0L189 0Q130 0 96.50 33Q63 66 63 124L63 519Q63 577 96.50 610Q130 643 189 643Z"  horiz-adv-x="703" vert-adv-y="1000"  />

      
      <glyph glyph-name="uniab" unicode="&#xab;" d="M409 150L409 95Q409 84 403 81Q397 78 388 85L239 200Q227 209 223 215.50Q219 222 219 237L219 278Q219 299 239 313L388 428Q397 435 403 432Q409 429 409 418L409 363Q409 346 389 334L287 257L389 180Q409 167 409 150M235 150L235 95Q235 84 229 81Q223 78 214 85L65 200Q53 209 49 215.50Q45 222 45 237L45 278Q45 299 65 313L214 428Q223 435 229 432Q235 429 235 418L235 363Q235 346 215 334L113 257L215 180Q235 167 235 150Z"  horiz-adv-x="454" vert-adv-y="1000"  />

      
      <glyph glyph-name="uniae" unicode="&#xae;" d="M249 603L219 603L219 554L249 554Q260 554 260 565L260 593Q260 603 249 603M174 467L174 625Q174 636 178 640Q182 644 194 644L253 644Q306 644 306 598L306 560Q306 530 285 520L307 474Q319 449 293 449L283 449Q270 449 265 462L240 518L219 518L219 467Q219 456 215.50 452.50Q212 449 201 449L194 449Q182 449 178 452.50Q174 456 174 467M172 416L303 416Q334 416 347.50 429Q361 442 361 474L361 619Q361 650 347.50 663.50Q334 677 303 677L172 677Q140 677 127 663.50Q114 650 114 619L114 474Q114 442 127 429Q140 416 172 416M315 368L160 368Q115 368 88.50 393.50Q62 419 62 462L62 631Q62 674 88.50 699.50Q115 725 160 725L315 725Q361 725 387 700Q413 675 413 631L413 462Q413 418 387 393Q361 368 315 368Z"  horiz-adv-x="475" vert-adv-y="1000"  />

      
      <glyph glyph-name="uniaf" unicode="&#xaf;" d="M271 595L74 595Q53 595 53 617L53 661Q53 682 74 682L271 682Q292 682 292 661L292 617Q292 595 271 595Z"  horiz-adv-x="345" vert-adv-y="1000"  />

      
      <glyph glyph-name="unib0" unicode="&#xb0;" d="M220 510L158 510Q109 510 109 559L109 656Q109 703 158 703L220 703Q243 703 256.50 690.50Q270 678 270 656L270 559Q270 536 256.50 523Q243 510 220 510M196 557Q209 557 213.50 561Q218 565 218 578L218 634Q218 648 213.50 652Q209 656 196 656L182 656Q168 656 164 652Q160 648 160 634L160 578Q160 565 164.50 561Q169 557 182 557L196 557Z"  horiz-adv-x="379" vert-adv-y="1000"  />

      
      <glyph glyph-name="unib1" unicode="&#xb1;" d="M336 442L472 442Q485 442 490 436.50Q495 431 495 418L495 365Q495 352 490 346.50Q485 341 472 341L336 341L336 272Q336 248 312 248L253 248Q229 248 229 272L229 341L93 341Q80 341 75 346.50Q70 352 70 365L70 418Q70 431 75 436.50Q80 442 93 442L229 442L229 510Q229 534 253 534L312 534Q336 534 336 510L336 442M93 209L472 209Q495 209 495 186L495 132Q495 108 472 108L93 108Q70 108 70 132L70 186Q70 209 93 209Z"  horiz-adv-x="565" vert-adv-y="1000"  />

      
      <glyph glyph-name="unib4" unicode="&#xb4;" d="M132 703L231 703Q241 703 244 697Q247 691 241 683L159 587Q148 574 131 574L68 574Q47 574 57 595L102 684Q112 703 132 703Z"  horiz-adv-x="298" vert-adv-y="1000"  />

      
      <glyph glyph-name="unib6" unicode="&#xb6;" d="M257 0L197 0Q176 0 176 21L176 318Q124 318 87 349.50Q50 381 50 443L50 517Q50 583 92.50 613Q135 643 196 643L451 643Q472 643 472 623L472 21Q472 0 451 0L391 0Q370 0 370 21L370 538Q370 549 358 549L290 549Q278 549 278 538L278 21Q278 0 257 0Z"  horiz-adv-x="546" vert-adv-y="1000"  />

      
      <glyph glyph-name="unib7" unicode="&#xb7;" d="M167 380L167 257Q167 236 148 236L59 236Q39 236 39 257L39 379Q39 399 59 399L148 399Q167 399 167 380Z"  horiz-adv-x="207" vert-adv-y="1000"  />

      
      <glyph glyph-name="unib8" unicode="&#xb8;" d="M138-37Q212-37 212-112L212-130Q212-200 118-200L73-200Q62-200 58.50-196.50Q55-193 55-182L55-162Q55-151 58.50-147Q62-143 73-143L106-143Q133-143 142-138.50Q151-134 151-120L151-118Q151-103 142-98.50Q133-94 106-94L81-94Q63-94 56-74.50Q49-55 62-39L113 20L191 20L138-33L138-37Z"  horiz-adv-x="266" vert-adv-y="1000"  />

      
      <glyph glyph-name="unibb" unicode="&#xbb;" d="M219 363L219 418Q219 429 224.50 432Q230 435 239 428L389 313Q409 299 409 278L409 237Q409 222 405 215.50Q401 209 389 200L239 85Q230 78 224.50 81Q219 84 219 95L219 150Q219 167 238 180L341 257L238 334Q219 346 219 363M45 363L45 418Q45 429 50.50 432Q56 435 65 428L215 313Q235 299 235 278L235 237Q235 222 231 215.50Q227 209 215 200L65 85Q56 78 50.50 81Q45 84 45 95L45 150Q45 167 64 180L167 257L64 334Q45 346 45 363Z"  horiz-adv-x="454" vert-adv-y="1000"  />

      
      <glyph glyph-name="unibf" unicode="&#xbf;" d="M177 498L177 621Q177 642 197 642L286 642Q305 642 305 620L305 499Q305 479 286 479L197 479Q177 479 177 498M177 367L177 393Q177 414 198 414L277 414Q298 414 298 393L298 366Q298 334 287 313Q276 292 250 271L194 225Q162 201 162 170L162 164Q162 133 176.50 119.50Q191 106 223 106L241 106Q273 106 286.50 119Q300 132 300 164L300 185Q300 207 321 207L406 207Q427 207 427 185L427 162Q427 84 384 42Q341 0 262 0L203 0Q124 0 81 42Q38 84 38 162L38 176Q38 225 83 264L151 319Q177 344 177 367Z"  horiz-adv-x="466" vert-adv-y="1000"  />

      
      <glyph glyph-name="unic0" unicode="&#xc0;" d="M309 707L243 707Q227 707 217 720L136 816Q129 824 132 830Q135 836 146 836L244 836Q264 836 274 817L319 728Q329 707 309 707M132 0L36 0Q18 0 24 21L182 622Q189 643 212 643L345 643Q370 643 375 622L533 21Q539 0 521 0L425 0Q414 0 410 4.50Q406 9 404 21L376 131L181 131L153 21Q151 9 146.50 4.50Q142 0 132 0M277 522L205 233L353 233L281 522L277 522Z"  horiz-adv-x="556" vert-adv-y="1000"  />

      
      <glyph glyph-name="unic1" unicode="&#xc1;" d="M307 836L406 836Q417 836 420 830Q423 824 416 816L335 720Q324 707 309 707L243 707Q223 707 233 728L278 817Q288 836 307 836M132 0L36 0Q18 0 24 21L182 622Q189 643 212 643L345 643Q370 643 375 622L533 21Q539 0 521 0L425 0Q414 0 410 4.50Q406 9 404 21L376 131L181 131L153 21Q151 9 146.50 4.50Q142 0 132 0M277 522L205 233L353 233L281 522L277 522Z"  horiz-adv-x="556" vert-adv-y="1000"  />

      
      <glyph glyph-name="unic2" unicode="&#xc2;" d="M389 707L329 707Q316 707 311 719L279 785L246 719Q242 707 229 707L170 707Q155 707 162 720L224 825Q232 836 246 836L311 836Q325 836 333 825L396 720Q403 707 389 707M132 0L36 0Q18 0 24 21L182 622Q189 643 212 643L345 643Q370 643 375 622L533 21Q539 0 521 0L425 0Q414 0 410 4.50Q406 9 404 21L376 131L181 131L153 21Q151 9 146.50 4.50Q142 0 132 0M277 522L205 233L353 233L281 522L277 522Z"  horiz-adv-x="556" vert-adv-y="1000"  />

      
      <glyph glyph-name="unic3" unicode="&#xc3;" d="M231 702Q159 702 159 778L159 817Q159 824 161 826Q163 828 170 828L209 828Q220 828 220 817L220 805Q220 783 223 776Q226 769 233 769Q240 769 245.50 774.50Q251 780 272 806.50Q293 833 327 833Q399 833 399 756L399 719Q399 706 389 706L349 706Q339 706 339 719L339 729Q339 751 335.50 758Q332 765 324 765Q312 765 294 738Q268 702 231 702M132 0L36 0Q18 0 24 21L182 622Q189 643 212 643L345 643Q370 643 375 622L533 21Q539 0 521 0L425 0Q414 0 410 4.50Q406 9 404 21L376 131L181 131L153 21Q151 9 146.50 4.50Q142 0 132 0M277 522L205 233L353 233L281 522L277 522Z"  horiz-adv-x="556" vert-adv-y="1000"  />

      
      <glyph glyph-name="unic4" unicode="&#xc4;" d="M124 728L124 816Q124 836 143 836L223 836Q242 836 242 817L242 728Q242 707 223 707L143 707Q124 707 124 728M314 728L314 816Q314 836 333 836L413 836Q432 836 432 817L432 728Q432 707 413 707L333 707Q314 707 314 728M132 0L36 0Q18 0 24 21L182 622Q189 643 212 643L345 643Q370 643 375 622L533 21Q539 0 521 0L425 0Q414 0 410 4.50Q406 9 404 21L376 131L181 131L153 21Q151 9 146.50 4.50Q142 0 132 0M277 522L205 233L353 233L281 522L277 522Z"  horiz-adv-x="556" vert-adv-y="1000"  />

      
      <glyph glyph-name="unic5" unicode="&#xc5;" d="M306 704L249 704Q195 704 195 758L195 822Q195 874 249 874L306 874Q331 874 346 860Q361 846 361 822L361 758Q361 732 346 718Q331 704 306 704M269 750L285 750Q298 750 303 755.50Q308 761 308 775L308 801Q308 816 303.50 821.50Q299 827 286 827L270 827Q257 827 251.50 821.50Q246 816 246 801L246 775Q246 761 251 755.50Q256 750 269 750M132 0L36 0Q18 0 24 21L182 622Q189 643 212 643L345 643Q370 643 375 622L533 21Q539 0 521 0L425 0Q414 0 410 4.50Q406 9 404 21L376 131L181 131L153 21Q151 9 146.50 4.50Q142 0 132 0M277 522L205 233L353 233L281 522L277 522Z"  horiz-adv-x="556" vert-adv-y="1000"  />

      
      <glyph glyph-name="unic6" unicode="&#xc6;" d="M112 0L20 0Q-2 0 7 22L284 622Q294 643 317 643L716 643Q736 643 736 622L736 554Q736 533 716 533L507 533Q495 533 495 522L495 392Q495 381 507 381L678 381Q699 381 699 360L699 292Q699 271 678 271L507 271Q495 271 495 260L495 121Q495 110 507 110L716 110Q736 110 736 89L736 21Q736 0 716 0L389 0Q368 0 368 21L368 132L190 132L139 21Q131 0 112 0M368 243L368 522L364 522L237 243L368 243Z"  horiz-adv-x="781" vert-adv-y="1000"  />

      
      <glyph glyph-name="unic7" unicode="&#xc7;" d="M472 411L388 411Q367 411 367 433L367 474Q367 506 353.50 519.50Q340 533 308 533L240 533Q209 533 195.50 519.50Q182 506 182 474L182 169Q182 137 195.50 123.50Q209 110 240 110L308 110Q340 110 353.50 123.50Q367 137 367 169L367 210Q367 232 388 232L472 232Q494 232 494 210L494 163Q494 85 450.50 42.50Q407 0 329 0L328 0L288-41L288-45Q362-45 362-120L362-138Q362-174 336.50-191.50Q311-209 268-209L222-209Q211-209 207.50-205Q204-201 204-190L204-171Q204-159 207.50-155Q211-151 222-151L256-151Q283-151 292-146.50Q301-142 301-129L301-126Q301-111 292-106.50Q283-102 256-102L230-102Q212-102 205-82.50Q198-63 212-47L252 0L220 0Q141 0 98 42Q55 84 55 163L55 480Q55 559 98 601Q141 643 220 643L329 643Q407 643 450.50 600.50Q494 558 494 480L494 433Q494 411 472 411Z"  horiz-adv-x="538" vert-adv-y="1000"  />

      
      <glyph glyph-name="unic8" unicode="&#xc8;" d="M280 707L214 707Q198 707 188 720L107 816Q100 824 103 830Q106 836 117 836L215 836Q236 836 245 817L290 728Q300 707 280 707M413 0L86 0Q65 0 65 21L65 622Q65 643 86 643L413 643Q433 643 433 622L433 554Q433 533 413 533L204 533Q192 533 192 522L192 392Q192 381 204 381L375 381Q396 381 396 360L396 292Q396 271 375 271L204 271Q192 271 192 260L192 121Q192 110 204 110L413 110Q433 110 433 89L433 21Q433 0 413 0Z"  horiz-adv-x="479" vert-adv-y="1000"  />

      
      <glyph glyph-name="unic9" unicode="&#xc9;" d="M268 836L367 836Q378 836 381 830Q384 824 377 816L296 720Q285 707 269 707L204 707Q184 707 194 728L238 817Q249 836 268 836M413 0L86 0Q65 0 65 21L65 622Q65 643 86 643L413 643Q433 643 433 622L433 554Q433 533 413 533L204 533Q192 533 192 522L192 392Q192 381 204 381L375 381Q396 381 396 360L396 292Q396 271 375 271L204 271Q192 271 192 260L192 121Q192 110 204 110L413 110Q433 110 433 89L433 21Q433 0 413 0Z"  horiz-adv-x="479" vert-adv-y="1000"  />

      
      <glyph glyph-name="unica" unicode="&#xca;" d="M358 707L298 707Q285 707 281 719L248 785L216 719Q211 707 198 707L139 707Q124 707 131 720L194 825Q202 836 216 836L281 836Q295 836 303 825L365 720Q372 707 358 707M413 0L86 0Q65 0 65 21L65 622Q65 643 86 643L413 643Q433 643 433 622L433 554Q433 533 413 533L204 533Q192 533 192 522L192 392Q192 381 204 381L375 381Q396 381 396 360L396 292Q396 271 375 271L204 271Q192 271 192 260L192 121Q192 110 204 110L413 110Q433 110 433 89L433 21Q433 0 413 0Z"  horiz-adv-x="479" vert-adv-y="1000"  />

      
      <glyph glyph-name="unicb" unicode="&#xcb;" d="M95 728L95 816Q95 836 114 836L194 836Q214 836 214 817L214 728Q214 707 194 707L114 707Q95 707 95 728M285 728L285 816Q285 836 304 836L384 836Q404 836 404 817L404 728Q404 707 384 707L304 707Q285 707 285 728M413 0L86 0Q65 0 65 21L65 622Q65 643 86 643L413 643Q433 643 433 622L433 554Q433 533 413 533L204 533Q192 533 192 522L192 392Q192 381 204 381L375 381Q396 381 396 360L396 292Q396 271 375 271L204 271Q192 271 192 260L192 121Q192 110 204 110L413 110Q433 110 433 89L433 21Q433 0 413 0Z"  horiz-adv-x="479" vert-adv-y="1000"  />

      
      <glyph glyph-name="unicc" unicode="&#xcc;" d="M166 707L101 707Q85 707 75 720L-6 816Q-13 824-10 830Q-7 836 3 836L102 836Q122 836 132 817L177 728Q187 707 166 707M197 622L197 21Q197 0 176 0L91 0Q70 0 70 21L70 622Q70 643 91 643L176 643Q197 643 197 622Z"  horiz-adv-x="267" vert-adv-y="1000"  />

      
      <glyph glyph-name="unicd" unicode="&#xcd;" d="M164 836L263 836Q274 836 277 830Q280 824 273 816L192 720Q181 707 165 707L100 707Q80 707 90 728L134 817Q145 836 164 836M197 622L197 21Q197 0 176 0L91 0Q70 0 70 21L70 622Q70 643 91 643L176 643Q197 643 197 622Z"  horiz-adv-x="267" vert-adv-y="1000"  />

      
      <glyph glyph-name="unice" unicode="&#xce;" d="M242 707L182 707Q170 707 165 719L132 785L100 719Q95 707 82 707L24 707Q8 707 15 720L78 825Q86 836 100 836L165 836Q179 836 187 825L249 720Q256 707 242 707M197 622L197 21Q197 0 176 0L91 0Q70 0 70 21L70 622Q70 643 91 643L176 643Q197 643 197 622Z"  horiz-adv-x="265" vert-adv-y="1000"  />

      
      <glyph glyph-name="unicf" unicode="&#xcf;" d="M-21 728L-21 816Q-21 836-2 836L78 836Q98 836 98 817L98 728Q98 707 78 707L-2 707Q-21 707-21 728M169 728L169 816Q169 836 188 836L268 836Q288 836 288 817L288 728Q288 707 268 707L188 707Q169 707 169 728M197 622L197 21Q197 0 176 0L91 0Q70 0 70 21L70 622Q70 643 91 643L176 643Q197 643 197 622Z"  horiz-adv-x="266" vert-adv-y="1000"  />

      
      <glyph glyph-name="unid0" unicode="&#xd0;" d="M217 110L326 110Q358 110 371.50 123.50Q385 137 385 169L385 474Q385 506 371.50 519.50Q358 533 326 533L217 533Q206 533 206 522L206 380Q206 369 217 369L293 369Q314 369 314 348L314 296Q314 275 293 275L217 275Q206 275 206 264L206 121Q206 110 217 110M347 0L100 0Q79 0 79 21L79 264Q79 275 68 275L42 275Q30 275 25.50 279.50Q21 284 21 296L21 348Q21 369 42 369L68 369Q79 369 79 380L79 622Q79 643 100 643L347 643Q426 643 469 601Q512 559 512 480L512 163Q512 84 469 42Q426 0 347 0Z"  horiz-adv-x="566" vert-adv-y="1000"  />

      
      <glyph glyph-name="unid1" unicode="&#xd1;" d="M245 702Q174 702 174 778L174 817Q174 828 184 828L223 828Q230 828 232 826Q234 824 234 817L234 805Q234 783 237 776Q240 769 248 769Q256 769 282 801Q306 833 342 833Q414 833 414 756L414 719Q414 706 403 706L364 706Q353 706 353 719L353 729Q353 751 350 758Q347 765 338.50 765Q330 765 308 738Q283 702 245 702M169 0L86 0Q65 0 65 21L65 622Q65 643 86 643L161 643Q182 643 189 629L391 250L395 250L395 622Q395 643 416 643L499 643Q520 643 520 622L520 21Q520 0 499 0L426 0Q404 0 394 20L194 392L190 392L190 21Q190 0 169 0Z"  horiz-adv-x="585" vert-adv-y="1000"  />

      
      <glyph glyph-name="unid2" unicode="&#xd2;" d="M308 707L242 707Q226 707 216 720L135 816Q128 824 131 830Q134 836 144 836L243 836Q264 836 273 817L318 728Q328 707 308 707M240 110L311 110Q343 110 356.50 123.50Q370 137 370 169L370 474Q370 506 356.50 519.50Q343 533 311 533L240 533Q208 533 195 519.50Q182 506 182 474L182 169Q182 137 195 123.50Q208 110 240 110M332 0L220 0Q141 0 98 42Q55 84 55 163L55 480Q55 559 98 601Q141 643 220 643L332 643Q411 643 454 601Q497 559 497 480L497 163Q497 84 454 42Q411 0 332 0Z"  horiz-adv-x="552" vert-adv-y="1000"  />

      
      <glyph glyph-name="unid3" unicode="&#xd3;" d="M298 836L397 836Q407 836 410 830Q413 824 406 816L325 720Q315 707 299 707L233 707Q213 707 223 728L268 817Q278 836 298 836M240 110L311 110Q343 110 356.50 123.50Q370 137 370 169L370 474Q370 506 356.50 519.50Q343 533 311 533L240 533Q208 533 195 519.50Q182 506 182 474L182 169Q182 137 195 123.50Q208 110 240 110M332 0L220 0Q141 0 98 42Q55 84 55 163L55 480Q55 559 98 601Q141 643 220 643L332 643Q411 643 454 601Q497 559 497 480L497 163Q497 84 454 42Q411 0 332 0Z"  horiz-adv-x="552" vert-adv-y="1000"  />

      
      <glyph glyph-name="unid4" unicode="&#xd4;" d="M389 707L329 707Q316 707 312 719L279 785L247 719Q242 707 229 707L170 707Q155 707 162 720L225 825Q233 836 247 836L312 836Q326 836 334 825L396 720Q403 707 389 707M240 110L311 110Q343 110 356.50 123.50Q370 137 370 169L370 474Q370 506 356.50 519.50Q343 533 311 533L240 533Q208 533 195 519.50Q182 506 182 474L182 169Q182 137 195 123.50Q208 110 240 110M332 0L220 0Q141 0 98 42Q55 84 55 163L55 480Q55 559 98 601Q141 643 220 643L332 643Q411 643 454 601Q497 559 497 480L497 163Q497 84 454 42Q411 0 332 0Z"  horiz-adv-x="552" vert-adv-y="1000"  />

      
      <glyph glyph-name="unid5" unicode="&#xd5;" d="M228 702Q156 702 156 778L156 817Q156 828 167 828L206 828Q213 828 215 826Q217 824 217 817L217 805Q217 783 220 776Q223 769 231 769Q239 769 265 801Q289 833 325 833Q396 833 396 756L396 719Q396 706 386 706L347 706Q336 706 336 719L336 729Q336 751 333 758Q330 765 321.50 765Q313 765 291 738Q266 702 228 702M240 110L311 110Q343 110 356.50 123.50Q370 137 370 169L370 474Q370 506 356.50 519.50Q343 533 311 533L240 533Q208 533 195 519.50Q182 506 182 474L182 169Q182 137 195 123.50Q208 110 240 110M332 0L220 0Q141 0 98 42Q55 84 55 163L55 480Q55 559 98 601Q141 643 220 643L332 643Q411 643 454 601Q497 559 497 480L497 163Q497 84 454 42Q411 0 332 0Z"  horiz-adv-x="552" vert-adv-y="1000"  />

      
      <glyph glyph-name="unid6" unicode="&#xd6;" d="M122 728L122 816Q122 836 141 836L221 836Q240 836 240 817L240 728Q240 707 221 707L141 707Q122 707 122 728M312 728L312 816Q312 836 331 836L411 836Q430 836 430 817L430 728Q430 707 411 707L331 707Q312 707 312 728M240 110L311 110Q343 110 356.50 123.50Q370 137 370 169L370 474Q370 506 356.50 519.50Q343 533 311 533L240 533Q208 533 195 519.50Q182 506 182 474L182 169Q182 137 195 123.50Q208 110 240 110M332 0L220 0Q141 0 98 42Q55 84 55 163L55 480Q55 559 98 601Q141 643 220 643L332 643Q411 643 454 601Q497 559 497 480L497 163Q497 84 454 42Q411 0 332 0Z"  horiz-adv-x="552" vert-adv-y="1000"  />

      
      <glyph glyph-name="unid7" unicode="&#xd7;" d="M336 322L436 221Q453 205 436 188L393 146Q377 129 360 145L260 246L159 145Q143 129 127 146L84 188Q67 205 83 221L184 322L84 421Q68 438 85 454L127 497Q144 514 160 497L260 398L359 497Q376 514 393 497L435 454Q452 438 435 421L336 322Z"  horiz-adv-x="521" vert-adv-y="1000"  />

      
      <glyph glyph-name="unid8" unicode="&#xd8;" d="M515 480L515 163Q515 85 472 42.50Q429 0 351 0L230 0Q167 0 125 28L108 4Q96-12 77-1L56 15Q39 27 51 45L79 85Q65 119 65 163L65 480Q65 559 108 601Q151 643 230 643L351 643Q415 643 456 614L473 638Q486 655 504 643L525 628Q542 616 531 598L501 556Q515 523 515 480M192 474L192 243L382 510Q370 533 330 533L250 533Q218 533 205 519.50Q192 506 192 474M388 169L388 397L199 132Q211 110 250 110L330 110Q362 110 375 123.50Q388 137 388 169Z"  horiz-adv-x="580" vert-adv-y="1000"  />

      
      <glyph glyph-name="unid9" unicode="&#xd9;" d="M312 707L247 707Q231 707 220 720L139 816Q133 824 136 830Q139 836 149 836L248 836Q267 836 278 817L322 728Q333 707 312 707M394 643L478 643Q500 643 500 623L500 163Q500 85 456.50 42.50Q413 0 335 0L225 0Q146 0 103 42Q60 84 60 163L60 622Q60 643 81 643L166 643Q187 643 187 622L187 169Q187 137 200.50 123.50Q214 110 245 110L314 110Q346 110 359.50 123.50Q373 137 373 169L373 622Q373 643 394 643Z"  horiz-adv-x="560" vert-adv-y="1000"  />

      
      <glyph glyph-name="unida" unicode="&#xda;" d="M309 836L408 836Q418 836 421 830Q424 824 418 816L336 720Q326 707 310 707L245 707Q224 707 234 728L279 817Q288 836 309 836M394 643L478 643Q500 643 500 623L500 163Q500 85 456.50 42.50Q413 0 335 0L225 0Q146 0 103 42Q60 84 60 163L60 622Q60 643 81 643L166 643Q187 643 187 622L187 169Q187 137 200.50 123.50Q214 110 245 110L314 110Q346 110 359.50 123.50Q373 137 373 169L373 622Q373 643 394 643Z"  horiz-adv-x="560" vert-adv-y="1000"  />

      
      <glyph glyph-name="unidb" unicode="&#xdb;" d="M392 707L333 707Q320 707 315 719L282 785L250 719Q245 707 232 707L174 707Q158 707 165 720L228 825Q236 836 250 836L315 836Q329 836 337 825L400 720Q407 707 392 707M394 643L478 643Q500 643 500 623L500 163Q500 85 456.50 42.50Q413 0 335 0L225 0Q146 0 103 42Q60 84 60 163L60 622Q60 643 81 643L166 643Q187 643 187 622L187 169Q187 137 200.50 123.50Q214 110 245 110L314 110Q346 110 359.50 123.50Q373 137 373 169L373 622Q373 643 394 643Z"  horiz-adv-x="560" vert-adv-y="1000"  />

      
      <glyph glyph-name="unidc" unicode="&#xdc;" d="M126 728L126 816Q126 836 145 836L225 836Q244 836 244 817L244 728Q244 707 225 707L145 707Q126 707 126 728M316 728L316 816Q316 836 335 836L415 836Q434 836 434 817L434 728Q434 707 415 707L335 707Q316 707 316 728M394 643L478 643Q500 643 500 623L500 163Q500 85 456.50 42.50Q413 0 335 0L225 0Q146 0 103 42Q60 84 60 163L60 622Q60 643 81 643L166 643Q187 643 187 622L187 169Q187 137 200.50 123.50Q214 110 245 110L314 110Q346 110 359.50 123.50Q373 137 373 169L373 622Q373 643 394 643Z"  horiz-adv-x="560" vert-adv-y="1000"  />

      
      <glyph glyph-name="unidd" unicode="&#xdd;" d="M284 836L383 836Q393 836 396 830Q399 824 393 816L312 720Q301 707 285 707L220 707Q199 707 210 728L254 817Q265 836 284 836M301 0L216 0Q195 0 195 21L195 235L12 621Q8 630 12.50 636.50Q17 643 26 643L132 643Q148 643 156 622L256 379L263 379L361 622Q368 643 385 643L491 643Q501 643 505.50 637Q510 631 505 621L322 235L322 21Q322 0 301 0Z"  horiz-adv-x="517" vert-adv-y="1000"  />

      
      <glyph glyph-name="unide" unicode="&#xde;" d="M217 242L280 242Q312 242 325 255Q338 268 338 300L338 341Q338 373 325 386.50Q312 400 280 400L217 400Q206 400 206 389L206 253Q206 242 217 242M185 0L100 0Q79 0 79 21L79 622Q79 643 100 643L185 643Q206 643 206 622L206 521Q206 510 218 510L301 510Q379 510 422.50 467.50Q466 425 466 347L466 294Q466 216 422.50 173.50Q379 131 301 131L218 131Q206 131 206 120L206 21Q206 0 185 0Z"  horiz-adv-x="504" vert-adv-y="1000"  />

      
      <glyph glyph-name="unidf" unicode="&#xdf;" d="M281 372L296 372Q329 372 344 386Q359 400 359 431L359 479Q359 510 344.50 523Q330 536 298 536L241 536Q210 536 196.50 523Q183 510 183 479L183 21Q183 0 162 0L77 0Q56 0 56 21L56 480Q56 559 99 601Q142 643 221 643L318 643Q397 643 440 600Q483 557 483 478L483 425Q483 343 412 320Q453 314 473 281.50Q493 249 493 203L493 154Q493 0 328 0L268 0Q256 0 251.50 4.50Q247 9 247 20L247 85Q247 106 268 106L308 106Q340 106 354.50 119.50Q369 133 369 164L369 206Q369 265 305 265L281 265Q269 265 265 269.50Q261 274 261 285L261 351Q261 372 281 372Z"  horiz-adv-x="543" vert-adv-y="1000"  />

      
      <glyph glyph-name="unie0" unicode="&#xe0;" d="M319 574L254 574Q238 574 227 587L146 683Q140 691 143 697Q146 703 156 703L255 703Q276 703 285 684L330 595Q340 574 319 574M234 0L210 0Q131 0 88 42Q45 84 45 163L45 347Q45 426 88 468Q131 510 210 510L441 510Q463 510 463 489L463 21Q463 0 441 0L357 0Q336 0 336 21L336 54L332 54Q321 27 293 13.50Q265 0 234 0M336 186L336 389Q336 400 324 400L230 400Q198 400 185 386.50Q172 373 172 341L172 169Q172 137 185 123.50Q198 110 230 110L267 110Q336 110 336 186Z"  horiz-adv-x="518" vert-adv-y="1000"  />

      
      <glyph glyph-name="unie1" unicode="&#xe1;" d="M301 703L400 703Q410 703 413 697Q416 691 409 683L328 587Q317 574 300 574L236 574Q216 574 226 595L271 684Q280 703 301 703M234 0L210 0Q131 0 88 42Q45 84 45 163L45 347Q45 426 88 468Q131 510 210 510L441 510Q463 510 463 489L463 21Q463 0 441 0L357 0Q336 0 336 21L336 54L332 54Q321 27 293 13.50Q265 0 234 0M336 186L336 389Q336 400 324 400L230 400Q198 400 185 386.50Q172 373 172 341L172 169Q172 137 185 123.50Q198 110 230 110L267 110Q336 110 336 186Z"  horiz-adv-x="518" vert-adv-y="1000"  />

      
      <glyph glyph-name="unie2" unicode="&#xe2;" d="M379 574L319 574Q306 574 302 586L269 652L237 586Q232 574 219 574L160 574Q145 574 152 587L215 692Q223 703 237 703L302 703Q316 703 324 692L386 587Q393 574 379 574M234 0L210 0Q131 0 88 42Q45 84 45 163L45 347Q45 426 88 468Q131 510 210 510L441 510Q463 510 463 489L463 21Q463 0 441 0L357 0Q336 0 336 21L336 54L332 54Q321 27 293 13.50Q265 0 234 0M336 186L336 389Q336 400 324 400L230 400Q198 400 185 386.50Q172 373 172 341L172 169Q172 137 185 123.50Q198 110 230 110L267 110Q336 110 336 186Z"  horiz-adv-x="518" vert-adv-y="1000"  />

      
      <glyph glyph-name="unie3" unicode="&#xe3;" d="M153 650L153 688Q153 695 155 697.50Q157 700 164 700L203 700Q213 700 213 688L213 677Q213 656 216.50 648.50Q220 641 227 641Q234 641 239.50 646.50Q245 652 265.50 678Q286 704 321 704Q393 704 393 628L393 591Q393 578 383 578L343 578Q333 578 333 591L333 600Q333 623 329.50 630Q326 637 318.50 637Q311 637 307 633Q303 629 288 609Q262 574 225 574Q153 574 153 650M234 0L210 0Q131 0 88 42Q45 84 45 163L45 347Q45 426 88 468Q131 510 210 510L441 510Q463 510 463 489L463 21Q463 0 441 0L357 0Q336 0 336 21L336 54L332 54Q321 27 293 13.50Q265 0 234 0M336 186L336 389Q336 400 324 400L230 400Q198 400 185 386.50Q172 373 172 341L172 169Q172 137 185 123.50Q198 110 230 110L267 110Q336 110 336 186Z"  horiz-adv-x="518" vert-adv-y="1000"  />

      
      <glyph glyph-name="unie4" unicode="&#xe4;" d="M121 595L121 683Q121 703 140 703L220 703Q239 703 239 684L239 595Q239 574 220 574L140 574Q121 574 121 595M311 595L311 683Q311 703 330 703L410 703Q429 703 429 684L429 595Q429 574 410 574L330 574Q311 574 311 595M234 0L210 0Q131 0 88 42Q45 84 45 163L45 347Q45 426 88 468Q131 510 210 510L441 510Q463 510 463 489L463 21Q463 0 441 0L357 0Q336 0 336 21L336 54L332 54Q321 27 293 13.50Q265 0 234 0M336 186L336 389Q336 400 324 400L230 400Q198 400 185 386.50Q172 373 172 341L172 169Q172 137 185 123.50Q198 110 230 110L267 110Q336 110 336 186Z"  horiz-adv-x="518" vert-adv-y="1000"  />

      
      <glyph glyph-name="unie5" unicode="&#xe5;" d="M336 186L336 389Q336 400 324 400L230 400Q198 400 185 386.50Q172 373 172 341L172 169Q172 137 185 123.50Q198 110 230 110L267 110Q336 110 336 186M234 0L210 0Q131 0 88 42Q45 84 45 163L45 347Q45 426 88 468Q131 510 210 510L441 510Q463 510 463 489L463 21Q463 0 441 0L357 0Q336 0 336 21L336 54L332 54Q321 27 293 13.50Q265 0 234 0M234 654L234 624Q234 608 240 602.50Q246 597 261 597L277 597Q292 597 298 602.50Q304 608 304 624L304 654Q304 671 298.50 676.50Q293 682 278 682L261 682Q246 682 240 676.50Q234 671 234 654M191 607L191 675Q191 721 240 721L298 721Q348 721 348 675L348 607Q348 559 298 559L240 559Q191 559 191 607Z"  horiz-adv-x="518" vert-adv-y="1000"  />

      
      <glyph glyph-name="unie6" unicode="&#xe6;" d="M450 183L450 169Q450 137 463.50 123.50Q477 110 509 110L693 110Q714 110 714 89L714 20Q714 9 709.50 4.50Q705 0 693 0L488 0Q404 0 363 57Q330 0 222 0L206 0Q129 0 85 40.50Q41 81 41 156L41 167Q41 322 206 322L316 322Q323 322 323 330L323 343Q323 374 309 387Q295 400 265 400L102 400Q82 400 82 421L82 489Q82 510 102 510L261 510Q356 510 387 455Q418 510 506 510L550 510Q628 510 671 467.50Q714 425 714 347L714 215Q714 194 693 194L462 194Q450 194 450 183M604 291L604 341Q604 373 590.50 386.50Q577 400 545 400L510 400Q478 400 464 386.50Q450 373 450 342L450 291Q450 280 461 280L592 280Q604 280 604 291M324 178L324 221Q324 232 312 232L227 232Q189 232 174.50 218.50Q160 205 160 173L160 164Q160 130 175 116Q190 102 227 102L255 102Q293 102 308.50 120Q324 138 324 178Z"  horiz-adv-x="755" vert-adv-y="1000"  />

      
      <glyph glyph-name="unie7" unicode="&#xe7;" d="M359 400L230 400Q199 400 185.50 386.50Q172 373 172 341L172 169Q172 137 185.50 123.50Q199 110 230 110L359 110Q380 110 380 89L380 20Q380 9 375.50 4.50Q371 0 359 0L300 0L267-33L267-37Q341-37 341-112L341-130Q341-200 247-200L202-200Q190-200 186.50-196.50Q183-193 183-182L183-162Q183-151 187-147Q191-143 202-143L235-143Q262-143 271-138.50Q280-134 280-120L280-118Q280-103 271-98.50Q262-94 235-94L209-94Q191-94 184.50-74.50Q178-55 191-39L224 0L210 0Q131 0 88 42Q45 84 45 163L45 347Q45 426 88 468Q131 510 210 510L359 510Q380 510 380 489L380 420Q380 409 375.50 404.50Q371 400 359 400Z"  horiz-adv-x="411" vert-adv-y="1000"  />

      
      <glyph glyph-name="unie8" unicode="&#xe8;" d="M290 574L225 574Q209 574 199 587L117 683Q111 691 114 697Q117 703 127 703L226 703Q246 703 256 684L301 595Q311 574 290 574M431 0L210 0Q131 0 88 42Q45 84 45 163L45 347Q45 426 88 468Q131 510 210 510L289 510Q368 510 411 468Q454 426 454 347L454 220Q454 199 433 199L182 199Q170 199 170 188L170 166Q170 135 183.50 121.50Q197 108 229 108L431 108Q452 108 452 86L452 20Q452 9 447.50 4.50Q443 0 431 0M182 284L318 284Q329 284 329 295L329 343Q329 375 316 388Q303 401 271 401L229 401Q197 401 184 388Q171 375 171 343L171 295Q171 284 182 284Z"  horiz-adv-x="494" vert-adv-y="1000"  />

      
      <glyph glyph-name="unie9" unicode="&#xe9;" d="M282 703L380 703Q391 703 394 697Q397 691 390 683L309 587Q298 574 281 574L217 574Q197 574 207 595L252 684Q262 703 282 703M431 0L210 0Q131 0 88 42Q45 84 45 163L45 347Q45 426 88 468Q131 510 210 510L289 510Q368 510 411 468Q454 426 454 347L454 220Q454 199 433 199L182 199Q170 199 170 188L170 166Q170 135 183.50 121.50Q197 108 229 108L431 108Q452 108 452 86L452 20Q452 9 447.50 4.50Q443 0 431 0M182 284L318 284Q329 284 329 295L329 343Q329 375 316 388Q303 401 271 401L229 401Q197 401 184 388Q171 375 171 343L171 295Q171 284 182 284Z"  horiz-adv-x="494" vert-adv-y="1000"  />

      
      <glyph glyph-name="uniea" unicode="&#xea;" d="M364 574L305 574Q292 574 287 586L255 652L222 586Q218 574 205 574L146 574Q131 574 138 587L200 692Q208 703 222 703L287 703Q301 703 309 692L372 587Q379 574 364 574M431 0L210 0Q131 0 88 42Q45 84 45 163L45 347Q45 426 88 468Q131 510 210 510L289 510Q368 510 411 468Q454 426 454 347L454 220Q454 199 433 199L182 199Q170 199 170 188L170 166Q170 135 183.50 121.50Q197 108 229 108L431 108Q452 108 452 86L452 20Q452 9 447.50 4.50Q443 0 431 0M182 284L318 284Q329 284 329 295L329 343Q329 375 316 388Q303 401 271 401L229 401Q197 401 184 388Q171 375 171 343L171 295Q171 284 182 284Z"  horiz-adv-x="494" vert-adv-y="1000"  />

      
      <glyph glyph-name="unieb" unicode="&#xeb;" d="M100 595L100 683Q100 703 120 703L199 703Q219 703 219 684L219 595Q219 574 199 574L120 574Q100 574 100 595M290 595L290 683Q290 703 310 703L389 703Q409 703 409 684L409 595Q409 574 389 574L310 574Q290 574 290 595M431 0L210 0Q131 0 88 42Q45 84 45 163L45 347Q45 426 88 468Q131 510 210 510L289 510Q368 510 411 468Q454 426 454 347L454 220Q454 199 433 199L182 199Q170 199 170 188L170 166Q170 135 183.50 121.50Q197 108 229 108L431 108Q452 108 452 86L452 20Q452 9 447.50 4.50Q443 0 431 0M182 284L318 284Q329 284 329 295L329 343Q329 375 316 388Q303 401 271 401L229 401Q197 401 184 388Q171 375 171 343L171 295Q171 284 182 284Z"  horiz-adv-x="494" vert-adv-y="1000"  />

      
      <glyph glyph-name="uniec" unicode="&#xec;" d="M155 574L90 574Q74 574 64 587L-17 683Q-24 691-21 697Q-18 703-8 703L91 703Q112 703 121 684L166 595Q176 574 155 574M60 21L60 489Q60 510 80 510L166 510Q187 510 187 489L187 21Q187 8 182.50 4Q178 0 167 0L81 0Q60 0 60 21Z"  horiz-adv-x="247" vert-adv-y="1000"  />

      
      <glyph glyph-name="unied" unicode="&#xed;" d="M157 703L255 703Q266 703 269 697Q272 691 265 683L184 587Q173 574 156 574L92 574Q72 574 82 595L127 684Q136 703 157 703M60 21L60 489Q60 510 80 510L166 510Q187 510 187 489L187 21Q187 8 182.50 4Q178 0 167 0L81 0Q60 0 60 21Z"  horiz-adv-x="247" vert-adv-y="1000"  />

      
      <glyph glyph-name="uniee" unicode="&#xee;" d="M233 574L173 574Q160 574 156 586L123 652L91 586Q86 574 73 574L14 574Q-1 574 6 587L69 692Q77 703 91 703L156 703Q170 703 178 692L240 587Q247 574 233 574M60 21L60 489Q60 510 80 510L166 510Q187 510 187 489L187 21Q187 8 182.50 4Q178 0 167 0L81 0Q60 0 60 21Z"  horiz-adv-x="246" vert-adv-y="1000"  />

      
      <glyph glyph-name="unief" unicode="&#xef;" d="M-31 595L-31 683Q-31 703-12 703L68 703Q88 703 88 684L88 595Q88 574 68 574L-12 574Q-31 574-31 595M159 595L159 683Q159 703 178 703L258 703Q278 703 278 684L278 595Q278 574 258 574L178 574Q159 574 159 595M60 21L60 489Q60 510 80 510L166 510Q187 510 187 489L187 21Q187 8 182.50 4Q178 0 167 0L81 0Q60 0 60 21Z"  horiz-adv-x="246" vert-adv-y="1000"  />

      
      <glyph glyph-name="unif0" unicode="&#xf0;" d="M454 309L454 163Q454 85 411 42.50Q368 0 290 0L210 0Q131 0 88 42Q45 84 45 163L45 247Q45 326 88 368Q131 410 210 410L234 410Q266 410 298 396.50Q330 383 341 356L345 356Q336 392 311 417L226 512L146 445Q132 434 117 450L87 486Q77 501 90 512L167 577L111 640Q92 660 115 678L157 709Q176 723 194 705L248 645L330 714Q347 728 358 714L389 676Q402 657 387 645L308 579L403 474Q432 441 443 404Q454 367 454 309M327 169L327 224Q327 262 316 281Q305 300 267 300L239 300Q172 300 172 241L172 169Q172 137 185 123.50Q198 110 230 110L269 110Q301 110 314 123.50Q327 137 327 169Z"  horiz-adv-x="507" vert-adv-y="1000"  />

      
      <glyph glyph-name="unif1" unicode="&#xf1;" d="M134 650L134 688Q134 700 145 700L184 700Q191 700 193 697.50Q195 695 195 688L195 677Q195 655 198 648Q201 641 209 641Q217 641 242 672.50Q267 704 303 704Q374 704 374 628L374 591Q374 578 364 578L325 578Q314 578 314 591L314 600Q314 623 311 630Q308 637 299.50 637Q291 637 269 609Q244 574 206 574Q134 574 134 650M161 0L76 0Q55 0 55 21L55 489Q55 510 76 510L161 510Q182 510 182 489L182 456L186 456Q208 510 284 510L316 510Q473 510 473 347L473 21Q473 0 451 0L367 0Q346 0 346 21L346 341Q346 373 332.50 386.50Q319 400 287 400L251 400Q182 400 182 324L182 21Q182 0 161 0Z"  horiz-adv-x="523" vert-adv-y="1000"  />

      
      <glyph glyph-name="unif2" unicode="&#xf2;" d="M292 574L227 574Q211 574 200 587L119 683Q113 691 116 697Q119 703 129 703L228 703Q248 703 258 684L302 595Q313 574 292 574M299 0L210 0Q131 0 88 42Q45 84 45 163L45 347Q45 426 88 468Q131 510 210 510L299 510Q377 510 420.50 467.50Q464 425 464 347L464 163Q464 85 420.50 42.50Q377 0 299 0M229 109L280 109Q312 109 325.50 122Q339 135 339 167L339 343Q339 375 325.50 388Q312 401 280 401L229 401Q197 401 184 388Q171 375 171 343L171 167Q171 135 184 122Q197 109 229 109Z"  horiz-adv-x="509" vert-adv-y="1000"  />

      
      <glyph glyph-name="unif3" unicode="&#xf3;" d="M285 703L384 703Q395 703 398 697Q401 691 394 683L313 587Q300 574 285 574L221 574Q200 574 211 595L255 684Q266 703 285 703M299 0L210 0Q131 0 88 42Q45 84 45 163L45 347Q45 426 88 468Q131 510 210 510L299 510Q377 510 420.50 467.50Q464 425 464 347L464 163Q464 85 420.50 42.50Q377 0 299 0M229 109L280 109Q312 109 325.50 122Q339 135 339 167L339 343Q339 375 325.50 388Q312 401 280 401L229 401Q197 401 184 388Q171 375 171 343L171 167Q171 135 184 122Q197 109 229 109Z"  horiz-adv-x="509" vert-adv-y="1000"  />

      
      <glyph glyph-name="unif4" unicode="&#xf4;" d="M364 574L304 574Q291 574 287 586L254 652L222 586Q217 574 204 574L145 574Q130 574 137 587L200 692Q208 703 222 703L287 703Q301 703 309 692L371 587Q378 574 364 574M299 0L210 0Q131 0 88 42Q45 84 45 163L45 347Q45 426 88 468Q131 510 210 510L299 510Q377 510 420.50 467.50Q464 425 464 347L464 163Q464 85 420.50 42.50Q377 0 299 0M229 109L280 109Q312 109 325.50 122Q339 135 339 167L339 343Q339 375 325.50 388Q312 401 280 401L229 401Q197 401 184 388Q171 375 171 343L171 167Q171 135 184 122Q197 109 229 109Z"  horiz-adv-x="509" vert-adv-y="1000"  />

      
      <glyph glyph-name="unif5" unicode="&#xf5;" d="M126 650L126 688Q126 700 137 700L176 700Q183 700 185 697.50Q187 695 187 688L187 677Q187 655 190 648Q193 641 201 641Q209 641 234 672.50Q259 704 295 704Q366 704 366 628L366 591Q366 578 356 578L317 578Q306 578 306 591L306 600Q306 623 303 630Q300 637 291.50 637Q283 637 261 609Q237 574 198 574Q126 574 126 650M299 0L210 0Q131 0 88 42Q45 84 45 163L45 347Q45 426 88 468Q131 510 210 510L299 510Q377 510 420.50 467.50Q464 425 464 347L464 163Q464 85 420.50 42.50Q377 0 299 0M229 109L280 109Q312 109 325.50 122Q339 135 339 167L339 343Q339 375 325.50 388Q312 401 280 401L229 401Q197 401 184 388Q171 375 171 343L171 167Q171 135 184 122Q197 109 229 109Z"  horiz-adv-x="509" vert-adv-y="1000"  />

      
      <glyph glyph-name="unif6" unicode="&#xf6;" d="M100 595L100 683Q100 703 120 703L199 703Q219 703 219 684L219 595Q219 574 199 574L120 574Q100 574 100 595M290 595L290 683Q290 703 310 703L389 703Q409 703 409 684L409 595Q409 574 389 574L310 574Q290 574 290 595M299 0L210 0Q131 0 88 42Q45 84 45 163L45 347Q45 426 88 468Q131 510 210 510L299 510Q377 510 420.50 467.50Q464 425 464 347L464 163Q464 85 420.50 42.50Q377 0 299 0M229 109L280 109Q312 109 325.50 122Q339 135 339 167L339 343Q339 375 325.50 388Q312 401 280 401L229 401Q197 401 184 388Q171 375 171 343L171 167Q171 135 184 122Q197 109 229 109Z"  horiz-adv-x="509" vert-adv-y="1000"  />

      
      <glyph glyph-name="unif7" unicode="&#xf7;" d="M190 160L190 209Q190 229 211 229L254 229Q276 229 276 209L276 160Q276 139 254 139L211 139Q190 139 190 160M373 278L92 278Q71 278 71 299L71 342Q71 363 92 363L373 363Q393 363 393 342L393 299Q393 278 373 278M190 432L190 481Q190 502 211 502L254 502Q276 502 276 481L276 432Q276 412 254 412L211 412Q190 412 190 432Z"  horiz-adv-x="464" vert-adv-y="1000"  />

      
      <glyph glyph-name="unif8" unicode="&#xf8;" d="M470 347L470 163Q470 85 426.50 42.50Q383 0 305 0L216 0Q138 0 94 42L67 15Q49 0 37 15L22 30Q6 44 21 61L60 100Q51 127 51 163L51 347Q51 426 94 468Q137 510 216 510L305 510Q384 510 427 467L454 494Q469 510 484 495L500 480Q516 464 500 449L461 410Q470 382 470 347M178 341L178 218L336 376Q325 400 284 400L236 400Q204 400 191 386.50Q178 373 178 341M342 169L342 291L185 133Q196 110 236 110L284 110Q316 110 329 123.50Q342 137 342 169Z"  horiz-adv-x="520" vert-adv-y="1000"  />

      
      <glyph glyph-name="unif9" unicode="&#xf9;" d="M295 574L229 574Q213 574 203 587L122 683Q115 691 118 697Q121 703 131 703L230 703Q250 703 260 684L305 595Q315 574 295 574M239 0L206 0Q129 0 89.50 42Q50 84 50 163L50 489Q50 510 71 510L156 510Q177 510 177 489L177 169Q177 137 190.50 123.50Q204 110 235 110L272 110Q341 110 341 186L341 489Q341 510 362 510L446 510Q468 510 468 489L468 21Q468 0 446 0L362 0Q341 0 341 21L341 54L337 54Q326 27 298 13.50Q270 0 239 0Z"  horiz-adv-x="523" vert-adv-y="1000"  />

      
      <glyph glyph-name="unifa" unicode="&#xfa;" d="M285 703L384 703Q394 703 397 697Q400 691 394 683L312 587Q301 574 284 574L221 574Q200 574 210 595L255 684Q264 703 285 703M239 0L206 0Q129 0 89.50 42Q50 84 50 163L50 489Q50 510 71 510L156 510Q177 510 177 489L177 169Q177 137 190.50 123.50Q204 110 235 110L272 110Q341 110 341 186L341 489Q341 510 362 510L446 510Q468 510 468 489L468 21Q468 0 446 0L362 0Q341 0 341 21L341 54L337 54Q326 27 298 13.50Q270 0 239 0Z"  horiz-adv-x="523" vert-adv-y="1000"  />

      
      <glyph glyph-name="unifb" unicode="&#xfb;" d="M369 574L309 574Q296 574 291 586L259 652L227 586Q222 574 209 574L150 574Q135 574 142 587L204 692Q212 703 227 703L291 703Q306 703 314 692L376 587Q383 574 369 574M239 0L206 0Q129 0 89.50 42Q50 84 50 163L50 489Q50 510 71 510L156 510Q177 510 177 489L177 169Q177 137 190.50 123.50Q204 110 235 110L272 110Q341 110 341 186L341 489Q341 510 362 510L446 510Q468 510 468 489L468 21Q468 0 446 0L362 0Q341 0 341 21L341 54L337 54Q326 27 298 13.50Q270 0 239 0Z"  horiz-adv-x="523" vert-adv-y="1000"  />

      
      <glyph glyph-name="unifc" unicode="&#xfc;" d="M105 595L105 683Q105 703 124 703L204 703Q223 703 223 684L223 595Q223 574 204 574L124 574Q105 574 105 595M295 595L295 683Q295 703 314 703L394 703Q413 703 413 684L413 595Q413 574 394 574L314 574Q295 574 295 595M239 0L206 0Q129 0 89.50 42Q50 84 50 163L50 489Q50 510 71 510L156 510Q177 510 177 489L177 169Q177 137 190.50 123.50Q204 110 235 110L272 110Q341 110 341 186L341 489Q341 510 362 510L446 510Q468 510 468 489L468 21Q468 0 446 0L362 0Q341 0 341 21L341 54L337 54Q326 27 298 13.50Q270 0 239 0Z"  horiz-adv-x="523" vert-adv-y="1000"  />

      
      <glyph glyph-name="unifd" unicode="&#xfd;" d="M264 703L362 703Q373 703 376 697Q379 691 372 683L291 587Q280 574 263 574L199 574Q179 574 189 595L234 684Q244 703 264 703M138-169L74-169Q54-169 54-147L54-80Q54-58 74-58L95-58Q158-58 180.50-40.50Q203-23 215 27L162 27Q143 27 137 48L20 489Q14 510 35 510L124 510Q144 510 149 489L235 120L239 120L324 489Q328 510 349 510L433 510Q458 510 453 488L331 0Q309-83 263-126Q217-169 138-169Z"  horiz-adv-x="472" vert-adv-y="1000"  />

      
      <glyph glyph-name="unife" unicode="&#xfe;" d="M252 110L296 110Q328 110 341.50 123.50Q355 137 355 169L355 341Q355 373 341.50 386.50Q328 400 296 400L252 400Q183 400 183 324L183 186Q183 110 252 110M183 54L183-112Q183-133 162-133L77-133Q56-133 56-112L56 682Q56 703 77 703L162 703Q183 703 183 682L183 456L187 456Q198 483 226 496.50Q254 510 285 510L317 510Q396 510 439 468Q482 426 482 347L482 163Q482 84 439 42Q396 0 317 0L285 0Q254 0 226 13.50Q198 27 187 54L183 54Z"  horiz-adv-x="527" vert-adv-y="1000"  />

      
      <glyph glyph-name="uniff" unicode="&#xff;" d="M83 595L83 683Q83 703 102 703L182 703Q202 703 202 684L202 595Q202 574 182 574L102 574Q83 574 83 595M273 595L273 683Q273 703 292 703L372 703Q392 703 392 684L392 595Q392 574 372 574L292 574Q273 574 273 595M138-169L74-169Q54-169 54-147L54-80Q54-58 74-58L95-58Q158-58 180.50-40.50Q203-23 215 27L162 27Q143 27 137 48L20 489Q14 510 35 510L124 510Q144 510 149 489L235 120L239 120L324 489Q328 510 349 510L433 510Q458 510 453 488L331 0Q309-83 263-126Q217-169 138-169Z"  horiz-adv-x="472" vert-adv-y="1000"  />

      
      <glyph glyph-name="uni0100" unicode="&#x0100;" d="M377 732L179 732Q159 732 159 753L159 798Q159 819 179 819L377 819Q397 819 397 798L397 753Q397 732 377 732M132 0L36 0Q18 0 24 21L182 622Q189 643 212 643L345 643Q370 643 375 622L533 21Q539 0 521 0L425 0Q414 0 410 4.50Q406 9 404 21L376 131L181 131L153 21Q151 9 146.50 4.50Q142 0 132 0M277 522L205 233L353 233L281 522L277 522Z"  horiz-adv-x="556" vert-adv-y="1000"  />

      
      <glyph glyph-name="uni0101" unicode="&#x0101;" d="M381 595L184 595Q163 595 163 617L163 661Q163 682 184 682L381 682Q402 682 402 661L402 617Q402 595 381 595M234 0L210 0Q131 0 88 42Q45 84 45 163L45 347Q45 426 88 468Q131 510 210 510L441 510Q463 510 463 489L463 21Q463 0 441 0L357 0Q336 0 336 21L336 54L332 54Q321 27 293 13.50Q265 0 234 0M336 186L336 389Q336 400 324 400L230 400Q198 400 185 386.50Q172 373 172 341L172 169Q172 137 185 123.50Q198 110 230 110L267 110Q336 110 336 186Z"  horiz-adv-x="518" vert-adv-y="1000"  />

      
      <glyph glyph-name="uni0102" unicode="&#x0102;" d="M163 823Q163 836 177 836L227 836Q240 836 240 823L240 814Q240 790 248.50 780.50Q257 771 275 771L282 771Q317 771 317 814L317 823Q317 836 330 836L380 836Q394 836 394 823L394 812Q394 761 367.50 734Q341 707 296 707L261 707Q215 707 189 734Q163 761 163 812L163 823M132 0L36 0Q18 0 24 21L182 622Q189 643 212 643L345 643Q370 643 375 622L533 21Q539 0 521 0L425 0Q414 0 410 4.50Q406 9 404 21L376 131L181 131L153 21Q151 9 146.50 4.50Q142 0 132 0M277 522L205 233L353 233L281 522L277 522Z"  horiz-adv-x="556" vert-adv-y="1000"  />

      
      <glyph glyph-name="uni0103" unicode="&#x0103;" d="M336 186L336 389Q336 400 324 400L230 400Q198 400 185 386.50Q172 373 172 341L172 169Q172 137 185 123.50Q198 110 230 110L267 110Q336 110 336 186M234 0L210 0Q131 0 88 42Q45 84 45 163L45 347Q45 426 88 468Q131 510 210 510L441 510Q463 510 463 489L463 21Q463 0 441 0L357 0Q336 0 336 21L336 54L332 54Q321 27 293 13.50Q265 0 234 0M161 679L161 690Q161 703 175 703L225 703Q239 703 239 690L239 681Q239 657 247 647.50Q255 638 273 638L281 638Q315 638 315 681L315 690Q315 703 329 703L378 703Q392 703 392 690L392 679Q392 628 366 601Q340 574 294 574L259 574Q213 574 187 601Q161 628 161 679Z"  horiz-adv-x="518" vert-adv-y="1000"  />

      
      <glyph glyph-name="uni0104" unicode="&#x0104;" d="M521 0L453 0L416-57L457-57Q470-57 474.50-61Q479-65 479-77Q479-98 446-110.50Q413-123 383.50-123Q354-123 345.50-105.50Q337-88 351-68L404 19L404 21L376 131L181 131L153 21Q151 9 146.50 4.50Q142 0 132 0L36 0Q18 0 24 21L182 622Q189 643 212 643L345 643Q370 643 375 622L533 21Q539 0 521 0M205 233L353 233L281 522L277 522L205 233Z"  horiz-adv-x="556" vert-adv-y="1000"  />

      
      <glyph glyph-name="uni0105" unicode="&#x0105;" d="M210 510L441 510Q463 510 463 489L463 21Q463 0 441 0L379 0Q369-16 357-39.50Q345-63 348-63Q391-63 391-58Q412-56 406-75Q404-96 372.50-107Q341-118 316-118Q291-118 288.50-94.50Q286-71 299-53L336 18L336 54L332 54Q321 27 293 13.50Q265 0 234 0L210 0Q131 0 88 42Q45 84 45 163L45 347Q45 426 88 468Q131 510 210 510M336 186L336 389Q336 400 324 400L230 400Q198 400 185 386.50Q172 373 172 341L172 169Q172 137 185 123.50Q198 110 230 110L267 110Q336 110 336 186Z"  horiz-adv-x="518" vert-adv-y="1000"  />

      
      <glyph glyph-name="uni0106" unicode="&#x0106;" d="M329 0L220 0Q141 0 98 42Q55 84 55 163L55 480Q55 559 98 601Q141 643 220 643L329 643Q407 643 450.50 600.50Q494 558 494 480L494 433Q494 411 472 411L388 411Q367 411 367 433L367 474Q367 506 353.50 519.50Q340 533 308 533L240 533Q209 533 195.50 519.50Q182 506 182 474L182 169Q182 137 195.50 123.50Q209 110 240 110L308 110Q340 110 353.50 123.50Q367 137 367 169L367 210Q367 232 388 232L472 232Q494 232 494 210L494 163Q494 85 450.50 42.50Q407 0 329 0M290 836L389 836Q399 836 402 830Q405 824 399 816L318 720Q307 707 291 707L226 707Q205 707 215 728L260 817Q270 836 290 836Z"  horiz-adv-x="538" vert-adv-y="1000"  />

      
      <glyph glyph-name="uni0107" unicode="&#x0107;" d="M255 703L354 703Q365 703 368 697Q371 691 364 683L283 587Q272 574 255 574L191 574Q170 574 181 595L225 684Q236 703 255 703M380 89L380 20Q380 9 375.50 4.50Q371 0 359 0L210 0Q131 0 88 42Q45 84 45 163L45 347Q45 426 88 468Q131 510 210 510L359 510Q380 510 380 489L380 420Q380 409 375.50 404.50Q371 400 359 400L230 400Q199 400 185.50 386.50Q172 373 172 341L172 169Q172 137 185.50 123.50Q199 110 230 110L359 110Q380 110 380 89Z"  horiz-adv-x="411" vert-adv-y="1000"  />

      
      <glyph glyph-name="uni010A" unicode="&#x010A;" d="M329 0L220 0Q141 0 98 42Q55 84 55 163L55 480Q55 559 98 601Q141 643 220 643L329 643Q407 643 450.50 600.50Q494 558 494 480L494 433Q494 411 472 411L388 411Q367 411 367 433L367 474Q367 506 353.50 519.50Q340 533 308 533L240 533Q209 533 195.50 519.50Q182 506 182 474L182 169Q182 137 195.50 123.50Q209 110 240 110L308 110Q340 110 353.50 123.50Q367 137 367 169L367 210Q367 232 388 232L472 232Q494 232 494 210L494 163Q494 85 450.50 42.50Q407 0 329 0M211 729L211 823Q211 843 231 843L318 843Q338 843 338 824L338 729Q338 708 318 708L231 708Q211 708 211 729Z"  horiz-adv-x="538" vert-adv-y="1000"  />

      
      <glyph glyph-name="uni010B" unicode="&#x010B;" d="M177 591L177 686Q177 706 197 706L285 706Q304 706 304 687L304 591Q304 571 285 571L197 571Q177 571 177 591M380 89L380 20Q380 9 375.50 4.50Q371 0 359 0L210 0Q131 0 88 42Q45 84 45 163L45 347Q45 426 88 468Q131 510 210 510L359 510Q380 510 380 489L380 420Q380 409 375.50 404.50Q371 400 359 400L230 400Q199 400 185.50 386.50Q172 373 172 341L172 169Q172 137 185.50 123.50Q199 110 230 110L359 110Q380 110 380 89Z"  horiz-adv-x="411" vert-adv-y="1000"  />

      
      <glyph glyph-name="uni010C" unicode="&#x010C;" d="M329 0L220 0Q141 0 98 42Q55 84 55 163L55 480Q55 559 98 601Q141 643 220 643L329 643Q407 643 450.50 600.50Q494 558 494 480L494 433Q494 411 472 411L388 411Q367 411 367 433L367 474Q367 506 353.50 519.50Q340 533 308 533L240 533Q209 533 195.50 519.50Q182 506 182 474L182 169Q182 137 195.50 123.50Q209 110 240 110L308 110Q340 110 353.50 123.50Q367 137 367 169L367 210Q367 232 388 232L472 232Q494 232 494 210L494 163Q494 85 450.50 42.50Q407 0 329 0M310 707L246 707Q231 707 223 718L161 823Q154 836 169 836L228 836Q241 836 245 824L278 758L310 824Q315 836 328 836L388 836Q402 836 395 823L333 718Q325 707 310 707Z"  horiz-adv-x="538" vert-adv-y="1000"  />

      
      <glyph glyph-name="uni010D" unicode="&#x010D;" d="M208 574Q194 574 186 585L124 690Q117 703 132 703L191 703Q204 703 208 691L241 625L273 691Q278 703 291 703L350 703Q365 703 358 690L295 585Q287 574 273 574L208 574M380 89L380 20Q380 9 375.50 4.50Q371 0 359 0L210 0Q131 0 88 42Q45 84 45 163L45 347Q45 426 88 468Q131 510 210 510L359 510Q380 510 380 489L380 420Q380 409 375.50 404.50Q371 400 359 400L230 400Q199 400 185.50 386.50Q172 373 172 341L172 169Q172 137 185.50 123.50Q199 110 230 110L359 110Q380 110 380 89Z"  horiz-adv-x="411" vert-adv-y="1000"  />

      
      <glyph glyph-name="uni010E" unicode="&#x010E;" d="M243 707Q229 707 221 718L158 823Q151 836 167 836L225 836Q238 836 243 824L275 758L308 824Q313 836 326 836L385 836Q399 836 392 823L330 718Q322 707 308 707L243 707M203 110L312 110Q344 110 357.50 123.50Q371 137 371 169L371 474Q371 506 357.50 519.50Q344 533 312 533L203 533Q192 533 192 522L192 121Q192 110 203 110M65 21L65 622Q65 643 86 643L333 643Q411 643 454.50 600.50Q498 558 498 480L498 163Q498 85 454.50 42.50Q411 0 333 0L86 0Q65 0 65 21Z"  horiz-adv-x="553" vert-adv-y="1000"  />

      
      <glyph glyph-name="uni010F" unicode="&#x010F;" d="M635 684L635 654Q635 619 612 575L560 474Q552 464 541 464Q524 464 524 484L524 683Q524 703 543 703L616 703Q635 703 635 684M242 0L201 0Q124 0 84.50 42Q45 84 45 163L45 347Q45 426 84.50 468Q124 510 201 510L242 510Q273 510 301 496.50Q329 483 340 456L344 456L344 682Q344 703 365 703L450 703Q471 703 471 682L471 21Q471 0 450 0L365 0Q344 0 344 21L344 54L340 54Q329 27 301 13.50Q273 0 242 0M344 186L344 324Q344 400 275 400L230 400Q198 400 185 386.50Q172 373 172 341L172 169Q172 137 185 123.50Q198 110 230 110L275 110Q344 110 344 186Z"  horiz-adv-x="634" vert-adv-y="1000"  />

      
      <glyph glyph-name="uni0110" unicode="&#x0110;" d="M217 110L326 110Q358 110 371.50 123.50Q385 137 385 169L385 474Q385 506 371.50 519.50Q358 533 326 533L217 533Q206 533 206 522L206 414Q206 402 217 402L293 402Q314 402 314 381L314 329Q314 318 309.50 313.50Q305 309 293 309L217 309Q206 309 206 298L206 121Q206 110 217 110M347 0L100 0Q79 0 79 21L79 298Q79 309 68 309L42 309Q30 309 25.50 313.50Q21 318 21 329L21 381Q21 402 42 402L68 402Q79 402 79 414L79 622Q79 643 100 643L347 643Q426 643 469 601Q512 559 512 480L512 163Q512 84 469 42Q426 0 347 0Z"  horiz-adv-x="566" vert-adv-y="1000"  />

      
      <glyph glyph-name="uni0111" unicode="&#x0111;" d="M242 0L210 0Q131 0 88 42Q45 84 45 163L45 294Q45 373 88 415Q131 457 210 457L242 457Q273 457 301 443Q329 429 340 402L344 402L344 522Q344 534 332 534L202 534Q190 534 186 538.50Q182 543 182 554L182 606Q182 627 202 627L332 627Q344 627 344 639L344 682Q344 703 365 703L450 703Q471 703 471 682L471 639Q471 627 483 627L537 627Q558 627 558 606L558 554Q558 543 553.50 538.50Q549 534 537 534L483 534Q471 534 471 522L471 21Q471 0 450 0L365 0Q344 0 344 21L344 54L340 54Q329 27 301 13.50Q273 0 242 0M344 186L344 271Q344 346 275 346L230 346Q198 346 185 333Q172 320 172 288L172 169Q172 137 185 123.50Q198 110 230 110L275 110Q344 110 344 186Z"  horiz-adv-x="563" vert-adv-y="1000"  />

      
      <glyph glyph-name="uni0112" unicode="&#x0112;" d="M348 732L150 732Q130 732 130 753L130 798Q130 819 150 819L348 819Q368 819 368 798L368 753Q368 732 348 732M413 0L86 0Q65 0 65 21L65 622Q65 643 86 643L413 643Q433 643 433 622L433 554Q433 533 413 533L204 533Q192 533 192 522L192 392Q192 381 204 381L375 381Q396 381 396 360L396 292Q396 271 375 271L204 271Q192 271 192 260L192 121Q192 110 204 110L413 110Q433 110 433 89L433 21Q433 0 413 0Z"  horiz-adv-x="479" vert-adv-y="1000"  />

      
      <glyph glyph-name="uni0113" unicode="&#x0113;" d="M353 595L156 595Q135 595 135 617L135 661Q135 682 156 682L353 682Q374 682 374 661L374 617Q374 595 353 595M431 0L210 0Q131 0 88 42Q45 84 45 163L45 347Q45 426 88 468Q131 510 210 510L289 510Q368 510 411 468Q454 426 454 347L454 220Q454 199 433 199L182 199Q170 199 170 188L170 166Q170 135 183.50 121.50Q197 108 229 108L431 108Q452 108 452 86L452 20Q452 9 447.50 4.50Q443 0 431 0M182 284L318 284Q329 284 329 295L329 343Q329 375 316 388Q303 401 271 401L229 401Q197 401 184 388Q171 375 171 343L171 295Q171 284 182 284Z"  horiz-adv-x="494" vert-adv-y="1000"  />

      
      <glyph glyph-name="uni0114" unicode="&#x0114;" d="M133 823Q133 836 147 836L197 836Q211 836 211 823L211 814Q211 790 219 780.50Q227 771 245 771L252 771Q287 771 287 814L287 823Q287 836 301 836L350 836Q364 836 364 823L364 812Q364 761 338 734Q312 707 266 707L231 707Q185 707 159 734Q133 761 133 812L133 823M413 0L86 0Q65 0 65 21L65 622Q65 643 86 643L413 643Q433 643 433 622L433 554Q433 533 413 533L204 533Q192 533 192 522L192 392Q192 381 204 381L375 381Q396 381 396 360L396 292Q396 271 375 271L204 271Q192 271 192 260L192 121Q192 110 204 110L413 110Q433 110 433 89L433 21Q433 0 413 0Z"  horiz-adv-x="479" vert-adv-y="1000"  />

      
      <glyph glyph-name="uni0115" unicode="&#x0115;" d="M182 284L318 284Q329 284 329 295L329 343Q329 375 316 388Q303 401 271 401L229 401Q197 401 184 388Q171 375 171 343L171 295Q171 284 182 284M431 0L210 0Q131 0 88 42Q45 84 45 163L45 347Q45 426 88 468Q131 510 210 510L289 510Q368 510 411 468Q454 426 454 347L454 220Q454 199 433 199L182 199Q170 199 170 188L170 166Q170 135 183.50 121.50Q197 108 229 108L431 108Q452 108 452 86L452 20Q452 9 447.50 4.50Q443 0 431 0M139 679L139 690Q139 703 153 703L203 703Q216 703 216 690L216 681Q216 657 224.50 647.50Q233 638 251 638L258 638Q293 638 293 681L293 690Q293 703 306 703L356 703Q370 703 370 690L370 679Q370 628 343.50 601Q317 574 272 574L237 574Q191 574 165 601Q139 628 139 679Z"  horiz-adv-x="494" vert-adv-y="1000"  />

      
      <glyph glyph-name="uni0116" unicode="&#x0116;" d="M186 729L186 823Q186 843 206 843L294 843Q313 843 313 824L313 729Q313 708 294 708L206 708Q186 708 186 729M413 0L86 0Q65 0 65 21L65 622Q65 643 86 643L413 643Q433 643 433 622L433 554Q433 533 413 533L204 533Q192 533 192 522L192 392Q192 381 204 381L375 381Q396 381 396 360L396 292Q396 271 375 271L204 271Q192 271 192 260L192 121Q192 110 204 110L413 110Q433 110 433 89L433 21Q433 0 413 0Z"  horiz-adv-x="482" vert-adv-y="1000"  />

      
      <glyph glyph-name="uni0117" unicode="&#x0117;" d="M192 591L192 686Q192 706 211 706L299 706Q319 706 319 687L319 591Q319 571 299 571L211 571Q192 571 192 591M431 0L210 0Q131 0 88 42Q45 84 45 163L45 347Q45 426 88 468Q131 510 210 510L289 510Q368 510 411 468Q454 426 454 347L454 220Q454 199 433 199L182 199Q170 199 170 188L170 166Q170 135 183.50 121.50Q197 108 229 108L431 108Q452 108 452 86L452 20Q452 9 447.50 4.50Q443 0 431 0M182 284L318 284Q329 284 329 295L329 343Q329 375 316 388Q303 401 271 401L229 401Q197 401 184 388Q171 375 171 343L171 295Q171 284 182 284Z"  horiz-adv-x="494" vert-adv-y="1000"  />

      
      <glyph glyph-name="uni0118" unicode="&#x0118;" d="M413 533L204 533Q192 533 192 522L192 392Q192 381 204 381L375 381Q396 381 396 360L396 292Q396 271 375 271L204 271Q192 271 192 260L192 121Q192 110 204 110L413 110Q433 110 433 89L433 21Q433 0 413 0L373 0L335-57L377-57Q389-57 393.50-61Q398-65 398-77Q398-98 365-110.50Q332-123 302.50-123Q273-123 265-105.50Q257-88 271-68L313 0L86 0Q65 0 65 21L65 622Q65 643 86 643L413 643Q433 643 433 622L433 554Q433 533 413 533Z"  horiz-adv-x="479" vert-adv-y="1000"  />

      
      <glyph glyph-name="uni0119" unicode="&#x0119;" d="M433 199L182 199Q170 199 170 188L170 166Q170 135 183.50 121.50Q197 108 229 108L431 108Q452 108 452 86L452 20Q452 9 447.50 4.50Q443 0 431 0L380 0Q375-8 370.50-17Q366-26 360-38Q347-63 349-63Q393-63 393-58Q402-57 406-61.50Q410-66 407-75Q406-96 374.50-107Q343-118 318-118Q293-118 290.50-94.50Q288-71 301-53L328 0L210 0Q131 0 88 42Q45 84 45 163L45 347Q45 426 88 468Q131 510 210 510L289 510Q368 510 411 468Q454 426 454 347L454 220Q454 199 433 199M171 343L171 295Q171 284 182 284L318 284Q329 284 329 295L329 343Q329 375 316 388Q303 401 271 401L229 401Q197 401 184 388Q171 375 171 343Z"  horiz-adv-x="494" vert-adv-y="1000"  />

      
      <glyph glyph-name="uni011A" unicode="&#x011A;" d="M223 707Q209 707 201 718L139 823Q132 836 147 836L205 836Q218 836 223 824L256 758L288 824Q293 836 306 836L365 836Q380 836 373 823L310 718Q302 707 288 707L223 707M413 0L86 0Q65 0 65 21L65 622Q65 643 86 643L413 643Q433 643 433 622L433 554Q433 533 413 533L204 533Q192 533 192 522L192 392Q192 381 204 381L375 381Q396 381 396 360L396 292Q396 271 375 271L204 271Q192 271 192 260L192 121Q192 110 204 110L413 110Q433 110 433 89L433 21Q433 0 413 0Z"  horiz-adv-x="479" vert-adv-y="1000"  />

      
      <glyph glyph-name="uni011B" unicode="&#x011B;" d="M222 574Q208 574 200 585L138 690Q131 703 146 703L205 703Q218 703 222 691L255 625L287 691Q292 703 305 703L364 703Q379 703 372 690L309 585Q301 574 287 574L222 574M431 0L210 0Q131 0 88 42Q45 84 45 163L45 347Q45 426 88 468Q131 510 210 510L289 510Q368 510 411 468Q454 426 454 347L454 220Q454 199 433 199L182 199Q170 199 170 188L170 166Q170 135 183.50 121.50Q197 108 229 108L431 108Q452 108 452 86L452 20Q452 9 447.50 4.50Q443 0 431 0M182 284L318 284Q329 284 329 295L329 343Q329 375 316 388Q303 401 271 401L229 401Q197 401 184 388Q171 375 171 343L171 295Q171 284 182 284Z"  horiz-adv-x="494" vert-adv-y="1000"  />

      
      <glyph glyph-name="uni011C" unicode="&#x011C;" d="M385 707L325 707Q312 707 307 719L275 785L242 719Q238 707 225 707L166 707Q151 707 158 720L220 825Q228 836 242 836L307 836Q322 836 330 825L392 720Q399 707 385 707M326 0L220 0Q141 0 98 42Q55 84 55 163L55 480Q55 559 98 601Q141 643 220 643L326 643Q404 643 447 600.50Q490 558 490 480L490 450Q490 428 469 428L384 428Q363 428 363 450L363 474Q363 506 350 519.50Q337 533 305 533L240 533Q209 533 195.50 519.50Q182 506 182 474L182 169Q182 137 195.50 123.50Q209 110 240 110L305 110Q337 110 350 123.50Q363 137 363 169L363 232Q363 243 352 243L292 243Q271 243 271 264L271 332Q271 353 292 353L467 353Q490 353 490 330L490 163Q490 85 447 42.50Q404 0 326 0Z"  horiz-adv-x="545" vert-adv-y="1000"  />

      
      <glyph glyph-name="uni011D" unicode="&#x011D;" d="M383 574L324 574Q311 574 306 586L274 652L241 586Q237 574 224 574L165 574Q150 574 157 587L219 692Q227 703 241 703L306 703Q320 703 328 692L391 587Q398 574 383 574M235 23L202 23Q125 23 85.50 65Q46 107 46 186L46 347Q46 426 89 468Q132 510 211 510L442 510Q464 510 464 489L464-4Q464-82 420.50-124Q377-166 299-166L107-166Q95-166 90.50-161.50Q86-157 86-146L86-77Q86-56 107-56L278-56Q310-56 323.50-42.50Q337-29 337 2L337 78L333 78Q322 51 294 37Q266 23 235 23M337 209L337 389Q337 400 325 400L231 400Q199 400 186 386.50Q173 373 173 341L173 192Q173 160 186 147Q199 134 231 134L268 134Q337 134 337 209Z"  horiz-adv-x="519" vert-adv-y="1000"  />

      
      </font>
</defs>
</svg>
