<?xml version="1.0" standalone="no"?>
  <!DOCTYPE svg PUBLIC "-//W3C//DTD SVG 1.1//EN" "http://www.w3.org/Graphics/SVG/1.1/DTD/svg11.dtd" >
  <svg>
  <metadata>
  Created by font-carrier
  </metadata>
  <defs>
  <font id="Rajdhani-Light" horiz-adv-x="1887" vert-adv-y="1887" >
    <font-face
      
      font-family="Rajdhani-Light"
      
      font-weight="400"
      
      font-stretch="normal"
      
      units-per-em="1000"
      
      ascent="930"
      
      descent="-346"
      
    />
      <missing-glyph />

      

      
      <glyph glyph-name="uni21" unicode="&#x21;" d="M100 550L100 634Q100 643 108 643L129 643Q137 643 137 634L137 550Q137 461 133.50 347Q130 233 127.50 218Q125 203 120 203L116 203Q111 203 109 214Q100 280 100 550M135 128L135 9Q135 0 127 0L110 0Q102 0 102 9L102 128Q102 137 110 137L127 137Q135 137 135 128Z"  horiz-adv-x="237" vert-adv-y="1000"  />

      
      <glyph glyph-name="uni22" unicode="&#x22;" d="M89 441L86 441Q77 441 77 451L70 633Q70 643 79 643L96 643Q105 643 105 633L98 451Q98 441 89 441M238 441L235 441Q226 441 226 451L219 633Q219 643 228 643L245 643Q254 643 254 633L247 451Q247 441 238 441Z"  horiz-adv-x="324" vert-adv-y="1000"  />

      
      <glyph glyph-name="uni23" unicode="&#x23;" d="M610 470Q619 470 619 462L619 450Q619 442 610 442L508 442L439 201L539 201Q548 201 548 193L548 181Q548 173 539 173L431 173L384 11Q381 0 372 0L361 0Q352 0 356 15L402 173L192 173L145 11Q142 0 133 0L122 0Q112 0 117 15L163 173L69 173Q60 173 60 181L60 193Q60 201 69 201L171 201L240 442L140 442Q131 442 131 450L131 462Q131 470 140 470L248 470L295 632Q298 643 308 643L316 643Q328 643 323 628L277 470L487 470L534 632Q537 643 547 643L555 643Q566 643 562 628L516 470L610 470M410 201L479 442L269 442L200 201L410 201Z"  horiz-adv-x="679" vert-adv-y="1000"  />

      
      <glyph glyph-name="uni24" unicode="&#x24;" d="M270-98L256-98Q248-98 248-89L248 0L209 0Q148 0 111.50 37Q75 74 75 136L75 170Q75 179 83 179L97 179Q105 179 105 170L105 137Q105 86 132 57Q159 28 209 28L289 28Q339 28 366 57Q393 86 393 137L393 208Q393 265 367 288.50Q341 312 287 312L215 312Q148 312 111.50 340.50Q75 369 75 440L75 509Q75 571 111.50 608Q148 645 209 645L248 645L248 734Q248 743 256 743L270 743Q278 743 278 734L278 645L289 645Q350 645 386.50 608Q423 571 423 509L423 479Q423 470 415 470L401 470Q393 470 393 479L393 508Q393 559 366 588Q339 617 289 617L209 617Q159 617 132 588Q105 559 105 508L105 440Q105 384 130 361.50Q155 339 209 339L290 339Q423 339 423 210L423 136Q423 74 386.50 37Q350 0 289 0L278 0L278-89Q278-98 270-98Z"  horiz-adv-x="498" vert-adv-y="1000"  />

      
      <glyph glyph-name="uni25" unicode="&#x25;" d="M545 265L529 265Q480 265 461 244Q442 223 442 171L442 123Q442 71 461 49.50Q480 28 529 28L545 28Q594 28 612.50 49.50Q631 71 631 123L631 171Q631 223 612.50 244Q594 265 545 265M529 293L545 293Q605 293 633 264Q661 235 661 172L661 122Q661 59 633 29.50Q605 0 545 0L529 0Q469 0 440.50 29.50Q412 59 412 122L412 172Q412 234 440 263.50Q468 293 529 293M183 620L167 620Q118 620 99 599Q80 578 80 526L80 478Q80 426 99 404.50Q118 383 167 383L183 383Q232 383 250.50 404.50Q269 426 269 478L269 526Q269 578 250.50 599Q232 620 183 620M167 648L183 648Q243 648 271 619Q299 590 299 527L299 477Q299 414 271 384.50Q243 355 183 355L167 355Q107 355 78.50 384.50Q50 414 50 477L50 527Q50 589 78 618.50Q106 648 167 648M219 0L209 0Q199 0 204 12L479 632Q484 643 492 643L502 643Q512 643 506 629L232 11Q227 0 219 0Z"  horiz-adv-x="711" vert-adv-y="1000"  />

      
      <glyph glyph-name="uni26" unicode="&#x26;" d="M299 0L214 0Q153 0 116.50 35.50Q80 71 80 133L80 225Q80 275 106 311.50Q132 348 187 349Q139 406 139 467L139 510Q139 572 175.50 607.50Q212 643 273 643L295 643Q356 643 392.50 607.50Q429 572 429 510L429 461Q429 452 421 452L407 452Q399 452 399 461L399 509Q399 560 372 587.50Q345 615 295 615L273 615Q223 615 196 587.50Q169 560 169 509L169 468Q169 435 178 412.50Q187 390 212 363L279 286L523 286Q532 286 532 278L532 266Q532 258 523 258L303 258L521 6Q523 2 519 0L500 0Q493 0 487 6L424 78Q411 41 378 20.50Q345 0 299 0M214 28L299 28Q386 28 400 105L204 330Q158 327 134 299.50Q110 272 110 224L110 134Q110 83 137 55.50Q164 28 214 28Z"  horiz-adv-x="592" vert-adv-y="1000"  />

      
      <glyph glyph-name="uni27" unicode="&#x27;" d="M94 441L91 441Q82 441 82 451L75 633Q75 643 84 643L101 643Q110 643 110 633L103 451Q100 441 94 441Z"  horiz-adv-x="185" vert-adv-y="1000"  />

      
      <glyph glyph-name="uni28" unicode="&#x28;" d="M207 635L207 623Q207 615 198 615L194 615Q144 615 117 586Q90 557 90 506L90 35Q90-16 117-45Q144-74 194-74L198-74Q207-74 207-82L207-94Q207-102 198-102L194-102Q133-102 96.50-65Q60-28 60 34L60 507Q60 569 96.50 606Q133 643 194 643L198 643Q207 643 207 635Z"  horiz-adv-x="277" vert-adv-y="1000"  />

      
      <glyph glyph-name="uni29" unicode="&#x29;" d="M60-94L60-82Q60-74 69-74L73-74Q123-74 150-45Q177-16 177 35L177 506Q177 557 150 586Q123 615 73 615L69 615Q60 615 60 623L60 635Q60 643 69 643L73 643Q134 643 170.50 606Q207 569 207 507L207 34Q207-28 170.50-65Q134-102 73-102L69-102Q60-102 60-94Z"  horiz-adv-x="277" vert-adv-y="1000"  />

      
      <glyph glyph-name="uni2a" unicode="&#x2a;" d="M189 617L189 634Q189 643 197 643L212 643Q220 643 220 634L220 617Q220 543 204 511Q246 543 318 563Q326 566 328 558L332 544Q336 536 326 533L309 528Q235 505 204 511Q245 481 278 434L289 419Q294 414 287 408L275 400Q268 395 263 402Q208 479 204 511Q186 461 143 402Q139 396 132 400L120 409Q113 412 119 421Q147 460 169.50 482.50Q192 505 204 511Q150 511 82 535Q73 538 76 545L81 559Q83 567 92 564Q178 537 204 511Q189 553 189 617Z"  horiz-adv-x="408" vert-adv-y="1000"  />

      
      <glyph glyph-name="uni2b" unicode="&#x2b;" d="M271 335L433 335Q442 335 442 327L442 315Q442 307 433 307L271 307L271 144Q271 135 263 135L249 135Q241 135 241 144L241 307L79 307Q70 307 70 315L70 327Q70 335 79 335L241 335L241 498Q241 507 249 507L263 507Q271 507 271 498L271 335Z"  horiz-adv-x="512" vert-adv-y="1000"  />

      
      <glyph glyph-name="uni2c" unicode="&#x2c;" d="M112 128L112 49Q112 34 86-95Q84-101 79.50-101Q75-101 75-95L75 128Q75 137 83 137L104 137Q112 137 112 128Z"  horiz-adv-x="187" vert-adv-y="1000"  />

      
      <glyph glyph-name="uni2d" unicode="&#x2d;" d="M263 306L49 306Q40 306 40 314L40 326Q40 334 49 334L263 334Q272 334 272 326L272 314Q272 306 263 306Z"  horiz-adv-x="312" vert-adv-y="1000"  />

      
      <glyph glyph-name="uni2e" unicode="&#x2e;" d="M112 128L112 9Q112 0 104 0L83 0Q75 0 75 9L75 128Q75 137 83 137L104 137Q112 137 112 128Z"  horiz-adv-x="187" vert-adv-y="1000"  />

      
      <glyph glyph-name="uni2f" unicode="&#x2f;" d="M92 0L79 0Q66 0 71 12L289 632Q293 643 302 643L316 643Q327 643 322 629L105 11Q101 0 92 0Z"  horiz-adv-x="393" vert-adv-y="1000"  />

      
      <glyph glyph-name="uni30" unicode="&#x30;" d="M204 28L304 28Q354 28 381 57Q408 86 408 137L408 506Q408 557 381 586Q354 615 304 615L204 615Q154 615 127 586Q100 557 100 506L100 137Q100 86 127 57Q154 28 204 28M304 0L204 0Q143 0 106.50 37Q70 74 70 136L70 507Q70 569 106.50 606Q143 643 204 643L304 643Q365 643 401.50 606Q438 569 438 507L438 136Q438 74 401.50 37Q365 0 304 0Z"  horiz-adv-x="508" vert-adv-y="1000"  />

      
      <glyph glyph-name="uni31" unicode="&#x31;" d="M40 538L40 544Q40 557 51 563L186 638Q196 643 202 643L214 643Q222 643 222 634L222 9Q222 0 214 0L200 0Q192 0 192 9L192 610L56 533Q40 522 40 538Z"  horiz-adv-x="312" vert-adv-y="1000"  />

      
      <glyph glyph-name="uni32" unicode="&#x32;" d="M64 8L64 94Q64 169 127 214L327 363Q380 402 380 468L380 509Q380 560 353 587.50Q326 615 276 615L194 615Q144 615 117 587.50Q90 560 90 509L90 461Q90 452 82 452L68 452Q60 452 60 461L60 510Q60 572 96.50 607.50Q133 643 194 643L276 643Q337 643 373.50 607.50Q410 572 410 510L410 467Q410 389 346 342L144 191Q94 153 94 98L94 28L405 28Q414 28 414 20L414 8Q414 0 405 0L73 0Q64 0 64 8Z"  horiz-adv-x="474" vert-adv-y="1000"  />

      
      <glyph glyph-name="uni33" unicode="&#x33;" d="M227 338L289 338Q339 338 366 365.50Q393 393 393 444L393 509Q393 560 366 587.50Q339 615 289 615L204 615Q154 615 127 587.50Q100 560 100 509L100 471Q100 462 92 462L78 462Q70 462 70 471L70 510Q70 572 106.50 607.50Q143 643 204 643L289 643Q350 643 386.50 607.50Q423 572 423 510L423 443Q423 349 339 324Q423 302 423 205L423 133Q423 71 386.50 35.50Q350 0 289 0L204 0Q143 0 106.50 35.50Q70 71 70 133L70 183Q70 192 78 192L92 192Q100 192 100 183L100 134Q100 83 127 55.50Q154 28 204 28L289 28Q339 28 366 55.50Q393 83 393 134L393 204Q393 255 366 282.50Q339 310 289 310L227 310Q218 310 218 318L218 330Q218 338 227 338Z"  horiz-adv-x="493" vert-adv-y="1000"  />

      
      <glyph glyph-name="uni34" unicode="&#x34;" d="M360 163L360 621L84 163L360 163M382 0L368 0Q360 0 360 9L360 135L59 135Q50 135 50 143L50 155Q50 162 56 171L334 632Q340 643 353 643L382 643Q390 643 390 634L390 163L466 163Q475 163 475 155L475 143Q475 135 466 135L390 135L390 9Q390 0 382 0Z"  horiz-adv-x="515" vert-adv-y="1000"  />

      
      <glyph glyph-name="uni35" unicode="&#x35;" d="M282 371L186 371Q159 371 142 362.50Q125 354 119 344.50Q113 335 107.50 326.50Q102 318 96 318L78 318Q70 318 70 327L70 634Q70 643 78 643L397 643Q406 643 406 635L406 623Q406 615 397 615L100 615L100 350Q119 399 186 399L282 399Q343 399 379.50 363.50Q416 328 416 266L416 136Q416 74 379.50 37Q343 0 282 0L204 0Q143 0 106.50 37Q70 74 70 136L70 176Q70 185 78 185L92 185Q100 185 100 176L100 137Q100 86 127 57Q154 28 204 28L282 28Q332 28 359 57Q386 86 386 137L386 265Q386 316 359 343.50Q332 371 282 371Z"  horiz-adv-x="476" vert-adv-y="1000"  />

      
      <glyph glyph-name="uni36" unicode="&#x36;" d="M194 28L286 28Q336 28 363 57Q390 86 390 137L390 240Q390 291 363 320Q336 349 286 349L90 349L90 137Q90 86 117 57Q144 28 194 28M286 0L194 0Q133 0 96.50 37Q60 74 60 136L60 507Q60 569 96.50 606Q133 643 194 643L380 643Q389 643 389 635L389 623Q389 615 380 615L194 615Q144 615 117 586Q90 557 90 506L90 377L286 377Q347 377 383.50 340Q420 303 420 241L420 136Q420 74 383.50 37Q347 0 286 0Z"  horiz-adv-x="490" vert-adv-y="1000"  />

      
      <glyph glyph-name="uni37" unicode="&#x37;" d="M109 0L99 0Q87 0 93 14L314 615L24 615Q15 615 15 623L15 635Q15 643 24 643L338 643Q347 643 347 635L347 625Q347 618 344 611L123 9Q120 0 109 0Z"  horiz-adv-x="367" vert-adv-y="1000"  />

      
      <glyph glyph-name="uni38" unicode="&#x38;" d="M204 28L309 28Q359 28 386 55.50Q413 83 413 134L413 204Q413 255 386 282.50Q359 310 309 310L204 310Q154 310 127 282.50Q100 255 100 204L100 134Q100 83 127 55.50Q154 28 204 28M204 338L309 338Q359 338 386 365.50Q413 393 413 444L413 509Q413 560 386 587.50Q359 615 309 615L204 615Q154 615 127 587.50Q100 560 100 509L100 444Q100 393 127 365.50Q154 338 204 338M309 0L204 0Q143 0 106.50 35.50Q70 71 70 133L70 205Q70 295 144 324Q70 353 70 443L70 510Q70 572 106.50 607.50Q143 643 204 643L309 643Q370 643 406.50 607.50Q443 572 443 510L443 443Q443 353 369 324Q443 295 443 205L443 133Q443 71 406.50 35.50Q370 0 309 0Z"  horiz-adv-x="513" vert-adv-y="1000"  />

      
      <glyph glyph-name="uni39" unicode="&#x39;" d="M194 294L390 294L390 506Q390 557 363 586Q336 615 286 615L194 615Q144 615 117 586Q90 557 90 506L90 403Q90 352 117 323Q144 294 194 294M286 0L100 0Q91 0 91 8L91 20Q91 28 100 28L286 28Q336 28 363 57Q390 86 390 137L390 266L194 266Q133 266 96.50 303Q60 340 60 402L60 507Q60 569 96.50 606Q133 643 194 643L286 643Q347 643 383.50 606Q420 569 420 507L420 136Q420 74 383.50 37Q347 0 286 0Z"  horiz-adv-x="490" vert-adv-y="1000"  />

      
      <glyph glyph-name="uni3a" unicode="&#x3a;" d="M112 501L112 382Q112 373 104 373L83 373Q75 373 75 382L75 501Q75 510 83 510L104 510Q112 510 112 501M112 128L112 9Q112 0 104 0L83 0Q75 0 75 9L75 128Q75 137 83 137L104 137Q112 137 112 128Z"  horiz-adv-x="187" vert-adv-y="1000"  />

      
      <glyph glyph-name="uni3b" unicode="&#x3b;" d="M112 128L112 49Q112 34 86-95Q84-101 79.50-101Q75-101 75-95L75 128Q75 137 83 137L104 137Q112 137 112 128M112 501L112 382Q112 373 104 373L83 373Q75 373 75 382L75 501Q75 510 83 510L104 510Q112 510 112 501Z"  horiz-adv-x="187" vert-adv-y="1000"  />

      
      <glyph glyph-name="uni3c" unicode="&#x3c;" d="M436 475L436 461Q436 453 429 451L92 321L429 191Q436 189 436 181L436 167Q436 157 425 161L73 300Q64 304 64 311L64 331Q64 338 73 342L425 481Q436 485 436 475Z"  horiz-adv-x="500" vert-adv-y="1000"  />

      
      <glyph glyph-name="uni3d" unicode="&#x3d;" d="M84 422L438 422Q447 422 447 414L447 402Q447 394 438 394L84 394Q75 394 75 402L75 414Q75 422 84 422M84 248L438 248Q447 248 447 240L447 228Q447 220 438 220L84 220Q75 220 75 228L75 240Q75 248 84 248Z"  horiz-adv-x="522" vert-adv-y="1000"  />

      
      <glyph glyph-name="uni3e" unicode="&#x3e;" d="M75 461L75 475Q75 485 86 481L438 342Q447 338 447 331L447 311Q447 304 438 300L86 161Q75 157 75 167L75 181Q75 189 82 191L419 321L82 451Q75 453 75 461Z"  horiz-adv-x="522" vert-adv-y="1000"  />

      
      <glyph glyph-name="uni3f" unicode="&#x3f;" d="M266 128L266 9Q266 0 258 0L237 0Q229 0 229 9L229 128Q229 137 237 137L258 137Q266 137 266 128M263 251L263 212Q263 203 255 203L241 203Q233 203 233 212L233 247Q233 290 244.50 313Q256 336 293 368L324 396Q365 431 365 475L365 508Q365 559 338 586.50Q311 614 261 614L214 614Q164 614 137 586.50Q110 559 110 508L110 461Q110 452 102 452L88 452Q80 452 80 461L80 509Q80 571 116.50 606.50Q153 642 214 642L261 642Q322 642 358.50 606.50Q395 571 395 509L395 474Q395 419 347 379L307 345Q277 320 270 302.50Q263 285 263 251Z"  horiz-adv-x="475" vert-adv-y="1000"  />

      
      <glyph glyph-name="uni40" unicode="&#x40;" d="M521-58L339-58Q241-58 165.50 10Q90 78 90 197L90 348Q90 467 165.50 535Q241 603 339 603L531 603Q592 603 628.50 566Q665 529 665 467L665 219Q665 157 628.50 120Q592 83 531 83L508 83Q496 83 488 91.50Q480 100 480 112L480 137L476 137Q448 85 368 85Q307 85 270.50 122Q234 159 234 221L234 324Q234 386 270.50 423Q307 460 368 460L502 460Q510 460 510 451L510 119Q510 111 519 111L531 111Q581 111 608 140Q635 169 635 220L635 466Q635 517 608 546Q581 575 531 575L337 575Q250 575 185 512Q120 449 120 349L120 196Q120 96 185 33Q250-30 337-30L521-30Q530-30 530-38L530-50Q530-58 521-58M480 217L480 424Q480 432 471 432L368 432Q318 432 291 403Q264 374 264 323L264 222Q264 171 291 142Q318 113 368 113L369 113Q419 113 449.50 140Q480 167 480 217Z"  horiz-adv-x="755" vert-adv-y="1000"  />

      
      <glyph glyph-name="uni41" unicode="&#x41;" d="M51 0L37 0Q28 0 31 9L241 634Q244 643 251 643L275 643Q282 643 285 634L495 9Q498 0 489 0L474 0Q467 0 464 9L403 183L123 183L62 9Q58 0 51 0M261 605L134 213L392 213L265 605L261 605Z"  horiz-adv-x="526" vert-adv-y="1000"  />

      
      <glyph glyph-name="uni42" unicode="&#x42;" d="M129 28L335 28Q385 28 412 55.50Q439 83 439 134L439 205Q439 311 325 311L129 311Q120 311 120 303L120 36Q120 28 129 28M129 339L325 339Q376 339 404.50 366.50Q433 394 433 445L433 509Q433 560 406 587.50Q379 615 329 615L129 615Q120 615 120 607L120 347Q120 339 129 339M90 9L90 634Q90 643 98 643L329 643Q390 643 426.50 607.50Q463 572 463 510L463 444Q463 351 375 325Q411 323 440 290Q469 257 469 206L469 133Q469 71 432.50 35.50Q396 0 335 0L98 0Q90 0 90 9Z"  horiz-adv-x="544" vert-adv-y="1000"  />

      
      <glyph glyph-name="uni43" unicode="&#x43;" d="M344 0L214 0Q153 0 116.50 37Q80 74 80 136L80 507Q80 569 116.50 606Q153 643 214 643L344 643Q405 643 441.50 606Q478 569 478 507L478 457Q478 448 470 448L456 448Q448 448 448 457L448 506Q448 557 421 586Q394 615 344 615L214 615Q164 615 137 586Q110 557 110 506L110 137Q110 86 137 57Q164 28 214 28L344 28Q394 28 421 57Q448 86 448 137L448 186Q448 195 456 195L470 195Q478 195 478 186L478 136Q478 74 441.50 37Q405 0 344 0Z"  horiz-adv-x="543" vert-adv-y="1000"  />

      
      <glyph glyph-name="uni44" unicode="&#x44;" d="M129 28L344 28Q394 28 421 57Q448 86 448 137L448 506Q448 557 421 586Q394 615 344 615L129 615Q120 615 120 607L120 36Q120 28 129 28M90 9L90 634Q90 643 98 643L344 643Q405 643 441.50 606Q478 569 478 507L478 136Q478 74 441.50 37Q405 0 344 0L98 0Q90 0 90 9Z"  horiz-adv-x="558" vert-adv-y="1000"  />

      
      <glyph glyph-name="uni45" unicode="&#x45;" d="M402 0L98 0Q90 0 90 9L90 634Q90 643 98 643L402 643Q411 643 411 635L411 623Q411 615 402 615L129 615Q120 615 120 607L120 350Q120 342 129 342L376 342Q385 342 385 334L385 322Q385 314 376 314L129 314Q120 314 120 306L120 36Q120 28 129 28L402 28Q411 28 411 20L411 8Q411 0 402 0Z"  horiz-adv-x="481" vert-adv-y="1000"  />

      
      <glyph glyph-name="uni46" unicode="&#x46;" d="M112 0L98 0Q90 0 90 9L90 634Q90 643 98 643L403 643Q412 643 412 635L412 623Q412 615 403 615L129 615Q120 615 120 607L120 341Q120 333 129 333L376 333Q385 333 385 325L385 313Q385 305 376 305L129 305Q120 305 120 297L120 9Q120 0 112 0Z"  horiz-adv-x="462" vert-adv-y="1000"  />

      
      <glyph glyph-name="uni47" unicode="&#x47;" d="M324 0L214 0Q153 0 116.50 37Q80 74 80 136L80 507Q80 569 116.50 606Q153 643 214 643L324 643Q385 643 421.50 606Q458 569 458 507L458 457Q458 448 450 448L436 448Q428 448 428 457L428 506Q428 557 401 586Q374 615 324 615L214 615Q164 615 137 586Q110 557 110 506L110 137Q110 86 137 57Q164 28 214 28L324 28Q374 28 401 57Q428 86 428 137L428 288Q428 296 419 296L290 296Q281 296 281 304L281 316Q281 324 290 324L440 324Q458 324 458 305L458 136Q458 74 421.50 37Q385 0 324 0Z"  horiz-adv-x="538" vert-adv-y="1000"  />

      
      <glyph glyph-name="uni48" unicode="&#x48;" d="M112 0L98 0Q90 0 90 9L90 634Q90 643 98 643L112 643Q120 643 120 634L120 350Q120 342 129 342L439 342Q448 342 448 350L448 634Q448 643 456 643L470 643Q478 643 478 634L478 9Q478 0 470 0L456 0Q448 0 448 9L448 306Q448 314 439 314L129 314Q120 314 120 306L120 9Q120 0 112 0Z"  horiz-adv-x="568" vert-adv-y="1000"  />

      
      <glyph glyph-name="uni49" unicode="&#x49;" d="M125 634L125 9Q125 0 117 0L103 0Q95 0 95 9L95 634Q95 643 103 643L117 643Q125 643 125 634Z"  horiz-adv-x="220" vert-adv-y="1000"  />

      
      <glyph glyph-name="uni4a" unicode="&#x4a;" d="M386 643L400 643Q408 643 408 635L408 136Q408 74 371.50 37Q335 0 274 0L174 0Q113 0 76.50 37Q40 74 40 136L40 216Q40 225 48 225L62 225Q70 225 70 216L70 137Q70 86 97 57Q124 28 174 28L274 28Q324 28 351 57Q378 86 378 137L378 634Q378 643 386 643Z"  horiz-adv-x="493" vert-adv-y="1000"  />

      
      <glyph glyph-name="uni4b" unicode="&#x4b;" d="M112 0L98 0Q90 0 90 9L90 634Q90 643 98 643L112 643Q120 643 120 634L120 242L124 242Q130 255 139 267L420 634Q427 643 436 643L455 643Q465 643 457 634L253 363L491 9Q497 0 487 0L471 0Q462 0 456 9L234 339L120 202L120 9Q120 0 112 0Z"  horiz-adv-x="523" vert-adv-y="1000"  />

      
      <glyph glyph-name="uni4c" unicode="&#x4c;" d="M413 0L98 0Q90 0 90 9L90 634Q90 643 98 643L112 643Q120 643 120 634L120 38Q120 30 129 30L413 30Q422 30 422 22L422 8Q422 0 413 0Z"  horiz-adv-x="452" vert-adv-y="1000"  />

      
      <glyph glyph-name="uni4d" unicode="&#x4d;" d="M562 643L590 643Q598 643 598 634L598 9Q598 0 590 0L576 0Q568 0 568 9L568 585L564 585L366 148Q362 140 354 140L335 140Q327 140 323 148L124 586L120 586L120 9Q120 0 112 0L98 0Q90 0 90 9L90 634Q90 643 98 643L126 643Q131 643 133 639L342 177L346 177L555 639Q557 643 562 643Z"  horiz-adv-x="688" vert-adv-y="1000"  />

      
      <glyph glyph-name="uni4e" unicode="&#x4e;" d="M112 0L98 0Q90 0 90 9L90 634Q90 643 98 643L112 643Q117 643 119 639L454 72L458 72L458 634Q458 643 466 643L480 643Q488 643 488 634L488 9Q488 0 480 0L470 0Q463 0 458 8L124 573L120 573L120 9Q120 0 112 0Z"  horiz-adv-x="578" vert-adv-y="1000"  />

      
      <glyph glyph-name="uni4f" unicode="&#x4f;" d="M214 28L339 28Q389 28 416 57Q443 86 443 137L443 506Q443 557 416 586Q389 615 339 615L214 615Q164 615 137 586Q110 557 110 506L110 137Q110 86 137 57Q164 28 214 28M339 0L214 0Q153 0 116.50 37Q80 74 80 136L80 507Q80 569 116.50 606Q153 643 214 643L339 643Q400 643 436.50 606Q473 569 473 507L473 136Q473 74 436.50 37Q400 0 339 0Z"  horiz-adv-x="553" vert-adv-y="1000"  />

      
      <glyph glyph-name="uni50" unicode="&#x50;" d="M112 0L98 0Q90 0 90 9L90 634Q90 643 98 643L324 643Q385 643 421.50 606Q458 569 458 507L458 384Q458 322 421.50 285Q385 248 324 248L129 248Q120 248 120 240L120 9Q120 0 112 0M129 276L324 276Q374 276 401 305Q428 334 428 385L428 506Q428 557 401 586Q374 615 324 615L129 615Q120 615 120 607L120 284Q120 276 129 276Z"  horiz-adv-x="523" vert-adv-y="1000"  />

      
      <glyph glyph-name="uni51" unicode="&#x51;" d="M214 28L339 28Q389 28 416 57Q443 86 443 137L443 506Q443 557 416 586Q389 615 339 615L214 615Q164 615 137 586Q110 557 110 506L110 137Q110 86 137 57Q164 28 214 28M412-133L396-133Q387-133 381-124L304 0L214 0Q153 0 116.50 37Q80 74 80 136L80 507Q80 569 116.50 606Q153 643 214 643L339 643Q400 643 436.50 606Q473 569 473 507L473 136Q473 74 436.50 37Q400 0 339 0L416-124Q422-133 412-133Z"  horiz-adv-x="553" vert-adv-y="1000"  />

      
      <glyph glyph-name="uni52" unicode="&#x52;" d="M112 0L98 0Q90 0 90 9L90 634Q90 643 98 643L323 643Q384 643 420.50 606Q457 569 457 507L457 407Q457 351 427 315.50Q397 280 346 273L346 269L469 9Q474 0 465 0L447 0Q439 0 434 9L312 271L129 271Q120 271 120 263L120 9Q120 0 112 0M129 299L323 299Q373 299 400 328Q427 357 427 408L427 506Q427 557 400 586Q373 615 323 615L129 615Q120 615 120 607L120 307Q120 299 129 299Z"  horiz-adv-x="530" vert-adv-y="1000"  />

      
      <glyph glyph-name="uni53" unicode="&#x53;" d="M90 136L90 176Q90 185 98 185L112 185Q120 185 120 176L120 137Q120 86 147 57Q174 28 224 28L344 28Q394 28 421 57Q448 86 448 137L448 187Q448 234 411 261.50Q374 289 321.50 301.50Q269 314 216.50 326.50Q164 339 127 368Q90 397 90 447L90 507Q90 569 126.50 606Q163 643 224 643L344 643Q405 643 441.50 606Q478 569 478 507L478 477Q478 468 470 468L456 468Q448 468 448 477L448 506Q448 557 421 586Q394 615 344 615L224 615Q174 615 147 586Q120 557 120 506L120 448Q120 374 246 346Q299 335 351.50 321.50Q404 308 441 275.50Q478 243 478 189L478 136Q478 74 441.50 37Q405 0 344 0L224 0Q163 0 126.50 37Q90 74 90 136Z"  horiz-adv-x="568" vert-adv-y="1000"  />

      
      <glyph glyph-name="uni54" unicode="&#x54;" d="M214 0L200 0Q192 0 192 9L192 607Q192 615 183 615L29 615Q20 615 20 623L20 635Q20 643 29 643L385 643Q394 643 394 635L394 623Q394 615 385 615L231 615Q222 615 222 607L222 9Q222 0 214 0Z"  horiz-adv-x="414" vert-adv-y="1000"  />

      
      <glyph glyph-name="uni55" unicode="&#x55;" d="M443 643L457 643Q465 643 465 635L465 136Q465 74 428.50 37Q392 0 331 0L219 0Q158 0 121.50 37Q85 74 85 136L85 634Q85 643 93 643L107 643Q115 643 115 634L115 137Q115 86 142 57Q169 28 219 28L331 28Q381 28 408 57Q435 86 435 137L435 634Q435 643 443 643Z"  horiz-adv-x="550" vert-adv-y="1000"  />

      
      <glyph glyph-name="uni56" unicode="&#x56;" d="M259 0L235 0Q228 0 225 9L31 634Q28 643 37 643L52 643Q59 643 62 634L245 44L249 44L432 634Q435 643 442 643L457 643Q466 643 463 634L269 9Q266 0 259 0Z"  horiz-adv-x="494" vert-adv-y="1000"  />

      
      <glyph glyph-name="uni57" unicode="&#x57;" d="M219 0L192 0Q184 0 181 9L36 634Q34 643 44 643L58 643Q65 643 68 634L203 38L207 38L374 634Q377 643 385 643L404 643Q412 643 415 634L583 38L587 38L722 634Q724 643 733 643L748 643Q757 643 754 634L609 9Q607 0 599 0L572 0Q564 0 561 9L397 599L393 599L229 9Q226 0 219 0Z"  horiz-adv-x="790" vert-adv-y="1000"  />

      
      <glyph glyph-name="uni58" unicode="&#x58;" d="M58 0L42 0Q33 0 38 9L228 342L49 634Q44 643 54 643L68 643Q77 643 82 634L246 365L250 365L413 634Q418 643 426 643L442 643Q451 643 446 634L268 343L457 9Q462 0 453 0L437 0Q430 0 426 7L249 317L245 317L69 7Q65 0 58 0Z"  horiz-adv-x="494" vert-adv-y="1000"  />

      
      <glyph glyph-name="uni59" unicode="&#x59;" d="M250 0L236 0Q228 0 228 9L228 245L31 634Q26 643 36 643L54 643Q61 643 65 634L241 284L245 284L421 634Q425 643 432 643L450 643Q460 643 455 634L258 245L258 9Q258 0 250 0Z"  horiz-adv-x="486" vert-adv-y="1000"  />

      
      <glyph glyph-name="uni5a" unicode="&#x5a;" d="M40 8L40 25Q40 31 42 34L386 611L386 615L59 615Q50 615 50 623L50 635Q50 643 59 643L412 643Q421 643 421 635L421 616Q421 611 419 608L75 32L75 28L422 28Q431 28 431 20L431 8Q431 0 422 0L49 0Q40 0 40 8Z"  horiz-adv-x="471" vert-adv-y="1000"  />

      
      <glyph glyph-name="uni5b" unicode="&#x5b;" d="M198-102L68-102Q60-102 60-93L60 634Q60 643 68 643L198 643Q207 643 207 635L207 623Q207 615 198 615L99 615Q90 615 90 607L90-66Q90-74 99-74L198-74Q207-74 207-82L207-94Q207-102 198-102Z"  horiz-adv-x="277" vert-adv-y="1000"  />

      
      <glyph glyph-name="uni5c" unicode="&#x5c;" d="M77 643L91 643Q100 643 104 632L322 12Q326 0 314 0L301 0Q292 0 288 11L71 629Q66 643 77 643Z"  horiz-adv-x="393" vert-adv-y="1000"  />

      
      <glyph glyph-name="uni5d" unicode="&#x5d;" d="M60-94L60-82Q60-74 69-74L168-74Q177-74 177-66L177 607Q177 615 168 615L69 615Q60 615 60 623L60 635Q60 643 69 643L199 643Q207 643 207 634L207-93Q207-102 199-102L69-102Q60-102 60-94Z"  horiz-adv-x="277" vert-adv-y="1000"  />

      
      <glyph glyph-name="uni5e" unicode="&#x5e;" d="M79 365L69 365Q55 365 62 377L196 632Q202 643 215 643L238 643Q251 643 257 632L391 377Q398 365 384 365L374 365Q366 365 360 374L226 626L93 374Q87 365 79 365Z"  horiz-adv-x="453" vert-adv-y="1000"  />

      
      <glyph glyph-name="uni5f" unicode="&#x5f;" d="M363-96L9-96Q0-96 0-88L0-76Q0-68 9-68L363-68Q372-68 372-76L372-88Q372-96 363-96Z"  horiz-adv-x="372" vert-adv-y="1000"  />

      
      <glyph glyph-name="uni60" unicode="&#x60;" d="M186 574L178 574Q170 574 164 582L72 694Q69 698 70.50 700.50Q72 703 76 703L106 703Q116 703 121 694L189 583Q194 574 186 574Z"  horiz-adv-x="261" vert-adv-y="1000"  />

      
      <glyph glyph-name="uni61" unicode="&#x61;" d="M278 0L204 0Q143 0 106.50 37Q70 74 70 136L70 374Q70 436 106.50 473Q143 510 204 510L410 510Q418 510 418 501L418 9Q418 0 410 0L396 0Q388 0 388 9L388 52L384 52Q356 0 278 0M388 132L388 474Q388 482 379 482L204 482Q154 482 127 453Q100 424 100 373L100 137Q100 86 127 57Q154 28 204 28L276 28Q326 28 357 55Q388 82 388 132Z"  horiz-adv-x="498" vert-adv-y="1000"  />

      
      <glyph glyph-name="uni62" unicode="&#x62;" d="M119 28L294 28Q344 28 371 57Q398 86 398 137L398 383Q398 434 371 463Q344 492 294 492L222 492Q172 492 141 465Q110 438 110 388L110 36Q110 28 119 28M80 9L80 694Q80 703 88 703L102 703Q110 703 110 694L110 468L114 468Q142 520 220 520L294 520Q355 520 391.50 483Q428 446 428 384L428 136Q428 74 391.50 37Q355 0 294 0L88 0Q80 0 80 9Z"  horiz-adv-x="498" vert-adv-y="1000"  />

      
      <glyph glyph-name="uni63" unicode="&#x63;" d="M355 20L355 8Q355 0 346 0L204 0Q143 0 106.50 37Q70 74 70 136L70 374Q70 436 106.50 473Q143 510 204 510L346 510Q355 510 355 502L355 490Q355 482 346 482L204 482Q154 482 127 453Q100 424 100 373L100 137Q100 86 127 57Q154 28 204 28L346 28Q355 28 355 20Z"  horiz-adv-x="390" vert-adv-y="1000"  />

      
      <glyph glyph-name="uni64" unicode="&#x64;" d="M278 0L204 0Q143 0 106.50 37Q70 74 70 136L70 374Q70 436 106.50 473Q143 510 204 510L278 510Q356 510 384 458L388 458L388 694Q388 703 396 703L410 703Q418 703 418 694L418 9Q418 0 410 0L396 0Q388 0 388 9L388 52L384 52Q356 0 278 0M388 132L388 378Q388 428 357 455Q326 482 276 482L204 482Q154 482 127 453Q100 424 100 373L100 137Q100 86 127 57Q154 28 204 28L276 28Q326 28 357 55Q388 82 388 132Z"  horiz-adv-x="498" vert-adv-y="1000"  />

      
      <glyph glyph-name="uni65" unicode="&#x65;" d="M409 0L204 0Q143 0 106.50 37Q70 74 70 136L70 374Q70 436 106.50 473Q143 510 204 510L292 510Q353 510 389.50 473Q426 436 426 374L426 247Q426 237 417 237L109 237Q100 237 100 229L100 137Q100 86 127 57Q154 28 204 28L409 28Q418 28 418 20L418 8Q418 0 409 0M109 265L387 265Q396 265 396 273L396 373Q396 424 369 453Q342 482 292 482L204 482Q154 482 127 453Q100 424 100 373L100 273Q100 265 109 265Z"  horiz-adv-x="491" vert-adv-y="1000"  />

      
      <glyph glyph-name="uni66" unicode="&#x66;" d="M164 510L258 510Q267 510 267 502L267 490Q267 482 258 482L164 482Q155 482 155 474L155 9Q155 0 147 0L133 0Q125 0 125 9L125 474Q125 482 116 482L48 482Q39 482 39 490L39 502Q39 510 48 510L116 510Q125 510 125 518L125 569Q125 703 243 703L258 703Q267 703 267 695L267 683Q267 675 258 675L243 675Q195 675 175 648.50Q155 622 155 568L155 518Q155 510 164 510Z"  horiz-adv-x="290" vert-adv-y="1000"  />

      
      <glyph glyph-name="uni67" unicode="&#x67;" d="M283 30L209 30Q148 30 111.50 67Q75 104 75 166L75 374Q75 436 111.50 473Q148 510 209 510L415 510Q423 510 423 501L423 3Q423-59 386.50-96Q350-133 289-133L110-133Q101-133 101-125L101-113Q101-105 110-105L289-105Q339-105 366-76Q393-47 393 4L393 82L389 82Q361 30 283 30M393 162L393 474Q393 482 384 482L209 482Q159 482 132 453Q105 424 105 373L105 167Q105 116 132 87Q159 58 209 58L281 58Q331 58 362 85Q393 112 393 162Z"  horiz-adv-x="503" vert-adv-y="1000"  />

      
      <glyph glyph-name="uni68" unicode="&#x68;" d="M102 0L88 0Q80 0 80 9L80 694Q80 703 88 703L102 703Q110 703 110 694L110 458L114 458Q142 510 220 510L294 510Q355 510 391.50 473Q428 436 428 374L428 9Q428 0 420 0L406 0Q398 0 398 9L398 373Q398 424 371 453Q344 482 294 482L222 482Q172 482 141 455Q110 428 110 378L110 9Q110 0 102 0Z"  horiz-adv-x="503" vert-adv-y="1000"  />

      
      <glyph glyph-name="uni69" unicode="&#x69;" d="M85 593L85 692Q85 701 93 701L107 701Q115 701 115 692L115 593Q115 584 107 584L93 584Q85 584 85 593M85 9L85 501Q85 510 93 510L107 510Q115 510 115 501L115 9Q115 0 107 0L93 0Q85 0 85 9Z"  horiz-adv-x="200" vert-adv-y="1000"  />

      
      <glyph glyph-name="uni6a" unicode="&#x6a;" d="M85 593L85 692Q85 701 93 701L107 701Q115 701 115 692L115 593Q115 584 107 584L93 584Q85 584 85 593M-19-133L-39-133Q-48-133-48-125L-48-113Q-48-105-39-105L-19-105Q31-105 58-76Q85-47 85 4L85 501Q85 510 93 510L107 510Q115 510 115 501L115 3Q115-59 78.50-96Q42-133-19-133Z"  horiz-adv-x="200" vert-adv-y="1000"  />

      
      <glyph glyph-name="uni6b" unicode="&#x6b;" d="M366 510L380 510Q391 510 384 501L225 266L225 262L405 9Q412 0 402 0L385 0Q374 0 367 9L192 258Q188 264 192 270L350 503Q355 510 366 510M102 0L88 0Q80 0 80 9L80 694Q80 703 88 703L102 703Q110 703 110 694L110 9Q110 0 102 0Z"  horiz-adv-x="420" vert-adv-y="1000"  />

      
      <glyph glyph-name="uni6c" unicode="&#x6c;" d="M107 0L93 0Q85 0 85 9L85 694Q85 703 93 703L107 703Q115 703 115 694L115 9Q115 0 107 0Z"  horiz-adv-x="200" vert-adv-y="1000"  />

      
      <glyph glyph-name="uni6d" unicode="&#x6d;" d="M102 0L88 0Q80 0 80 9L80 501Q80 510 88 510L102 510Q110 510 110 501L110 458L114 458Q142 510 220 510L264 510Q352 510 385 439Q399 474 436.50 492Q474 510 512 510L552 510Q613 510 649.50 473Q686 436 686 374L686 9Q686 0 678 0L664 0Q656 0 656 9L656 373Q656 424 629 453Q602 482 552 482L512 482Q461 482 429.50 452.50Q398 423 398 373L398 9Q398 0 390 0L376 0Q368 0 368 9L368 373Q368 424 341 453Q314 482 264 482L222 482Q172 482 141 455Q110 428 110 378L110 9Q110 0 102 0Z"  horiz-adv-x="761" vert-adv-y="1000"  />

      
      <glyph glyph-name="uni6e" unicode="&#x6e;" d="M102 0L88 0Q80 0 80 9L80 501Q80 510 88 510L102 510Q110 510 110 501L110 458L114 458Q142 510 220 510L294 510Q355 510 391.50 473Q428 436 428 374L428 9Q428 0 420 0L406 0Q398 0 398 9L398 373Q398 424 371 453Q344 482 294 482L222 482Q172 482 141 455Q110 428 110 378L110 9Q110 0 102 0Z"  horiz-adv-x="503" vert-adv-y="1000"  />

      
      <glyph glyph-name="uni6f" unicode="&#x6f;" d="M289 0L204 0Q143 0 106.50 37Q70 74 70 136L70 374Q70 436 106.50 473Q143 510 204 510L289 510Q350 510 386.50 473Q423 436 423 374L423 136Q423 74 386.50 37Q350 0 289 0M204 28L289 28Q339 28 366 57Q393 86 393 137L393 373Q393 424 366 453Q339 482 289 482L204 482Q154 482 127 453Q100 424 100 373L100 137Q100 86 127 57Q154 28 204 28Z"  horiz-adv-x="493" vert-adv-y="1000"  />

      
      <glyph glyph-name="uni70" unicode="&#x70;" d="M102-153L88-153Q80-153 80-144L80 501Q80 510 88 510L102 510Q110 510 110 501L110 458L114 458Q142 510 220 510L294 510Q355 510 391.50 473Q428 436 428 374L428 136Q428 74 391.50 37Q355 0 294 0L220 0Q142 0 114 52L110 52L110-144Q110-153 102-153M222 28L294 28Q344 28 371 57Q398 86 398 137L398 373Q398 424 371 453Q344 482 294 482L222 482Q172 482 141 455Q110 428 110 378L110 132Q110 82 141 55Q172 28 222 28Z"  horiz-adv-x="498" vert-adv-y="1000"  />

      
      <glyph glyph-name="uni71" unicode="&#x71;" d="M388 137L388 474Q388 482 379 482L204 482Q154 482 127 453Q100 424 100 373L100 137Q100 86 127 57Q154 28 204 28L274 28Q325 28 356.50 57.50Q388 87 388 137M274 0L204 0Q143 0 106.50 37Q70 74 70 136L70 374Q70 436 106.50 473Q143 510 204 510L410 510Q418 510 418 501L418-144Q418-153 410-153L396-153Q388-153 388-144L388 54L384 54Q370 29 348.50 16Q327 3 312.50 1.50Q298 0 274 0Z"  horiz-adv-x="498" vert-adv-y="1000"  />

      
      <glyph glyph-name="uni72" unicode="&#x72;" d="M102 0L88 0Q80 0 80 9L80 501Q80 510 88 510L102 510Q110 510 110 501L110 456L114 456Q125 476 152.50 493Q180 510 224 510L264 510Q273 510 273 502L273 490Q273 482 264 482L223 482Q172 482 141 450Q110 418 110 363L110 9Q110 0 102 0Z"  horiz-adv-x="303" vert-adv-y="1000"  />

      
      <glyph glyph-name="uni73" unicode="&#x73;" d="M238 0L68 0Q59 0 59 8L59 20Q59 28 68 28L238 28Q339 28 339 108L339 138Q339 175 326 198Q313 221 279 233L147 279Q95 297 74.50 323.50Q54 350 54 398Q54 510 176 510L337 510Q346 510 346 502L346 490Q346 482 337 482L176 482Q130 482 107.50 461Q85 440 85 413L85 386Q85 354 101.50 336.50Q118 319 153 307L284 260Q337 245 353 211Q369 177 369 116Q369 55 337 27.50Q305 0 238 0Z"  horiz-adv-x="429" vert-adv-y="1000"  />

      
      <glyph glyph-name="uni74" unicode="&#x74;" d="M105 482L39 482Q30 482 30 490L30 502Q30 510 39 510L105 510Q114 510 114 518L114 596Q114 605 122 605L136 605Q144 605 144 596L144 518Q144 510 153 510L282 510Q291 510 291 502L291 490Q291 482 282 482L153 482Q144 482 144 474L144 134Q144 84 173.50 56Q203 28 254 28L292 28Q301 28 301 20L301 8Q301 0 292 0L254 0Q192 0 153 36Q114 72 114 133L114 474Q114 482 105 482Z"  horiz-adv-x="346" vert-adv-y="1000"  />

      
      <glyph glyph-name="uni75" unicode="&#x75;" d="M283 0L209 0Q148 0 111.50 37Q75 74 75 136L75 501Q75 510 83 510L97 510Q105 510 105 501L105 137Q105 86 132 57Q159 28 209 28L281 28Q331 28 362 55Q393 82 393 132L393 501Q393 510 401 510L415 510Q423 510 423 501L423 9Q423 0 415 0L401 0Q393 0 393 9L393 52L389 52Q361 0 283 0Z"  horiz-adv-x="503" vert-adv-y="1000"  />

      
      <glyph glyph-name="uni76" unicode="&#x76;" d="M27 510L43 510Q50 510 53 501L199 41L203 41L349 501Q352 510 359 510L375 510Q384 510 381 501L223 9Q220 0 212 0L190 0Q182 0 179 9L21 501Q18 510 27 510Z"  horiz-adv-x="402" vert-adv-y="1000"  />

      
      <glyph glyph-name="uni77" unicode="&#x77;" d="M202 0L182 0Q174 0 171 9L21 501Q18 510 27 510L42 510Q49 510 52 501L190 41L194 41L322 501Q324 510 333 510L347 510Q356 510 358 501L484 41L488 41L626 501Q629 510 636 510L652 510Q661 510 658 501L508 9Q505 0 497 0L476 0Q468 0 465 9L341 454L337 454L213 9Q210 0 202 0Z"  horiz-adv-x="679" vert-adv-y="1000"  />

      
      <glyph glyph-name="uni78" unicode="&#x78;" d="M51 0L31 0Q22 0 28 9L178 260L37 501Q31 510 40 510L59 510Q66 510 72 501L198 283L202 283L325 501Q331 510 338 510L357 510Q366 510 360 501L221 262L372 9Q378 0 369 0L346 0Q342 0 336 9L202 240L198 240L64 9Q58 0 51 0Z"  horiz-adv-x="400" vert-adv-y="1000"  />

      
      <glyph glyph-name="uni79" unicode="&#x79;" d="M59-147Q50-147 50-139L50-127Q50-119 59-119L88-119Q128-119 144.50-104.50Q161-90 169-83.50Q177-77 186.50-57.50Q196-38 199-32Q217 8 222 27L212 27Q204 27 201 36L31 501Q28 510 37 510L53 510Q60 510 63 501L226 56L230 56L393 501Q396 510 403 510L419 510Q428 510 425 501L255 36Q224-53 208-79Q165-146 88-147L59-147Z"  horiz-adv-x="456" vert-adv-y="1000"  />

      
      <glyph glyph-name="uni7a" unicode="&#x7a;" d="M35 8L35 17Q35 23 37 26L312 478L312 482L50 482Q41 482 41 490L41 502Q41 510 50 510L343 510Q352 510 352 502L352 490Q352 485 350 482L76 32L76 28L349 28Q358 28 358 20L358 8Q358 0 349 0L44 0Q35 0 35 8Z"  horiz-adv-x="393" vert-adv-y="1000"  />

      
      <glyph glyph-name="uni7b" unicode="&#x7b;" d="M220 643L224 643Q233 643 233 635L233 623Q233 615 224 615L220 615Q179 615 162.50 587.50Q146 560 146 506L146 365Q146 287 94 270Q146 253 146 175L146 35Q146-19 162.50-46.50Q179-74 220-74L224-74Q233-74 233-82L233-94Q233-102 224-102L220-102Q168-102 142-66Q116-30 116 34L116 174Q116 218 99.50 237Q83 256 49 256Q40 256 40 264L40 276Q40 284 49 284Q83 284 99.50 303Q116 322 116 366L116 507Q116 571 142 607Q168 643 220 643Z"  horiz-adv-x="293" vert-adv-y="1000"  />

      
      <glyph glyph-name="uni7c" unicode="&#x7c;" d="M115 634L115 9Q115 0 107 0L93 0Q85 0 85 9L85 634Q85 643 93 643L107 643Q115 643 115 634Z"  horiz-adv-x="200" vert-adv-y="1000"  />

      
      <glyph glyph-name="uni7d" unicode="&#x7d;" d="M157 507L157 366Q157 322 173.50 303Q190 284 224 284Q233 284 233 276L233 264Q233 256 224 256Q190 256 173.50 237Q157 218 157 174L157 34Q157-30 131-66Q105-102 53-102L49-102Q40-102 40-94L40-82Q40-74 49-74L53-74Q94-74 110.50-46.50Q127-19 127 35L127 175Q127 253 179 270Q127 287 127 365L127 506Q127 560 110.50 587.50Q94 615 53 615L49 615Q40 615 40 623L40 635Q40 643 49 643L53 643Q105 643 131 607Q157 571 157 507Z"  horiz-adv-x="293" vert-adv-y="1000"  />

      
      <glyph glyph-name="uni7e" unicode="&#x7e;" d="M254.50 310.50Q254.50 310.50 221.75 317.75Q189 325 164 325Q139 325 78 305Q70 305 70 315L70 324Q70 331 95 342Q120 353 157.50 353Q195 353 259 338.50Q323 324 348 324Q373 324 434 344Q442 344 442 334L442 325Q442 318 417 307Q392 296 356 296Q320 296 254.50 310.50Z"  horiz-adv-x="512" vert-adv-y="1000"  />

      
      <glyph glyph-name="unia1" unicode="&#xa1;" d="M127 506L110 506Q102 506 102 515L102 634Q102 643 110 643L127 643Q135 643 135 634L135 515Q135 506 127 506M116 440L120 440Q125 440 127.50 425Q130 410 133.50 296Q137 182 137 93L137 9Q137 0 129 0L108 0Q100 0 100 9L100 93Q100 363 109 429Q111 440 116 440Z"  horiz-adv-x="237" vert-adv-y="1000"  />

      
      <glyph glyph-name="unia2" unicode="&#xa2;" d="M267-89L253-89Q245-89 245-80L245 0L204 0Q143 0 106.50 37Q70 74 70 136L70 374Q70 436 106.50 473Q143 510 204 510L245 510L245 605Q245 614 253 614L267 614Q275 614 275 605L275 510L366 510Q375 510 375 502L375 490Q375 482 366 482L204 482Q154 482 127 453Q100 424 100 373L100 137Q100 86 127 57Q154 28 204 28L366 28Q375 28 375 20L375 8Q375 0 366 0L275 0L275-80Q275-89 267-89Z"  horiz-adv-x="410" vert-adv-y="1000"  />

      
      <glyph glyph-name="unia3" unicode="&#xa3;" d="M116 28L441 28Q450 28 450 20L450 8Q450 0 441 0L49 0Q40 0 40 8L40 20Q40 28 49 28L61 28Q81 28 97.50 49.50Q114 71 114 100L114 280L49 280Q40 280 40 288L40 300Q40 308 49 308L114 308L114 510Q114 572 150.50 607.50Q187 643 248 643L313 643Q374 643 410.50 607.50Q447 572 447 510L447 481Q447 472 439 472L425 472Q417 472 417 481L417 509Q417 560 390 587.50Q363 615 313 615L248 615Q198 615 171 587.50Q144 560 144 509L144 308L320 308Q329 308 329 300L329 288Q329 280 320 280L144 280L144 102Q144 76 138 59Q128 32 116 32L116 28Z"  horiz-adv-x="520" vert-adv-y="1000"  />

      
      <glyph glyph-name="unia5" unicode="&#xa5;" d="M250 0L236 0Q228 0 228 9L228 175L42 175Q33 175 33 183L33 195Q33 203 42 203L228 203L228 245L193 315L42 315Q33 315 33 323L33 335Q33 343 42 343L179 343L31 634Q27 643 36 643L55 643Q62 643 66 634L241 284L245 284L420 634Q424 643 431 643L450 643Q460 643 455 634L308 343L444 343Q453 343 453 335L453 323Q453 315 444 315L294 315L258 245L258 203L444 203Q453 203 453 195L453 183Q453 175 444 175L258 175L258 9Q258 0 250 0Z"  horiz-adv-x="487" vert-adv-y="1000"  />

      
      <glyph glyph-name="unia6" unicode="&#xa6;" d="M113 634L113 385Q113 376 105 376L88 376Q80 376 80 385L80 634Q80 643 88 643L105 643Q113 643 113 634M113 258L113 9Q113 0 105 0L88 0Q80 0 80 9L80 258Q80 267 88 267L105 267Q113 267 113 258Z"  horiz-adv-x="193" vert-adv-y="1000"  />

      
      <glyph glyph-name="unia7" unicode="&#xa7;" d="M354 303Q354 342 334 360.50Q314 379 274 386L163 405Q115 415 90 440L90 348Q90 273 168 259L279 240Q328 232 354 209L354 303M253 0L73 0Q64 0 64 8L64 20Q64 28 73 28L253 28Q313 28 333.50 55.50Q354 83 354 126Q354 169 334 187.50Q314 206 274 213L163 232Q60 252 60 348L60 521Q60 643 181 643L342 643Q351 643 351 635L351 623Q351 615 342 615L181 615Q138 615 114 590.50Q90 566 90 523.50Q90 481 106.50 460.50Q123 440 168 432L279 413Q330 404 357 379Q384 354 384 303L384 133Q384 71 356 35.50Q328 0 253 0Z"  horiz-adv-x="444" vert-adv-y="1000"  />

      
      <glyph glyph-name="unia8" unicode="&#xa8;" d="M70 583L70 694Q70 703 78 703L92 703Q100 703 100 694L100 583Q100 574 92 574L78 574Q70 574 70 583M226 583L226 694Q226 703 234 703L248 703Q256 703 256 694L256 583Q256 574 248 574L234 574Q226 574 226 583Z"  horiz-adv-x="326" vert-adv-y="1000"  />

      
      <glyph glyph-name="unia9" unicode="&#xa9;" d="M495 402L495 384Q495 375 487 375L473 375Q465 375 465 384L465 401Q465 451 443.50 470.50Q422 490 371 490L350 490Q299 490 277.50 470.50Q256 451 256 401L256 235Q256 185 277.50 165.50Q299 146 350 146L371 146Q422 146 443.50 165.50Q465 185 465 235L465 258Q465 267 473 267L487 267Q495 267 495 258L495 234Q495 173 464 145.50Q433 118 371 118L350 118Q288 118 257 145.50Q226 173 226 234L226 402Q226 463 257 490.50Q288 518 350 518L371 518Q433 518 464 490.50Q495 463 495 402M209 28L519 28Q569 28 596 57Q623 86 623 137L623 506Q623 557 596 586Q569 615 519 615L209 615Q159 615 132 586Q105 557 105 506L105 137Q105 86 132 57Q159 28 209 28M209 643L519 643Q580 643 616.50 606Q653 569 653 507L653 136Q653 74 616.50 37Q580 0 519 0L209 0Q148 0 111.50 37Q75 74 75 136L75 507Q75 569 111.50 606Q148 643 209 643Z"  horiz-adv-x="728" vert-adv-y="1000"  />

      
      <glyph glyph-name="uniab" unicode="&#xab;" d="M355 112L355 96Q355 90 351.50 88Q348 86 344 91L211 229Q202 240 202 248L202 262Q202 270 211 281L344 419Q348 424 351.50 422Q355 420 355 414L355 398Q355 391 350 385L225 255L350 125Q355 119 355 112M223 112L223 96Q223 90 219.50 88Q216 86 212 91L79 229Q70 240 70 248L70 262Q70 270 79 281L212 419Q216 424 219.50 422Q223 420 223 414L223 398Q223 391 218 385L93 255L218 125Q223 119 223 112Z"  horiz-adv-x="425" vert-adv-y="1000"  />

      
      <glyph glyph-name="uniae" unicode="&#xae;" d="M233 625L186 625L186 556L233 556Q253 556 253 577L253 605Q253 625 233 625M163 477L163 637Q163 646 171 646L233 646Q253 646 264.50 634Q276 622 276 602L276 579Q276 546 250 537L278 477Q282 468 275 468L265 468Q258 468 256 474L228 535L186 535L186 477Q186 468 178 468L171 468Q163 468 163 477M175 431L254 431Q293 431 314.50 454Q336 477 336 517L336 595Q336 635 314.50 658Q293 681 254 681L175 681Q136 681 114.50 658Q93 635 93 595L93 517Q93 477 114.50 454Q136 431 175 431M254 409L175 409Q127 409 98.50 438Q70 467 70 516L70 596Q70 645 98.50 674Q127 703 175 703L254 703Q302 703 331 674Q360 645 360 596L360 516Q360 467 331 438Q302 409 254 409Z"  horiz-adv-x="430" vert-adv-y="1000"  />

      
      <glyph glyph-name="uniaf" unicode="&#xaf;" d="M283 627L79 627Q70 627 70 635L70 644Q70 652 79 652L283 652Q292 652 292 644L292 635Q292 627 283 627Z"  horiz-adv-x="362" vert-adv-y="1000"  />

      
      <glyph glyph-name="unib0" unicode="&#xb0;" d="M156 511L119 511Q70 511 70 560L70 657Q70 704 119 704L156 704Q179 704 192.50 691.50Q206 679 206 657L206 560Q206 537 192.50 524Q179 511 156 511M144 536Q165 536 171.50 543Q178 550 178 571L178 643Q178 664 171.50 671Q165 678 144 678L132 678Q111 678 104.50 671Q98 664 98 643L98 571Q98 550 104.50 543Q111 536 132 536L144 536Z"  horiz-adv-x="276" vert-adv-y="1000"  />

      
      <glyph glyph-name="unib1" unicode="&#xb1;" d="M271 378L433 378Q442 378 442 370L442 358Q442 350 433 350L271 350L271 230Q271 221 263 221L249 221Q241 221 241 230L241 350L79 350Q70 350 70 358L70 370Q70 378 79 378L241 378L241 498Q241 507 249 507L263 507Q271 507 271 498L271 378M79 163L433 163Q442 163 442 155L442 143Q442 135 433 135L79 135Q70 135 70 143L70 155Q70 163 79 163Z"  horiz-adv-x="512" vert-adv-y="1000"  />

      
      <glyph glyph-name="unib4" unicode="&#xb4;" d="M155 703L185 703Q189 703 190.50 700.50Q192 698 189 694L97 582Q91 574 83 574L75 574Q67 574 72 583L140 694Q144 703 155 703Z"  horiz-adv-x="261" vert-adv-y="1000"  />

      
      <glyph glyph-name="unib6" unicode="&#xb6;" d="M192 0L178 0Q170 0 170 9L170 323Q110 324 80 351.50Q50 379 50 439L50 527Q50 588 81 615.50Q112 643 174 643L405 643Q414 643 414 635L414 9Q414 0 406 0L392 0Q384 0 384 9L384 605Q384 613 375 613L209 613Q200 613 200 605L200 9Q200 0 192 0Z"  horiz-adv-x="504" vert-adv-y="1000"  />

      
      <glyph glyph-name="unib7" unicode="&#xb7;" d="M122 378L122 259Q122 250 114 250L93 250Q85 250 85 259L85 378Q85 387 93 387L114 387Q122 387 122 378Z"  horiz-adv-x="207" vert-adv-y="1000"  />

      
      <glyph glyph-name="unib8" unicode="&#xb8;" d="M105-54Q145-54 164.50-67Q184-80 184-111L184-121Q184-178 105-178L86-178Q77-178 77-170L77-160Q77-152 86-152L102-152Q157-152 157-118L157-116Q157-96 145-88Q133-80 102-80L93-80Q76-80 71-68Q66-56 77-45L135 20L170 20L105-50L105-54Z"  horiz-adv-x="254" vert-adv-y="1000"  />

      
      <glyph glyph-name="unibb" unicode="&#xbb;" d="M202 398L202 414Q202 420 205 422Q208 424 213 419L346 281Q355 270 355 262L355 248Q355 240 346 229L213 91Q208 86 205 88Q202 90 202 96L202 112Q202 119 207 125L332 255L207 385Q202 391 202 398M70 398L70 414Q70 420 73 422Q76 424 81 419L214 281Q223 270 223 262L223 248Q223 240 214 229L81 91Q76 86 73 88Q70 90 70 96L70 112Q70 119 75 125L200 255L75 385Q70 391 70 398Z"  horiz-adv-x="425" vert-adv-y="1000"  />

      
      <glyph glyph-name="unibf" unicode="&#xbf;" d="M209 514L209 633Q209 642 217 642L238 642Q246 642 246 633L246 514Q246 505 238 505L217 505Q209 505 209 514M212 391L212 430Q212 439 220 439L234 439Q242 439 242 430L242 395Q242 352 230.50 329Q219 306 182 274L151 246Q110 211 110 167L110 134Q110 83 137 55.50Q164 28 214 28L261 28Q311 28 338 55.50Q365 83 365 134L365 181Q365 190 373 190L387 190Q395 190 395 181L395 133Q395 71 358.50 35.50Q322 0 261 0L214 0Q153 0 116.50 35.50Q80 71 80 133L80 168Q80 223 128 263L168 297Q198 322 205 339.50Q212 357 212 391Z"  horiz-adv-x="475" vert-adv-y="1000"  />

      
      <glyph glyph-name="unic0" unicode="&#xc0;" d="M263 707L255 707Q247 707 241 715L149 827Q146 831 147.50 833.50Q149 836 153 836L183 836Q194 836 198 827L266 716Q271 707 263 707M51 0L37 0Q28 0 31 9L241 634Q244 643 251 643L275 643Q282 643 285 634L495 9Q498 0 489 0L474 0Q467 0 464 9L403 183L123 183L62 9Q58 0 51 0M261 605L134 213L392 213L265 605L261 605Z"  horiz-adv-x="526" vert-adv-y="1000"  />

      
      <glyph glyph-name="unic1" unicode="&#xc1;" d="M344 836L374 836Q378 836 379.50 833.50Q381 831 378 827L286 715Q280 707 272 707L264 707Q256 707 261 716L329 827Q334 836 344 836M51 0L37 0Q28 0 31 9L241 634Q244 643 251 643L275 643Q282 643 285 634L495 9Q498 0 489 0L474 0Q467 0 464 9L403 183L123 183L62 9Q58 0 51 0M261 605L134 213L392 213L265 605L261 605Z"  horiz-adv-x="526" vert-adv-y="1000"  />

      
      <glyph glyph-name="unic2" unicode="&#xc2;" d="M347 707L333 707Q324 707 322 712L263 817L204 712Q202 707 193 707L179 707Q168 707 175 718L239 827Q245 836 258 836L268 836Q281 836 287 827L351 718Q358 707 347 707M51 0L37 0Q28 0 31 9L241 634Q244 643 251 643L275 643Q282 643 285 634L495 9Q498 0 489 0L474 0Q467 0 464 9L403 183L123 183L62 9Q58 0 51 0M261 605L134 213L392 213L265 605L261 605Z"  horiz-adv-x="526" vert-adv-y="1000"  />

      
      <glyph glyph-name="unic3" unicode="&#xc3;" d="M273 756.50Q273 756.50 268.50 741.25Q264 726 251.50 714Q239 702 211 702Q183 702 171.50 719.50Q160 737 160 780L160 819Q160 828 168 828L175 828Q183 828 183 819L183 781Q183 748 189.50 735.50Q196 723 213 723Q230 723 236.50 733Q243 743 253.50 776.50Q264 810 275.50 820.50Q287 831 315 831Q343 831 354.50 813.50Q366 796 366 753L366 711Q366 702 358 702L351 702Q343 702 343 711L343 752Q343 785 336.50 797.50Q330 810 311 810Q292 810 284 792Q282 787 273 756.50M51 0L37 0Q28 0 31 9L241 634Q244 643 251 643L275 643Q282 643 285 634L495 9Q498 0 489 0L474 0Q467 0 464 9L403 183L123 183L62 9Q58 0 51 0M261 605L134 213L392 213L265 605L261 605Z"  horiz-adv-x="526" vert-adv-y="1000"  />

      
      <glyph glyph-name="unic4" unicode="&#xc4;" d="M170 716L170 827Q170 836 178 836L192 836Q200 836 200 827L200 716Q200 707 192 707L178 707Q170 707 170 716M326 716L326 827Q326 836 334 836L348 836Q356 836 356 827L356 716Q356 707 348 707L334 707Q326 707 326 716M51 0L37 0Q28 0 31 9L241 634Q244 643 251 643L275 643Q282 643 285 634L495 9Q498 0 489 0L474 0Q467 0 464 9L403 183L123 183L62 9Q58 0 51 0M261 605L134 213L392 213L265 605L261 605Z"  horiz-adv-x="526" vert-adv-y="1000"  />

      
      <glyph glyph-name="unic5" unicode="&#xc5;" d="M266 692L256 692Q219 692 199.50 712.50Q180 733 180 771L180 793Q180 831 199.50 851Q219 871 256 871L266 871Q303 871 323.50 850.50Q344 830 344 793L344 771Q344 734 323.50 713Q303 692 266 692M256 715L266 715Q319 715 319 772L319 792Q319 848 266 848L256 848Q204 848 204 792L204 772Q204 715 256 715M51 0L37 0Q28 0 31 9L241 634Q244 643 251 643L275 643Q282 643 285 634L495 9Q498 0 489 0L474 0Q467 0 464 9L403 183L123 183L62 9Q58 0 51 0M261 605L134 213L392 213L265 605L261 605Z"  horiz-adv-x="526" vert-adv-y="1000"  />

      
      <glyph glyph-name="unic6" unicode="&#xc6;" d="M24 0L5 0Q-4 0 1 9L356 634Q361 643 370 643L692 643Q701 643 701 635L701 623Q701 615 692 615L419 615Q410 615 410 607L410 350Q410 342 419 342L666 342Q675 342 675 334L675 322Q675 314 666 314L419 314Q410 314 410 306L410 36Q410 28 419 28L692 28Q701 28 701 20L701 8Q701 0 692 0L388 0Q380 0 380 9L380 183L135 183L36 9Q31 0 24 0M380 213L380 607L376 607L152 213L380 213Z"  horiz-adv-x="771" vert-adv-y="1000"  />

      
      <glyph glyph-name="unic7" unicode="&#xc7;" d="M470 448L456 448Q448 448 448 457L448 506Q448 557 421 586Q394 615 344 615L214 615Q164 615 137 586Q110 557 110 506L110 137Q110 86 137 57Q164 28 214 28L344 28Q394 28 421 57Q448 86 448 137L448 186Q448 195 456 195L470 195Q478 195 478 186L478 136Q478 74 441.50 37Q405 0 344 0L318 0L272-50L272-54Q312-54 331.50-67Q351-80 351-111L351-121Q351-178 272-178L253-178Q244-178 244-170L244-160Q244-152 253-152L269-152Q299-152 311.50-144.50Q324-137 324-118L324-116Q324-96 312-88Q300-80 269-80L260-80Q242-80 237.50-68Q233-56 244-45L284 0L214 0Q153 0 116.50 37Q80 74 80 136L80 507Q80 569 116.50 606Q153 643 214 643L344 643Q405 643 441.50 606Q478 569 478 507L478 457Q478 448 470 448Z"  horiz-adv-x="543" vert-adv-y="1000"  />

      
      <glyph glyph-name="unic8" unicode="&#xc8;" d="M268 707L260 707Q252 707 246 715L154 827Q151 831 152.50 833.50Q154 836 158 836L188 836Q198 836 203 827L271 716Q276 707 268 707M402 0L98 0Q90 0 90 9L90 634Q90 643 98 643L402 643Q411 643 411 635L411 623Q411 615 402 615L129 615Q120 615 120 607L120 350Q120 342 129 342L376 342Q385 342 385 334L385 322Q385 314 376 314L129 314Q120 314 120 306L120 36Q120 28 129 28L402 28Q411 28 411 20L411 8Q411 0 402 0Z"  horiz-adv-x="481" vert-adv-y="1000"  />

      
      <glyph glyph-name="unic9" unicode="&#xc9;" d="M319 836L349 836Q353 836 354.50 833.50Q356 831 353 827L261 715Q255 707 247 707L239 707Q231 707 236 716L304 827Q308 836 319 836M402 0L98 0Q90 0 90 9L90 634Q90 643 98 643L402 643Q411 643 411 635L411 623Q411 615 402 615L129 615Q120 615 120 607L120 350Q120 342 129 342L376 342Q385 342 385 334L385 322Q385 314 376 314L129 314Q120 314 120 306L120 36Q120 28 129 28L402 28Q411 28 411 20L411 8Q411 0 402 0Z"  horiz-adv-x="481" vert-adv-y="1000"  />

      
      <glyph glyph-name="unica" unicode="&#xca;" d="M334 707L320 707Q312 707 309 712L250 817L191 712Q188 707 180 707L166 707Q155 707 162 718L226 827Q232 836 245 836L255 836Q268 836 274 827L338 718Q345 707 334 707M402 0L98 0Q90 0 90 9L90 634Q90 643 98 643L402 643Q411 643 411 635L411 623Q411 615 402 615L129 615Q120 615 120 607L120 350Q120 342 129 342L376 342Q385 342 385 334L385 322Q385 314 376 314L129 314Q120 314 120 306L120 36Q120 28 129 28L402 28Q411 28 411 20L411 8Q411 0 402 0Z"  horiz-adv-x="481" vert-adv-y="1000"  />

      
      <glyph glyph-name="unicb" unicode="&#xcb;" d="M157 716L157 827Q157 836 165 836L179 836Q187 836 187 827L187 716Q187 707 179 707L165 707Q157 707 157 716M313 716L313 827Q313 836 321 836L335 836Q343 836 343 827L343 716Q343 707 335 707L321 707Q313 707 313 716M402 0L98 0Q90 0 90 9L90 634Q90 643 98 643L402 643Q411 643 411 635L411 623Q411 615 402 615L129 615Q120 615 120 607L120 350Q120 342 129 342L376 342Q385 342 385 334L385 322Q385 314 376 314L129 314Q120 314 120 306L120 36Q120 28 129 28L402 28Q411 28 411 20L411 8Q411 0 402 0Z"  horiz-adv-x="481" vert-adv-y="1000"  />

      
      <glyph glyph-name="unicc" unicode="&#xcc;" d="M115 707L107 707Q99 707 93 715L1 827Q-2 831-0.50 833.50Q1 836 5 836L35 836Q46 836 50 827L118 716Q123 707 115 707M125 634L125 9Q125 0 117 0L103 0Q95 0 95 9L95 634Q95 643 103 643L117 643Q125 643 125 634Z"  horiz-adv-x="220" vert-adv-y="1000"  />

      
      <glyph glyph-name="unicd" unicode="&#xcd;" d="M186 836L216 836Q220 836 221.50 833.50Q223 831 220 827L128 715Q122 707 114 707L106 707Q98 707 103 716L171 827Q176 836 186 836M125 634L125 9Q125 0 117 0L103 0Q95 0 95 9L95 634Q95 643 103 643L117 643Q125 643 125 634Z"  horiz-adv-x="221" vert-adv-y="1000"  />

      
      <glyph glyph-name="unice" unicode="&#xce;" d="M194 707L180 707Q172 707 169 712L110 817L51 712Q48 707 40 707L26 707Q15 707 22 718L86 827Q92 836 105 836L115 836Q128 836 134 827L198 718Q205 707 194 707M125 634L125 9Q125 0 117 0L103 0Q95 0 95 9L95 634Q95 643 103 643L117 643Q125 643 125 634Z"  horiz-adv-x="220" vert-adv-y="1000"  />

      
      <glyph glyph-name="unicf" unicode="&#xcf;" d="M17 716L17 827Q17 836 25 836L39 836Q47 836 47 827L47 716Q47 707 39 707L25 707Q17 707 17 716M173 716L173 827Q173 836 181 836L195 836Q203 836 203 827L203 716Q203 707 195 707L181 707Q173 707 173 716M125 634L125 9Q125 0 117 0L103 0Q95 0 95 9L95 634Q95 643 103 643L117 643Q125 643 125 634Z"  horiz-adv-x="220" vert-adv-y="1000"  />

      
      <glyph glyph-name="unid0" unicode="&#xd0;" d="M129 28L344 28Q394 28 421 57Q448 86 448 137L448 506Q448 557 421 586Q394 615 344 615L129 615Q120 615 120 607L120 348Q120 340 129 340L295 340Q304 340 304 332L304 320Q304 312 295 312L129 312Q120 312 120 304L120 36Q120 28 129 28M344 0L98 0Q90 0 90 9L90 304Q90 312 81 312L35 312Q26 312 26 320L26 332Q26 340 35 340L81 340Q90 340 90 348L90 634Q90 643 98 643L344 643Q405 643 441.50 606Q478 569 478 507L478 136Q478 74 441.50 37Q405 0 344 0Z"  horiz-adv-x="500" vert-adv-y="1000"  />

      
      <glyph glyph-name="unid1" unicode="&#xd1;" d="M299 756.50Q299 756.50 294.50 741.25Q290 726 277.50 714Q265 702 237 702Q209 702 197.50 719.50Q186 737 186 780L186 819Q186 828 194 828L201 828Q209 828 209 819L209 781Q209 748 215.50 735.50Q222 723 239 723Q256 723 262.50 733Q269 743 279.50 776.50Q290 810 301.50 820.50Q313 831 341 831Q369 831 380.50 813.50Q392 796 392 753L392 711Q392 702 384 702L377 702Q369 702 369 711L369 752Q369 785 362.50 797.50Q356 810 337 810Q318 810 310 792Q308 787 299 756.50M112 0L98 0Q90 0 90 9L90 634Q90 643 98 643L112 643Q117 643 119 639L454 72L458 72L458 634Q458 643 466 643L480 643Q488 643 488 634L488 9Q488 0 480 0L470 0Q463 0 458 8L124 573L120 573L120 9Q120 0 112 0Z"  horiz-adv-x="578" vert-adv-y="1000"  />

      
      <glyph glyph-name="unid2" unicode="&#xd2;" d="M286 707L278 707Q270 707 264 715L172 827Q169 831 170.50 833.50Q172 836 176 836L206 836Q216 836 221 827L289 716Q294 707 286 707M214 28L339 28Q389 28 416 57Q443 86 443 137L443 506Q443 557 416 586Q389 615 339 615L214 615Q164 615 137 586Q110 557 110 506L110 137Q110 86 137 57Q164 28 214 28M339 0L214 0Q153 0 116.50 37Q80 74 80 136L80 507Q80 569 116.50 606Q153 643 214 643L339 643Q400 643 436.50 606Q473 569 473 507L473 136Q473 74 436.50 37Q400 0 339 0Z"  horiz-adv-x="553" vert-adv-y="1000"  />

      
      <glyph glyph-name="unid3" unicode="&#xd3;" d="M345 836L375 836Q379 836 380.50 833.50Q382 831 379 827L287 715Q281 707 273 707L265 707Q257 707 262 716L330 827Q334 836 345 836M214 28L339 28Q389 28 416 57Q443 86 443 137L443 506Q443 557 416 586Q389 615 339 615L214 615Q164 615 137 586Q110 557 110 506L110 137Q110 86 137 57Q164 28 214 28M339 0L214 0Q153 0 116.50 37Q80 74 80 136L80 507Q80 569 116.50 606Q153 643 214 643L339 643Q400 643 436.50 606Q473 569 473 507L473 136Q473 74 436.50 37Q400 0 339 0Z"  horiz-adv-x="553" vert-adv-y="1000"  />

      
      <glyph glyph-name="unid4" unicode="&#xd4;" d="M360 707L346 707Q338 707 335 712L276 817L217 712Q214 707 206 707L192 707Q181 707 188 718L252 827Q258 836 271 836L281 836Q294 836 300 827L364 718Q371 707 360 707M214 28L339 28Q389 28 416 57Q443 86 443 137L443 506Q443 557 416 586Q389 615 339 615L214 615Q164 615 137 586Q110 557 110 506L110 137Q110 86 137 57Q164 28 214 28M339 0L214 0Q153 0 116.50 37Q80 74 80 136L80 507Q80 569 116.50 606Q153 643 214 643L339 643Q400 643 436.50 606Q473 569 473 507L473 136Q473 74 436.50 37Q400 0 339 0Z"  horiz-adv-x="553" vert-adv-y="1000"  />

      
      <glyph glyph-name="unid5" unicode="&#xd5;" d="M286 756.50Q286 756.50 281.50 741.25Q277 726 264.50 714Q252 702 224 702Q196 702 184.50 719.50Q173 737 173 780L173 819Q173 828 181 828L188 828Q196 828 196 819L196 781Q196 748 202.50 735.50Q209 723 226 723Q243 723 249.50 733Q256 743 266.50 776.50Q277 810 288.50 820.50Q300 831 328 831Q356 831 367.50 813.50Q379 796 379 753L379 711Q379 702 371 702L364 702Q356 702 356 711L356 752Q356 785 349.50 797.50Q343 810 324 810Q305 810 297 792Q295 787 286 756.50M214 28L339 28Q389 28 416 57Q443 86 443 137L443 506Q443 557 416 586Q389 615 339 615L214 615Q164 615 137 586Q110 557 110 506L110 137Q110 86 137 57Q164 28 214 28M339 0L214 0Q153 0 116.50 37Q80 74 80 136L80 507Q80 569 116.50 606Q153 643 214 643L339 643Q400 643 436.50 606Q473 569 473 507L473 136Q473 74 436.50 37Q400 0 339 0Z"  horiz-adv-x="553" vert-adv-y="1000"  />

      
      <glyph glyph-name="unid6" unicode="&#xd6;" d="M183 716L183 827Q183 836 191 836L205 836Q213 836 213 827L213 716Q213 707 205 707L191 707Q183 707 183 716M339 716L339 827Q339 836 347 836L361 836Q369 836 369 827L369 716Q369 707 361 707L347 707Q339 707 339 716M214 28L339 28Q389 28 416 57Q443 86 443 137L443 506Q443 557 416 586Q389 615 339 615L214 615Q164 615 137 586Q110 557 110 506L110 137Q110 86 137 57Q164 28 214 28M339 0L214 0Q153 0 116.50 37Q80 74 80 136L80 507Q80 569 116.50 606Q153 643 214 643L339 643Q400 643 436.50 606Q473 569 473 507L473 136Q473 74 436.50 37Q400 0 339 0Z"  horiz-adv-x="553" vert-adv-y="1000"  />

      
      <glyph glyph-name="unid7" unicode="&#xd7;" d="M264 321L381 204Q388 197 381 192L371 182Q366 175 359 182L242 299L125 182Q118 175 113 182L103 192Q96 197 103 204L220 321L103 438Q96 445 103 450L113 460Q118 467 125 460L242 343L359 460Q366 467 371 460L381 450Q388 445 381 438L264 321Z"  horiz-adv-x="485" vert-adv-y="1000"  />

      
      <glyph glyph-name="unid8" unicode="&#xd8;" d="M473 507L473 136Q473 74 436.50 37Q400 0 339 0L214 0Q136 0 102 56L71 13Q65 6 58 10L49 16Q43 21 49 30L88 84Q80 110 80 136L80 507Q80 569 116.50 606Q153 643 214 643L339 643Q415 643 451 588L481 629Q487 637 494 633L503 627Q510 622 503 613L465 560Q473 534 473 507M110 506L110 137Q110 123 111 116L432 562Q409 615 339 615L214 615Q164 615 137 586Q110 557 110 506M443 137L443 506Q443 521 442 528L121 82Q144 28 214 28L339 28Q389 28 416 57Q443 86 443 137Z"  horiz-adv-x="553" vert-adv-y="1000"  />

      
      <glyph glyph-name="unid9" unicode="&#xd9;" d="M292 707L284 707Q276 707 270 715L178 827Q175 831 176.50 833.50Q178 836 182 836L212 836Q222 836 227 827L295 716Q300 707 292 707M443 643L457 643Q465 643 465 635L465 136Q465 74 428.50 37Q392 0 331 0L219 0Q158 0 121.50 37Q85 74 85 136L85 634Q85 643 93 643L107 643Q115 643 115 634L115 137Q115 86 142 57Q169 28 219 28L331 28Q381 28 408 57Q435 86 435 137L435 634Q435 643 443 643Z"  horiz-adv-x="550" vert-adv-y="1000"  />

      
      <glyph glyph-name="unida" unicode="&#xda;" d="M343 836L373 836Q377 836 378.50 833.50Q380 831 377 827L285 715Q279 707 271 707L263 707Q255 707 260 716L328 827Q332 836 343 836M443 643L457 643Q465 643 465 635L465 136Q465 74 428.50 37Q392 0 331 0L219 0Q158 0 121.50 37Q85 74 85 136L85 634Q85 643 93 643L107 643Q115 643 115 634L115 137Q115 86 142 57Q169 28 219 28L331 28Q381 28 408 57Q435 86 435 137L435 634Q435 643 443 643Z"  horiz-adv-x="550" vert-adv-y="1000"  />

      
      <glyph glyph-name="unidb" unicode="&#xdb;" d="M359 707L345 707Q336 707 334 712L275 817L216 712Q214 707 205 707L191 707Q180 707 187 718L251 827Q257 836 270 836L280 836Q293 836 299 827L363 718Q370 707 359 707M443 643L457 643Q465 643 465 635L465 136Q465 74 428.50 37Q392 0 331 0L219 0Q158 0 121.50 37Q85 74 85 136L85 634Q85 643 93 643L107 643Q115 643 115 634L115 137Q115 86 142 57Q169 28 219 28L331 28Q381 28 408 57Q435 86 435 137L435 634Q435 643 443 643Z"  horiz-adv-x="550" vert-adv-y="1000"  />

      
      <glyph glyph-name="unidc" unicode="&#xdc;" d="M182 716L182 827Q182 836 190 836L204 836Q212 836 212 827L212 716Q212 707 204 707L190 707Q182 707 182 716M338 716L338 827Q338 836 346 836L360 836Q368 836 368 827L368 716Q368 707 360 707L346 707Q338 707 338 716M443 643L457 643Q465 643 465 635L465 136Q465 74 428.50 37Q392 0 331 0L219 0Q158 0 121.50 37Q85 74 85 136L85 634Q85 643 93 643L107 643Q115 643 115 634L115 137Q115 86 142 57Q169 28 219 28L331 28Q381 28 408 57Q435 86 435 137L435 634Q435 643 443 643Z"  horiz-adv-x="550" vert-adv-y="1000"  />

      
      <glyph glyph-name="unidd" unicode="&#xdd;" d="M315 836L345 836Q349 836 350.50 833.50Q352 831 349 827L257 715Q251 707 243 707L235 707Q227 707 232 716L300 827Q304 836 315 836M250 0L236 0Q228 0 228 9L228 245L31 634Q26 643 36 643L54 643Q61 643 65 634L241 284L245 284L421 634Q425 643 432 643L450 643Q460 643 455 634L258 245L258 9Q258 0 250 0Z"  horiz-adv-x="486" vert-adv-y="1000"  />

      
      <glyph glyph-name="unide" unicode="&#xde;" d="M164 161L288 161Q338 161 365 190Q392 219 392 270L392 373Q392 424 365 453Q338 482 288 482L164 482Q155 482 155 474L155 169Q155 161 164 161M147 0L133 0Q125 0 125 9L125 634Q125 643 133 643L147 643Q155 643 155 634L155 518Q155 510 164 510L288 510Q349 510 385.50 473Q422 436 422 374L422 269Q422 207 385.50 170Q349 133 288 133L164 133Q155 133 155 125L155 9Q155 0 147 0Z"  horiz-adv-x="500" vert-adv-y="1000"  />

      
      <glyph glyph-name="unidf" unicode="&#xdf;" d="M248 340L312 340Q363 340 393.50 369Q424 398 424 449L424 506Q424 557 397 586Q370 615 320 615L219 615Q169 615 142 586Q115 557 115 506L115 9Q115 0 107 0L93 0Q85 0 85 9L85 507Q85 569 121.50 606Q158 643 219 643L320 643Q381 643 417.50 606Q454 569 454 507L454 448Q454 406 432.50 374.50Q411 343 377 326Q415 315 439.50 281Q464 247 464 204L464 136Q464 74 427.50 37Q391 0 330 0L227 0Q218 0 218 8L218 20Q218 28 227 28L330 28Q380 28 407 57Q434 86 434 137L434 203Q434 253 399 282.50Q364 312 312 312L248 312Q239 312 239 319L239 332Q239 340 248 340Z"  horiz-adv-x="539" vert-adv-y="1000"  />

      
      <glyph glyph-name="unie0" unicode="&#xe0;" d="M286 574L278 574Q270 574 264 582L172 694Q169 698 170.50 700.50Q172 703 176 703L206 703Q216 703 221 694L289 583Q294 574 286 574M278 0L204 0Q143 0 106.50 37Q70 74 70 136L70 374Q70 436 106.50 473Q143 510 204 510L410 510Q418 510 418 501L418 9Q418 0 410 0L396 0Q388 0 388 9L388 52L384 52Q356 0 278 0M388 132L388 474Q388 482 379 482L204 482Q154 482 127 453Q100 424 100 373L100 137Q100 86 127 57Q154 28 204 28L276 28Q326 28 357 55Q388 82 388 132Z"  horiz-adv-x="498" vert-adv-y="1000"  />

      
      <glyph glyph-name="unie1" unicode="&#xe1;" d="M328 703L358 703Q362 703 363.50 700.50Q365 698 362 694L270 582Q264 574 256 574L248 574Q240 574 245 583L313 694Q318 703 328 703M278 0L204 0Q143 0 106.50 37Q70 74 70 136L70 374Q70 436 106.50 473Q143 510 204 510L410 510Q418 510 418 501L418 9Q418 0 410 0L396 0Q388 0 388 9L388 52L384 52Q356 0 278 0M388 132L388 474Q388 482 379 482L204 482Q154 482 127 453Q100 424 100 373L100 137Q100 86 127 57Q154 28 204 28L276 28Q326 28 357 55Q388 82 388 132Z"  horiz-adv-x="498" vert-adv-y="1000"  />

      
      <glyph glyph-name="unie2" unicode="&#xe2;" d="M345 574L331 574Q322 574 320 579L261 684L202 579Q200 574 191 574L177 574Q166 574 173 585L237 694Q243 703 256 703L266 703Q279 703 285 694L349 585Q356 574 345 574M278 0L204 0Q143 0 106.50 37Q70 74 70 136L70 374Q70 436 106.50 473Q143 510 204 510L410 510Q418 510 418 501L418 9Q418 0 410 0L396 0Q388 0 388 9L388 52L384 52Q356 0 278 0M388 132L388 474Q388 482 379 482L204 482Q154 482 127 453Q100 424 100 373L100 137Q100 86 127 57Q154 28 204 28L276 28Q326 28 357 55Q388 82 388 132Z"  horiz-adv-x="498" vert-adv-y="1000"  />

      
      <glyph glyph-name="unie3" unicode="&#xe3;" d="M168 655L168 694Q168 703 176 703L183 703Q191 703 191 694L191 656Q191 623 197.50 610.50Q204 598 221 598Q238 598 244.50 608Q251 618 261.50 651.50Q272 685 283.50 695.50Q295 706 323 706Q351 706 362.50 688.50Q374 671 374 628L374 586Q374 577 366 577L359 577Q351 577 351 586L351 627Q351 660 344.50 672.50Q338 685 319 685Q300 685 292 667Q290 662 281 631.50Q272 601 259.50 589Q247 577 219 577Q191 577 179.50 594.50Q168 612 168 655M278 0L204 0Q143 0 106.50 37Q70 74 70 136L70 374Q70 436 106.50 473Q143 510 204 510L410 510Q418 510 418 501L418 9Q418 0 410 0L396 0Q388 0 388 9L388 52L384 52Q356 0 278 0M388 132L388 474Q388 482 379 482L204 482Q154 482 127 453Q100 424 100 373L100 137Q100 86 127 57Q154 28 204 28L276 28Q326 28 357 55Q388 82 388 132Z"  horiz-adv-x="500" vert-adv-y="1000"  />

      
      <glyph glyph-name="unie4" unicode="&#xe4;" d="M172 583L172 694Q172 703 180 703L194 703Q202 703 202 694L202 583Q202 574 194 574L180 574Q172 574 172 583M328 583L328 694Q328 703 336 703L350 703Q358 703 358 694L358 583Q358 574 350 574L336 574Q328 574 328 583M278 0L204 0Q143 0 106.50 37Q70 74 70 136L70 374Q70 436 106.50 473Q143 510 204 510L410 510Q418 510 418 501L418 9Q418 0 410 0L396 0Q388 0 388 9L388 52L384 52Q356 0 278 0M388 132L388 474Q388 482 379 482L204 482Q154 482 127 453Q100 424 100 373L100 137Q100 86 127 57Q154 28 204 28L276 28Q326 28 357 55Q388 82 388 132Z"  horiz-adv-x="498" vert-adv-y="1000"  />

      
      <glyph glyph-name="unie5" unicode="&#xe5;" d="M388 132L388 474Q388 482 379 482L204 482Q154 482 127 453Q100 424 100 373L100 137Q100 86 127 57Q154 28 204 28L276 28Q326 28 357 55Q388 82 388 132M278 0L204 0Q143 0 106.50 37Q70 74 70 136L70 374Q70 436 106.50 473Q143 510 204 510L410 510Q418 510 418 501L418 9Q418 0 410 0L396 0Q388 0 388 9L388 52L384 52Q356 0 278 0M193 663L193 623Q193 596 204.50 586Q216 576 243 576L257 576Q285 576 296.50 586Q308 596 308 623L308 663Q308 689 296.50 699Q285 709 257 709L243 709Q216 709 204.50 699Q193 689 193 663M169 622L169 664Q169 701 187 716.50Q205 732 243 732L257 732Q333 732 333 664L333 622Q333 553 257 553L243 553Q205 553 187 569Q169 585 169 622Z"  horiz-adv-x="498" vert-adv-y="1000"  />

      
      <glyph glyph-name="unie6" unicode="&#xe6;" d="M418 202L418 137Q418 86 445 57Q472 28 522 28L727 28Q736 28 736 20L736 8Q736 0 727 0L522 0Q431 0 402 69Q371 0 278 0L204 0Q143 0 106.50 37Q70 74 70 136L70 164Q70 226 106.50 263Q143 300 204 300L379 300Q388 300 388 308L388 373Q388 424 361 453Q334 482 284 482L132 482Q123 482 123 490L123 502Q123 510 132 510L284 510Q374 510 404 441Q436 510 528 510L602 510Q663 510 699.50 473Q736 436 736 374L736 220Q736 210 727 210L427 210Q418 210 418 202M706 246L706 373Q706 424 679 453Q652 482 602 482L530 482Q480 482 449 455Q418 428 418 378L418 246Q418 238 427 238L697 238Q706 238 706 246M388 132L388 264Q388 272 379 272L204 272Q154 272 127 243Q100 214 100 163L100 137Q100 86 127 57Q154 28 204 28L276 28Q326 28 357 55Q388 82 388 132Z"  horiz-adv-x="806" vert-adv-y="1000"  />

      
      <glyph glyph-name="unie7" unicode="&#xe7;" d="M346 482L204 482Q154 482 127 453Q100 424 100 373L100 137Q100 86 127 57Q154 28 204 28L346 28Q355 28 355 20L355 8Q355 0 346 0L274 0L228-50L228-54Q268-54 287.50-67Q307-80 307-111L307-121Q307-178 228-178L209-178Q200-178 200-170L200-160Q200-152 209-152L225-152Q280-152 280-118L280-116Q280-96 268-88Q256-80 225-80L216-80Q198-80 193.50-68Q189-56 200-45L240 0L204 0Q143 0 106.50 37Q70 74 70 136L70 374Q70 436 106.50 473Q143 510 204 510L346 510Q355 510 355 502L355 490Q355 482 346 482Z"  horiz-adv-x="390" vert-adv-y="1000"  />

      
      <glyph glyph-name="unie8" unicode="&#xe8;" d="M263 574L255 574Q247 574 241 582L149 694Q146 698 147.50 700.50Q149 703 153 703L183 703Q194 703 198 694L266 583Q271 574 263 574M409 0L204 0Q143 0 106.50 37Q70 74 70 136L70 374Q70 436 106.50 473Q143 510 204 510L292 510Q353 510 389.50 473Q426 436 426 374L426 247Q426 237 417 237L109 237Q100 237 100 229L100 137Q100 86 127 57Q154 28 204 28L409 28Q418 28 418 20L418 8Q418 0 409 0M109 265L387 265Q396 265 396 273L396 373Q396 424 369 453Q342 482 292 482L204 482Q154 482 127 453Q100 424 100 373L100 273Q100 265 109 265Z"  horiz-adv-x="491" vert-adv-y="1000"  />

      
      <glyph glyph-name="unie9" unicode="&#xe9;" d="M304 703L334 703Q338 703 339.50 700.50Q341 698 338 694L246 582Q240 574 232 574L224 574Q216 574 221 583L289 694Q294 703 304 703M409 0L204 0Q143 0 106.50 37Q70 74 70 136L70 374Q70 436 106.50 473Q143 510 204 510L292 510Q353 510 389.50 473Q426 436 426 374L426 247Q426 237 417 237L109 237Q100 237 100 229L100 137Q100 86 127 57Q154 28 204 28L409 28Q418 28 418 20L418 8Q418 0 409 0M109 265L387 265Q396 265 396 273L396 373Q396 424 369 453Q342 482 292 482L204 482Q154 482 127 453Q100 424 100 373L100 273Q100 265 109 265Z"  horiz-adv-x="491" vert-adv-y="1000"  />

      
      <glyph glyph-name="uniea" unicode="&#xea;" d="M332 574L318 574Q310 574 307 579L248 684L189 579Q186 574 178 574L164 574Q153 574 160 585L224 694Q230 703 243 703L253 703Q266 703 272 694L336 585Q343 574 332 574M409 0L204 0Q143 0 106.50 37Q70 74 70 136L70 374Q70 436 106.50 473Q143 510 204 510L292 510Q353 510 389.50 473Q426 436 426 374L426 247Q426 237 417 237L109 237Q100 237 100 229L100 137Q100 86 127 57Q154 28 204 28L409 28Q418 28 418 20L418 8Q418 0 409 0M109 265L387 265Q396 265 396 273L396 373Q396 424 369 453Q342 482 292 482L204 482Q154 482 127 453Q100 424 100 373L100 273Q100 265 109 265Z"  horiz-adv-x="491" vert-adv-y="1000"  />

      
      <glyph glyph-name="unieb" unicode="&#xeb;" d="M155 583L155 694Q155 703 163 703L177 703Q185 703 185 694L185 583Q185 574 177 574L163 574Q155 574 155 583M311 583L311 694Q311 703 319 703L333 703Q341 703 341 694L341 583Q341 574 333 574L319 574Q311 574 311 583M409 0L204 0Q143 0 106.50 37Q70 74 70 136L70 374Q70 436 106.50 473Q143 510 204 510L292 510Q353 510 389.50 473Q426 436 426 374L426 247Q426 237 417 237L109 237Q100 237 100 229L100 137Q100 86 127 57Q154 28 204 28L409 28Q418 28 418 20L418 8Q418 0 409 0M109 265L387 265Q396 265 396 273L396 373Q396 424 369 453Q342 482 292 482L204 482Q154 482 127 453Q100 424 100 373L100 273Q100 265 109 265Z"  horiz-adv-x="491" vert-adv-y="1000"  />

      
      <glyph glyph-name="uniec" unicode="&#xec;" d="M104 574L96 574Q88 574 82 582L-10 694Q-13 698-11.50 700.50Q-10 703-6 703L24 703Q34 703 39 694L107 583Q112 574 104 574M85 9L85 501Q85 510 93 510L107 510Q115 510 115 501L115 9Q115 0 107 0L93 0Q85 0 85 9Z"  horiz-adv-x="200" vert-adv-y="1000"  />

      
      <glyph glyph-name="unied" unicode="&#xed;" d="M174 703L204 703Q208 703 209.50 700.50Q211 698 208 694L116 582Q110 574 102 574L94 574Q86 574 91 583L159 694Q164 703 174 703M85 9L85 501Q85 510 93 510L107 510Q115 510 115 501L115 9Q115 0 107 0L93 0Q85 0 85 9Z"  horiz-adv-x="198" vert-adv-y="1000"  />

      
      <glyph glyph-name="uniee" unicode="&#xee;" d="M184 574L170 574Q162 574 159 579L100 684L41 579Q38 574 30 574L16 574Q5 574 12 585L76 694Q82 703 95 703L105 703Q118 703 124 694L188 585Q195 574 184 574M85 9L85 501Q85 510 93 510L107 510Q115 510 115 501L115 9Q115 0 107 0L93 0Q85 0 85 9Z"  horiz-adv-x="200" vert-adv-y="1000"  />

      
      <glyph glyph-name="unief" unicode="&#xef;" d="M7 583L7 694Q7 703 15 703L29 703Q37 703 37 694L37 583Q37 574 29 574L15 574Q7 574 7 583M163 583L163 694Q163 703 171 703L185 703Q193 703 193 694L193 583Q193 574 185 574L171 574Q163 574 163 583M85 9L85 501Q85 510 93 510L107 510Q115 510 115 501L115 9Q115 0 107 0L93 0Q85 0 85 9Z"  horiz-adv-x="200" vert-adv-y="1000"  />

      
      <glyph glyph-name="unif0" unicode="&#xf0;" d="M418 357L418 136Q418 74 381.50 37Q345 0 284 0L204 0Q143 0 106.50 37Q70 74 70 136L70 274Q70 336 106.50 373Q143 410 204 410L278 410Q356 410 384 358L388 358Q388 402 363 434L252 559L148 471Q141 467 136 472L131 479Q126 485 133 492L235 578L149 675Q142 684 149 690L155 695Q162 700 168 693L256 596L363 687Q370 691 375 686L380 679Q385 672 379 667L273 577L386 451Q418 414 418 357M388 137L388 278Q388 328 357 355Q326 382 276 382L204 382Q154 382 127 353Q100 324 100 273L100 137Q100 86 127 57Q154 28 204 28L284 28Q334 28 361 57Q388 86 388 137Z"  horiz-adv-x="483" vert-adv-y="1000"  />

      
      <glyph glyph-name="unif1" unicode="&#xf1;" d="M151 655L151 694Q151 703 159 703L166 703Q174 703 174 694L174 656Q174 623 180.50 610.50Q187 598 204 598Q221 598 227.50 608Q234 618 244.50 651.50Q255 685 266.50 695.50Q278 706 306 706Q334 706 345.50 688.50Q357 671 357 628L357 586Q357 577 349 577L342 577Q334 577 334 586L334 627Q334 660 327.50 672.50Q321 685 302 685Q283 685 275 667Q273 662 264 631.50Q255 601 242.50 589Q230 577 202 577Q174 577 162.50 594.50Q151 612 151 655M102 0L88 0Q80 0 80 9L80 501Q80 510 88 510L102 510Q110 510 110 501L110 458L114 458Q142 510 220 510L294 510Q355 510 391.50 473Q428 436 428 374L428 9Q428 0 420 0L406 0Q398 0 398 9L398 373Q398 424 371 453Q344 482 294 482L222 482Q172 482 141 455Q110 428 110 378L110 9Q110 0 102 0Z"  horiz-adv-x="503" vert-adv-y="1000"  />

      
      <glyph glyph-name="unif2" unicode="&#xf2;" d="M253 574L245 574Q237 574 231 582L139 694Q136 698 137.50 700.50Q139 703 143 703L173 703Q184 703 188 694L256 583Q261 574 253 574M289 0L204 0Q143 0 106.50 37Q70 74 70 136L70 374Q70 436 106.50 473Q143 510 204 510L289 510Q350 510 386.50 473Q423 436 423 374L423 136Q423 74 386.50 37Q350 0 289 0M204 28L289 28Q339 28 366 57Q393 86 393 137L393 373Q393 424 366 453Q339 482 289 482L204 482Q154 482 127 453Q100 424 100 373L100 137Q100 86 127 57Q154 28 204 28Z"  horiz-adv-x="493" vert-adv-y="1000"  />

      
      <glyph glyph-name="unif3" unicode="&#xf3;" d="M321 703L351 703Q355 703 356.50 700.50Q358 698 355 694L263 582Q257 574 249 574L241 574Q233 574 238 583L306 694Q310 703 321 703M289 0L204 0Q143 0 106.50 37Q70 74 70 136L70 374Q70 436 106.50 473Q143 510 204 510L289 510Q350 510 386.50 473Q423 436 423 374L423 136Q423 74 386.50 37Q350 0 289 0M204 28L289 28Q339 28 366 57Q393 86 393 137L393 373Q393 424 366 453Q339 482 289 482L204 482Q154 482 127 453Q100 424 100 373L100 137Q100 86 127 57Q154 28 204 28Z"  horiz-adv-x="493" vert-adv-y="1000"  />

      
      <glyph glyph-name="unif4" unicode="&#xf4;" d="M330 574L316 574Q308 574 305 579L246 684L187 579Q184 574 176 574L162 574Q151 574 158 585L222 694Q228 703 241 703L251 703Q264 703 270 694L334 585Q341 574 330 574M289 0L204 0Q143 0 106.50 37Q70 74 70 136L70 374Q70 436 106.50 473Q143 510 204 510L289 510Q350 510 386.50 473Q423 436 423 374L423 136Q423 74 386.50 37Q350 0 289 0M204 28L289 28Q339 28 366 57Q393 86 393 137L393 373Q393 424 366 453Q339 482 289 482L204 482Q154 482 127 453Q100 424 100 373L100 137Q100 86 127 57Q154 28 204 28Z"  horiz-adv-x="493" vert-adv-y="1000"  />

      
      <glyph glyph-name="unif5" unicode="&#xf5;" d="M143 655L143 694Q143 703 151 703L158 703Q166 703 166 694L166 656Q166 623 172.50 610.50Q179 598 196 598Q213 598 219.50 608Q226 618 236.50 651.50Q247 685 258.50 695.50Q270 706 298 706Q326 706 337.50 688.50Q349 671 349 628L349 586Q349 577 341 577L334 577Q326 577 326 586L326 627Q326 660 319.50 672.50Q313 685 294 685Q275 685 267 667Q265 662 256 631.50Q247 601 234.50 589Q222 577 194 577Q166 577 154.50 594.50Q143 612 143 655M289 0L204 0Q143 0 106.50 37Q70 74 70 136L70 374Q70 436 106.50 473Q143 510 204 510L289 510Q350 510 386.50 473Q423 436 423 374L423 136Q423 74 386.50 37Q350 0 289 0M204 28L289 28Q339 28 366 57Q393 86 393 137L393 373Q393 424 366 453Q339 482 289 482L204 482Q154 482 127 453Q100 424 100 373L100 137Q100 86 127 57Q154 28 204 28Z"  horiz-adv-x="493" vert-adv-y="1000"  />

      
      <glyph glyph-name="unif6" unicode="&#xf6;" d="M153 583L153 694Q153 703 161 703L175 703Q183 703 183 694L183 583Q183 574 175 574L161 574Q153 574 153 583M309 583L309 694Q309 703 317 703L331 703Q339 703 339 694L339 583Q339 574 331 574L317 574Q309 574 309 583M289 0L204 0Q143 0 106.50 37Q70 74 70 136L70 374Q70 436 106.50 473Q143 510 204 510L289 510Q350 510 386.50 473Q423 436 423 374L423 136Q423 74 386.50 37Q350 0 289 0M204 28L289 28Q339 28 366 57Q393 86 393 137L393 373Q393 424 366 453Q339 482 289 482L204 482Q154 482 127 453Q100 424 100 373L100 137Q100 86 127 57Q154 28 204 28Z"  horiz-adv-x="493" vert-adv-y="1000"  />

      
      <glyph glyph-name="unif7" unicode="&#xf7;" d="M246 144L246 208Q246 217 254 217L268 217Q276 217 276 208L276 144Q276 135 268 135L254 135Q246 135 246 144M438 307L84 307Q75 307 75 315L75 327Q75 335 84 335L438 335Q447 335 447 327L447 315Q447 307 438 307M246 434L246 498Q246 507 254 507L268 507Q276 507 276 498L276 434Q276 425 268 425L254 425Q246 425 246 434Z"  horiz-adv-x="522" vert-adv-y="1000"  />

      
      <glyph glyph-name="unif8" unicode="&#xf8;" d="M437 374L437 136Q437 74 400.50 37Q364 0 303 0L218 0Q130 0 97 71L55 28Q48 21 43 28L33 37Q27 43 33 49L87 103Q84 118 84 136L84 374Q84 436 120.50 473Q157 510 218 510L303 510Q391 510 424 440L466 482Q472 488 478 483L488 473Q494 468 487 461L434 408Q437 392 437 374M114 373L114 130L401 417Q380 482 303 482L218 482Q168 482 141 453Q114 424 114 373M407 137L407 381L120 93Q141 28 218 28L303 28Q353 28 380 57Q407 86 407 137Z"  horiz-adv-x="521" vert-adv-y="1000"  />

      
      <glyph glyph-name="unif9" unicode="&#xf9;" d="M258 574L250 574Q242 574 236 582L144 694Q141 698 142.50 700.50Q144 703 148 703L178 703Q188 703 193 694L261 583Q266 574 258 574M283 0L209 0Q148 0 111.50 37Q75 74 75 136L75 501Q75 510 83 510L97 510Q105 510 105 501L105 137Q105 86 132 57Q159 28 209 28L281 28Q331 28 362 55Q393 82 393 132L393 501Q393 510 401 510L415 510Q423 510 423 501L423 9Q423 0 415 0L401 0Q393 0 393 9L393 52L389 52Q361 0 283 0Z"  horiz-adv-x="503" vert-adv-y="1000"  />

      
      <glyph glyph-name="unifa" unicode="&#xfa;" d="M323 703L353 703Q357 703 358.50 700.50Q360 698 357 694L265 582Q259 574 251 574L243 574Q235 574 240 583L308 694Q312 703 323 703M283 0L209 0Q148 0 111.50 37Q75 74 75 136L75 501Q75 510 83 510L97 510Q105 510 105 501L105 137Q105 86 132 57Q159 28 209 28L281 28Q331 28 362 55Q393 82 393 132L393 501Q393 510 401 510L415 510Q423 510 423 501L423 9Q423 0 415 0L401 0Q393 0 393 9L393 52L389 52Q361 0 283 0Z"  horiz-adv-x="503" vert-adv-y="1000"  />

      
      <glyph glyph-name="unifb" unicode="&#xfb;" d="M333 574L319 574Q310 574 308 579L249 684L190 579Q188 574 179 574L165 574Q154 574 161 585L225 694Q231 703 244 703L254 703Q267 703 273 694L337 585Q344 574 333 574M283 0L209 0Q148 0 111.50 37Q75 74 75 136L75 501Q75 510 83 510L97 510Q105 510 105 501L105 137Q105 86 132 57Q159 28 209 28L281 28Q331 28 362 55Q393 82 393 132L393 501Q393 510 401 510L415 510Q423 510 423 501L423 9Q423 0 415 0L401 0Q393 0 393 9L393 52L389 52Q361 0 283 0Z"  horiz-adv-x="503" vert-adv-y="1000"  />

      
      <glyph glyph-name="unifc" unicode="&#xfc;" d="M156 583L156 694Q156 703 164 703L178 703Q186 703 186 694L186 583Q186 574 178 574L164 574Q156 574 156 583M312 583L312 694Q312 703 320 703L334 703Q342 703 342 694L342 583Q342 574 334 574L320 574Q312 574 312 583M283 0L209 0Q148 0 111.50 37Q75 74 75 136L75 501Q75 510 83 510L97 510Q105 510 105 501L105 137Q105 86 132 57Q159 28 209 28L281 28Q331 28 362 55Q393 82 393 132L393 501Q393 510 401 510L415 510Q423 510 423 501L423 9Q423 0 415 0L401 0Q393 0 393 9L393 52L389 52Q361 0 283 0Z"  horiz-adv-x="503" vert-adv-y="1000"  />

      
      <glyph glyph-name="unifd" unicode="&#xfd;" d="M305 703L335 703Q339 703 340.50 700.50Q342 698 339 694L247 582Q241 574 233 574L225 574Q217 574 222 583L290 694Q294 703 305 703M59-147Q50-147 50-139L50-127Q50-119 59-119L88-119Q128-119 144.50-104.50Q161-90 169-83.50Q177-77 186.50-57.50Q196-38 199-32Q217 8 222 27L212 27Q204 27 201 36L31 501Q28 510 37 510L53 510Q60 510 63 501L226 56L230 56L393 501Q396 510 403 510L419 510Q428 510 425 501L255 36Q224-53 208-79Q165-146 88-147L59-147Z"  horiz-adv-x="456" vert-adv-y="1000"  />

      
      <glyph glyph-name="unife" unicode="&#xfe;" d="M227 28L299 28Q349 28 376 57Q403 86 403 137L403 373Q403 424 376 453Q349 482 299 482L227 482Q177 482 146 455Q115 428 115 378L115 132Q115 82 146 55Q177 28 227 28M115 52L115-124Q115-133 107-133L93-133Q85-133 85-124L85 694Q85 703 93 703L107 703Q115 703 115 694L115 458L119 458Q147 510 225 510L299 510Q360 510 396.50 473Q433 436 433 374L433 136Q433 74 396.50 37Q360 0 299 0L225 0Q147 0 119 52L115 52Z"  horiz-adv-x="503" vert-adv-y="1000"  />

      
      <glyph glyph-name="uniff" unicode="&#xff;" d="M135 583L135 694Q135 703 143 703L157 703Q165 703 165 694L165 583Q165 574 157 574L143 574Q135 574 135 583M291 583L291 694Q291 703 299 703L313 703Q321 703 321 694L321 583Q321 574 313 574L299 574Q291 574 291 583M59-147Q50-147 50-139L50-127Q50-119 59-119L88-119Q128-119 144.50-104.50Q161-90 169-83.50Q177-77 186.50-57.50Q196-38 199-32Q217 8 222 27L212 27Q204 27 201 36L31 501Q28 510 37 510L53 510Q60 510 63 501L226 56L230 56L393 501Q396 510 403 510L419 510Q428 510 425 501L255 36Q224-53 208-79Q165-146 88-147L59-147Z"  horiz-adv-x="456" vert-adv-y="1000"  />

      
      <glyph glyph-name="uni0100" unicode="&#x0100;" d="M365 757L161 757Q152 757 152 765L152 777Q152 785 161 785L365 785Q374 785 374 777L374 765Q374 757 365 757M51 0L37 0Q28 0 31 9L241 634Q244 643 251 643L275 643Q282 643 285 634L495 9Q498 0 489 0L474 0Q467 0 464 9L403 183L123 183L62 9Q58 0 51 0M261 605L134 213L392 213L265 605L261 605Z"  horiz-adv-x="526" vert-adv-y="1000"  />

      
      <glyph glyph-name="uni0101" unicode="&#x0101;" d="M376 627L172 627Q163 627 163 635L163 644Q163 652 172 652L376 652Q385 652 385 644L385 635Q385 627 376 627M278 0L204 0Q143 0 106.50 37Q70 74 70 136L70 374Q70 436 106.50 473Q143 510 204 510L410 510Q418 510 418 501L418 9Q418 0 410 0L396 0Q388 0 388 9L388 52L384 52Q356 0 278 0M388 132L388 474Q388 482 379 482L204 482Q154 482 127 453Q100 424 100 373L100 137Q100 86 127 57Q154 28 204 28L276 28Q326 28 357 55Q388 82 388 132Z"  horiz-adv-x="498" vert-adv-y="1000"  />

      
      <glyph glyph-name="uni0102" unicode="&#x0102;" d="M167 827Q167 836 175 836L185 836Q193 836 193 827L193 815Q193 768 208 748.50Q223 729 260 729L264 729Q303 729 318.50 748.50Q334 768 334 815L334 826Q334 835 342 835L350 835Q358 835 358 826L358 814Q358 758 335 732.50Q312 707 264 707L260 707Q212 707 189.50 732.50Q167 758 167 814L167 827M51 0L37 0Q28 0 31 9L241 634Q244 643 251 643L275 643Q282 643 285 634L495 9Q498 0 489 0L474 0Q467 0 464 9L403 183L123 183L62 9Q58 0 51 0M261 605L134 213L392 213L265 605L261 605Z"  horiz-adv-x="526" vert-adv-y="1000"  />

      
      <glyph glyph-name="uni0103" unicode="&#x0103;" d="M172 694Q172 703 180 703L190 703Q198 703 198 694L198 682Q198 635 213 615.50Q228 596 265 596L269 596Q308 596 323.50 615.50Q339 635 339 682L339 693Q339 702 347 702L355 702Q363 702 363 693L363 681Q363 625 340 599.50Q317 574 269 574L265 574Q217 574 194.50 599.50Q172 625 172 681L172 694M278 0L204 0Q143 0 106.50 37Q70 74 70 136L70 374Q70 436 106.50 473Q143 510 204 510L410 510Q418 510 418 501L418 9Q418 0 410 0L396 0Q388 0 388 9L388 52L384 52Q356 0 278 0M388 132L388 474Q388 482 379 482L204 482Q154 482 127 453Q100 424 100 373L100 137Q100 86 127 57Q154 28 204 28L276 28Q326 28 357 55Q388 82 388 132Z"  horiz-adv-x="498" vert-adv-y="1000"  />

      
      <glyph glyph-name="uni0104" unicode="&#x0104;" d="M489 0L475 0L418-74L456-74Q485-74 485-84Q485-101 418-101Q395-101 388.50-90Q382-79 394-66L461 18L403 183L123 183L62 9Q58 0 51 0L37 0Q28 0 31 9L241 634Q244 643 251 643L275 643Q282 643 285 634L495 9Q498 0 489 0M134 213L392 213L265 605L261 605L134 213Z"  horiz-adv-x="526" vert-adv-y="1000"  />

      
      <glyph glyph-name="uni0105" unicode="&#x0105;" d="M204 510L410 510Q418 510 418 501L418 9Q418 0 410 0L403 0L346-74L384-74Q413-74 413-84Q413-96 389-103Q365-110 344-110Q323-110 316.50-94.50Q310-79 322-66L388 17L388 52L384 52Q356 0 278 0L204 0Q143 0 106.50 37Q70 74 70 136L70 374Q70 436 106.50 473Q143 510 204 510M204 28L276 28Q326 28 357 55Q388 82 388 132L388 474Q388 482 379 482L204 482Q154 482 127 453Q100 424 100 373L100 137Q100 86 127 57Q154 28 204 28Z"  horiz-adv-x="498" vert-adv-y="1000"  />

      
      <glyph glyph-name="uni0106" unicode="&#x0106;" d="M349 836L379 836Q383 836 384.50 833.50Q386 831 383 827L291 715Q285 707 277 707L269 707Q261 707 266 716L334 827Q338 836 349 836M344 0L214 0Q153 0 116.50 37Q80 74 80 136L80 507Q80 569 116.50 606Q153 643 214 643L344 643Q405 643 441.50 606Q478 569 478 507L478 457Q478 448 470 448L456 448Q448 448 448 457L448 506Q448 557 421 586Q394 615 344 615L214 615Q164 615 137 586Q110 557 110 506L110 137Q110 86 137 57Q164 28 214 28L344 28Q394 28 421 57Q448 86 448 137L448 186Q448 195 456 195L470 195Q478 195 478 186L478 136Q478 74 441.50 37Q405 0 344 0Z"  horiz-adv-x="543" vert-adv-y="1000"  />

      
      <glyph glyph-name="uni0107" unicode="&#x0107;" d="M296 703L326 703Q330 703 331.50 700.50Q333 698 330 694L238 582Q232 574 224 574L216 574Q208 574 213 583L281 694Q286 703 296 703M355 20L355 8Q355 0 346 0L204 0Q143 0 106.50 37Q70 74 70 136L70 374Q70 436 106.50 473Q143 510 204 510L346 510Q355 510 355 502L355 490Q355 482 346 482L204 482Q154 482 127 453Q100 424 100 373L100 137Q100 86 127 57Q154 28 204 28L346 28Q355 28 355 20Z"  horiz-adv-x="390" vert-adv-y="1000"  />

      
      <glyph glyph-name="uni010A" unicode="&#x010A;" d="M264 722L264 821Q264 830 272 830L286 830Q294 830 294 821L294 722Q294 713 286 713L272 713Q264 713 264 722M344 0L214 0Q153 0 116.50 37Q80 74 80 136L80 507Q80 569 116.50 606Q153 643 214 643L344 643Q405 643 441.50 606Q478 569 478 507L478 457Q478 448 470 448L456 448Q448 448 448 457L448 506Q448 557 421 586Q394 615 344 615L214 615Q164 615 137 586Q110 557 110 506L110 137Q110 86 137 57Q164 28 214 28L344 28Q394 28 421 57Q448 86 448 137L448 186Q448 195 456 195L470 195Q478 195 478 186L478 136Q478 74 441.50 37Q405 0 344 0Z"  horiz-adv-x="543" vert-adv-y="1000"  />

      
      <glyph glyph-name="uni010B" unicode="&#x010B;" d="M212 589L212 688Q212 697 220 697L234 697Q242 697 242 688L242 589Q242 580 234 580L220 580Q212 580 212 589M355 20L355 8Q355 0 346 0L204 0Q143 0 106.50 37Q70 74 70 136L70 374Q70 436 106.50 473Q143 510 204 510L346 510Q355 510 355 502L355 490Q355 482 346 482L204 482Q154 482 127 453Q100 424 100 373L100 137Q100 86 127 57Q154 28 204 28L346 28Q355 28 355 20Z"  horiz-adv-x="390" vert-adv-y="1000"  />

      
      <glyph glyph-name="uni010C" unicode="&#x010C;" d="M274 707Q261 707 255 716L191 825Q184 836 195 836L209 836Q218 836 220 831L279 726L338 831Q340 836 349 836L363 836Q374 836 367 825L303 716Q297 707 284 707L274 707M344 0L214 0Q153 0 116.50 37Q80 74 80 136L80 507Q80 569 116.50 606Q153 643 214 643L344 643Q405 643 441.50 606Q478 569 478 507L478 457Q478 448 470 448L456 448Q448 448 448 457L448 506Q448 557 421 586Q394 615 344 615L214 615Q164 615 137 586Q110 557 110 506L110 137Q110 86 137 57Q164 28 214 28L344 28Q394 28 421 57Q448 86 448 137L448 186Q448 195 456 195L470 195Q478 195 478 186L478 136Q478 74 441.50 37Q405 0 344 0Z"  horiz-adv-x="543" vert-adv-y="1000"  />

      
      <glyph glyph-name="uni010D" unicode="&#x010D;" d="M229 574Q216 574 210 583L146 692Q139 703 150 703L164 703Q172 703 175 698L234 593L293 698Q296 703 304 703L318 703Q329 703 322 692L258 583Q252 574 239 574L229 574M355 20L355 8Q355 0 346 0L204 0Q143 0 106.50 37Q70 74 70 136L70 374Q70 436 106.50 473Q143 510 204 510L346 510Q355 510 355 502L355 490Q355 482 346 482L204 482Q154 482 127 453Q100 424 100 373L100 137Q100 86 127 57Q154 28 204 28L346 28Q355 28 355 20Z"  horiz-adv-x="390" vert-adv-y="1000"  />

      
      <glyph glyph-name="uni010E" unicode="&#x010E;" d="M269 707Q256 707 250 716L186 825Q179 836 190 836L204 836Q212 836 215 831L274 726L333 831Q336 836 344 836L358 836Q369 836 362 825L298 716Q292 707 279 707L269 707M129 28L344 28Q394 28 421 57Q448 86 448 137L448 506Q448 557 421 586Q394 615 344 615L129 615Q120 615 120 607L120 36Q120 28 129 28M90 9L90 634Q90 643 98 643L344 643Q405 643 441.50 606Q478 569 478 507L478 136Q478 74 441.50 37Q405 0 344 0L98 0Q90 0 90 9Z"  horiz-adv-x="558" vert-adv-y="1000"  />

      
      <glyph glyph-name="uni010F" unicode="&#x010F;" d="M515 694L515 615Q515 600 489 471Q488 465 483 465Q478 465 478 471L478 694Q478 703 486 703L507 703Q515 703 515 694M278 0L204 0Q143 0 106.50 37Q70 74 70 136L70 374Q70 436 106.50 473Q143 510 204 510L278 510Q356 510 384 458L388 458L388 694Q388 703 396 703L410 703Q418 703 418 694L418 9Q418 0 410 0L396 0Q388 0 388 9L388 52L384 52Q356 0 278 0M388 132L388 378Q388 428 357 455Q326 482 276 482L204 482Q154 482 127 453Q100 424 100 373L100 137Q100 86 127 57Q154 28 204 28L276 28Q326 28 357 55Q388 82 388 132Z"  horiz-adv-x="508" vert-adv-y="1000"  />

      
      <glyph glyph-name="uni0110" unicode="&#x0110;" d="M129 28L344 28Q394 28 421 57Q448 86 448 137L448 506Q448 557 421 586Q394 615 344 615L129 615Q120 615 120 607L120 398Q120 390 129 390L295 390Q304 390 304 382L304 370Q304 362 295 362L129 362Q120 362 120 354L120 36Q120 28 129 28M344 0L98 0Q90 0 90 9L90 354Q90 362 81 362L35 362Q26 362 26 370L26 382Q26 390 35 390L81 390Q90 390 90 398L90 634Q90 643 98 643L344 643Q405 643 441.50 606Q478 569 478 507L478 136Q478 74 441.50 37Q405 0 344 0Z"  horiz-adv-x="500" vert-adv-y="1000"  />

      
      <glyph glyph-name="uni0111" unicode="&#x0111;" d="M278 0L204 0Q143 0 106.50 37Q70 74 70 136L70 304Q70 366 106.50 403Q143 440 204 440L278 440Q356 440 384 388L388 388L388 554Q388 562 379 562L210 562Q201 562 201 570L201 582Q201 590 210 590L379 590Q388 590 388 598L388 694Q388 703 396 703L410 703Q418 703 418 694L418 598Q418 590 427 590L493 590Q502 590 502 582L502 570Q502 562 493 562L427 562Q418 562 418 554L418 9Q418 0 410 0L396 0Q388 0 388 9L388 52L384 52Q356 0 278 0M388 132L388 308Q388 358 357 385Q326 412 276 412L204 412Q154 412 127 383Q100 354 100 303L100 137Q100 86 127 57Q154 28 204 28L276 28Q326 28 357 55Q388 82 388 132Z"  horiz-adv-x="532" vert-adv-y="1000"  />

      
      <glyph glyph-name="uni0112" unicode="&#x0112;" d="M352 757L148 757Q139 757 139 765L139 777Q139 785 148 785L352 785Q361 785 361 777L361 765Q361 757 352 757M402 0L98 0Q90 0 90 9L90 634Q90 643 98 643L402 643Q411 643 411 635L411 623Q411 615 402 615L129 615Q120 615 120 607L120 350Q120 342 129 342L376 342Q385 342 385 334L385 322Q385 314 376 314L129 314Q120 314 120 306L120 36Q120 28 129 28L402 28Q411 28 411 20L411 8Q411 0 402 0Z"  horiz-adv-x="481" vert-adv-y="1000"  />

      
      <glyph glyph-name="uni0113" unicode="&#x0113;" d="M350 627L146 627Q137 627 137 635L137 644Q137 652 146 652L350 652Q359 652 359 644L359 635Q359 627 350 627M409 0L204 0Q143 0 106.50 37Q70 74 70 136L70 374Q70 436 106.50 473Q143 510 204 510L292 510Q353 510 389.50 473Q426 436 426 374L426 247Q426 237 417 237L109 237Q100 237 100 229L100 137Q100 86 127 57Q154 28 204 28L409 28Q418 28 418 20L418 8Q418 0 409 0M109 265L387 265Q396 265 396 273L396 373Q396 424 369 453Q342 482 292 482L204 482Q154 482 127 453Q100 424 100 373L100 273Q100 265 109 265Z"  horiz-adv-x="491" vert-adv-y="1000"  />

      
      <glyph glyph-name="uni0114" unicode="&#x0114;" d="M148 827Q148 836 156 836L166 836Q174 836 174 827L174 815Q174 768 189 748.50Q204 729 241 729L245 729Q284 729 299.50 748.50Q315 768 315 815L315 826Q315 835 323 835L331 835Q339 835 339 826L339 814Q339 758 316 732.50Q293 707 245 707L241 707Q193 707 170.50 732.50Q148 758 148 814L148 827M402 0L98 0Q90 0 90 9L90 634Q90 643 98 643L402 643Q411 643 411 635L411 623Q411 615 402 615L129 615Q120 615 120 607L120 350Q120 342 129 342L376 342Q385 342 385 334L385 322Q385 314 376 314L129 314Q120 314 120 306L120 36Q120 28 129 28L402 28Q411 28 411 20L411 8Q411 0 402 0Z"  horiz-adv-x="481" vert-adv-y="1000"  />

      
      <glyph glyph-name="uni0115" unicode="&#x0115;" d="M148 694Q148 703 156 703L166 703Q174 703 174 694L174 682Q174 635 189 615.50Q204 596 241 596L245 596Q284 596 299.50 615.50Q315 635 315 682L315 693Q315 702 323 702L331 702Q339 702 339 693L339 681Q339 625 316 599.50Q293 574 245 574L241 574Q193 574 170.50 599.50Q148 625 148 681L148 694M409 0L204 0Q143 0 106.50 37Q70 74 70 136L70 374Q70 436 106.50 473Q143 510 204 510L292 510Q353 510 389.50 473Q426 436 426 374L426 247Q426 237 417 237L109 237Q100 237 100 229L100 137Q100 86 127 57Q154 28 204 28L409 28Q418 28 418 20L418 8Q418 0 409 0M109 265L387 265Q396 265 396 273L396 373Q396 424 369 453Q342 482 292 482L204 482Q154 482 127 453Q100 424 100 373L100 273Q100 265 109 265Z"  horiz-adv-x="491" vert-adv-y="1000"  />

      
      <glyph glyph-name="uni0116" unicode="&#x0116;" d="M235 722L235 821Q235 830 243 830L257 830Q265 830 265 821L265 722Q265 713 257 713L243 713Q235 713 235 722M402 0L98 0Q90 0 90 9L90 634Q90 643 98 643L402 643Q411 643 411 635L411 623Q411 615 402 615L129 615Q120 615 120 607L120 350Q120 342 129 342L376 342Q385 342 385 334L385 322Q385 314 376 314L129 314Q120 314 120 306L120 36Q120 28 129 28L402 28Q411 28 411 20L411 8Q411 0 402 0Z"  horiz-adv-x="500" vert-adv-y="1000"  />

      
      <glyph glyph-name="uni0117" unicode="&#x0117;" d="M233 589L233 688Q233 697 241 697L255 697Q263 697 263 688L263 589Q263 580 255 580L241 580Q233 580 233 589M409 0L204 0Q143 0 106.50 37Q70 74 70 136L70 374Q70 436 106.50 473Q143 510 204 510L292 510Q353 510 389.50 473Q426 436 426 374L426 247Q426 237 417 237L109 237Q100 237 100 229L100 137Q100 86 127 57Q154 28 204 28L409 28Q418 28 418 20L418 8Q418 0 409 0M109 265L387 265Q396 265 396 273L396 373Q396 424 369 453Q342 482 292 482L204 482Q154 482 127 453Q100 424 100 373L100 273Q100 265 109 265Z"  horiz-adv-x="491" vert-adv-y="1000"  />

      
      <glyph glyph-name="uni0118" unicode="&#x0118;" d="M402 615L129 615Q120 615 120 607L120 350Q120 342 129 342L376 342Q385 342 385 334L385 322Q385 314 376 314L129 314Q120 314 120 306L120 36Q120 28 129 28L402 28Q411 28 411 20L411 8Q411 0 402 0L348 0L291-74L329-74Q358-74 358-84Q358-101 291-101Q268-101 261.50-90Q255-79 267-66L319 0L98 0Q90 0 90 9L90 634Q90 643 98 643L402 643Q411 643 411 635L411 623Q411 615 402 615Z"  horiz-adv-x="481" vert-adv-y="1000"  />

      
      <glyph glyph-name="uni0119" unicode="&#x0119;" d="M204 510L292 510Q353 510 389.50 473Q426 436 426 374L426 247Q426 237 417 237L109 237Q100 237 100 229L100 137Q100 86 127 57Q154 28 204 28L409 28Q418 28 418 20L418 8Q418 0 409 0L348 0L291-74L329-74Q358-74 358-84Q358-96 334-103Q310-110 289-110Q268-110 261.50-94.50Q255-79 267-66L319 0L204 0Q143 0 106.50 37Q70 74 70 136L70 374Q70 436 106.50 473Q143 510 204 510M396 273L396 373Q396 424 369 453Q342 482 292 482L204 482Q154 482 127 453Q100 424 100 373L100 273Q100 265 109 265L387 265Q396 265 396 273Z"  horiz-adv-x="491" vert-adv-y="1000"  />

      
      <glyph glyph-name="uni011A" unicode="&#x011A;" d="M245 707Q232 707 226 716L162 825Q155 836 166 836L180 836Q188 836 191 831L250 726L309 831Q312 836 320 836L334 836Q345 836 338 825L274 716Q268 707 255 707L245 707M402 0L98 0Q90 0 90 9L90 634Q90 643 98 643L402 643Q411 643 411 635L411 623Q411 615 402 615L129 615Q120 615 120 607L120 350Q120 342 129 342L376 342Q385 342 385 334L385 322Q385 314 376 314L129 314Q120 314 120 306L120 36Q120 28 129 28L402 28Q411 28 411 20L411 8Q411 0 402 0Z"  horiz-adv-x="481" vert-adv-y="1000"  />

      
      <glyph glyph-name="uni011B" unicode="&#x011B;" d="M243 574Q230 574 224 583L160 692Q153 703 164 703L178 703Q186 703 189 698L248 593L307 698Q310 703 318 703L332 703Q343 703 336 692L272 583Q266 574 253 574L243 574M409 0L204 0Q143 0 106.50 37Q70 74 70 136L70 374Q70 436 106.50 473Q143 510 204 510L292 510Q353 510 389.50 473Q426 436 426 374L426 247Q426 237 417 237L109 237Q100 237 100 229L100 137Q100 86 127 57Q154 28 204 28L409 28Q418 28 418 20L418 8Q418 0 409 0M109 265L387 265Q396 265 396 273L396 373Q396 424 369 453Q342 482 292 482L204 482Q154 482 127 453Q100 424 100 373L100 273Q100 265 109 265Z"  horiz-adv-x="491" vert-adv-y="1000"  />

      
      <glyph glyph-name="uni011C" unicode="&#x011C;" d="M353 707L339 707Q330 707 328 712L269 817L210 712Q208 707 199 707L185 707Q174 707 181 718L245 827Q251 836 264 836L274 836Q287 836 293 827L357 718Q364 707 353 707M324 0L214 0Q153 0 116.50 37Q80 74 80 136L80 507Q80 569 116.50 606Q153 643 214 643L324 643Q385 643 421.50 606Q458 569 458 507L458 457Q458 448 450 448L436 448Q428 448 428 457L428 506Q428 557 401 586Q374 615 324 615L214 615Q164 615 137 586Q110 557 110 506L110 137Q110 86 137 57Q164 28 214 28L324 28Q374 28 401 57Q428 86 428 137L428 288Q428 296 419 296L290 296Q281 296 281 304L281 316Q281 324 290 324L440 324Q458 324 458 305L458 136Q458 74 421.50 37Q385 0 324 0Z"  horiz-adv-x="538" vert-adv-y="1000"  />

      
      <glyph glyph-name="uni011D" unicode="&#x011D;" d="M351 574L337 574Q328 574 326 579L267 684L208 579Q206 574 197 574L183 574Q172 574 179 585L243 694Q249 703 262 703L272 703Q285 703 291 694L355 585Q362 574 351 574M283 30L209 30Q148 30 111.50 67Q75 104 75 166L75 374Q75 436 111.50 473Q148 510 209 510L415 510Q423 510 423 501L423 3Q423-59 386.50-96Q350-133 289-133L110-133Q101-133 101-125L101-113Q101-105 110-105L289-105Q339-105 366-76Q393-47 393 4L393 82L389 82Q361 30 283 30M393 162L393 474Q393 482 384 482L209 482Q159 482 132 453Q105 424 105 373L105 167Q105 116 132 87Q159 58 209 58L281 58Q331 58 362 85Q393 112 393 162Z"  horiz-adv-x="503" vert-adv-y="1000"  />

      
      <glyph glyph-name="uni011E" unicode="&#x011E;" d="M174 827Q174 836 182 836L192 836Q200 836 200 827L200 815Q200 768 215 748.50Q230 729 267 729L271 729Q310 729 325.50 748.50Q341 768 341 815L341 826Q341 835 349 835L357 835Q365 835 365 826L365 814Q365 758 342 732.50Q319 707 271 707L267 707Q219 707 196.50 732.50Q174 758 174 814L174 827M324 0L214 0Q153 0 116.50 37Q80 74 80 136L80 507Q80 569 116.50 606Q153 643 214 643L324 643Q385 643 421.50 606Q458 569 458 507L458 457Q458 448 450 448L436 448Q428 448 428 457L428 506Q428 557 401 586Q374 615 324 615L214 615Q164 615 137 586Q110 557 110 506L110 137Q110 86 137 57Q164 28 214 28L324 28Q374 28 401 57Q428 86 428 137L428 288Q428 296 419 296L290 296Q281 296 281 304L281 316Q281 324 290 324L440 324Q458 324 458 305L458 136Q458 74 421.50 37Q385 0 324 0Z"  horiz-adv-x="538" vert-adv-y="1000"  />

      
      <glyph glyph-name="uni011F" unicode="&#x011F;" d="M182 694Q182 703 190 703L200 703Q208 703 208 694L208 682Q208 635 223 615.50Q238 596 275 596L279 596Q318 596 333.50 615.50Q349 635 349 682L349 693Q349 702 357 702L365 702Q373 702 373 693L373 681Q373 625 350 599.50Q327 574 279 574L275 574Q227 574 204.50 599.50Q182 625 182 681L182 694M283 30L209 30Q148 30 111.50 67Q75 104 75 166L75 374Q75 436 111.50 473Q148 510 209 510L415 510Q423 510 423 501L423 3Q423-59 386.50-96Q350-133 289-133L110-133Q101-133 101-125L101-113Q101-105 110-105L289-105Q339-105 366-76Q393-47 393 4L393 82L389 82Q361 30 283 30M393 162L393 474Q393 482 384 482L209 482Q159 482 132 453Q105 424 105 373L105 167Q105 116 132 87Q159 58 209 58L281 58Q331 58 362 85Q393 112 393 162Z"  horiz-adv-x="503" vert-adv-y="1000"  />

      
      <glyph glyph-name="uni0120" unicode="&#x0120;" d="M253 722L253 821Q253 830 261 830L275 830Q283 830 283 821L283 722Q283 713 275 713L261 713Q253 713 253 722M324 0L214 0Q153 0 116.50 37Q80 74 80 136L80 507Q80 569 116.50 606Q153 643 214 643L324 643Q385 643 421.50 606Q458 569 458 507L458 457Q458 448 450 448L436 448Q428 448 428 457L428 506Q428 557 401 586Q374 615 324 615L214 615Q164 615 137 586Q110 557 110 506L110 137Q110 86 137 57Q164 28 214 28L324 28Q374 28 401 57Q428 86 428 137L428 288Q428 296 419 296L290 296Q281 296 281 304L281 316Q281 324 290 324L440 324Q458 324 458 305L458 136Q458 74 421.50 37Q385 0 324 0Z"  horiz-adv-x="538" vert-adv-y="1000"  />

      
      <glyph glyph-name="uni0121" unicode="&#x0121;" d="M260 589L260 688Q260 697 268 697L282 697Q290 697 290 688L290 589Q290 580 282 580L268 580Q260 580 260 589M283 30L209 30Q148 30 111.50 67Q75 104 75 166L75 374Q75 436 111.50 473Q148 510 209 510L415 510Q423 510 423 501L423 3Q423-59 386.50-96Q350-133 289-133L110-133Q101-133 101-125L101-113Q101-105 110-105L289-105Q339-105 366-76Q393-47 393 4L393 82L389 82Q361 30 283 30M393 162L393 474Q393 482 384 482L209 482Q159 482 132 453Q105 424 105 373L105 167Q105 116 132 87Q159 58 209 58L281 58Q331 58 362 85Q393 112 393 162Z"  horiz-adv-x="503" vert-adv-y="1000"  />

      
      </font>
</defs>
</svg>
